%TF.GenerationSoftware,KiCad,Pcbnew,9.0.4*%
%TF.CreationDate,2025-10-15T14:59:06+07:00*%
%TF.ProjectId,mainboard-atmega328P-ver2,6d61696e-626f-4617-9264-2d61746d6567,rev?*%
%TF.SameCoordinates,Original*%
%TF.FileFunction,Soldermask,Bot*%
%TF.FilePolarity,Negative*%
%FSLAX46Y46*%
G04 Gerber Fmt 4.6, Leading zero omitted, Abs format (unit mm)*
G04 Created by KiCad (PCBNEW 9.0.4) date 2025-10-15 14:59:06*
%MOMM*%
%LPD*%
G01*
G04 APERTURE LIST*
G04 APERTURE END LIST*
G36*
X161608315Y-129054093D02*
G01*
X161771742Y-129086601D01*
X161925687Y-129150367D01*
X162064234Y-129242941D01*
X162182059Y-129360766D01*
X162274633Y-129499313D01*
X162338399Y-129653258D01*
X162370907Y-129816685D01*
X162370907Y-129983315D01*
X162338399Y-130146742D01*
X162274633Y-130300687D01*
X162182059Y-130439234D01*
X162064234Y-130557059D01*
X161925687Y-130649633D01*
X161771742Y-130713399D01*
X161608315Y-130745907D01*
X161525000Y-130750000D01*
X161523522Y-130750000D01*
X161276478Y-130750000D01*
X161275000Y-130750000D01*
X161191685Y-130745907D01*
X161028258Y-130713399D01*
X160874313Y-130649633D01*
X160735766Y-130557059D01*
X160617941Y-130439234D01*
X160525367Y-130300687D01*
X160461601Y-130146742D01*
X160429093Y-129983315D01*
X160429093Y-129816685D01*
X160461601Y-129653258D01*
X160525367Y-129499313D01*
X160617941Y-129360766D01*
X160735766Y-129242941D01*
X160874313Y-129150367D01*
X161028258Y-129086601D01*
X161191685Y-129054093D01*
X161275000Y-129050000D01*
X161525000Y-129050000D01*
X161608315Y-129054093D01*
G37*
G36*
X170708315Y-129054093D02*
G01*
X170871742Y-129086601D01*
X171025687Y-129150367D01*
X171164234Y-129242941D01*
X171282059Y-129360766D01*
X171374633Y-129499313D01*
X171438399Y-129653258D01*
X171470907Y-129816685D01*
X171470907Y-129983315D01*
X171438399Y-130146742D01*
X171374633Y-130300687D01*
X171282059Y-130439234D01*
X171164234Y-130557059D01*
X171025687Y-130649633D01*
X170871742Y-130713399D01*
X170708315Y-130745907D01*
X170625000Y-130750000D01*
X170623522Y-130750000D01*
X170376478Y-130750000D01*
X170375000Y-130750000D01*
X170291685Y-130745907D01*
X170128258Y-130713399D01*
X169974313Y-130649633D01*
X169835766Y-130557059D01*
X169717941Y-130439234D01*
X169625367Y-130300687D01*
X169561601Y-130146742D01*
X169529093Y-129983315D01*
X169529093Y-129816685D01*
X169561601Y-129653258D01*
X169625367Y-129499313D01*
X169717941Y-129360766D01*
X169835766Y-129242941D01*
X169974313Y-129150367D01*
X170128258Y-129086601D01*
X170291685Y-129054093D01*
X170375000Y-129050000D01*
X170625000Y-129050000D01*
X170708315Y-129054093D01*
G37*
G36*
X74941408Y-127283626D02*
G01*
X75162519Y-127342872D01*
X75374005Y-127430473D01*
X75572248Y-127544928D01*
X75753855Y-127684280D01*
X75915720Y-127846145D01*
X76055072Y-128027752D01*
X76169527Y-128225995D01*
X76257128Y-128437481D01*
X76316374Y-128658592D01*
X76346253Y-128885545D01*
X76346253Y-129114455D01*
X76316374Y-129341408D01*
X76257128Y-129562519D01*
X76169527Y-129774005D01*
X76055072Y-129972248D01*
X75915720Y-130153855D01*
X75753855Y-130315720D01*
X75572248Y-130455072D01*
X75374005Y-130569527D01*
X75162519Y-130657128D01*
X74941408Y-130716374D01*
X74714455Y-130746253D01*
X74485545Y-130746253D01*
X74258592Y-130716374D01*
X74037481Y-130657128D01*
X73825995Y-130569527D01*
X73627752Y-130455072D01*
X73446145Y-130315720D01*
X73284280Y-130153855D01*
X73144928Y-129972248D01*
X73030473Y-129774005D01*
X72942872Y-129562519D01*
X72883626Y-129341408D01*
X72853747Y-129114455D01*
X72853747Y-128885545D01*
X72883626Y-128658592D01*
X72942872Y-128437481D01*
X73030473Y-128225995D01*
X73144928Y-128027752D01*
X73284280Y-127846145D01*
X73446145Y-127684280D01*
X73627752Y-127544928D01*
X73825995Y-127430473D01*
X74037481Y-127342872D01*
X74258592Y-127283626D01*
X74485545Y-127253747D01*
X74714455Y-127253747D01*
X74941408Y-127283626D01*
G37*
G36*
X206941408Y-127183626D02*
G01*
X207162519Y-127242872D01*
X207374005Y-127330473D01*
X207572248Y-127444928D01*
X207753855Y-127584280D01*
X207915720Y-127746145D01*
X208055072Y-127927752D01*
X208169527Y-128125995D01*
X208257128Y-128337481D01*
X208316374Y-128558592D01*
X208346253Y-128785545D01*
X208346253Y-129014455D01*
X208316374Y-129241408D01*
X208257128Y-129462519D01*
X208169527Y-129674005D01*
X208055072Y-129872248D01*
X207915720Y-130053855D01*
X207753855Y-130215720D01*
X207572248Y-130355072D01*
X207374005Y-130469527D01*
X207162519Y-130557128D01*
X206941408Y-130616374D01*
X206714455Y-130646253D01*
X206485545Y-130646253D01*
X206258592Y-130616374D01*
X206037481Y-130557128D01*
X205825995Y-130469527D01*
X205627752Y-130355072D01*
X205446145Y-130215720D01*
X205284280Y-130053855D01*
X205144928Y-129872248D01*
X205030473Y-129674005D01*
X204942872Y-129462519D01*
X204883626Y-129241408D01*
X204853747Y-129014455D01*
X204853747Y-128785545D01*
X204883626Y-128558592D01*
X204942872Y-128337481D01*
X205030473Y-128125995D01*
X205144928Y-127927752D01*
X205284280Y-127746145D01*
X205446145Y-127584280D01*
X205627752Y-127444928D01*
X205825995Y-127330473D01*
X206037481Y-127242872D01*
X206258592Y-127183626D01*
X206485545Y-127153747D01*
X206714455Y-127153747D01*
X206941408Y-127183626D01*
G37*
G36*
X122804850Y-128025964D02*
G01*
X122855040Y-128031787D01*
X122872189Y-128039359D01*
X122895671Y-128044030D01*
X122920810Y-128060827D01*
X122940696Y-128069608D01*
X122954277Y-128083189D01*
X122976777Y-128098223D01*
X122991810Y-128120722D01*
X123005391Y-128134303D01*
X123014170Y-128154186D01*
X123030970Y-128179329D01*
X123035641Y-128202812D01*
X123043212Y-128219959D01*
X123049033Y-128270139D01*
X123050000Y-128275000D01*
X123050000Y-129725000D01*
X123049032Y-129729863D01*
X123043212Y-129780040D01*
X123035641Y-129797185D01*
X123030970Y-129820671D01*
X123014169Y-129845815D01*
X123005391Y-129865696D01*
X122991812Y-129879274D01*
X122976777Y-129901777D01*
X122954274Y-129916812D01*
X122940696Y-129930391D01*
X122920815Y-129939169D01*
X122895671Y-129955970D01*
X122872185Y-129960641D01*
X122855040Y-129968212D01*
X122804861Y-129974032D01*
X122800000Y-129975000D01*
X121600000Y-129975000D01*
X121595138Y-129974032D01*
X121544959Y-129968212D01*
X121527812Y-129960641D01*
X121504329Y-129955970D01*
X121479186Y-129939170D01*
X121459303Y-129930391D01*
X121445722Y-129916810D01*
X121423223Y-129901777D01*
X121408189Y-129879277D01*
X121394608Y-129865696D01*
X121385827Y-129845810D01*
X121369030Y-129820671D01*
X121364359Y-129797189D01*
X121356787Y-129780040D01*
X121350964Y-129729849D01*
X121350000Y-129725000D01*
X121350000Y-128275000D01*
X121350964Y-128270150D01*
X121356787Y-128219959D01*
X121364359Y-128202808D01*
X121369030Y-128179329D01*
X121385826Y-128154191D01*
X121394608Y-128134303D01*
X121408191Y-128120719D01*
X121423223Y-128098223D01*
X121445719Y-128083191D01*
X121459303Y-128069608D01*
X121479191Y-128060826D01*
X121504329Y-128044030D01*
X121527808Y-128039359D01*
X121544959Y-128031787D01*
X121595151Y-128025964D01*
X121600000Y-128025000D01*
X122800000Y-128025000D01*
X122804850Y-128025964D01*
G37*
G36*
X124946742Y-128061601D02*
G01*
X125100687Y-128125367D01*
X125239234Y-128217941D01*
X125357059Y-128335766D01*
X125449633Y-128474313D01*
X125513399Y-128628258D01*
X125545907Y-128791685D01*
X125550000Y-128875000D01*
X125550000Y-129125000D01*
X125545907Y-129208315D01*
X125513399Y-129371742D01*
X125449633Y-129525687D01*
X125357059Y-129664234D01*
X125239234Y-129782059D01*
X125100687Y-129874633D01*
X124946742Y-129938399D01*
X124783315Y-129970907D01*
X124616685Y-129970907D01*
X124453258Y-129938399D01*
X124299313Y-129874633D01*
X124160766Y-129782059D01*
X124042941Y-129664234D01*
X123950367Y-129525687D01*
X123886601Y-129371742D01*
X123854093Y-129208315D01*
X123850000Y-129125000D01*
X123850000Y-128875000D01*
X123854093Y-128791685D01*
X123886601Y-128628258D01*
X123950367Y-128474313D01*
X124042941Y-128335766D01*
X124160766Y-128217941D01*
X124299313Y-128125367D01*
X124453258Y-128061601D01*
X124616685Y-128029093D01*
X124783315Y-128029093D01*
X124946742Y-128061601D01*
G37*
G36*
X127446742Y-128061601D02*
G01*
X127600687Y-128125367D01*
X127739234Y-128217941D01*
X127857059Y-128335766D01*
X127949633Y-128474313D01*
X128013399Y-128628258D01*
X128045907Y-128791685D01*
X128050000Y-128875000D01*
X128050000Y-129125000D01*
X128045907Y-129208315D01*
X128013399Y-129371742D01*
X127949633Y-129525687D01*
X127857059Y-129664234D01*
X127739234Y-129782059D01*
X127600687Y-129874633D01*
X127446742Y-129938399D01*
X127283315Y-129970907D01*
X127116685Y-129970907D01*
X126953258Y-129938399D01*
X126799313Y-129874633D01*
X126660766Y-129782059D01*
X126542941Y-129664234D01*
X126450367Y-129525687D01*
X126386601Y-129371742D01*
X126354093Y-129208315D01*
X126350000Y-129125000D01*
X126350000Y-128875000D01*
X126354093Y-128791685D01*
X126386601Y-128628258D01*
X126450367Y-128474313D01*
X126542941Y-128335766D01*
X126660766Y-128217941D01*
X126799313Y-128125367D01*
X126953258Y-128061601D01*
X127116685Y-128029093D01*
X127283315Y-128029093D01*
X127446742Y-128061601D01*
G37*
G36*
X129946742Y-128061601D02*
G01*
X130100687Y-128125367D01*
X130239234Y-128217941D01*
X130357059Y-128335766D01*
X130449633Y-128474313D01*
X130513399Y-128628258D01*
X130545907Y-128791685D01*
X130550000Y-128875000D01*
X130550000Y-129125000D01*
X130545907Y-129208315D01*
X130513399Y-129371742D01*
X130449633Y-129525687D01*
X130357059Y-129664234D01*
X130239234Y-129782059D01*
X130100687Y-129874633D01*
X129946742Y-129938399D01*
X129783315Y-129970907D01*
X129616685Y-129970907D01*
X129453258Y-129938399D01*
X129299313Y-129874633D01*
X129160766Y-129782059D01*
X129042941Y-129664234D01*
X128950367Y-129525687D01*
X128886601Y-129371742D01*
X128854093Y-129208315D01*
X128850000Y-129125000D01*
X128850000Y-128875000D01*
X128854093Y-128791685D01*
X128886601Y-128628258D01*
X128950367Y-128474313D01*
X129042941Y-128335766D01*
X129160766Y-128217941D01*
X129299313Y-128125367D01*
X129453258Y-128061601D01*
X129616685Y-128029093D01*
X129783315Y-128029093D01*
X129946742Y-128061601D01*
G37*
G36*
X132446742Y-128061601D02*
G01*
X132600687Y-128125367D01*
X132739234Y-128217941D01*
X132857059Y-128335766D01*
X132949633Y-128474313D01*
X133013399Y-128628258D01*
X133045907Y-128791685D01*
X133050000Y-128875000D01*
X133050000Y-129125000D01*
X133045907Y-129208315D01*
X133013399Y-129371742D01*
X132949633Y-129525687D01*
X132857059Y-129664234D01*
X132739234Y-129782059D01*
X132600687Y-129874633D01*
X132446742Y-129938399D01*
X132283315Y-129970907D01*
X132116685Y-129970907D01*
X131953258Y-129938399D01*
X131799313Y-129874633D01*
X131660766Y-129782059D01*
X131542941Y-129664234D01*
X131450367Y-129525687D01*
X131386601Y-129371742D01*
X131354093Y-129208315D01*
X131350000Y-129125000D01*
X131350000Y-128875000D01*
X131354093Y-128791685D01*
X131386601Y-128628258D01*
X131450367Y-128474313D01*
X131542941Y-128335766D01*
X131660766Y-128217941D01*
X131799313Y-128125367D01*
X131953258Y-128061601D01*
X132116685Y-128029093D01*
X132283315Y-128029093D01*
X132446742Y-128061601D01*
G37*
G36*
X134946742Y-128061601D02*
G01*
X135100687Y-128125367D01*
X135239234Y-128217941D01*
X135357059Y-128335766D01*
X135449633Y-128474313D01*
X135513399Y-128628258D01*
X135545907Y-128791685D01*
X135550000Y-128875000D01*
X135550000Y-129125000D01*
X135545907Y-129208315D01*
X135513399Y-129371742D01*
X135449633Y-129525687D01*
X135357059Y-129664234D01*
X135239234Y-129782059D01*
X135100687Y-129874633D01*
X134946742Y-129938399D01*
X134783315Y-129970907D01*
X134616685Y-129970907D01*
X134453258Y-129938399D01*
X134299313Y-129874633D01*
X134160766Y-129782059D01*
X134042941Y-129664234D01*
X133950367Y-129525687D01*
X133886601Y-129371742D01*
X133854093Y-129208315D01*
X133850000Y-129125000D01*
X133850000Y-128875000D01*
X133854093Y-128791685D01*
X133886601Y-128628258D01*
X133950367Y-128474313D01*
X134042941Y-128335766D01*
X134160766Y-128217941D01*
X134299313Y-128125367D01*
X134453258Y-128061601D01*
X134616685Y-128029093D01*
X134783315Y-128029093D01*
X134946742Y-128061601D01*
G37*
G36*
X137446742Y-128061601D02*
G01*
X137600687Y-128125367D01*
X137739234Y-128217941D01*
X137857059Y-128335766D01*
X137949633Y-128474313D01*
X138013399Y-128628258D01*
X138045907Y-128791685D01*
X138050000Y-128875000D01*
X138050000Y-129125000D01*
X138045907Y-129208315D01*
X138013399Y-129371742D01*
X137949633Y-129525687D01*
X137857059Y-129664234D01*
X137739234Y-129782059D01*
X137600687Y-129874633D01*
X137446742Y-129938399D01*
X137283315Y-129970907D01*
X137116685Y-129970907D01*
X136953258Y-129938399D01*
X136799313Y-129874633D01*
X136660766Y-129782059D01*
X136542941Y-129664234D01*
X136450367Y-129525687D01*
X136386601Y-129371742D01*
X136354093Y-129208315D01*
X136350000Y-129125000D01*
X136350000Y-128875000D01*
X136354093Y-128791685D01*
X136386601Y-128628258D01*
X136450367Y-128474313D01*
X136542941Y-128335766D01*
X136660766Y-128217941D01*
X136799313Y-128125367D01*
X136953258Y-128061601D01*
X137116685Y-128029093D01*
X137283315Y-128029093D01*
X137446742Y-128061601D01*
G37*
G36*
X139946742Y-128061601D02*
G01*
X140100687Y-128125367D01*
X140239234Y-128217941D01*
X140357059Y-128335766D01*
X140449633Y-128474313D01*
X140513399Y-128628258D01*
X140545907Y-128791685D01*
X140550000Y-128875000D01*
X140550000Y-129125000D01*
X140545907Y-129208315D01*
X140513399Y-129371742D01*
X140449633Y-129525687D01*
X140357059Y-129664234D01*
X140239234Y-129782059D01*
X140100687Y-129874633D01*
X139946742Y-129938399D01*
X139783315Y-129970907D01*
X139616685Y-129970907D01*
X139453258Y-129938399D01*
X139299313Y-129874633D01*
X139160766Y-129782059D01*
X139042941Y-129664234D01*
X138950367Y-129525687D01*
X138886601Y-129371742D01*
X138854093Y-129208315D01*
X138850000Y-129125000D01*
X138850000Y-128875000D01*
X138854093Y-128791685D01*
X138886601Y-128628258D01*
X138950367Y-128474313D01*
X139042941Y-128335766D01*
X139160766Y-128217941D01*
X139299313Y-128125367D01*
X139453258Y-128061601D01*
X139616685Y-128029093D01*
X139783315Y-128029093D01*
X139946742Y-128061601D01*
G37*
G36*
X161608315Y-126554093D02*
G01*
X161771742Y-126586601D01*
X161925687Y-126650367D01*
X162064234Y-126742941D01*
X162182059Y-126860766D01*
X162274633Y-126999313D01*
X162338399Y-127153258D01*
X162370907Y-127316685D01*
X162370907Y-127483315D01*
X162338399Y-127646742D01*
X162274633Y-127800687D01*
X162182059Y-127939234D01*
X162064234Y-128057059D01*
X161925687Y-128149633D01*
X161771742Y-128213399D01*
X161608315Y-128245907D01*
X161525000Y-128250000D01*
X161523522Y-128250000D01*
X161276478Y-128250000D01*
X161275000Y-128250000D01*
X161191685Y-128245907D01*
X161028258Y-128213399D01*
X160874313Y-128149633D01*
X160735766Y-128057059D01*
X160617941Y-127939234D01*
X160525367Y-127800687D01*
X160461601Y-127646742D01*
X160429093Y-127483315D01*
X160429093Y-127316685D01*
X160461601Y-127153258D01*
X160525367Y-126999313D01*
X160617941Y-126860766D01*
X160735766Y-126742941D01*
X160874313Y-126650367D01*
X161028258Y-126586601D01*
X161191685Y-126554093D01*
X161275000Y-126550000D01*
X161525000Y-126550000D01*
X161608315Y-126554093D01*
G37*
G36*
X170708315Y-126554093D02*
G01*
X170871742Y-126586601D01*
X171025687Y-126650367D01*
X171164234Y-126742941D01*
X171282059Y-126860766D01*
X171374633Y-126999313D01*
X171438399Y-127153258D01*
X171470907Y-127316685D01*
X171470907Y-127483315D01*
X171438399Y-127646742D01*
X171374633Y-127800687D01*
X171282059Y-127939234D01*
X171164234Y-128057059D01*
X171025687Y-128149633D01*
X170871742Y-128213399D01*
X170708315Y-128245907D01*
X170625000Y-128250000D01*
X170623522Y-128250000D01*
X170376478Y-128250000D01*
X170375000Y-128250000D01*
X170291685Y-128245907D01*
X170128258Y-128213399D01*
X169974313Y-128149633D01*
X169835766Y-128057059D01*
X169717941Y-127939234D01*
X169625367Y-127800687D01*
X169561601Y-127646742D01*
X169529093Y-127483315D01*
X169529093Y-127316685D01*
X169561601Y-127153258D01*
X169625367Y-126999313D01*
X169717941Y-126860766D01*
X169835766Y-126742941D01*
X169974313Y-126650367D01*
X170128258Y-126586601D01*
X170291685Y-126554093D01*
X170375000Y-126550000D01*
X170625000Y-126550000D01*
X170708315Y-126554093D01*
G37*
G36*
X161608315Y-124054093D02*
G01*
X161771742Y-124086601D01*
X161925687Y-124150367D01*
X162064234Y-124242941D01*
X162182059Y-124360766D01*
X162274633Y-124499313D01*
X162338399Y-124653258D01*
X162370907Y-124816685D01*
X162370907Y-124983315D01*
X162338399Y-125146742D01*
X162274633Y-125300687D01*
X162182059Y-125439234D01*
X162064234Y-125557059D01*
X161925687Y-125649633D01*
X161771742Y-125713399D01*
X161608315Y-125745907D01*
X161525000Y-125750000D01*
X161523522Y-125750000D01*
X161276478Y-125750000D01*
X161275000Y-125750000D01*
X161191685Y-125745907D01*
X161028258Y-125713399D01*
X160874313Y-125649633D01*
X160735766Y-125557059D01*
X160617941Y-125439234D01*
X160525367Y-125300687D01*
X160461601Y-125146742D01*
X160429093Y-124983315D01*
X160429093Y-124816685D01*
X160461601Y-124653258D01*
X160525367Y-124499313D01*
X160617941Y-124360766D01*
X160735766Y-124242941D01*
X160874313Y-124150367D01*
X161028258Y-124086601D01*
X161191685Y-124054093D01*
X161275000Y-124050000D01*
X161525000Y-124050000D01*
X161608315Y-124054093D01*
G37*
G36*
X170708315Y-124054093D02*
G01*
X170871742Y-124086601D01*
X171025687Y-124150367D01*
X171164234Y-124242941D01*
X171282059Y-124360766D01*
X171374633Y-124499313D01*
X171438399Y-124653258D01*
X171470907Y-124816685D01*
X171470907Y-124983315D01*
X171438399Y-125146742D01*
X171374633Y-125300687D01*
X171282059Y-125439234D01*
X171164234Y-125557059D01*
X171025687Y-125649633D01*
X170871742Y-125713399D01*
X170708315Y-125745907D01*
X170625000Y-125750000D01*
X170623522Y-125750000D01*
X170376478Y-125750000D01*
X170375000Y-125750000D01*
X170291685Y-125745907D01*
X170128258Y-125713399D01*
X169974313Y-125649633D01*
X169835766Y-125557059D01*
X169717941Y-125439234D01*
X169625367Y-125300687D01*
X169561601Y-125146742D01*
X169529093Y-124983315D01*
X169529093Y-124816685D01*
X169561601Y-124653258D01*
X169625367Y-124499313D01*
X169717941Y-124360766D01*
X169835766Y-124242941D01*
X169974313Y-124150367D01*
X170128258Y-124086601D01*
X170291685Y-124054093D01*
X170375000Y-124050000D01*
X170625000Y-124050000D01*
X170708315Y-124054093D01*
G37*
G36*
X112200000Y-123600000D02*
G01*
X110600000Y-123600000D01*
X110600000Y-122000000D01*
X112200000Y-122000000D01*
X112200000Y-123600000D01*
G37*
G36*
X135840000Y-123600000D02*
G01*
X134240000Y-123600000D01*
X134240000Y-122000000D01*
X135840000Y-122000000D01*
X135840000Y-123600000D01*
G37*
G36*
X114172228Y-122034448D02*
G01*
X114317117Y-122094463D01*
X114447515Y-122181592D01*
X114558408Y-122292485D01*
X114645537Y-122422883D01*
X114705552Y-122567772D01*
X114736148Y-122721586D01*
X114736148Y-122878414D01*
X114705552Y-123032228D01*
X114645537Y-123177117D01*
X114558408Y-123307515D01*
X114447515Y-123418408D01*
X114317117Y-123505537D01*
X114172228Y-123565552D01*
X114018414Y-123596148D01*
X113861586Y-123596148D01*
X113707772Y-123565552D01*
X113562883Y-123505537D01*
X113432485Y-123418408D01*
X113321592Y-123307515D01*
X113234463Y-123177117D01*
X113174448Y-123032228D01*
X113143852Y-122878414D01*
X113143852Y-122721586D01*
X113174448Y-122567772D01*
X113234463Y-122422883D01*
X113321592Y-122292485D01*
X113432485Y-122181592D01*
X113562883Y-122094463D01*
X113707772Y-122034448D01*
X113861586Y-122003852D01*
X114018414Y-122003852D01*
X114172228Y-122034448D01*
G37*
G36*
X116712228Y-122034448D02*
G01*
X116857117Y-122094463D01*
X116987515Y-122181592D01*
X117098408Y-122292485D01*
X117185537Y-122422883D01*
X117245552Y-122567772D01*
X117276148Y-122721586D01*
X117276148Y-122878414D01*
X117245552Y-123032228D01*
X117185537Y-123177117D01*
X117098408Y-123307515D01*
X116987515Y-123418408D01*
X116857117Y-123505537D01*
X116712228Y-123565552D01*
X116558414Y-123596148D01*
X116401586Y-123596148D01*
X116247772Y-123565552D01*
X116102883Y-123505537D01*
X115972485Y-123418408D01*
X115861592Y-123307515D01*
X115774463Y-123177117D01*
X115714448Y-123032228D01*
X115683852Y-122878414D01*
X115683852Y-122721586D01*
X115714448Y-122567772D01*
X115774463Y-122422883D01*
X115861592Y-122292485D01*
X115972485Y-122181592D01*
X116102883Y-122094463D01*
X116247772Y-122034448D01*
X116401586Y-122003852D01*
X116558414Y-122003852D01*
X116712228Y-122034448D01*
G37*
G36*
X119252228Y-122034448D02*
G01*
X119397117Y-122094463D01*
X119527515Y-122181592D01*
X119638408Y-122292485D01*
X119725537Y-122422883D01*
X119785552Y-122567772D01*
X119816148Y-122721586D01*
X119816148Y-122878414D01*
X119785552Y-123032228D01*
X119725537Y-123177117D01*
X119638408Y-123307515D01*
X119527515Y-123418408D01*
X119397117Y-123505537D01*
X119252228Y-123565552D01*
X119098414Y-123596148D01*
X118941586Y-123596148D01*
X118787772Y-123565552D01*
X118642883Y-123505537D01*
X118512485Y-123418408D01*
X118401592Y-123307515D01*
X118314463Y-123177117D01*
X118254448Y-123032228D01*
X118223852Y-122878414D01*
X118223852Y-122721586D01*
X118254448Y-122567772D01*
X118314463Y-122422883D01*
X118401592Y-122292485D01*
X118512485Y-122181592D01*
X118642883Y-122094463D01*
X118787772Y-122034448D01*
X118941586Y-122003852D01*
X119098414Y-122003852D01*
X119252228Y-122034448D01*
G37*
G36*
X121792228Y-122034448D02*
G01*
X121937117Y-122094463D01*
X122067515Y-122181592D01*
X122178408Y-122292485D01*
X122265537Y-122422883D01*
X122325552Y-122567772D01*
X122356148Y-122721586D01*
X122356148Y-122878414D01*
X122325552Y-123032228D01*
X122265537Y-123177117D01*
X122178408Y-123307515D01*
X122067515Y-123418408D01*
X121937117Y-123505537D01*
X121792228Y-123565552D01*
X121638414Y-123596148D01*
X121481586Y-123596148D01*
X121327772Y-123565552D01*
X121182883Y-123505537D01*
X121052485Y-123418408D01*
X120941592Y-123307515D01*
X120854463Y-123177117D01*
X120794448Y-123032228D01*
X120763852Y-122878414D01*
X120763852Y-122721586D01*
X120794448Y-122567772D01*
X120854463Y-122422883D01*
X120941592Y-122292485D01*
X121052485Y-122181592D01*
X121182883Y-122094463D01*
X121327772Y-122034448D01*
X121481586Y-122003852D01*
X121638414Y-122003852D01*
X121792228Y-122034448D01*
G37*
G36*
X124332228Y-122034448D02*
G01*
X124477117Y-122094463D01*
X124607515Y-122181592D01*
X124718408Y-122292485D01*
X124805537Y-122422883D01*
X124865552Y-122567772D01*
X124896148Y-122721586D01*
X124896148Y-122878414D01*
X124865552Y-123032228D01*
X124805537Y-123177117D01*
X124718408Y-123307515D01*
X124607515Y-123418408D01*
X124477117Y-123505537D01*
X124332228Y-123565552D01*
X124178414Y-123596148D01*
X124021586Y-123596148D01*
X123867772Y-123565552D01*
X123722883Y-123505537D01*
X123592485Y-123418408D01*
X123481592Y-123307515D01*
X123394463Y-123177117D01*
X123334448Y-123032228D01*
X123303852Y-122878414D01*
X123303852Y-122721586D01*
X123334448Y-122567772D01*
X123394463Y-122422883D01*
X123481592Y-122292485D01*
X123592485Y-122181592D01*
X123722883Y-122094463D01*
X123867772Y-122034448D01*
X124021586Y-122003852D01*
X124178414Y-122003852D01*
X124332228Y-122034448D01*
G37*
G36*
X137812228Y-122034448D02*
G01*
X137957117Y-122094463D01*
X138087515Y-122181592D01*
X138198408Y-122292485D01*
X138285537Y-122422883D01*
X138345552Y-122567772D01*
X138376148Y-122721586D01*
X138376148Y-122878414D01*
X138345552Y-123032228D01*
X138285537Y-123177117D01*
X138198408Y-123307515D01*
X138087515Y-123418408D01*
X137957117Y-123505537D01*
X137812228Y-123565552D01*
X137658414Y-123596148D01*
X137501586Y-123596148D01*
X137347772Y-123565552D01*
X137202883Y-123505537D01*
X137072485Y-123418408D01*
X136961592Y-123307515D01*
X136874463Y-123177117D01*
X136814448Y-123032228D01*
X136783852Y-122878414D01*
X136783852Y-122721586D01*
X136814448Y-122567772D01*
X136874463Y-122422883D01*
X136961592Y-122292485D01*
X137072485Y-122181592D01*
X137202883Y-122094463D01*
X137347772Y-122034448D01*
X137501586Y-122003852D01*
X137658414Y-122003852D01*
X137812228Y-122034448D01*
G37*
G36*
X140352228Y-122034448D02*
G01*
X140497117Y-122094463D01*
X140627515Y-122181592D01*
X140738408Y-122292485D01*
X140825537Y-122422883D01*
X140885552Y-122567772D01*
X140916148Y-122721586D01*
X140916148Y-122878414D01*
X140885552Y-123032228D01*
X140825537Y-123177117D01*
X140738408Y-123307515D01*
X140627515Y-123418408D01*
X140497117Y-123505537D01*
X140352228Y-123565552D01*
X140198414Y-123596148D01*
X140041586Y-123596148D01*
X139887772Y-123565552D01*
X139742883Y-123505537D01*
X139612485Y-123418408D01*
X139501592Y-123307515D01*
X139414463Y-123177117D01*
X139354448Y-123032228D01*
X139323852Y-122878414D01*
X139323852Y-122721586D01*
X139354448Y-122567772D01*
X139414463Y-122422883D01*
X139501592Y-122292485D01*
X139612485Y-122181592D01*
X139742883Y-122094463D01*
X139887772Y-122034448D01*
X140041586Y-122003852D01*
X140198414Y-122003852D01*
X140352228Y-122034448D01*
G37*
G36*
X142892228Y-122034448D02*
G01*
X143037117Y-122094463D01*
X143167515Y-122181592D01*
X143278408Y-122292485D01*
X143365537Y-122422883D01*
X143425552Y-122567772D01*
X143456148Y-122721586D01*
X143456148Y-122878414D01*
X143425552Y-123032228D01*
X143365537Y-123177117D01*
X143278408Y-123307515D01*
X143167515Y-123418408D01*
X143037117Y-123505537D01*
X142892228Y-123565552D01*
X142738414Y-123596148D01*
X142581586Y-123596148D01*
X142427772Y-123565552D01*
X142282883Y-123505537D01*
X142152485Y-123418408D01*
X142041592Y-123307515D01*
X141954463Y-123177117D01*
X141894448Y-123032228D01*
X141863852Y-122878414D01*
X141863852Y-122721586D01*
X141894448Y-122567772D01*
X141954463Y-122422883D01*
X142041592Y-122292485D01*
X142152485Y-122181592D01*
X142282883Y-122094463D01*
X142427772Y-122034448D01*
X142581586Y-122003852D01*
X142738414Y-122003852D01*
X142892228Y-122034448D01*
G37*
G36*
X145432228Y-122034448D02*
G01*
X145577117Y-122094463D01*
X145707515Y-122181592D01*
X145818408Y-122292485D01*
X145905537Y-122422883D01*
X145965552Y-122567772D01*
X145996148Y-122721586D01*
X145996148Y-122878414D01*
X145965552Y-123032228D01*
X145905537Y-123177117D01*
X145818408Y-123307515D01*
X145707515Y-123418408D01*
X145577117Y-123505537D01*
X145432228Y-123565552D01*
X145278414Y-123596148D01*
X145121586Y-123596148D01*
X144967772Y-123565552D01*
X144822883Y-123505537D01*
X144692485Y-123418408D01*
X144581592Y-123307515D01*
X144494463Y-123177117D01*
X144434448Y-123032228D01*
X144403852Y-122878414D01*
X144403852Y-122721586D01*
X144434448Y-122567772D01*
X144494463Y-122422883D01*
X144581592Y-122292485D01*
X144692485Y-122181592D01*
X144822883Y-122094463D01*
X144967772Y-122034448D01*
X145121586Y-122003852D01*
X145278414Y-122003852D01*
X145432228Y-122034448D01*
G37*
G36*
X147972228Y-122034448D02*
G01*
X148117117Y-122094463D01*
X148247515Y-122181592D01*
X148358408Y-122292485D01*
X148445537Y-122422883D01*
X148505552Y-122567772D01*
X148536148Y-122721586D01*
X148536148Y-122878414D01*
X148505552Y-123032228D01*
X148445537Y-123177117D01*
X148358408Y-123307515D01*
X148247515Y-123418408D01*
X148117117Y-123505537D01*
X147972228Y-123565552D01*
X147818414Y-123596148D01*
X147661586Y-123596148D01*
X147507772Y-123565552D01*
X147362883Y-123505537D01*
X147232485Y-123418408D01*
X147121592Y-123307515D01*
X147034463Y-123177117D01*
X146974448Y-123032228D01*
X146943852Y-122878414D01*
X146943852Y-122721586D01*
X146974448Y-122567772D01*
X147034463Y-122422883D01*
X147121592Y-122292485D01*
X147232485Y-122181592D01*
X147362883Y-122094463D01*
X147507772Y-122034448D01*
X147661586Y-122003852D01*
X147818414Y-122003852D01*
X147972228Y-122034448D01*
G37*
G36*
X161608315Y-121554093D02*
G01*
X161771742Y-121586601D01*
X161925687Y-121650367D01*
X162064234Y-121742941D01*
X162182059Y-121860766D01*
X162274633Y-121999313D01*
X162338399Y-122153258D01*
X162370907Y-122316685D01*
X162370907Y-122483315D01*
X162338399Y-122646742D01*
X162274633Y-122800687D01*
X162182059Y-122939234D01*
X162064234Y-123057059D01*
X161925687Y-123149633D01*
X161771742Y-123213399D01*
X161608315Y-123245907D01*
X161525000Y-123250000D01*
X161523522Y-123250000D01*
X161276478Y-123250000D01*
X161275000Y-123250000D01*
X161191685Y-123245907D01*
X161028258Y-123213399D01*
X160874313Y-123149633D01*
X160735766Y-123057059D01*
X160617941Y-122939234D01*
X160525367Y-122800687D01*
X160461601Y-122646742D01*
X160429093Y-122483315D01*
X160429093Y-122316685D01*
X160461601Y-122153258D01*
X160525367Y-121999313D01*
X160617941Y-121860766D01*
X160735766Y-121742941D01*
X160874313Y-121650367D01*
X161028258Y-121586601D01*
X161191685Y-121554093D01*
X161275000Y-121550000D01*
X161525000Y-121550000D01*
X161608315Y-121554093D01*
G37*
G36*
X170708315Y-121554093D02*
G01*
X170871742Y-121586601D01*
X171025687Y-121650367D01*
X171164234Y-121742941D01*
X171282059Y-121860766D01*
X171374633Y-121999313D01*
X171438399Y-122153258D01*
X171470907Y-122316685D01*
X171470907Y-122483315D01*
X171438399Y-122646742D01*
X171374633Y-122800687D01*
X171282059Y-122939234D01*
X171164234Y-123057059D01*
X171025687Y-123149633D01*
X170871742Y-123213399D01*
X170708315Y-123245907D01*
X170625000Y-123250000D01*
X170623522Y-123250000D01*
X170376478Y-123250000D01*
X170375000Y-123250000D01*
X170291685Y-123245907D01*
X170128258Y-123213399D01*
X169974313Y-123149633D01*
X169835766Y-123057059D01*
X169717941Y-122939234D01*
X169625367Y-122800687D01*
X169561601Y-122646742D01*
X169529093Y-122483315D01*
X169529093Y-122316685D01*
X169561601Y-122153258D01*
X169625367Y-121999313D01*
X169717941Y-121860766D01*
X169835766Y-121742941D01*
X169974313Y-121650367D01*
X170128258Y-121586601D01*
X170291685Y-121554093D01*
X170375000Y-121550000D01*
X170625000Y-121550000D01*
X170708315Y-121554093D01*
G37*
G36*
X161608315Y-119054093D02*
G01*
X161771742Y-119086601D01*
X161925687Y-119150367D01*
X162064234Y-119242941D01*
X162182059Y-119360766D01*
X162274633Y-119499313D01*
X162338399Y-119653258D01*
X162370907Y-119816685D01*
X162370907Y-119983315D01*
X162338399Y-120146742D01*
X162274633Y-120300687D01*
X162182059Y-120439234D01*
X162064234Y-120557059D01*
X161925687Y-120649633D01*
X161771742Y-120713399D01*
X161608315Y-120745907D01*
X161525000Y-120750000D01*
X161523522Y-120750000D01*
X161276478Y-120750000D01*
X161275000Y-120750000D01*
X161191685Y-120745907D01*
X161028258Y-120713399D01*
X160874313Y-120649633D01*
X160735766Y-120557059D01*
X160617941Y-120439234D01*
X160525367Y-120300687D01*
X160461601Y-120146742D01*
X160429093Y-119983315D01*
X160429093Y-119816685D01*
X160461601Y-119653258D01*
X160525367Y-119499313D01*
X160617941Y-119360766D01*
X160735766Y-119242941D01*
X160874313Y-119150367D01*
X161028258Y-119086601D01*
X161191685Y-119054093D01*
X161275000Y-119050000D01*
X161525000Y-119050000D01*
X161608315Y-119054093D01*
G37*
G36*
X170708315Y-119054093D02*
G01*
X170871742Y-119086601D01*
X171025687Y-119150367D01*
X171164234Y-119242941D01*
X171282059Y-119360766D01*
X171374633Y-119499313D01*
X171438399Y-119653258D01*
X171470907Y-119816685D01*
X171470907Y-119983315D01*
X171438399Y-120146742D01*
X171374633Y-120300687D01*
X171282059Y-120439234D01*
X171164234Y-120557059D01*
X171025687Y-120649633D01*
X170871742Y-120713399D01*
X170708315Y-120745907D01*
X170625000Y-120750000D01*
X170623522Y-120750000D01*
X170376478Y-120750000D01*
X170375000Y-120750000D01*
X170291685Y-120745907D01*
X170128258Y-120713399D01*
X169974313Y-120649633D01*
X169835766Y-120557059D01*
X169717941Y-120439234D01*
X169625367Y-120300687D01*
X169561601Y-120146742D01*
X169529093Y-119983315D01*
X169529093Y-119816685D01*
X169561601Y-119653258D01*
X169625367Y-119499313D01*
X169717941Y-119360766D01*
X169835766Y-119242941D01*
X169974313Y-119150367D01*
X170128258Y-119086601D01*
X170291685Y-119054093D01*
X170375000Y-119050000D01*
X170625000Y-119050000D01*
X170708315Y-119054093D01*
G37*
G36*
X111633526Y-117279491D02*
G01*
X111765909Y-117314963D01*
X111884600Y-117383489D01*
X111981511Y-117480400D01*
X112050037Y-117599091D01*
X112085509Y-117731474D01*
X112085509Y-117868526D01*
X112050037Y-118000909D01*
X111981511Y-118119600D01*
X111884600Y-118216511D01*
X111765909Y-118285037D01*
X111633526Y-118320509D01*
X111565000Y-118325000D01*
X111563029Y-118325000D01*
X111116971Y-118325000D01*
X111115000Y-118325000D01*
X111046474Y-118320509D01*
X110914091Y-118285037D01*
X110795400Y-118216511D01*
X110698489Y-118119600D01*
X110629963Y-118000909D01*
X110594491Y-117868526D01*
X110594491Y-117731474D01*
X110629963Y-117599091D01*
X110698489Y-117480400D01*
X110795400Y-117383489D01*
X110914091Y-117314963D01*
X111046474Y-117279491D01*
X111115000Y-117275000D01*
X111565000Y-117275000D01*
X111633526Y-117279491D01*
G37*
G36*
X120798526Y-117279491D02*
G01*
X120930909Y-117314963D01*
X121049600Y-117383489D01*
X121146511Y-117480400D01*
X121215037Y-117599091D01*
X121250509Y-117731474D01*
X121250509Y-117868526D01*
X121215037Y-118000909D01*
X121146511Y-118119600D01*
X121049600Y-118216511D01*
X120930909Y-118285037D01*
X120798526Y-118320509D01*
X120730000Y-118325000D01*
X120728029Y-118325000D01*
X120281971Y-118325000D01*
X120280000Y-118325000D01*
X120211474Y-118320509D01*
X120079091Y-118285037D01*
X119960400Y-118216511D01*
X119863489Y-118119600D01*
X119794963Y-118000909D01*
X119759491Y-117868526D01*
X119759491Y-117731474D01*
X119794963Y-117599091D01*
X119863489Y-117480400D01*
X119960400Y-117383489D01*
X120079091Y-117314963D01*
X120211474Y-117279491D01*
X120280000Y-117275000D01*
X120730000Y-117275000D01*
X120798526Y-117279491D01*
G37*
G36*
X129963526Y-117279491D02*
G01*
X130095909Y-117314963D01*
X130214600Y-117383489D01*
X130311511Y-117480400D01*
X130380037Y-117599091D01*
X130415509Y-117731474D01*
X130415509Y-117868526D01*
X130380037Y-118000909D01*
X130311511Y-118119600D01*
X130214600Y-118216511D01*
X130095909Y-118285037D01*
X129963526Y-118320509D01*
X129895000Y-118325000D01*
X129893029Y-118325000D01*
X129446971Y-118325000D01*
X129445000Y-118325000D01*
X129376474Y-118320509D01*
X129244091Y-118285037D01*
X129125400Y-118216511D01*
X129028489Y-118119600D01*
X128959963Y-118000909D01*
X128924491Y-117868526D01*
X128924491Y-117731474D01*
X128959963Y-117599091D01*
X129028489Y-117480400D01*
X129125400Y-117383489D01*
X129244091Y-117314963D01*
X129376474Y-117279491D01*
X129445000Y-117275000D01*
X129895000Y-117275000D01*
X129963526Y-117279491D01*
G37*
G36*
X139128526Y-117279491D02*
G01*
X139260909Y-117314963D01*
X139379600Y-117383489D01*
X139476511Y-117480400D01*
X139545037Y-117599091D01*
X139580509Y-117731474D01*
X139580509Y-117868526D01*
X139545037Y-118000909D01*
X139476511Y-118119600D01*
X139379600Y-118216511D01*
X139260909Y-118285037D01*
X139128526Y-118320509D01*
X139060000Y-118325000D01*
X139058029Y-118325000D01*
X138611971Y-118325000D01*
X138610000Y-118325000D01*
X138541474Y-118320509D01*
X138409091Y-118285037D01*
X138290400Y-118216511D01*
X138193489Y-118119600D01*
X138124963Y-118000909D01*
X138089491Y-117868526D01*
X138089491Y-117731474D01*
X138124963Y-117599091D01*
X138193489Y-117480400D01*
X138290400Y-117383489D01*
X138409091Y-117314963D01*
X138541474Y-117279491D01*
X138610000Y-117275000D01*
X139060000Y-117275000D01*
X139128526Y-117279491D01*
G37*
G36*
X148293526Y-117279491D02*
G01*
X148425909Y-117314963D01*
X148544600Y-117383489D01*
X148641511Y-117480400D01*
X148710037Y-117599091D01*
X148745509Y-117731474D01*
X148745509Y-117868526D01*
X148710037Y-118000909D01*
X148641511Y-118119600D01*
X148544600Y-118216511D01*
X148425909Y-118285037D01*
X148293526Y-118320509D01*
X148225000Y-118325000D01*
X148223029Y-118325000D01*
X147776971Y-118325000D01*
X147775000Y-118325000D01*
X147706474Y-118320509D01*
X147574091Y-118285037D01*
X147455400Y-118216511D01*
X147358489Y-118119600D01*
X147289963Y-118000909D01*
X147254491Y-117868526D01*
X147254491Y-117731474D01*
X147289963Y-117599091D01*
X147358489Y-117480400D01*
X147455400Y-117383489D01*
X147574091Y-117314963D01*
X147706474Y-117279491D01*
X147775000Y-117275000D01*
X148225000Y-117275000D01*
X148293526Y-117279491D01*
G37*
G36*
X162129850Y-116550964D02*
G01*
X162180040Y-116556787D01*
X162197189Y-116564359D01*
X162220671Y-116569030D01*
X162245810Y-116585827D01*
X162265696Y-116594608D01*
X162279277Y-116608189D01*
X162301777Y-116623223D01*
X162316810Y-116645722D01*
X162330391Y-116659303D01*
X162339170Y-116679186D01*
X162355970Y-116704329D01*
X162360641Y-116727812D01*
X162368212Y-116744959D01*
X162374033Y-116795139D01*
X162375000Y-116800000D01*
X162375000Y-118000000D01*
X162374032Y-118004863D01*
X162368212Y-118055040D01*
X162360641Y-118072185D01*
X162355970Y-118095671D01*
X162339169Y-118120815D01*
X162330391Y-118140696D01*
X162316812Y-118154274D01*
X162301777Y-118176777D01*
X162279274Y-118191812D01*
X162265696Y-118205391D01*
X162245815Y-118214169D01*
X162220671Y-118230970D01*
X162197185Y-118235641D01*
X162180040Y-118243212D01*
X162129861Y-118249032D01*
X162125000Y-118250000D01*
X160675000Y-118250000D01*
X160670138Y-118249032D01*
X160619959Y-118243212D01*
X160602812Y-118235641D01*
X160579329Y-118230970D01*
X160554186Y-118214170D01*
X160534303Y-118205391D01*
X160520722Y-118191810D01*
X160498223Y-118176777D01*
X160483189Y-118154277D01*
X160469608Y-118140696D01*
X160460827Y-118120810D01*
X160444030Y-118095671D01*
X160439359Y-118072189D01*
X160431787Y-118055040D01*
X160425964Y-118004849D01*
X160425000Y-118000000D01*
X160425000Y-116800000D01*
X160425964Y-116795150D01*
X160431787Y-116744959D01*
X160439359Y-116727808D01*
X160444030Y-116704329D01*
X160460826Y-116679191D01*
X160469608Y-116659303D01*
X160483191Y-116645719D01*
X160498223Y-116623223D01*
X160520719Y-116608191D01*
X160534303Y-116594608D01*
X160554191Y-116585826D01*
X160579329Y-116569030D01*
X160602808Y-116564359D01*
X160619959Y-116556787D01*
X160670151Y-116550964D01*
X160675000Y-116550000D01*
X162125000Y-116550000D01*
X162129850Y-116550964D01*
G37*
G36*
X171229850Y-116550964D02*
G01*
X171280040Y-116556787D01*
X171297189Y-116564359D01*
X171320671Y-116569030D01*
X171345810Y-116585827D01*
X171365696Y-116594608D01*
X171379277Y-116608189D01*
X171401777Y-116623223D01*
X171416810Y-116645722D01*
X171430391Y-116659303D01*
X171439170Y-116679186D01*
X171455970Y-116704329D01*
X171460641Y-116727812D01*
X171468212Y-116744959D01*
X171474033Y-116795139D01*
X171475000Y-116800000D01*
X171475000Y-118000000D01*
X171474032Y-118004863D01*
X171468212Y-118055040D01*
X171460641Y-118072185D01*
X171455970Y-118095671D01*
X171439169Y-118120815D01*
X171430391Y-118140696D01*
X171416812Y-118154274D01*
X171401777Y-118176777D01*
X171379274Y-118191812D01*
X171365696Y-118205391D01*
X171345815Y-118214169D01*
X171320671Y-118230970D01*
X171297185Y-118235641D01*
X171280040Y-118243212D01*
X171229861Y-118249032D01*
X171225000Y-118250000D01*
X169775000Y-118250000D01*
X169770138Y-118249032D01*
X169719959Y-118243212D01*
X169702812Y-118235641D01*
X169679329Y-118230970D01*
X169654186Y-118214170D01*
X169634303Y-118205391D01*
X169620722Y-118191810D01*
X169598223Y-118176777D01*
X169583189Y-118154277D01*
X169569608Y-118140696D01*
X169560827Y-118120810D01*
X169544030Y-118095671D01*
X169539359Y-118072189D01*
X169531787Y-118055040D01*
X169525964Y-118004849D01*
X169525000Y-118000000D01*
X169525000Y-116800000D01*
X169525964Y-116795150D01*
X169531787Y-116744959D01*
X169539359Y-116727808D01*
X169544030Y-116704329D01*
X169560826Y-116679191D01*
X169569608Y-116659303D01*
X169583191Y-116645719D01*
X169598223Y-116623223D01*
X169620719Y-116608191D01*
X169634303Y-116594608D01*
X169654191Y-116585826D01*
X169679329Y-116569030D01*
X169702808Y-116564359D01*
X169719959Y-116556787D01*
X169770151Y-116550964D01*
X169775000Y-116550000D01*
X171225000Y-116550000D01*
X171229850Y-116550964D01*
G37*
G36*
X111633526Y-116009491D02*
G01*
X111765909Y-116044963D01*
X111884600Y-116113489D01*
X111981511Y-116210400D01*
X112050037Y-116329091D01*
X112085509Y-116461474D01*
X112085509Y-116598526D01*
X112050037Y-116730909D01*
X111981511Y-116849600D01*
X111884600Y-116946511D01*
X111765909Y-117015037D01*
X111633526Y-117050509D01*
X111565000Y-117055000D01*
X111563029Y-117055000D01*
X111116971Y-117055000D01*
X111115000Y-117055000D01*
X111046474Y-117050509D01*
X110914091Y-117015037D01*
X110795400Y-116946511D01*
X110698489Y-116849600D01*
X110629963Y-116730909D01*
X110594491Y-116598526D01*
X110594491Y-116461474D01*
X110629963Y-116329091D01*
X110698489Y-116210400D01*
X110795400Y-116113489D01*
X110914091Y-116044963D01*
X111046474Y-116009491D01*
X111115000Y-116005000D01*
X111565000Y-116005000D01*
X111633526Y-116009491D01*
G37*
G36*
X120798526Y-116009491D02*
G01*
X120930909Y-116044963D01*
X121049600Y-116113489D01*
X121146511Y-116210400D01*
X121215037Y-116329091D01*
X121250509Y-116461474D01*
X121250509Y-116598526D01*
X121215037Y-116730909D01*
X121146511Y-116849600D01*
X121049600Y-116946511D01*
X120930909Y-117015037D01*
X120798526Y-117050509D01*
X120730000Y-117055000D01*
X120728029Y-117055000D01*
X120281971Y-117055000D01*
X120280000Y-117055000D01*
X120211474Y-117050509D01*
X120079091Y-117015037D01*
X119960400Y-116946511D01*
X119863489Y-116849600D01*
X119794963Y-116730909D01*
X119759491Y-116598526D01*
X119759491Y-116461474D01*
X119794963Y-116329091D01*
X119863489Y-116210400D01*
X119960400Y-116113489D01*
X120079091Y-116044963D01*
X120211474Y-116009491D01*
X120280000Y-116005000D01*
X120730000Y-116005000D01*
X120798526Y-116009491D01*
G37*
G36*
X129963526Y-116009491D02*
G01*
X130095909Y-116044963D01*
X130214600Y-116113489D01*
X130311511Y-116210400D01*
X130380037Y-116329091D01*
X130415509Y-116461474D01*
X130415509Y-116598526D01*
X130380037Y-116730909D01*
X130311511Y-116849600D01*
X130214600Y-116946511D01*
X130095909Y-117015037D01*
X129963526Y-117050509D01*
X129895000Y-117055000D01*
X129893029Y-117055000D01*
X129446971Y-117055000D01*
X129445000Y-117055000D01*
X129376474Y-117050509D01*
X129244091Y-117015037D01*
X129125400Y-116946511D01*
X129028489Y-116849600D01*
X128959963Y-116730909D01*
X128924491Y-116598526D01*
X128924491Y-116461474D01*
X128959963Y-116329091D01*
X129028489Y-116210400D01*
X129125400Y-116113489D01*
X129244091Y-116044963D01*
X129376474Y-116009491D01*
X129445000Y-116005000D01*
X129895000Y-116005000D01*
X129963526Y-116009491D01*
G37*
G36*
X139128526Y-116009491D02*
G01*
X139260909Y-116044963D01*
X139379600Y-116113489D01*
X139476511Y-116210400D01*
X139545037Y-116329091D01*
X139580509Y-116461474D01*
X139580509Y-116598526D01*
X139545037Y-116730909D01*
X139476511Y-116849600D01*
X139379600Y-116946511D01*
X139260909Y-117015037D01*
X139128526Y-117050509D01*
X139060000Y-117055000D01*
X139058029Y-117055000D01*
X138611971Y-117055000D01*
X138610000Y-117055000D01*
X138541474Y-117050509D01*
X138409091Y-117015037D01*
X138290400Y-116946511D01*
X138193489Y-116849600D01*
X138124963Y-116730909D01*
X138089491Y-116598526D01*
X138089491Y-116461474D01*
X138124963Y-116329091D01*
X138193489Y-116210400D01*
X138290400Y-116113489D01*
X138409091Y-116044963D01*
X138541474Y-116009491D01*
X138610000Y-116005000D01*
X139060000Y-116005000D01*
X139128526Y-116009491D01*
G37*
G36*
X148293526Y-116009491D02*
G01*
X148425909Y-116044963D01*
X148544600Y-116113489D01*
X148641511Y-116210400D01*
X148710037Y-116329091D01*
X148745509Y-116461474D01*
X148745509Y-116598526D01*
X148710037Y-116730909D01*
X148641511Y-116849600D01*
X148544600Y-116946511D01*
X148425909Y-117015037D01*
X148293526Y-117050509D01*
X148225000Y-117055000D01*
X148223029Y-117055000D01*
X147776971Y-117055000D01*
X147775000Y-117055000D01*
X147706474Y-117050509D01*
X147574091Y-117015037D01*
X147455400Y-116946511D01*
X147358489Y-116849600D01*
X147289963Y-116730909D01*
X147254491Y-116598526D01*
X147254491Y-116461474D01*
X147289963Y-116329091D01*
X147358489Y-116210400D01*
X147455400Y-116113489D01*
X147574091Y-116044963D01*
X147706474Y-116009491D01*
X147775000Y-116005000D01*
X148225000Y-116005000D01*
X148293526Y-116009491D01*
G37*
G36*
X76308315Y-114116593D02*
G01*
X76471742Y-114149101D01*
X76625687Y-114212867D01*
X76764234Y-114305441D01*
X76882059Y-114423266D01*
X76974633Y-114561813D01*
X77038399Y-114715758D01*
X77070907Y-114879185D01*
X77070907Y-115045815D01*
X77038399Y-115209242D01*
X76974633Y-115363187D01*
X76882059Y-115501734D01*
X76764234Y-115619559D01*
X76625687Y-115712133D01*
X76471742Y-115775899D01*
X76308315Y-115808407D01*
X76225000Y-115812500D01*
X76223522Y-115812500D01*
X75976478Y-115812500D01*
X75975000Y-115812500D01*
X75891685Y-115808407D01*
X75728258Y-115775899D01*
X75574313Y-115712133D01*
X75435766Y-115619559D01*
X75317941Y-115501734D01*
X75225367Y-115363187D01*
X75161601Y-115209242D01*
X75129093Y-115045815D01*
X75129093Y-114879185D01*
X75161601Y-114715758D01*
X75225367Y-114561813D01*
X75317941Y-114423266D01*
X75435766Y-114305441D01*
X75574313Y-114212867D01*
X75728258Y-114149101D01*
X75891685Y-114116593D01*
X75975000Y-114112500D01*
X76225000Y-114112500D01*
X76308315Y-114116593D01*
G37*
G36*
X112090000Y-115785000D02*
G01*
X110590000Y-115785000D01*
X110590000Y-114735000D01*
X112090000Y-114735000D01*
X112090000Y-115785000D01*
G37*
G36*
X121255000Y-115785000D02*
G01*
X119755000Y-115785000D01*
X119755000Y-114735000D01*
X121255000Y-114735000D01*
X121255000Y-115785000D01*
G37*
G36*
X130420000Y-115785000D02*
G01*
X128920000Y-115785000D01*
X128920000Y-114735000D01*
X130420000Y-114735000D01*
X130420000Y-115785000D01*
G37*
G36*
X139585000Y-115785000D02*
G01*
X138085000Y-115785000D01*
X138085000Y-114735000D01*
X139585000Y-114735000D01*
X139585000Y-115785000D01*
G37*
G36*
X148750000Y-115785000D02*
G01*
X147250000Y-115785000D01*
X147250000Y-114735000D01*
X148750000Y-114735000D01*
X148750000Y-115785000D01*
G37*
G36*
X83363199Y-112130142D02*
G01*
X83489978Y-112182655D01*
X83604075Y-112258893D01*
X83701107Y-112355925D01*
X83777345Y-112470022D01*
X83829858Y-112596801D01*
X83856629Y-112731388D01*
X83856629Y-112868612D01*
X83829858Y-113003199D01*
X83777345Y-113129978D01*
X83701107Y-113244075D01*
X83604075Y-113341107D01*
X83489978Y-113417345D01*
X83363199Y-113469858D01*
X83228612Y-113496629D01*
X83091388Y-113496629D01*
X82956801Y-113469858D01*
X82830022Y-113417345D01*
X82715925Y-113341107D01*
X82618893Y-113244075D01*
X82542655Y-113129978D01*
X82490142Y-113003199D01*
X82463371Y-112868612D01*
X82463371Y-112731388D01*
X82490142Y-112596801D01*
X82542655Y-112470022D01*
X82618893Y-112355925D01*
X82715925Y-112258893D01*
X82830022Y-112182655D01*
X82956801Y-112130142D01*
X83091388Y-112103371D01*
X83228612Y-112103371D01*
X83363199Y-112130142D01*
G37*
G36*
X88443199Y-112130142D02*
G01*
X88569978Y-112182655D01*
X88684075Y-112258893D01*
X88781107Y-112355925D01*
X88857345Y-112470022D01*
X88909858Y-112596801D01*
X88936629Y-112731388D01*
X88936629Y-112868612D01*
X88909858Y-113003199D01*
X88857345Y-113129978D01*
X88781107Y-113244075D01*
X88684075Y-113341107D01*
X88569978Y-113417345D01*
X88443199Y-113469858D01*
X88308612Y-113496629D01*
X88171388Y-113496629D01*
X88036801Y-113469858D01*
X87910022Y-113417345D01*
X87795925Y-113341107D01*
X87698893Y-113244075D01*
X87622655Y-113129978D01*
X87570142Y-113003199D01*
X87543371Y-112868612D01*
X87543371Y-112731388D01*
X87570142Y-112596801D01*
X87622655Y-112470022D01*
X87698893Y-112355925D01*
X87795925Y-112258893D01*
X87910022Y-112182655D01*
X88036801Y-112130142D01*
X88171388Y-112103371D01*
X88308612Y-112103371D01*
X88443199Y-112130142D01*
G37*
G36*
X76308315Y-111616593D02*
G01*
X76471742Y-111649101D01*
X76625687Y-111712867D01*
X76764234Y-111805441D01*
X76882059Y-111923266D01*
X76974633Y-112061813D01*
X77038399Y-112215758D01*
X77070907Y-112379185D01*
X77070907Y-112545815D01*
X77038399Y-112709242D01*
X76974633Y-112863187D01*
X76882059Y-113001734D01*
X76764234Y-113119559D01*
X76625687Y-113212133D01*
X76471742Y-113275899D01*
X76308315Y-113308407D01*
X76225000Y-113312500D01*
X76223522Y-113312500D01*
X75976478Y-113312500D01*
X75975000Y-113312500D01*
X75891685Y-113308407D01*
X75728258Y-113275899D01*
X75574313Y-113212133D01*
X75435766Y-113119559D01*
X75317941Y-113001734D01*
X75225367Y-112863187D01*
X75161601Y-112709242D01*
X75129093Y-112545815D01*
X75129093Y-112379185D01*
X75161601Y-112215758D01*
X75225367Y-112061813D01*
X75317941Y-111923266D01*
X75435766Y-111805441D01*
X75574313Y-111712867D01*
X75728258Y-111649101D01*
X75891685Y-111616593D01*
X75975000Y-111612500D01*
X76225000Y-111612500D01*
X76308315Y-111616593D01*
G37*
G36*
X76308315Y-109116593D02*
G01*
X76471742Y-109149101D01*
X76625687Y-109212867D01*
X76764234Y-109305441D01*
X76882059Y-109423266D01*
X76974633Y-109561813D01*
X77038399Y-109715758D01*
X77070907Y-109879185D01*
X77070907Y-110045815D01*
X77038399Y-110209242D01*
X76974633Y-110363187D01*
X76882059Y-110501734D01*
X76764234Y-110619559D01*
X76625687Y-110712133D01*
X76471742Y-110775899D01*
X76308315Y-110808407D01*
X76225000Y-110812500D01*
X76223522Y-110812500D01*
X75976478Y-110812500D01*
X75975000Y-110812500D01*
X75891685Y-110808407D01*
X75728258Y-110775899D01*
X75574313Y-110712133D01*
X75435766Y-110619559D01*
X75317941Y-110501734D01*
X75225367Y-110363187D01*
X75161601Y-110209242D01*
X75129093Y-110045815D01*
X75129093Y-109879185D01*
X75161601Y-109715758D01*
X75225367Y-109561813D01*
X75317941Y-109423266D01*
X75435766Y-109305441D01*
X75574313Y-109212867D01*
X75728258Y-109149101D01*
X75891685Y-109116593D01*
X75975000Y-109112500D01*
X76225000Y-109112500D01*
X76308315Y-109116593D01*
G37*
G36*
X162032228Y-109174448D02*
G01*
X162177117Y-109234463D01*
X162307515Y-109321592D01*
X162418408Y-109432485D01*
X162505537Y-109562883D01*
X162565552Y-109707772D01*
X162596148Y-109861586D01*
X162596148Y-110018414D01*
X162565552Y-110172228D01*
X162505537Y-110317117D01*
X162418408Y-110447515D01*
X162307515Y-110558408D01*
X162177117Y-110645537D01*
X162032228Y-110705552D01*
X161878414Y-110736148D01*
X161721586Y-110736148D01*
X161567772Y-110705552D01*
X161422883Y-110645537D01*
X161292485Y-110558408D01*
X161181592Y-110447515D01*
X161094463Y-110317117D01*
X161034448Y-110172228D01*
X161003852Y-110018414D01*
X161003852Y-109861586D01*
X161034448Y-109707772D01*
X161094463Y-109562883D01*
X161181592Y-109432485D01*
X161292485Y-109321592D01*
X161422883Y-109234463D01*
X161567772Y-109174448D01*
X161721586Y-109143852D01*
X161878414Y-109143852D01*
X162032228Y-109174448D01*
G37*
G36*
X169652228Y-109174448D02*
G01*
X169797117Y-109234463D01*
X169927515Y-109321592D01*
X170038408Y-109432485D01*
X170125537Y-109562883D01*
X170185552Y-109707772D01*
X170216148Y-109861586D01*
X170216148Y-110018414D01*
X170185552Y-110172228D01*
X170125537Y-110317117D01*
X170038408Y-110447515D01*
X169927515Y-110558408D01*
X169797117Y-110645537D01*
X169652228Y-110705552D01*
X169498414Y-110736148D01*
X169341586Y-110736148D01*
X169187772Y-110705552D01*
X169042883Y-110645537D01*
X168912485Y-110558408D01*
X168801592Y-110447515D01*
X168714463Y-110317117D01*
X168654448Y-110172228D01*
X168623852Y-110018414D01*
X168623852Y-109861586D01*
X168654448Y-109707772D01*
X168714463Y-109562883D01*
X168801592Y-109432485D01*
X168912485Y-109321592D01*
X169042883Y-109234463D01*
X169187772Y-109174448D01*
X169341586Y-109143852D01*
X169498414Y-109143852D01*
X169652228Y-109174448D01*
G37*
G36*
X129362228Y-109094448D02*
G01*
X129507117Y-109154463D01*
X129637515Y-109241592D01*
X129748408Y-109352485D01*
X129835537Y-109482883D01*
X129895552Y-109627772D01*
X129926148Y-109781586D01*
X129926148Y-109938414D01*
X129895552Y-110092228D01*
X129835537Y-110237117D01*
X129748408Y-110367515D01*
X129637515Y-110478408D01*
X129507117Y-110565537D01*
X129362228Y-110625552D01*
X129208414Y-110656148D01*
X129051586Y-110656148D01*
X128897772Y-110625552D01*
X128752883Y-110565537D01*
X128622485Y-110478408D01*
X128511592Y-110367515D01*
X128424463Y-110237117D01*
X128364448Y-110092228D01*
X128333852Y-109938414D01*
X128333852Y-109781586D01*
X128364448Y-109627772D01*
X128424463Y-109482883D01*
X128511592Y-109352485D01*
X128622485Y-109241592D01*
X128752883Y-109154463D01*
X128897772Y-109094448D01*
X129051586Y-109063852D01*
X129208414Y-109063852D01*
X129362228Y-109094448D01*
G37*
G36*
X136982228Y-109094448D02*
G01*
X137127117Y-109154463D01*
X137257515Y-109241592D01*
X137368408Y-109352485D01*
X137455537Y-109482883D01*
X137515552Y-109627772D01*
X137546148Y-109781586D01*
X137546148Y-109938414D01*
X137515552Y-110092228D01*
X137455537Y-110237117D01*
X137368408Y-110367515D01*
X137257515Y-110478408D01*
X137127117Y-110565537D01*
X136982228Y-110625552D01*
X136828414Y-110656148D01*
X136671586Y-110656148D01*
X136517772Y-110625552D01*
X136372883Y-110565537D01*
X136242485Y-110478408D01*
X136131592Y-110367515D01*
X136044463Y-110237117D01*
X135984448Y-110092228D01*
X135953852Y-109938414D01*
X135953852Y-109781586D01*
X135984448Y-109627772D01*
X136044463Y-109482883D01*
X136131592Y-109352485D01*
X136242485Y-109241592D01*
X136372883Y-109154463D01*
X136517772Y-109094448D01*
X136671586Y-109063852D01*
X136828414Y-109063852D01*
X136982228Y-109094448D01*
G37*
G36*
X83203199Y-107930142D02*
G01*
X83329978Y-107982655D01*
X83444075Y-108058893D01*
X83541107Y-108155925D01*
X83617345Y-108270022D01*
X83669858Y-108396801D01*
X83696629Y-108531388D01*
X83696629Y-108668612D01*
X83669858Y-108803199D01*
X83617345Y-108929978D01*
X83541107Y-109044075D01*
X83444075Y-109141107D01*
X83329978Y-109217345D01*
X83203199Y-109269858D01*
X83068612Y-109296629D01*
X82931388Y-109296629D01*
X82796801Y-109269858D01*
X82670022Y-109217345D01*
X82555925Y-109141107D01*
X82458893Y-109044075D01*
X82382655Y-108929978D01*
X82330142Y-108803199D01*
X82303371Y-108668612D01*
X82303371Y-108531388D01*
X82330142Y-108396801D01*
X82382655Y-108270022D01*
X82458893Y-108155925D01*
X82555925Y-108058893D01*
X82670022Y-107982655D01*
X82796801Y-107930142D01*
X82931388Y-107903371D01*
X83068612Y-107903371D01*
X83203199Y-107930142D01*
G37*
G36*
X88283199Y-107930142D02*
G01*
X88409978Y-107982655D01*
X88524075Y-108058893D01*
X88621107Y-108155925D01*
X88697345Y-108270022D01*
X88749858Y-108396801D01*
X88776629Y-108531388D01*
X88776629Y-108668612D01*
X88749858Y-108803199D01*
X88697345Y-108929978D01*
X88621107Y-109044075D01*
X88524075Y-109141107D01*
X88409978Y-109217345D01*
X88283199Y-109269858D01*
X88148612Y-109296629D01*
X88011388Y-109296629D01*
X87876801Y-109269858D01*
X87750022Y-109217345D01*
X87635925Y-109141107D01*
X87538893Y-109044075D01*
X87462655Y-108929978D01*
X87410142Y-108803199D01*
X87383371Y-108668612D01*
X87383371Y-108531388D01*
X87410142Y-108396801D01*
X87462655Y-108270022D01*
X87538893Y-108155925D01*
X87635925Y-108058893D01*
X87750022Y-107982655D01*
X87876801Y-107930142D01*
X88011388Y-107903371D01*
X88148612Y-107903371D01*
X88283199Y-107930142D01*
G37*
G36*
X76829850Y-106613464D02*
G01*
X76880040Y-106619287D01*
X76897189Y-106626859D01*
X76920671Y-106631530D01*
X76945810Y-106648327D01*
X76965696Y-106657108D01*
X76979277Y-106670689D01*
X77001777Y-106685723D01*
X77016810Y-106708222D01*
X77030391Y-106721803D01*
X77039170Y-106741686D01*
X77055970Y-106766829D01*
X77060641Y-106790312D01*
X77068212Y-106807459D01*
X77074033Y-106857639D01*
X77075000Y-106862500D01*
X77075000Y-108062500D01*
X77074032Y-108067363D01*
X77068212Y-108117540D01*
X77060641Y-108134685D01*
X77055970Y-108158171D01*
X77039169Y-108183315D01*
X77030391Y-108203196D01*
X77016812Y-108216774D01*
X77001777Y-108239277D01*
X76979274Y-108254312D01*
X76965696Y-108267891D01*
X76945815Y-108276669D01*
X76920671Y-108293470D01*
X76897185Y-108298141D01*
X76880040Y-108305712D01*
X76829861Y-108311532D01*
X76825000Y-108312500D01*
X75375000Y-108312500D01*
X75370138Y-108311532D01*
X75319959Y-108305712D01*
X75302812Y-108298141D01*
X75279329Y-108293470D01*
X75254186Y-108276670D01*
X75234303Y-108267891D01*
X75220722Y-108254310D01*
X75198223Y-108239277D01*
X75183189Y-108216777D01*
X75169608Y-108203196D01*
X75160827Y-108183310D01*
X75144030Y-108158171D01*
X75139359Y-108134689D01*
X75131787Y-108117540D01*
X75125964Y-108067349D01*
X75125000Y-108062500D01*
X75125000Y-106862500D01*
X75125964Y-106857650D01*
X75131787Y-106807459D01*
X75139359Y-106790308D01*
X75144030Y-106766829D01*
X75160826Y-106741691D01*
X75169608Y-106721803D01*
X75183191Y-106708219D01*
X75198223Y-106685723D01*
X75220719Y-106670691D01*
X75234303Y-106657108D01*
X75254191Y-106648326D01*
X75279329Y-106631530D01*
X75302808Y-106626859D01*
X75319959Y-106619287D01*
X75370151Y-106613464D01*
X75375000Y-106612500D01*
X76825000Y-106612500D01*
X76829850Y-106613464D01*
G37*
G36*
X162032228Y-106634448D02*
G01*
X162177117Y-106694463D01*
X162307515Y-106781592D01*
X162418408Y-106892485D01*
X162505537Y-107022883D01*
X162565552Y-107167772D01*
X162596148Y-107321586D01*
X162596148Y-107478414D01*
X162565552Y-107632228D01*
X162505537Y-107777117D01*
X162418408Y-107907515D01*
X162307515Y-108018408D01*
X162177117Y-108105537D01*
X162032228Y-108165552D01*
X161878414Y-108196148D01*
X161721586Y-108196148D01*
X161567772Y-108165552D01*
X161422883Y-108105537D01*
X161292485Y-108018408D01*
X161181592Y-107907515D01*
X161094463Y-107777117D01*
X161034448Y-107632228D01*
X161003852Y-107478414D01*
X161003852Y-107321586D01*
X161034448Y-107167772D01*
X161094463Y-107022883D01*
X161181592Y-106892485D01*
X161292485Y-106781592D01*
X161422883Y-106694463D01*
X161567772Y-106634448D01*
X161721586Y-106603852D01*
X161878414Y-106603852D01*
X162032228Y-106634448D01*
G37*
G36*
X169652228Y-106634448D02*
G01*
X169797117Y-106694463D01*
X169927515Y-106781592D01*
X170038408Y-106892485D01*
X170125537Y-107022883D01*
X170185552Y-107167772D01*
X170216148Y-107321586D01*
X170216148Y-107478414D01*
X170185552Y-107632228D01*
X170125537Y-107777117D01*
X170038408Y-107907515D01*
X169927515Y-108018408D01*
X169797117Y-108105537D01*
X169652228Y-108165552D01*
X169498414Y-108196148D01*
X169341586Y-108196148D01*
X169187772Y-108165552D01*
X169042883Y-108105537D01*
X168912485Y-108018408D01*
X168801592Y-107907515D01*
X168714463Y-107777117D01*
X168654448Y-107632228D01*
X168623852Y-107478414D01*
X168623852Y-107321586D01*
X168654448Y-107167772D01*
X168714463Y-107022883D01*
X168801592Y-106892485D01*
X168912485Y-106781592D01*
X169042883Y-106694463D01*
X169187772Y-106634448D01*
X169341586Y-106603852D01*
X169498414Y-106603852D01*
X169652228Y-106634448D01*
G37*
G36*
X129362228Y-106554448D02*
G01*
X129507117Y-106614463D01*
X129637515Y-106701592D01*
X129748408Y-106812485D01*
X129835537Y-106942883D01*
X129895552Y-107087772D01*
X129926148Y-107241586D01*
X129926148Y-107398414D01*
X129895552Y-107552228D01*
X129835537Y-107697117D01*
X129748408Y-107827515D01*
X129637515Y-107938408D01*
X129507117Y-108025537D01*
X129362228Y-108085552D01*
X129208414Y-108116148D01*
X129051586Y-108116148D01*
X128897772Y-108085552D01*
X128752883Y-108025537D01*
X128622485Y-107938408D01*
X128511592Y-107827515D01*
X128424463Y-107697117D01*
X128364448Y-107552228D01*
X128333852Y-107398414D01*
X128333852Y-107241586D01*
X128364448Y-107087772D01*
X128424463Y-106942883D01*
X128511592Y-106812485D01*
X128622485Y-106701592D01*
X128752883Y-106614463D01*
X128897772Y-106554448D01*
X129051586Y-106523852D01*
X129208414Y-106523852D01*
X129362228Y-106554448D01*
G37*
G36*
X136982228Y-106554448D02*
G01*
X137127117Y-106614463D01*
X137257515Y-106701592D01*
X137368408Y-106812485D01*
X137455537Y-106942883D01*
X137515552Y-107087772D01*
X137546148Y-107241586D01*
X137546148Y-107398414D01*
X137515552Y-107552228D01*
X137455537Y-107697117D01*
X137368408Y-107827515D01*
X137257515Y-107938408D01*
X137127117Y-108025537D01*
X136982228Y-108085552D01*
X136828414Y-108116148D01*
X136671586Y-108116148D01*
X136517772Y-108085552D01*
X136372883Y-108025537D01*
X136242485Y-107938408D01*
X136131592Y-107827515D01*
X136044463Y-107697117D01*
X135984448Y-107552228D01*
X135953852Y-107398414D01*
X135953852Y-107241586D01*
X135984448Y-107087772D01*
X136044463Y-106942883D01*
X136131592Y-106812485D01*
X136242485Y-106701592D01*
X136372883Y-106614463D01*
X136517772Y-106554448D01*
X136671586Y-106523852D01*
X136828414Y-106523852D01*
X136982228Y-106554448D01*
G37*
G36*
X203373513Y-102744208D02*
G01*
X203612293Y-102821793D01*
X203835998Y-102935776D01*
X204039117Y-103083350D01*
X204216650Y-103260883D01*
X204364224Y-103464002D01*
X204478207Y-103687707D01*
X204555792Y-103926487D01*
X204595068Y-104174465D01*
X204595068Y-104425535D01*
X204555792Y-104673513D01*
X204478207Y-104912293D01*
X204364224Y-105135998D01*
X204216650Y-105339117D01*
X204039117Y-105516650D01*
X203835998Y-105664224D01*
X203612293Y-105778207D01*
X203373513Y-105855792D01*
X203125535Y-105895068D01*
X202874465Y-105895068D01*
X202626487Y-105855792D01*
X202387707Y-105778207D01*
X202164002Y-105664224D01*
X201960883Y-105516650D01*
X201783350Y-105339117D01*
X201635776Y-105135998D01*
X201521793Y-104912293D01*
X201444208Y-104673513D01*
X201404932Y-104425535D01*
X201404932Y-104174465D01*
X201444208Y-103926487D01*
X201521793Y-103687707D01*
X201635776Y-103464002D01*
X201783350Y-103260883D01*
X201960883Y-103083350D01*
X202164002Y-102935776D01*
X202387707Y-102821793D01*
X202626487Y-102744208D01*
X202874465Y-102704932D01*
X203125535Y-102704932D01*
X203373513Y-102744208D01*
G37*
G36*
X162032228Y-104094448D02*
G01*
X162177117Y-104154463D01*
X162307515Y-104241592D01*
X162418408Y-104352485D01*
X162505537Y-104482883D01*
X162565552Y-104627772D01*
X162596148Y-104781586D01*
X162596148Y-104938414D01*
X162565552Y-105092228D01*
X162505537Y-105237117D01*
X162418408Y-105367515D01*
X162307515Y-105478408D01*
X162177117Y-105565537D01*
X162032228Y-105625552D01*
X161878414Y-105656148D01*
X161721586Y-105656148D01*
X161567772Y-105625552D01*
X161422883Y-105565537D01*
X161292485Y-105478408D01*
X161181592Y-105367515D01*
X161094463Y-105237117D01*
X161034448Y-105092228D01*
X161003852Y-104938414D01*
X161003852Y-104781586D01*
X161034448Y-104627772D01*
X161094463Y-104482883D01*
X161181592Y-104352485D01*
X161292485Y-104241592D01*
X161422883Y-104154463D01*
X161567772Y-104094448D01*
X161721586Y-104063852D01*
X161878414Y-104063852D01*
X162032228Y-104094448D01*
G37*
G36*
X169652228Y-104094448D02*
G01*
X169797117Y-104154463D01*
X169927515Y-104241592D01*
X170038408Y-104352485D01*
X170125537Y-104482883D01*
X170185552Y-104627772D01*
X170216148Y-104781586D01*
X170216148Y-104938414D01*
X170185552Y-105092228D01*
X170125537Y-105237117D01*
X170038408Y-105367515D01*
X169927515Y-105478408D01*
X169797117Y-105565537D01*
X169652228Y-105625552D01*
X169498414Y-105656148D01*
X169341586Y-105656148D01*
X169187772Y-105625552D01*
X169042883Y-105565537D01*
X168912485Y-105478408D01*
X168801592Y-105367515D01*
X168714463Y-105237117D01*
X168654448Y-105092228D01*
X168623852Y-104938414D01*
X168623852Y-104781586D01*
X168654448Y-104627772D01*
X168714463Y-104482883D01*
X168801592Y-104352485D01*
X168912485Y-104241592D01*
X169042883Y-104154463D01*
X169187772Y-104094448D01*
X169341586Y-104063852D01*
X169498414Y-104063852D01*
X169652228Y-104094448D01*
G37*
G36*
X129362228Y-104014448D02*
G01*
X129507117Y-104074463D01*
X129637515Y-104161592D01*
X129748408Y-104272485D01*
X129835537Y-104402883D01*
X129895552Y-104547772D01*
X129926148Y-104701586D01*
X129926148Y-104858414D01*
X129895552Y-105012228D01*
X129835537Y-105157117D01*
X129748408Y-105287515D01*
X129637515Y-105398408D01*
X129507117Y-105485537D01*
X129362228Y-105545552D01*
X129208414Y-105576148D01*
X129051586Y-105576148D01*
X128897772Y-105545552D01*
X128752883Y-105485537D01*
X128622485Y-105398408D01*
X128511592Y-105287515D01*
X128424463Y-105157117D01*
X128364448Y-105012228D01*
X128333852Y-104858414D01*
X128333852Y-104701586D01*
X128364448Y-104547772D01*
X128424463Y-104402883D01*
X128511592Y-104272485D01*
X128622485Y-104161592D01*
X128752883Y-104074463D01*
X128897772Y-104014448D01*
X129051586Y-103983852D01*
X129208414Y-103983852D01*
X129362228Y-104014448D01*
G37*
G36*
X136982228Y-104014448D02*
G01*
X137127117Y-104074463D01*
X137257515Y-104161592D01*
X137368408Y-104272485D01*
X137455537Y-104402883D01*
X137515552Y-104547772D01*
X137546148Y-104701586D01*
X137546148Y-104858414D01*
X137515552Y-105012228D01*
X137455537Y-105157117D01*
X137368408Y-105287515D01*
X137257515Y-105398408D01*
X137127117Y-105485537D01*
X136982228Y-105545552D01*
X136828414Y-105576148D01*
X136671586Y-105576148D01*
X136517772Y-105545552D01*
X136372883Y-105485537D01*
X136242485Y-105398408D01*
X136131592Y-105287515D01*
X136044463Y-105157117D01*
X135984448Y-105012228D01*
X135953852Y-104858414D01*
X135953852Y-104701586D01*
X135984448Y-104547772D01*
X136044463Y-104402883D01*
X136131592Y-104272485D01*
X136242485Y-104161592D01*
X136372883Y-104074463D01*
X136517772Y-104014448D01*
X136671586Y-103983852D01*
X136828414Y-103983852D01*
X136982228Y-104014448D01*
G37*
G36*
X123717714Y-102282295D02*
G01*
X123853548Y-102338559D01*
X123975795Y-102420242D01*
X124079758Y-102524205D01*
X124161441Y-102646452D01*
X124217705Y-102782286D01*
X124246389Y-102926487D01*
X124246389Y-103073513D01*
X124217705Y-103217714D01*
X124161441Y-103353548D01*
X124079758Y-103475795D01*
X123975795Y-103579758D01*
X123853548Y-103661441D01*
X123717714Y-103717705D01*
X123573513Y-103746389D01*
X123426487Y-103746389D01*
X123282286Y-103717705D01*
X123146452Y-103661441D01*
X123024205Y-103579758D01*
X122920242Y-103475795D01*
X122838559Y-103353548D01*
X122782295Y-103217714D01*
X122753611Y-103073513D01*
X122753611Y-102926487D01*
X122782295Y-102782286D01*
X122838559Y-102646452D01*
X122920242Y-102524205D01*
X123024205Y-102420242D01*
X123146452Y-102338559D01*
X123282286Y-102282295D01*
X123426487Y-102253611D01*
X123573513Y-102253611D01*
X123717714Y-102282295D01*
G37*
G36*
X156517714Y-102282295D02*
G01*
X156653548Y-102338559D01*
X156775795Y-102420242D01*
X156879758Y-102524205D01*
X156961441Y-102646452D01*
X157017705Y-102782286D01*
X157046389Y-102926487D01*
X157046389Y-103073513D01*
X157017705Y-103217714D01*
X156961441Y-103353548D01*
X156879758Y-103475795D01*
X156775795Y-103579758D01*
X156653548Y-103661441D01*
X156517714Y-103717705D01*
X156373513Y-103746389D01*
X156226487Y-103746389D01*
X156082286Y-103717705D01*
X155946452Y-103661441D01*
X155824205Y-103579758D01*
X155720242Y-103475795D01*
X155638559Y-103353548D01*
X155582295Y-103217714D01*
X155553611Y-103073513D01*
X155553611Y-102926487D01*
X155582295Y-102782286D01*
X155638559Y-102646452D01*
X155720242Y-102524205D01*
X155824205Y-102420242D01*
X155946452Y-102338559D01*
X156082286Y-102282295D01*
X156226487Y-102253611D01*
X156373513Y-102253611D01*
X156517714Y-102282295D01*
G37*
G36*
X162032228Y-101554448D02*
G01*
X162177117Y-101614463D01*
X162307515Y-101701592D01*
X162418408Y-101812485D01*
X162505537Y-101942883D01*
X162565552Y-102087772D01*
X162596148Y-102241586D01*
X162596148Y-102398414D01*
X162565552Y-102552228D01*
X162505537Y-102697117D01*
X162418408Y-102827515D01*
X162307515Y-102938408D01*
X162177117Y-103025537D01*
X162032228Y-103085552D01*
X161878414Y-103116148D01*
X161721586Y-103116148D01*
X161567772Y-103085552D01*
X161422883Y-103025537D01*
X161292485Y-102938408D01*
X161181592Y-102827515D01*
X161094463Y-102697117D01*
X161034448Y-102552228D01*
X161003852Y-102398414D01*
X161003852Y-102241586D01*
X161034448Y-102087772D01*
X161094463Y-101942883D01*
X161181592Y-101812485D01*
X161292485Y-101701592D01*
X161422883Y-101614463D01*
X161567772Y-101554448D01*
X161721586Y-101523852D01*
X161878414Y-101523852D01*
X162032228Y-101554448D01*
G37*
G36*
X169652228Y-101554448D02*
G01*
X169797117Y-101614463D01*
X169927515Y-101701592D01*
X170038408Y-101812485D01*
X170125537Y-101942883D01*
X170185552Y-102087772D01*
X170216148Y-102241586D01*
X170216148Y-102398414D01*
X170185552Y-102552228D01*
X170125537Y-102697117D01*
X170038408Y-102827515D01*
X169927515Y-102938408D01*
X169797117Y-103025537D01*
X169652228Y-103085552D01*
X169498414Y-103116148D01*
X169341586Y-103116148D01*
X169187772Y-103085552D01*
X169042883Y-103025537D01*
X168912485Y-102938408D01*
X168801592Y-102827515D01*
X168714463Y-102697117D01*
X168654448Y-102552228D01*
X168623852Y-102398414D01*
X168623852Y-102241586D01*
X168654448Y-102087772D01*
X168714463Y-101942883D01*
X168801592Y-101812485D01*
X168912485Y-101701592D01*
X169042883Y-101614463D01*
X169187772Y-101554448D01*
X169341586Y-101523852D01*
X169498414Y-101523852D01*
X169652228Y-101554448D01*
G37*
G36*
X129362228Y-101474448D02*
G01*
X129507117Y-101534463D01*
X129637515Y-101621592D01*
X129748408Y-101732485D01*
X129835537Y-101862883D01*
X129895552Y-102007772D01*
X129926148Y-102161586D01*
X129926148Y-102318414D01*
X129895552Y-102472228D01*
X129835537Y-102617117D01*
X129748408Y-102747515D01*
X129637515Y-102858408D01*
X129507117Y-102945537D01*
X129362228Y-103005552D01*
X129208414Y-103036148D01*
X129051586Y-103036148D01*
X128897772Y-103005552D01*
X128752883Y-102945537D01*
X128622485Y-102858408D01*
X128511592Y-102747515D01*
X128424463Y-102617117D01*
X128364448Y-102472228D01*
X128333852Y-102318414D01*
X128333852Y-102161586D01*
X128364448Y-102007772D01*
X128424463Y-101862883D01*
X128511592Y-101732485D01*
X128622485Y-101621592D01*
X128752883Y-101534463D01*
X128897772Y-101474448D01*
X129051586Y-101443852D01*
X129208414Y-101443852D01*
X129362228Y-101474448D01*
G37*
G36*
X136982228Y-101474448D02*
G01*
X137127117Y-101534463D01*
X137257515Y-101621592D01*
X137368408Y-101732485D01*
X137455537Y-101862883D01*
X137515552Y-102007772D01*
X137546148Y-102161586D01*
X137546148Y-102318414D01*
X137515552Y-102472228D01*
X137455537Y-102617117D01*
X137368408Y-102747515D01*
X137257515Y-102858408D01*
X137127117Y-102945537D01*
X136982228Y-103005552D01*
X136828414Y-103036148D01*
X136671586Y-103036148D01*
X136517772Y-103005552D01*
X136372883Y-102945537D01*
X136242485Y-102858408D01*
X136131592Y-102747515D01*
X136044463Y-102617117D01*
X135984448Y-102472228D01*
X135953852Y-102318414D01*
X135953852Y-102161586D01*
X135984448Y-102007772D01*
X136044463Y-101862883D01*
X136131592Y-101732485D01*
X136242485Y-101621592D01*
X136372883Y-101534463D01*
X136517772Y-101474448D01*
X136671586Y-101443852D01*
X136828414Y-101443852D01*
X136982228Y-101474448D01*
G37*
G36*
X189768612Y-101405133D02*
G01*
X189778316Y-101405133D01*
X189806272Y-101412623D01*
X189874084Y-101426112D01*
X189906091Y-101439370D01*
X189929610Y-101445672D01*
X189950698Y-101457847D01*
X189982702Y-101471104D01*
X190040184Y-101509512D01*
X190065257Y-101523988D01*
X190072119Y-101530850D01*
X190080449Y-101536416D01*
X190163583Y-101619550D01*
X190169148Y-101627879D01*
X190176012Y-101634743D01*
X190190489Y-101659818D01*
X190228895Y-101717297D01*
X190242150Y-101749298D01*
X190254328Y-101770390D01*
X190260630Y-101793912D01*
X190273887Y-101825915D01*
X190287374Y-101893722D01*
X190294867Y-101921684D01*
X190294867Y-101931388D01*
X190296822Y-101941217D01*
X190296822Y-102058782D01*
X190294867Y-102068610D01*
X190294867Y-102078316D01*
X190287373Y-102106280D01*
X190273887Y-102174084D01*
X190260631Y-102206084D01*
X190254328Y-102229610D01*
X190242149Y-102250704D01*
X190228895Y-102282702D01*
X190190493Y-102340173D01*
X190176012Y-102365257D01*
X190169146Y-102372122D01*
X190163583Y-102380449D01*
X190080449Y-102463583D01*
X190072122Y-102469146D01*
X190065257Y-102476012D01*
X190040173Y-102490493D01*
X189982702Y-102528895D01*
X189950704Y-102542149D01*
X189929610Y-102554328D01*
X189906084Y-102560631D01*
X189874084Y-102573887D01*
X189806278Y-102587374D01*
X189778316Y-102594867D01*
X189768611Y-102594867D01*
X189758783Y-102596822D01*
X189641217Y-102596822D01*
X189631389Y-102594867D01*
X189621684Y-102594867D01*
X189593722Y-102587374D01*
X189525915Y-102573887D01*
X189493912Y-102560630D01*
X189470390Y-102554328D01*
X189449298Y-102542150D01*
X189417297Y-102528895D01*
X189359818Y-102490489D01*
X189334743Y-102476012D01*
X189327879Y-102469148D01*
X189319550Y-102463583D01*
X189236416Y-102380449D01*
X189230850Y-102372119D01*
X189223988Y-102365257D01*
X189209512Y-102340184D01*
X189171104Y-102282702D01*
X189157847Y-102250698D01*
X189145672Y-102229610D01*
X189139370Y-102206091D01*
X189126112Y-102174084D01*
X189112624Y-102106274D01*
X189105133Y-102078316D01*
X189105133Y-102068610D01*
X189103178Y-102058782D01*
X189103178Y-101941217D01*
X189105133Y-101931388D01*
X189105133Y-101921684D01*
X189112623Y-101893728D01*
X189126112Y-101825915D01*
X189139371Y-101793905D01*
X189145672Y-101770390D01*
X189157845Y-101749304D01*
X189171104Y-101717297D01*
X189209516Y-101659807D01*
X189223988Y-101634743D01*
X189230848Y-101627882D01*
X189236416Y-101619550D01*
X189319550Y-101536416D01*
X189327882Y-101530848D01*
X189334743Y-101523988D01*
X189359807Y-101509516D01*
X189417297Y-101471104D01*
X189449304Y-101457845D01*
X189470390Y-101445672D01*
X189493905Y-101439371D01*
X189525915Y-101426112D01*
X189593728Y-101412623D01*
X189621684Y-101405133D01*
X189631388Y-101405133D01*
X189641217Y-101403178D01*
X189758783Y-101403178D01*
X189768612Y-101405133D01*
G37*
G36*
X191768612Y-101405133D02*
G01*
X191778316Y-101405133D01*
X191806272Y-101412623D01*
X191874084Y-101426112D01*
X191906091Y-101439370D01*
X191929610Y-101445672D01*
X191950698Y-101457847D01*
X191982702Y-101471104D01*
X192040184Y-101509512D01*
X192065257Y-101523988D01*
X192072119Y-101530850D01*
X192080449Y-101536416D01*
X192163583Y-101619550D01*
X192169148Y-101627879D01*
X192176012Y-101634743D01*
X192190489Y-101659818D01*
X192228895Y-101717297D01*
X192242150Y-101749298D01*
X192254328Y-101770390D01*
X192260630Y-101793912D01*
X192273887Y-101825915D01*
X192287374Y-101893722D01*
X192294867Y-101921684D01*
X192294867Y-101931388D01*
X192296822Y-101941217D01*
X192296822Y-102058782D01*
X192294867Y-102068610D01*
X192294867Y-102078316D01*
X192287373Y-102106280D01*
X192273887Y-102174084D01*
X192260631Y-102206084D01*
X192254328Y-102229610D01*
X192242149Y-102250704D01*
X192228895Y-102282702D01*
X192190493Y-102340173D01*
X192176012Y-102365257D01*
X192169146Y-102372122D01*
X192163583Y-102380449D01*
X192080449Y-102463583D01*
X192072122Y-102469146D01*
X192065257Y-102476012D01*
X192040173Y-102490493D01*
X191982702Y-102528895D01*
X191950704Y-102542149D01*
X191929610Y-102554328D01*
X191906084Y-102560631D01*
X191874084Y-102573887D01*
X191806278Y-102587374D01*
X191778316Y-102594867D01*
X191768611Y-102594867D01*
X191758783Y-102596822D01*
X191641217Y-102596822D01*
X191631389Y-102594867D01*
X191621684Y-102594867D01*
X191593722Y-102587374D01*
X191525915Y-102573887D01*
X191493912Y-102560630D01*
X191470390Y-102554328D01*
X191449298Y-102542150D01*
X191417297Y-102528895D01*
X191359818Y-102490489D01*
X191334743Y-102476012D01*
X191327879Y-102469148D01*
X191319550Y-102463583D01*
X191236416Y-102380449D01*
X191230850Y-102372119D01*
X191223988Y-102365257D01*
X191209512Y-102340184D01*
X191171104Y-102282702D01*
X191157847Y-102250698D01*
X191145672Y-102229610D01*
X191139370Y-102206091D01*
X191126112Y-102174084D01*
X191112624Y-102106274D01*
X191105133Y-102078316D01*
X191105133Y-102068610D01*
X191103178Y-102058782D01*
X191103178Y-101941217D01*
X191105133Y-101931388D01*
X191105133Y-101921684D01*
X191112623Y-101893728D01*
X191126112Y-101825915D01*
X191139371Y-101793905D01*
X191145672Y-101770390D01*
X191157845Y-101749304D01*
X191171104Y-101717297D01*
X191209516Y-101659807D01*
X191223988Y-101634743D01*
X191230848Y-101627882D01*
X191236416Y-101619550D01*
X191319550Y-101536416D01*
X191327882Y-101530848D01*
X191334743Y-101523988D01*
X191359807Y-101509516D01*
X191417297Y-101471104D01*
X191449304Y-101457845D01*
X191470390Y-101445672D01*
X191493905Y-101439371D01*
X191525915Y-101426112D01*
X191593728Y-101412623D01*
X191621684Y-101405133D01*
X191631388Y-101405133D01*
X191641217Y-101403178D01*
X191758783Y-101403178D01*
X191768612Y-101405133D01*
G37*
G36*
X195868612Y-101405133D02*
G01*
X195878316Y-101405133D01*
X195906272Y-101412623D01*
X195974084Y-101426112D01*
X196006091Y-101439370D01*
X196029610Y-101445672D01*
X196050698Y-101457847D01*
X196082702Y-101471104D01*
X196140184Y-101509512D01*
X196165257Y-101523988D01*
X196172119Y-101530850D01*
X196180449Y-101536416D01*
X196263583Y-101619550D01*
X196269148Y-101627879D01*
X196276012Y-101634743D01*
X196290489Y-101659818D01*
X196328895Y-101717297D01*
X196342150Y-101749298D01*
X196354328Y-101770390D01*
X196360630Y-101793912D01*
X196373887Y-101825915D01*
X196387374Y-101893722D01*
X196394867Y-101921684D01*
X196394867Y-101931388D01*
X196396822Y-101941217D01*
X196396822Y-102058782D01*
X196394867Y-102068610D01*
X196394867Y-102078316D01*
X196387373Y-102106280D01*
X196373887Y-102174084D01*
X196360631Y-102206084D01*
X196354328Y-102229610D01*
X196342149Y-102250704D01*
X196328895Y-102282702D01*
X196290493Y-102340173D01*
X196276012Y-102365257D01*
X196269146Y-102372122D01*
X196263583Y-102380449D01*
X196180449Y-102463583D01*
X196172122Y-102469146D01*
X196165257Y-102476012D01*
X196140173Y-102490493D01*
X196082702Y-102528895D01*
X196050704Y-102542149D01*
X196029610Y-102554328D01*
X196006084Y-102560631D01*
X195974084Y-102573887D01*
X195906278Y-102587374D01*
X195878316Y-102594867D01*
X195868611Y-102594867D01*
X195858783Y-102596822D01*
X195741217Y-102596822D01*
X195731389Y-102594867D01*
X195721684Y-102594867D01*
X195693722Y-102587374D01*
X195625915Y-102573887D01*
X195593912Y-102560630D01*
X195570390Y-102554328D01*
X195549298Y-102542150D01*
X195517297Y-102528895D01*
X195459818Y-102490489D01*
X195434743Y-102476012D01*
X195427879Y-102469148D01*
X195419550Y-102463583D01*
X195336416Y-102380449D01*
X195330850Y-102372119D01*
X195323988Y-102365257D01*
X195309512Y-102340184D01*
X195271104Y-102282702D01*
X195257847Y-102250698D01*
X195245672Y-102229610D01*
X195239370Y-102206091D01*
X195226112Y-102174084D01*
X195212624Y-102106274D01*
X195205133Y-102078316D01*
X195205133Y-102068610D01*
X195203178Y-102058782D01*
X195203178Y-101941217D01*
X195205133Y-101931388D01*
X195205133Y-101921684D01*
X195212623Y-101893728D01*
X195226112Y-101825915D01*
X195239371Y-101793905D01*
X195245672Y-101770390D01*
X195257845Y-101749304D01*
X195271104Y-101717297D01*
X195309516Y-101659807D01*
X195323988Y-101634743D01*
X195330848Y-101627882D01*
X195336416Y-101619550D01*
X195419550Y-101536416D01*
X195427882Y-101530848D01*
X195434743Y-101523988D01*
X195459807Y-101509516D01*
X195517297Y-101471104D01*
X195549304Y-101457845D01*
X195570390Y-101445672D01*
X195593905Y-101439371D01*
X195625915Y-101426112D01*
X195693728Y-101412623D01*
X195721684Y-101405133D01*
X195731388Y-101405133D01*
X195741217Y-101403178D01*
X195858783Y-101403178D01*
X195868612Y-101405133D01*
G37*
G36*
X197868612Y-101405133D02*
G01*
X197878316Y-101405133D01*
X197906272Y-101412623D01*
X197974084Y-101426112D01*
X198006091Y-101439370D01*
X198029610Y-101445672D01*
X198050698Y-101457847D01*
X198082702Y-101471104D01*
X198140184Y-101509512D01*
X198165257Y-101523988D01*
X198172119Y-101530850D01*
X198180449Y-101536416D01*
X198263583Y-101619550D01*
X198269148Y-101627879D01*
X198276012Y-101634743D01*
X198290489Y-101659818D01*
X198328895Y-101717297D01*
X198342150Y-101749298D01*
X198354328Y-101770390D01*
X198360630Y-101793912D01*
X198373887Y-101825915D01*
X198387374Y-101893722D01*
X198394867Y-101921684D01*
X198394867Y-101931388D01*
X198396822Y-101941217D01*
X198396822Y-102058782D01*
X198394867Y-102068610D01*
X198394867Y-102078316D01*
X198387373Y-102106280D01*
X198373887Y-102174084D01*
X198360631Y-102206084D01*
X198354328Y-102229610D01*
X198342149Y-102250704D01*
X198328895Y-102282702D01*
X198290493Y-102340173D01*
X198276012Y-102365257D01*
X198269146Y-102372122D01*
X198263583Y-102380449D01*
X198180449Y-102463583D01*
X198172122Y-102469146D01*
X198165257Y-102476012D01*
X198140173Y-102490493D01*
X198082702Y-102528895D01*
X198050704Y-102542149D01*
X198029610Y-102554328D01*
X198006084Y-102560631D01*
X197974084Y-102573887D01*
X197906278Y-102587374D01*
X197878316Y-102594867D01*
X197868611Y-102594867D01*
X197858783Y-102596822D01*
X197741217Y-102596822D01*
X197731389Y-102594867D01*
X197721684Y-102594867D01*
X197693722Y-102587374D01*
X197625915Y-102573887D01*
X197593912Y-102560630D01*
X197570390Y-102554328D01*
X197549298Y-102542150D01*
X197517297Y-102528895D01*
X197459818Y-102490489D01*
X197434743Y-102476012D01*
X197427879Y-102469148D01*
X197419550Y-102463583D01*
X197336416Y-102380449D01*
X197330850Y-102372119D01*
X197323988Y-102365257D01*
X197309512Y-102340184D01*
X197271104Y-102282702D01*
X197257847Y-102250698D01*
X197245672Y-102229610D01*
X197239370Y-102206091D01*
X197226112Y-102174084D01*
X197212624Y-102106274D01*
X197205133Y-102078316D01*
X197205133Y-102068610D01*
X197203178Y-102058782D01*
X197203178Y-101941217D01*
X197205133Y-101931388D01*
X197205133Y-101921684D01*
X197212623Y-101893728D01*
X197226112Y-101825915D01*
X197239371Y-101793905D01*
X197245672Y-101770390D01*
X197257845Y-101749304D01*
X197271104Y-101717297D01*
X197309516Y-101659807D01*
X197323988Y-101634743D01*
X197330848Y-101627882D01*
X197336416Y-101619550D01*
X197419550Y-101536416D01*
X197427882Y-101530848D01*
X197434743Y-101523988D01*
X197459807Y-101509516D01*
X197517297Y-101471104D01*
X197549304Y-101457845D01*
X197570390Y-101445672D01*
X197593905Y-101439371D01*
X197625915Y-101426112D01*
X197693728Y-101412623D01*
X197721684Y-101405133D01*
X197731388Y-101405133D01*
X197741217Y-101403178D01*
X197858783Y-101403178D01*
X197868612Y-101405133D01*
G37*
G36*
X162032228Y-99014448D02*
G01*
X162177117Y-99074463D01*
X162307515Y-99161592D01*
X162418408Y-99272485D01*
X162505537Y-99402883D01*
X162565552Y-99547772D01*
X162596148Y-99701586D01*
X162596148Y-99858414D01*
X162565552Y-100012228D01*
X162505537Y-100157117D01*
X162418408Y-100287515D01*
X162307515Y-100398408D01*
X162177117Y-100485537D01*
X162032228Y-100545552D01*
X161878414Y-100576148D01*
X161721586Y-100576148D01*
X161567772Y-100545552D01*
X161422883Y-100485537D01*
X161292485Y-100398408D01*
X161181592Y-100287515D01*
X161094463Y-100157117D01*
X161034448Y-100012228D01*
X161003852Y-99858414D01*
X161003852Y-99701586D01*
X161034448Y-99547772D01*
X161094463Y-99402883D01*
X161181592Y-99272485D01*
X161292485Y-99161592D01*
X161422883Y-99074463D01*
X161567772Y-99014448D01*
X161721586Y-98983852D01*
X161878414Y-98983852D01*
X162032228Y-99014448D01*
G37*
G36*
X169652228Y-99014448D02*
G01*
X169797117Y-99074463D01*
X169927515Y-99161592D01*
X170038408Y-99272485D01*
X170125537Y-99402883D01*
X170185552Y-99547772D01*
X170216148Y-99701586D01*
X170216148Y-99858414D01*
X170185552Y-100012228D01*
X170125537Y-100157117D01*
X170038408Y-100287515D01*
X169927515Y-100398408D01*
X169797117Y-100485537D01*
X169652228Y-100545552D01*
X169498414Y-100576148D01*
X169341586Y-100576148D01*
X169187772Y-100545552D01*
X169042883Y-100485537D01*
X168912485Y-100398408D01*
X168801592Y-100287515D01*
X168714463Y-100157117D01*
X168654448Y-100012228D01*
X168623852Y-99858414D01*
X168623852Y-99701586D01*
X168654448Y-99547772D01*
X168714463Y-99402883D01*
X168801592Y-99272485D01*
X168912485Y-99161592D01*
X169042883Y-99074463D01*
X169187772Y-99014448D01*
X169341586Y-98983852D01*
X169498414Y-98983852D01*
X169652228Y-99014448D01*
G37*
G36*
X129362228Y-98934448D02*
G01*
X129507117Y-98994463D01*
X129637515Y-99081592D01*
X129748408Y-99192485D01*
X129835537Y-99322883D01*
X129895552Y-99467772D01*
X129926148Y-99621586D01*
X129926148Y-99778414D01*
X129895552Y-99932228D01*
X129835537Y-100077117D01*
X129748408Y-100207515D01*
X129637515Y-100318408D01*
X129507117Y-100405537D01*
X129362228Y-100465552D01*
X129208414Y-100496148D01*
X129051586Y-100496148D01*
X128897772Y-100465552D01*
X128752883Y-100405537D01*
X128622485Y-100318408D01*
X128511592Y-100207515D01*
X128424463Y-100077117D01*
X128364448Y-99932228D01*
X128333852Y-99778414D01*
X128333852Y-99621586D01*
X128364448Y-99467772D01*
X128424463Y-99322883D01*
X128511592Y-99192485D01*
X128622485Y-99081592D01*
X128752883Y-98994463D01*
X128897772Y-98934448D01*
X129051586Y-98903852D01*
X129208414Y-98903852D01*
X129362228Y-98934448D01*
G37*
G36*
X136982228Y-98934448D02*
G01*
X137127117Y-98994463D01*
X137257515Y-99081592D01*
X137368408Y-99192485D01*
X137455537Y-99322883D01*
X137515552Y-99467772D01*
X137546148Y-99621586D01*
X137546148Y-99778414D01*
X137515552Y-99932228D01*
X137455537Y-100077117D01*
X137368408Y-100207515D01*
X137257515Y-100318408D01*
X137127117Y-100405537D01*
X136982228Y-100465552D01*
X136828414Y-100496148D01*
X136671586Y-100496148D01*
X136517772Y-100465552D01*
X136372883Y-100405537D01*
X136242485Y-100318408D01*
X136131592Y-100207515D01*
X136044463Y-100077117D01*
X135984448Y-99932228D01*
X135953852Y-99778414D01*
X135953852Y-99621586D01*
X135984448Y-99467772D01*
X136044463Y-99322883D01*
X136131592Y-99192485D01*
X136242485Y-99081592D01*
X136372883Y-98994463D01*
X136517772Y-98934448D01*
X136671586Y-98903852D01*
X136828414Y-98903852D01*
X136982228Y-98934448D01*
G37*
G36*
X123717714Y-97402295D02*
G01*
X123853548Y-97458559D01*
X123975795Y-97540242D01*
X124079758Y-97644205D01*
X124161441Y-97766452D01*
X124217705Y-97902286D01*
X124246389Y-98046487D01*
X124246389Y-98193513D01*
X124217705Y-98337714D01*
X124161441Y-98473548D01*
X124079758Y-98595795D01*
X123975795Y-98699758D01*
X123853548Y-98781441D01*
X123717714Y-98837705D01*
X123573513Y-98866389D01*
X123426487Y-98866389D01*
X123282286Y-98837705D01*
X123146452Y-98781441D01*
X123024205Y-98699758D01*
X122920242Y-98595795D01*
X122838559Y-98473548D01*
X122782295Y-98337714D01*
X122753611Y-98193513D01*
X122753611Y-98046487D01*
X122782295Y-97902286D01*
X122838559Y-97766452D01*
X122920242Y-97644205D01*
X123024205Y-97540242D01*
X123146452Y-97458559D01*
X123282286Y-97402295D01*
X123426487Y-97373611D01*
X123573513Y-97373611D01*
X123717714Y-97402295D01*
G37*
G36*
X156517714Y-97402295D02*
G01*
X156653548Y-97458559D01*
X156775795Y-97540242D01*
X156879758Y-97644205D01*
X156961441Y-97766452D01*
X157017705Y-97902286D01*
X157046389Y-98046487D01*
X157046389Y-98193513D01*
X157017705Y-98337714D01*
X156961441Y-98473548D01*
X156879758Y-98595795D01*
X156775795Y-98699758D01*
X156653548Y-98781441D01*
X156517714Y-98837705D01*
X156373513Y-98866389D01*
X156226487Y-98866389D01*
X156082286Y-98837705D01*
X155946452Y-98781441D01*
X155824205Y-98699758D01*
X155720242Y-98595795D01*
X155638559Y-98473548D01*
X155582295Y-98337714D01*
X155553611Y-98193513D01*
X155553611Y-98046487D01*
X155582295Y-97902286D01*
X155638559Y-97766452D01*
X155720242Y-97644205D01*
X155824205Y-97540242D01*
X155946452Y-97458559D01*
X156082286Y-97402295D01*
X156226487Y-97373611D01*
X156373513Y-97373611D01*
X156517714Y-97402295D01*
G37*
G36*
X162032228Y-96474448D02*
G01*
X162177117Y-96534463D01*
X162307515Y-96621592D01*
X162418408Y-96732485D01*
X162505537Y-96862883D01*
X162565552Y-97007772D01*
X162596148Y-97161586D01*
X162596148Y-97318414D01*
X162565552Y-97472228D01*
X162505537Y-97617117D01*
X162418408Y-97747515D01*
X162307515Y-97858408D01*
X162177117Y-97945537D01*
X162032228Y-98005552D01*
X161878414Y-98036148D01*
X161721586Y-98036148D01*
X161567772Y-98005552D01*
X161422883Y-97945537D01*
X161292485Y-97858408D01*
X161181592Y-97747515D01*
X161094463Y-97617117D01*
X161034448Y-97472228D01*
X161003852Y-97318414D01*
X161003852Y-97161586D01*
X161034448Y-97007772D01*
X161094463Y-96862883D01*
X161181592Y-96732485D01*
X161292485Y-96621592D01*
X161422883Y-96534463D01*
X161567772Y-96474448D01*
X161721586Y-96443852D01*
X161878414Y-96443852D01*
X162032228Y-96474448D01*
G37*
G36*
X169652228Y-96474448D02*
G01*
X169797117Y-96534463D01*
X169927515Y-96621592D01*
X170038408Y-96732485D01*
X170125537Y-96862883D01*
X170185552Y-97007772D01*
X170216148Y-97161586D01*
X170216148Y-97318414D01*
X170185552Y-97472228D01*
X170125537Y-97617117D01*
X170038408Y-97747515D01*
X169927515Y-97858408D01*
X169797117Y-97945537D01*
X169652228Y-98005552D01*
X169498414Y-98036148D01*
X169341586Y-98036148D01*
X169187772Y-98005552D01*
X169042883Y-97945537D01*
X168912485Y-97858408D01*
X168801592Y-97747515D01*
X168714463Y-97617117D01*
X168654448Y-97472228D01*
X168623852Y-97318414D01*
X168623852Y-97161586D01*
X168654448Y-97007772D01*
X168714463Y-96862883D01*
X168801592Y-96732485D01*
X168912485Y-96621592D01*
X169042883Y-96534463D01*
X169187772Y-96474448D01*
X169341586Y-96443852D01*
X169498414Y-96443852D01*
X169652228Y-96474448D01*
G37*
G36*
X129362228Y-96394448D02*
G01*
X129507117Y-96454463D01*
X129637515Y-96541592D01*
X129748408Y-96652485D01*
X129835537Y-96782883D01*
X129895552Y-96927772D01*
X129926148Y-97081586D01*
X129926148Y-97238414D01*
X129895552Y-97392228D01*
X129835537Y-97537117D01*
X129748408Y-97667515D01*
X129637515Y-97778408D01*
X129507117Y-97865537D01*
X129362228Y-97925552D01*
X129208414Y-97956148D01*
X129051586Y-97956148D01*
X128897772Y-97925552D01*
X128752883Y-97865537D01*
X128622485Y-97778408D01*
X128511592Y-97667515D01*
X128424463Y-97537117D01*
X128364448Y-97392228D01*
X128333852Y-97238414D01*
X128333852Y-97081586D01*
X128364448Y-96927772D01*
X128424463Y-96782883D01*
X128511592Y-96652485D01*
X128622485Y-96541592D01*
X128752883Y-96454463D01*
X128897772Y-96394448D01*
X129051586Y-96363852D01*
X129208414Y-96363852D01*
X129362228Y-96394448D01*
G37*
G36*
X136982228Y-96394448D02*
G01*
X137127117Y-96454463D01*
X137257515Y-96541592D01*
X137368408Y-96652485D01*
X137455537Y-96782883D01*
X137515552Y-96927772D01*
X137546148Y-97081586D01*
X137546148Y-97238414D01*
X137515552Y-97392228D01*
X137455537Y-97537117D01*
X137368408Y-97667515D01*
X137257515Y-97778408D01*
X137127117Y-97865537D01*
X136982228Y-97925552D01*
X136828414Y-97956148D01*
X136671586Y-97956148D01*
X136517772Y-97925552D01*
X136372883Y-97865537D01*
X136242485Y-97778408D01*
X136131592Y-97667515D01*
X136044463Y-97537117D01*
X135984448Y-97392228D01*
X135953852Y-97238414D01*
X135953852Y-97081586D01*
X135984448Y-96927772D01*
X136044463Y-96782883D01*
X136131592Y-96652485D01*
X136242485Y-96541592D01*
X136372883Y-96454463D01*
X136517772Y-96394448D01*
X136671586Y-96363852D01*
X136828414Y-96363852D01*
X136982228Y-96394448D01*
G37*
G36*
X87823199Y-95330142D02*
G01*
X87949978Y-95382655D01*
X88064075Y-95458893D01*
X88161107Y-95555925D01*
X88237345Y-95670022D01*
X88289858Y-95796801D01*
X88316629Y-95931388D01*
X88316629Y-96068612D01*
X88289858Y-96203199D01*
X88237345Y-96329978D01*
X88161107Y-96444075D01*
X88064075Y-96541107D01*
X87949978Y-96617345D01*
X87823199Y-96669858D01*
X87688612Y-96696629D01*
X87551388Y-96696629D01*
X87416801Y-96669858D01*
X87290022Y-96617345D01*
X87175925Y-96541107D01*
X87078893Y-96444075D01*
X87002655Y-96329978D01*
X86950142Y-96203199D01*
X86923371Y-96068612D01*
X86923371Y-95931388D01*
X86950142Y-95796801D01*
X87002655Y-95670022D01*
X87078893Y-95555925D01*
X87175925Y-95458893D01*
X87290022Y-95382655D01*
X87416801Y-95330142D01*
X87551388Y-95303371D01*
X87688612Y-95303371D01*
X87823199Y-95330142D01*
G37*
G36*
X92903199Y-95330142D02*
G01*
X93029978Y-95382655D01*
X93144075Y-95458893D01*
X93241107Y-95555925D01*
X93317345Y-95670022D01*
X93369858Y-95796801D01*
X93396629Y-95931388D01*
X93396629Y-96068612D01*
X93369858Y-96203199D01*
X93317345Y-96329978D01*
X93241107Y-96444075D01*
X93144075Y-96541107D01*
X93029978Y-96617345D01*
X92903199Y-96669858D01*
X92768612Y-96696629D01*
X92631388Y-96696629D01*
X92496801Y-96669858D01*
X92370022Y-96617345D01*
X92255925Y-96541107D01*
X92158893Y-96444075D01*
X92082655Y-96329978D01*
X92030142Y-96203199D01*
X92003371Y-96068612D01*
X92003371Y-95931388D01*
X92030142Y-95796801D01*
X92082655Y-95670022D01*
X92158893Y-95555925D01*
X92255925Y-95458893D01*
X92370022Y-95382655D01*
X92496801Y-95330142D01*
X92631388Y-95303371D01*
X92768612Y-95303371D01*
X92903199Y-95330142D01*
G37*
G36*
X77379417Y-94600289D02*
G01*
X77432329Y-94602888D01*
X77438848Y-94604184D01*
X77453316Y-94605133D01*
X77481266Y-94612622D01*
X77549084Y-94626112D01*
X77581091Y-94639370D01*
X77604610Y-94645672D01*
X77625698Y-94657847D01*
X77657702Y-94671104D01*
X77715184Y-94709512D01*
X77740257Y-94723988D01*
X77747119Y-94730850D01*
X77755449Y-94736416D01*
X77838583Y-94819550D01*
X77844148Y-94827879D01*
X77851012Y-94834743D01*
X77865489Y-94859818D01*
X77903895Y-94917297D01*
X77917150Y-94949298D01*
X77929328Y-94970390D01*
X77935630Y-94993912D01*
X77948887Y-95025915D01*
X77962374Y-95093722D01*
X77969867Y-95121684D01*
X77969867Y-95131388D01*
X77971822Y-95141217D01*
X77971822Y-95258782D01*
X77969867Y-95268610D01*
X77969867Y-95278316D01*
X77962373Y-95306280D01*
X77948887Y-95374084D01*
X77935631Y-95406084D01*
X77929328Y-95429610D01*
X77917149Y-95450704D01*
X77903895Y-95482702D01*
X77865493Y-95540173D01*
X77851012Y-95565257D01*
X77844146Y-95572122D01*
X77838583Y-95580449D01*
X77755449Y-95663583D01*
X77747122Y-95669146D01*
X77740257Y-95676012D01*
X77715173Y-95690493D01*
X77657702Y-95728895D01*
X77625704Y-95742149D01*
X77604610Y-95754328D01*
X77581084Y-95760631D01*
X77549084Y-95773887D01*
X77481280Y-95787373D01*
X77453316Y-95794867D01*
X77438840Y-95795815D01*
X77432329Y-95797111D01*
X77379423Y-95799710D01*
X77375000Y-95800000D01*
X77373522Y-95800000D01*
X76776478Y-95800000D01*
X76775000Y-95800000D01*
X76770577Y-95799710D01*
X76717670Y-95797111D01*
X76711157Y-95795815D01*
X76696684Y-95794867D01*
X76668722Y-95787374D01*
X76600915Y-95773887D01*
X76568912Y-95760630D01*
X76545390Y-95754328D01*
X76524298Y-95742150D01*
X76492297Y-95728895D01*
X76434818Y-95690489D01*
X76409743Y-95676012D01*
X76402879Y-95669148D01*
X76394550Y-95663583D01*
X76311416Y-95580449D01*
X76305850Y-95572119D01*
X76298988Y-95565257D01*
X76284512Y-95540184D01*
X76246104Y-95482702D01*
X76232847Y-95450698D01*
X76220672Y-95429610D01*
X76214370Y-95406091D01*
X76201112Y-95374084D01*
X76187624Y-95306274D01*
X76180133Y-95278316D01*
X76180133Y-95268610D01*
X76178178Y-95258782D01*
X76178178Y-95141217D01*
X76180133Y-95131388D01*
X76180133Y-95121684D01*
X76187623Y-95093728D01*
X76201112Y-95025915D01*
X76214371Y-94993905D01*
X76220672Y-94970390D01*
X76232845Y-94949304D01*
X76246104Y-94917297D01*
X76284516Y-94859807D01*
X76298988Y-94834743D01*
X76305848Y-94827882D01*
X76311416Y-94819550D01*
X76394550Y-94736416D01*
X76402882Y-94730848D01*
X76409743Y-94723988D01*
X76434807Y-94709516D01*
X76492297Y-94671104D01*
X76524304Y-94657845D01*
X76545390Y-94645672D01*
X76568905Y-94639371D01*
X76600915Y-94626112D01*
X76668736Y-94612621D01*
X76696684Y-94605133D01*
X76711150Y-94604184D01*
X76717670Y-94602888D01*
X76770583Y-94600289D01*
X76775000Y-94600000D01*
X77375000Y-94600000D01*
X77379417Y-94600289D01*
G37*
G36*
X162032228Y-93934448D02*
G01*
X162177117Y-93994463D01*
X162307515Y-94081592D01*
X162418408Y-94192485D01*
X162505537Y-94322883D01*
X162565552Y-94467772D01*
X162596148Y-94621586D01*
X162596148Y-94778414D01*
X162565552Y-94932228D01*
X162505537Y-95077117D01*
X162418408Y-95207515D01*
X162307515Y-95318408D01*
X162177117Y-95405537D01*
X162032228Y-95465552D01*
X161878414Y-95496148D01*
X161721586Y-95496148D01*
X161567772Y-95465552D01*
X161422883Y-95405537D01*
X161292485Y-95318408D01*
X161181592Y-95207515D01*
X161094463Y-95077117D01*
X161034448Y-94932228D01*
X161003852Y-94778414D01*
X161003852Y-94621586D01*
X161034448Y-94467772D01*
X161094463Y-94322883D01*
X161181592Y-94192485D01*
X161292485Y-94081592D01*
X161422883Y-93994463D01*
X161567772Y-93934448D01*
X161721586Y-93903852D01*
X161878414Y-93903852D01*
X162032228Y-93934448D01*
G37*
G36*
X169652228Y-93934448D02*
G01*
X169797117Y-93994463D01*
X169927515Y-94081592D01*
X170038408Y-94192485D01*
X170125537Y-94322883D01*
X170185552Y-94467772D01*
X170216148Y-94621586D01*
X170216148Y-94778414D01*
X170185552Y-94932228D01*
X170125537Y-95077117D01*
X170038408Y-95207515D01*
X169927515Y-95318408D01*
X169797117Y-95405537D01*
X169652228Y-95465552D01*
X169498414Y-95496148D01*
X169341586Y-95496148D01*
X169187772Y-95465552D01*
X169042883Y-95405537D01*
X168912485Y-95318408D01*
X168801592Y-95207515D01*
X168714463Y-95077117D01*
X168654448Y-94932228D01*
X168623852Y-94778414D01*
X168623852Y-94621586D01*
X168654448Y-94467772D01*
X168714463Y-94322883D01*
X168801592Y-94192485D01*
X168912485Y-94081592D01*
X169042883Y-93994463D01*
X169187772Y-93934448D01*
X169341586Y-93903852D01*
X169498414Y-93903852D01*
X169652228Y-93934448D01*
G37*
G36*
X129362228Y-93854448D02*
G01*
X129507117Y-93914463D01*
X129637515Y-94001592D01*
X129748408Y-94112485D01*
X129835537Y-94242883D01*
X129895552Y-94387772D01*
X129926148Y-94541586D01*
X129926148Y-94698414D01*
X129895552Y-94852228D01*
X129835537Y-94997117D01*
X129748408Y-95127515D01*
X129637515Y-95238408D01*
X129507117Y-95325537D01*
X129362228Y-95385552D01*
X129208414Y-95416148D01*
X129051586Y-95416148D01*
X128897772Y-95385552D01*
X128752883Y-95325537D01*
X128622485Y-95238408D01*
X128511592Y-95127515D01*
X128424463Y-94997117D01*
X128364448Y-94852228D01*
X128333852Y-94698414D01*
X128333852Y-94541586D01*
X128364448Y-94387772D01*
X128424463Y-94242883D01*
X128511592Y-94112485D01*
X128622485Y-94001592D01*
X128752883Y-93914463D01*
X128897772Y-93854448D01*
X129051586Y-93823852D01*
X129208414Y-93823852D01*
X129362228Y-93854448D01*
G37*
G36*
X136982228Y-93854448D02*
G01*
X137127117Y-93914463D01*
X137257515Y-94001592D01*
X137368408Y-94112485D01*
X137455537Y-94242883D01*
X137515552Y-94387772D01*
X137546148Y-94541586D01*
X137546148Y-94698414D01*
X137515552Y-94852228D01*
X137455537Y-94997117D01*
X137368408Y-95127515D01*
X137257515Y-95238408D01*
X137127117Y-95325537D01*
X136982228Y-95385552D01*
X136828414Y-95416148D01*
X136671586Y-95416148D01*
X136517772Y-95385552D01*
X136372883Y-95325537D01*
X136242485Y-95238408D01*
X136131592Y-95127515D01*
X136044463Y-94997117D01*
X135984448Y-94852228D01*
X135953852Y-94698414D01*
X135953852Y-94541586D01*
X135984448Y-94387772D01*
X136044463Y-94242883D01*
X136131592Y-94112485D01*
X136242485Y-94001592D01*
X136372883Y-93914463D01*
X136517772Y-93854448D01*
X136671586Y-93823852D01*
X136828414Y-93823852D01*
X136982228Y-93854448D01*
G37*
G36*
X100065000Y-93950000D02*
G01*
X99015000Y-93950000D01*
X99015000Y-92450000D01*
X100065000Y-92450000D01*
X100065000Y-93950000D01*
G37*
G36*
X97200909Y-92489963D02*
G01*
X97319600Y-92558489D01*
X97416511Y-92655400D01*
X97485037Y-92774091D01*
X97520509Y-92906474D01*
X97525000Y-92975000D01*
X97525000Y-93425000D01*
X97520509Y-93493526D01*
X97485037Y-93625909D01*
X97416511Y-93744600D01*
X97319600Y-93841511D01*
X97200909Y-93910037D01*
X97068526Y-93945509D01*
X96931474Y-93945509D01*
X96799091Y-93910037D01*
X96680400Y-93841511D01*
X96583489Y-93744600D01*
X96514963Y-93625909D01*
X96479491Y-93493526D01*
X96475000Y-93425000D01*
X96475000Y-92975000D01*
X96479491Y-92906474D01*
X96514963Y-92774091D01*
X96583489Y-92655400D01*
X96680400Y-92558489D01*
X96799091Y-92489963D01*
X96931474Y-92454491D01*
X97068526Y-92454491D01*
X97200909Y-92489963D01*
G37*
G36*
X98470909Y-92489963D02*
G01*
X98589600Y-92558489D01*
X98686511Y-92655400D01*
X98755037Y-92774091D01*
X98790509Y-92906474D01*
X98795000Y-92975000D01*
X98795000Y-93425000D01*
X98790509Y-93493526D01*
X98755037Y-93625909D01*
X98686511Y-93744600D01*
X98589600Y-93841511D01*
X98470909Y-93910037D01*
X98338526Y-93945509D01*
X98201474Y-93945509D01*
X98069091Y-93910037D01*
X97950400Y-93841511D01*
X97853489Y-93744600D01*
X97784963Y-93625909D01*
X97749491Y-93493526D01*
X97745000Y-93425000D01*
X97745000Y-92975000D01*
X97749491Y-92906474D01*
X97784963Y-92774091D01*
X97853489Y-92655400D01*
X97950400Y-92558489D01*
X98069091Y-92489963D01*
X98201474Y-92454491D01*
X98338526Y-92454491D01*
X98470909Y-92489963D01*
G37*
G36*
X77743685Y-92607969D02*
G01*
X77752714Y-92611956D01*
X77759791Y-92612987D01*
X77804026Y-92634612D01*
X77844541Y-92652501D01*
X77848292Y-92656252D01*
X77848840Y-92656520D01*
X77918479Y-92726159D01*
X77918746Y-92726706D01*
X77922499Y-92730459D01*
X77940392Y-92770984D01*
X77962012Y-92815208D01*
X77963042Y-92822282D01*
X77967031Y-92831315D01*
X77975000Y-92900000D01*
X77975000Y-93500000D01*
X77967031Y-93568685D01*
X77963042Y-93577718D01*
X77962012Y-93584791D01*
X77940397Y-93629005D01*
X77922499Y-93669541D01*
X77918745Y-93673294D01*
X77918479Y-93673840D01*
X77848840Y-93743479D01*
X77848294Y-93743745D01*
X77844541Y-93747499D01*
X77804005Y-93765397D01*
X77759791Y-93787012D01*
X77752718Y-93788042D01*
X77743685Y-93792031D01*
X77675000Y-93800000D01*
X76475000Y-93800000D01*
X76406315Y-93792031D01*
X76397282Y-93788042D01*
X76390208Y-93787012D01*
X76345984Y-93765392D01*
X76305459Y-93747499D01*
X76301706Y-93743746D01*
X76301159Y-93743479D01*
X76231520Y-93673840D01*
X76231252Y-93673292D01*
X76227501Y-93669541D01*
X76209612Y-93629026D01*
X76187987Y-93584791D01*
X76186956Y-93577714D01*
X76182969Y-93568685D01*
X76175000Y-93500000D01*
X76175000Y-92900000D01*
X76182969Y-92831315D01*
X76186955Y-92822285D01*
X76187987Y-92815208D01*
X76209616Y-92770963D01*
X76227501Y-92730459D01*
X76231251Y-92726708D01*
X76231520Y-92726159D01*
X76301159Y-92656520D01*
X76301708Y-92656251D01*
X76305459Y-92652501D01*
X76345963Y-92634616D01*
X76390208Y-92612987D01*
X76397285Y-92611955D01*
X76406315Y-92607969D01*
X76475000Y-92600000D01*
X77675000Y-92600000D01*
X77743685Y-92607969D01*
G37*
G36*
X87823199Y-92330142D02*
G01*
X87949978Y-92382655D01*
X88064075Y-92458893D01*
X88161107Y-92555925D01*
X88237345Y-92670022D01*
X88289858Y-92796801D01*
X88316629Y-92931388D01*
X88316629Y-93068612D01*
X88289858Y-93203199D01*
X88237345Y-93329978D01*
X88161107Y-93444075D01*
X88064075Y-93541107D01*
X87949978Y-93617345D01*
X87823199Y-93669858D01*
X87688612Y-93696629D01*
X87551388Y-93696629D01*
X87416801Y-93669858D01*
X87290022Y-93617345D01*
X87175925Y-93541107D01*
X87078893Y-93444075D01*
X87002655Y-93329978D01*
X86950142Y-93203199D01*
X86923371Y-93068612D01*
X86923371Y-92931388D01*
X86950142Y-92796801D01*
X87002655Y-92670022D01*
X87078893Y-92555925D01*
X87175925Y-92458893D01*
X87290022Y-92382655D01*
X87416801Y-92330142D01*
X87551388Y-92303371D01*
X87688612Y-92303371D01*
X87823199Y-92330142D01*
G37*
G36*
X92903199Y-92330142D02*
G01*
X93029978Y-92382655D01*
X93144075Y-92458893D01*
X93241107Y-92555925D01*
X93317345Y-92670022D01*
X93369858Y-92796801D01*
X93396629Y-92931388D01*
X93396629Y-93068612D01*
X93369858Y-93203199D01*
X93317345Y-93329978D01*
X93241107Y-93444075D01*
X93144075Y-93541107D01*
X93029978Y-93617345D01*
X92903199Y-93669858D01*
X92768612Y-93696629D01*
X92631388Y-93696629D01*
X92496801Y-93669858D01*
X92370022Y-93617345D01*
X92255925Y-93541107D01*
X92158893Y-93444075D01*
X92082655Y-93329978D01*
X92030142Y-93203199D01*
X92003371Y-93068612D01*
X92003371Y-92931388D01*
X92030142Y-92796801D01*
X92082655Y-92670022D01*
X92158893Y-92555925D01*
X92255925Y-92458893D01*
X92370022Y-92382655D01*
X92496801Y-92330142D01*
X92631388Y-92303371D01*
X92768612Y-92303371D01*
X92903199Y-92330142D01*
G37*
G36*
X162032228Y-91394448D02*
G01*
X162177117Y-91454463D01*
X162307515Y-91541592D01*
X162418408Y-91652485D01*
X162505537Y-91782883D01*
X162565552Y-91927772D01*
X162596148Y-92081586D01*
X162596148Y-92238414D01*
X162565552Y-92392228D01*
X162505537Y-92537117D01*
X162418408Y-92667515D01*
X162307515Y-92778408D01*
X162177117Y-92865537D01*
X162032228Y-92925552D01*
X161878414Y-92956148D01*
X161721586Y-92956148D01*
X161567772Y-92925552D01*
X161422883Y-92865537D01*
X161292485Y-92778408D01*
X161181592Y-92667515D01*
X161094463Y-92537117D01*
X161034448Y-92392228D01*
X161003852Y-92238414D01*
X161003852Y-92081586D01*
X161034448Y-91927772D01*
X161094463Y-91782883D01*
X161181592Y-91652485D01*
X161292485Y-91541592D01*
X161422883Y-91454463D01*
X161567772Y-91394448D01*
X161721586Y-91363852D01*
X161878414Y-91363852D01*
X162032228Y-91394448D01*
G37*
G36*
X169652228Y-91394448D02*
G01*
X169797117Y-91454463D01*
X169927515Y-91541592D01*
X170038408Y-91652485D01*
X170125537Y-91782883D01*
X170185552Y-91927772D01*
X170216148Y-92081586D01*
X170216148Y-92238414D01*
X170185552Y-92392228D01*
X170125537Y-92537117D01*
X170038408Y-92667515D01*
X169927515Y-92778408D01*
X169797117Y-92865537D01*
X169652228Y-92925552D01*
X169498414Y-92956148D01*
X169341586Y-92956148D01*
X169187772Y-92925552D01*
X169042883Y-92865537D01*
X168912485Y-92778408D01*
X168801592Y-92667515D01*
X168714463Y-92537117D01*
X168654448Y-92392228D01*
X168623852Y-92238414D01*
X168623852Y-92081586D01*
X168654448Y-91927772D01*
X168714463Y-91782883D01*
X168801592Y-91652485D01*
X168912485Y-91541592D01*
X169042883Y-91454463D01*
X169187772Y-91394448D01*
X169341586Y-91363852D01*
X169498414Y-91363852D01*
X169652228Y-91394448D01*
G37*
G36*
X129362228Y-91314448D02*
G01*
X129507117Y-91374463D01*
X129637515Y-91461592D01*
X129748408Y-91572485D01*
X129835537Y-91702883D01*
X129895552Y-91847772D01*
X129926148Y-92001586D01*
X129926148Y-92158414D01*
X129895552Y-92312228D01*
X129835537Y-92457117D01*
X129748408Y-92587515D01*
X129637515Y-92698408D01*
X129507117Y-92785537D01*
X129362228Y-92845552D01*
X129208414Y-92876148D01*
X129051586Y-92876148D01*
X128897772Y-92845552D01*
X128752883Y-92785537D01*
X128622485Y-92698408D01*
X128511592Y-92587515D01*
X128424463Y-92457117D01*
X128364448Y-92312228D01*
X128333852Y-92158414D01*
X128333852Y-92001586D01*
X128364448Y-91847772D01*
X128424463Y-91702883D01*
X128511592Y-91572485D01*
X128622485Y-91461592D01*
X128752883Y-91374463D01*
X128897772Y-91314448D01*
X129051586Y-91283852D01*
X129208414Y-91283852D01*
X129362228Y-91314448D01*
G37*
G36*
X136982228Y-91314448D02*
G01*
X137127117Y-91374463D01*
X137257515Y-91461592D01*
X137368408Y-91572485D01*
X137455537Y-91702883D01*
X137515552Y-91847772D01*
X137546148Y-92001586D01*
X137546148Y-92158414D01*
X137515552Y-92312228D01*
X137455537Y-92457117D01*
X137368408Y-92587515D01*
X137257515Y-92698408D01*
X137127117Y-92785537D01*
X136982228Y-92845552D01*
X136828414Y-92876148D01*
X136671586Y-92876148D01*
X136517772Y-92845552D01*
X136372883Y-92785537D01*
X136242485Y-92698408D01*
X136131592Y-92587515D01*
X136044463Y-92457117D01*
X135984448Y-92312228D01*
X135953852Y-92158414D01*
X135953852Y-92001586D01*
X135984448Y-91847772D01*
X136044463Y-91702883D01*
X136131592Y-91572485D01*
X136242485Y-91461592D01*
X136372883Y-91374463D01*
X136517772Y-91314448D01*
X136671586Y-91283852D01*
X136828414Y-91283852D01*
X136982228Y-91314448D01*
G37*
G36*
X204354850Y-87460964D02*
G01*
X204405040Y-87466787D01*
X204422189Y-87474359D01*
X204445671Y-87479030D01*
X204470810Y-87495827D01*
X204490696Y-87504608D01*
X204504277Y-87518189D01*
X204526777Y-87533223D01*
X204541810Y-87555722D01*
X204555391Y-87569303D01*
X204564170Y-87589186D01*
X204580970Y-87614329D01*
X204585641Y-87637812D01*
X204593212Y-87654959D01*
X204599033Y-87705139D01*
X204600000Y-87710000D01*
X204600000Y-90410000D01*
X204599032Y-90414863D01*
X204593212Y-90465040D01*
X204585641Y-90482185D01*
X204580970Y-90505671D01*
X204564169Y-90530815D01*
X204555391Y-90550696D01*
X204541812Y-90564274D01*
X204526777Y-90586777D01*
X204504274Y-90601812D01*
X204490696Y-90615391D01*
X204470815Y-90624169D01*
X204445671Y-90640970D01*
X204422185Y-90645641D01*
X204405040Y-90653212D01*
X204354861Y-90659032D01*
X204350000Y-90660000D01*
X201650000Y-90660000D01*
X201645138Y-90659032D01*
X201594959Y-90653212D01*
X201577812Y-90645641D01*
X201554329Y-90640970D01*
X201529186Y-90624170D01*
X201509303Y-90615391D01*
X201495722Y-90601810D01*
X201473223Y-90586777D01*
X201458189Y-90564277D01*
X201444608Y-90550696D01*
X201435827Y-90530810D01*
X201419030Y-90505671D01*
X201414359Y-90482189D01*
X201406787Y-90465040D01*
X201400964Y-90414849D01*
X201400000Y-90410000D01*
X201400000Y-87710000D01*
X201400964Y-87705150D01*
X201406787Y-87654959D01*
X201414359Y-87637808D01*
X201419030Y-87614329D01*
X201435826Y-87589191D01*
X201444608Y-87569303D01*
X201458191Y-87555719D01*
X201473223Y-87533223D01*
X201495719Y-87518191D01*
X201509303Y-87504608D01*
X201529191Y-87495826D01*
X201554329Y-87479030D01*
X201577808Y-87474359D01*
X201594959Y-87466787D01*
X201645151Y-87460964D01*
X201650000Y-87460000D01*
X204350000Y-87460000D01*
X204354850Y-87460964D01*
G37*
G36*
X162032228Y-88854448D02*
G01*
X162177117Y-88914463D01*
X162307515Y-89001592D01*
X162418408Y-89112485D01*
X162505537Y-89242883D01*
X162565552Y-89387772D01*
X162596148Y-89541586D01*
X162596148Y-89698414D01*
X162565552Y-89852228D01*
X162505537Y-89997117D01*
X162418408Y-90127515D01*
X162307515Y-90238408D01*
X162177117Y-90325537D01*
X162032228Y-90385552D01*
X161878414Y-90416148D01*
X161721586Y-90416148D01*
X161567772Y-90385552D01*
X161422883Y-90325537D01*
X161292485Y-90238408D01*
X161181592Y-90127515D01*
X161094463Y-89997117D01*
X161034448Y-89852228D01*
X161003852Y-89698414D01*
X161003852Y-89541586D01*
X161034448Y-89387772D01*
X161094463Y-89242883D01*
X161181592Y-89112485D01*
X161292485Y-89001592D01*
X161422883Y-88914463D01*
X161567772Y-88854448D01*
X161721586Y-88823852D01*
X161878414Y-88823852D01*
X162032228Y-88854448D01*
G37*
G36*
X169652228Y-88854448D02*
G01*
X169797117Y-88914463D01*
X169927515Y-89001592D01*
X170038408Y-89112485D01*
X170125537Y-89242883D01*
X170185552Y-89387772D01*
X170216148Y-89541586D01*
X170216148Y-89698414D01*
X170185552Y-89852228D01*
X170125537Y-89997117D01*
X170038408Y-90127515D01*
X169927515Y-90238408D01*
X169797117Y-90325537D01*
X169652228Y-90385552D01*
X169498414Y-90416148D01*
X169341586Y-90416148D01*
X169187772Y-90385552D01*
X169042883Y-90325537D01*
X168912485Y-90238408D01*
X168801592Y-90127515D01*
X168714463Y-89997117D01*
X168654448Y-89852228D01*
X168623852Y-89698414D01*
X168623852Y-89541586D01*
X168654448Y-89387772D01*
X168714463Y-89242883D01*
X168801592Y-89112485D01*
X168912485Y-89001592D01*
X169042883Y-88914463D01*
X169187772Y-88854448D01*
X169341586Y-88823852D01*
X169498414Y-88823852D01*
X169652228Y-88854448D01*
G37*
G36*
X129362228Y-88774448D02*
G01*
X129507117Y-88834463D01*
X129637515Y-88921592D01*
X129748408Y-89032485D01*
X129835537Y-89162883D01*
X129895552Y-89307772D01*
X129926148Y-89461586D01*
X129926148Y-89618414D01*
X129895552Y-89772228D01*
X129835537Y-89917117D01*
X129748408Y-90047515D01*
X129637515Y-90158408D01*
X129507117Y-90245537D01*
X129362228Y-90305552D01*
X129208414Y-90336148D01*
X129051586Y-90336148D01*
X128897772Y-90305552D01*
X128752883Y-90245537D01*
X128622485Y-90158408D01*
X128511592Y-90047515D01*
X128424463Y-89917117D01*
X128364448Y-89772228D01*
X128333852Y-89618414D01*
X128333852Y-89461586D01*
X128364448Y-89307772D01*
X128424463Y-89162883D01*
X128511592Y-89032485D01*
X128622485Y-88921592D01*
X128752883Y-88834463D01*
X128897772Y-88774448D01*
X129051586Y-88743852D01*
X129208414Y-88743852D01*
X129362228Y-88774448D01*
G37*
G36*
X136982228Y-88774448D02*
G01*
X137127117Y-88834463D01*
X137257515Y-88921592D01*
X137368408Y-89032485D01*
X137455537Y-89162883D01*
X137515552Y-89307772D01*
X137546148Y-89461586D01*
X137546148Y-89618414D01*
X137515552Y-89772228D01*
X137455537Y-89917117D01*
X137368408Y-90047515D01*
X137257515Y-90158408D01*
X137127117Y-90245537D01*
X136982228Y-90305552D01*
X136828414Y-90336148D01*
X136671586Y-90336148D01*
X136517772Y-90305552D01*
X136372883Y-90245537D01*
X136242485Y-90158408D01*
X136131592Y-90047515D01*
X136044463Y-89917117D01*
X135984448Y-89772228D01*
X135953852Y-89618414D01*
X135953852Y-89461586D01*
X135984448Y-89307772D01*
X136044463Y-89162883D01*
X136131592Y-89032485D01*
X136242485Y-88921592D01*
X136372883Y-88834463D01*
X136517772Y-88774448D01*
X136671586Y-88743852D01*
X136828414Y-88743852D01*
X136982228Y-88774448D01*
G37*
G36*
X106496742Y-87936601D02*
G01*
X106650687Y-88000367D01*
X106789234Y-88092941D01*
X106907059Y-88210766D01*
X106999633Y-88349313D01*
X107063399Y-88503258D01*
X107095907Y-88666685D01*
X107095907Y-88833315D01*
X107063399Y-88996742D01*
X106999633Y-89150687D01*
X106907059Y-89289234D01*
X106789234Y-89407059D01*
X106650687Y-89499633D01*
X106496742Y-89563399D01*
X106333315Y-89595907D01*
X106166685Y-89595907D01*
X106003258Y-89563399D01*
X105849313Y-89499633D01*
X105710766Y-89407059D01*
X105592941Y-89289234D01*
X105500367Y-89150687D01*
X105436601Y-88996742D01*
X105404093Y-88833315D01*
X105404093Y-88666685D01*
X105436601Y-88503258D01*
X105500367Y-88349313D01*
X105592941Y-88210766D01*
X105710766Y-88092941D01*
X105849313Y-88000367D01*
X106003258Y-87936601D01*
X106166685Y-87904093D01*
X106333315Y-87904093D01*
X106496742Y-87936601D01*
G37*
G36*
X110996742Y-87936601D02*
G01*
X111150687Y-88000367D01*
X111289234Y-88092941D01*
X111407059Y-88210766D01*
X111499633Y-88349313D01*
X111563399Y-88503258D01*
X111595907Y-88666685D01*
X111595907Y-88833315D01*
X111563399Y-88996742D01*
X111499633Y-89150687D01*
X111407059Y-89289234D01*
X111289234Y-89407059D01*
X111150687Y-89499633D01*
X110996742Y-89563399D01*
X110833315Y-89595907D01*
X110666685Y-89595907D01*
X110503258Y-89563399D01*
X110349313Y-89499633D01*
X110210766Y-89407059D01*
X110092941Y-89289234D01*
X110000367Y-89150687D01*
X109936601Y-88996742D01*
X109904093Y-88833315D01*
X109904093Y-88666685D01*
X109936601Y-88503258D01*
X110000367Y-88349313D01*
X110092941Y-88210766D01*
X110210766Y-88092941D01*
X110349313Y-88000367D01*
X110503258Y-87936601D01*
X110666685Y-87904093D01*
X110833315Y-87904093D01*
X110996742Y-87936601D01*
G37*
G36*
X117390285Y-87543060D02*
G01*
X117571397Y-87618079D01*
X117734393Y-87726990D01*
X117873010Y-87865607D01*
X117981921Y-88028603D01*
X118056940Y-88209715D01*
X118095185Y-88401983D01*
X118095185Y-88598017D01*
X118056940Y-88790285D01*
X117981921Y-88971397D01*
X117873010Y-89134393D01*
X117734393Y-89273010D01*
X117571397Y-89381921D01*
X117390285Y-89456940D01*
X117198017Y-89495185D01*
X117001983Y-89495185D01*
X116809715Y-89456940D01*
X116628603Y-89381921D01*
X116465607Y-89273010D01*
X116326990Y-89134393D01*
X116218079Y-88971397D01*
X116143060Y-88790285D01*
X116104815Y-88598017D01*
X116104815Y-88401983D01*
X116143060Y-88209715D01*
X116218079Y-88028603D01*
X116326990Y-87865607D01*
X116465607Y-87726990D01*
X116628603Y-87618079D01*
X116809715Y-87543060D01*
X117001983Y-87504815D01*
X117198017Y-87504815D01*
X117390285Y-87543060D01*
G37*
G36*
X184068612Y-87505133D02*
G01*
X184078316Y-87505133D01*
X184106272Y-87512623D01*
X184174084Y-87526112D01*
X184206091Y-87539370D01*
X184229610Y-87545672D01*
X184250698Y-87557847D01*
X184282702Y-87571104D01*
X184340184Y-87609512D01*
X184365257Y-87623988D01*
X184372119Y-87630850D01*
X184380449Y-87636416D01*
X184463583Y-87719550D01*
X184469148Y-87727879D01*
X184476012Y-87734743D01*
X184490489Y-87759818D01*
X184528895Y-87817297D01*
X184542150Y-87849298D01*
X184554328Y-87870390D01*
X184560630Y-87893912D01*
X184573887Y-87925915D01*
X184587374Y-87993722D01*
X184594867Y-88021684D01*
X184594867Y-88031388D01*
X184596822Y-88041217D01*
X184596822Y-88158782D01*
X184594867Y-88168610D01*
X184594867Y-88178316D01*
X184587373Y-88206280D01*
X184573887Y-88274084D01*
X184560631Y-88306084D01*
X184554328Y-88329610D01*
X184542149Y-88350704D01*
X184528895Y-88382702D01*
X184490493Y-88440173D01*
X184476012Y-88465257D01*
X184469146Y-88472122D01*
X184463583Y-88480449D01*
X184380449Y-88563583D01*
X184372122Y-88569146D01*
X184365257Y-88576012D01*
X184340173Y-88590493D01*
X184282702Y-88628895D01*
X184250704Y-88642149D01*
X184229610Y-88654328D01*
X184206084Y-88660631D01*
X184174084Y-88673887D01*
X184106278Y-88687374D01*
X184078316Y-88694867D01*
X184068611Y-88694867D01*
X184058783Y-88696822D01*
X183941217Y-88696822D01*
X183931389Y-88694867D01*
X183921684Y-88694867D01*
X183893722Y-88687374D01*
X183825915Y-88673887D01*
X183793912Y-88660630D01*
X183770390Y-88654328D01*
X183749298Y-88642150D01*
X183717297Y-88628895D01*
X183659818Y-88590489D01*
X183634743Y-88576012D01*
X183627879Y-88569148D01*
X183619550Y-88563583D01*
X183536416Y-88480449D01*
X183530850Y-88472119D01*
X183523988Y-88465257D01*
X183509512Y-88440184D01*
X183471104Y-88382702D01*
X183457847Y-88350698D01*
X183445672Y-88329610D01*
X183439370Y-88306091D01*
X183426112Y-88274084D01*
X183412624Y-88206274D01*
X183405133Y-88178316D01*
X183405133Y-88168610D01*
X183403178Y-88158782D01*
X183403178Y-88041217D01*
X183405133Y-88031388D01*
X183405133Y-88021684D01*
X183412623Y-87993728D01*
X183426112Y-87925915D01*
X183439371Y-87893905D01*
X183445672Y-87870390D01*
X183457845Y-87849304D01*
X183471104Y-87817297D01*
X183509516Y-87759807D01*
X183523988Y-87734743D01*
X183530848Y-87727882D01*
X183536416Y-87719550D01*
X183619550Y-87636416D01*
X183627882Y-87630848D01*
X183634743Y-87623988D01*
X183659807Y-87609516D01*
X183717297Y-87571104D01*
X183749304Y-87557845D01*
X183770390Y-87545672D01*
X183793905Y-87539371D01*
X183825915Y-87526112D01*
X183893728Y-87512623D01*
X183921684Y-87505133D01*
X183931388Y-87505133D01*
X183941217Y-87503178D01*
X184058783Y-87503178D01*
X184068612Y-87505133D01*
G37*
G36*
X186068612Y-87505133D02*
G01*
X186078316Y-87505133D01*
X186106272Y-87512623D01*
X186174084Y-87526112D01*
X186206091Y-87539370D01*
X186229610Y-87545672D01*
X186250698Y-87557847D01*
X186282702Y-87571104D01*
X186340184Y-87609512D01*
X186365257Y-87623988D01*
X186372119Y-87630850D01*
X186380449Y-87636416D01*
X186463583Y-87719550D01*
X186469148Y-87727879D01*
X186476012Y-87734743D01*
X186490489Y-87759818D01*
X186528895Y-87817297D01*
X186542150Y-87849298D01*
X186554328Y-87870390D01*
X186560630Y-87893912D01*
X186573887Y-87925915D01*
X186587374Y-87993722D01*
X186594867Y-88021684D01*
X186594867Y-88031388D01*
X186596822Y-88041217D01*
X186596822Y-88158782D01*
X186594867Y-88168610D01*
X186594867Y-88178316D01*
X186587373Y-88206280D01*
X186573887Y-88274084D01*
X186560631Y-88306084D01*
X186554328Y-88329610D01*
X186542149Y-88350704D01*
X186528895Y-88382702D01*
X186490493Y-88440173D01*
X186476012Y-88465257D01*
X186469146Y-88472122D01*
X186463583Y-88480449D01*
X186380449Y-88563583D01*
X186372122Y-88569146D01*
X186365257Y-88576012D01*
X186340173Y-88590493D01*
X186282702Y-88628895D01*
X186250704Y-88642149D01*
X186229610Y-88654328D01*
X186206084Y-88660631D01*
X186174084Y-88673887D01*
X186106278Y-88687374D01*
X186078316Y-88694867D01*
X186068611Y-88694867D01*
X186058783Y-88696822D01*
X185941217Y-88696822D01*
X185931389Y-88694867D01*
X185921684Y-88694867D01*
X185893722Y-88687374D01*
X185825915Y-88673887D01*
X185793912Y-88660630D01*
X185770390Y-88654328D01*
X185749298Y-88642150D01*
X185717297Y-88628895D01*
X185659818Y-88590489D01*
X185634743Y-88576012D01*
X185627879Y-88569148D01*
X185619550Y-88563583D01*
X185536416Y-88480449D01*
X185530850Y-88472119D01*
X185523988Y-88465257D01*
X185509512Y-88440184D01*
X185471104Y-88382702D01*
X185457847Y-88350698D01*
X185445672Y-88329610D01*
X185439370Y-88306091D01*
X185426112Y-88274084D01*
X185412624Y-88206274D01*
X185405133Y-88178316D01*
X185405133Y-88168610D01*
X185403178Y-88158782D01*
X185403178Y-88041217D01*
X185405133Y-88031388D01*
X185405133Y-88021684D01*
X185412623Y-87993728D01*
X185426112Y-87925915D01*
X185439371Y-87893905D01*
X185445672Y-87870390D01*
X185457845Y-87849304D01*
X185471104Y-87817297D01*
X185509516Y-87759807D01*
X185523988Y-87734743D01*
X185530848Y-87727882D01*
X185536416Y-87719550D01*
X185619550Y-87636416D01*
X185627882Y-87630848D01*
X185634743Y-87623988D01*
X185659807Y-87609516D01*
X185717297Y-87571104D01*
X185749304Y-87557845D01*
X185770390Y-87545672D01*
X185793905Y-87539371D01*
X185825915Y-87526112D01*
X185893728Y-87512623D01*
X185921684Y-87505133D01*
X185931388Y-87505133D01*
X185941217Y-87503178D01*
X186058783Y-87503178D01*
X186068612Y-87505133D01*
G37*
G36*
X162032228Y-86314448D02*
G01*
X162177117Y-86374463D01*
X162307515Y-86461592D01*
X162418408Y-86572485D01*
X162505537Y-86702883D01*
X162565552Y-86847772D01*
X162596148Y-87001586D01*
X162596148Y-87158414D01*
X162565552Y-87312228D01*
X162505537Y-87457117D01*
X162418408Y-87587515D01*
X162307515Y-87698408D01*
X162177117Y-87785537D01*
X162032228Y-87845552D01*
X161878414Y-87876148D01*
X161721586Y-87876148D01*
X161567772Y-87845552D01*
X161422883Y-87785537D01*
X161292485Y-87698408D01*
X161181592Y-87587515D01*
X161094463Y-87457117D01*
X161034448Y-87312228D01*
X161003852Y-87158414D01*
X161003852Y-87001586D01*
X161034448Y-86847772D01*
X161094463Y-86702883D01*
X161181592Y-86572485D01*
X161292485Y-86461592D01*
X161422883Y-86374463D01*
X161567772Y-86314448D01*
X161721586Y-86283852D01*
X161878414Y-86283852D01*
X162032228Y-86314448D01*
G37*
G36*
X169652228Y-86314448D02*
G01*
X169797117Y-86374463D01*
X169927515Y-86461592D01*
X170038408Y-86572485D01*
X170125537Y-86702883D01*
X170185552Y-86847772D01*
X170216148Y-87001586D01*
X170216148Y-87158414D01*
X170185552Y-87312228D01*
X170125537Y-87457117D01*
X170038408Y-87587515D01*
X169927515Y-87698408D01*
X169797117Y-87785537D01*
X169652228Y-87845552D01*
X169498414Y-87876148D01*
X169341586Y-87876148D01*
X169187772Y-87845552D01*
X169042883Y-87785537D01*
X168912485Y-87698408D01*
X168801592Y-87587515D01*
X168714463Y-87457117D01*
X168654448Y-87312228D01*
X168623852Y-87158414D01*
X168623852Y-87001586D01*
X168654448Y-86847772D01*
X168714463Y-86702883D01*
X168801592Y-86572485D01*
X168912485Y-86461592D01*
X169042883Y-86374463D01*
X169187772Y-86314448D01*
X169341586Y-86283852D01*
X169498414Y-86283852D01*
X169652228Y-86314448D01*
G37*
G36*
X129362228Y-86234448D02*
G01*
X129507117Y-86294463D01*
X129637515Y-86381592D01*
X129748408Y-86492485D01*
X129835537Y-86622883D01*
X129895552Y-86767772D01*
X129926148Y-86921586D01*
X129926148Y-87078414D01*
X129895552Y-87232228D01*
X129835537Y-87377117D01*
X129748408Y-87507515D01*
X129637515Y-87618408D01*
X129507117Y-87705537D01*
X129362228Y-87765552D01*
X129208414Y-87796148D01*
X129051586Y-87796148D01*
X128897772Y-87765552D01*
X128752883Y-87705537D01*
X128622485Y-87618408D01*
X128511592Y-87507515D01*
X128424463Y-87377117D01*
X128364448Y-87232228D01*
X128333852Y-87078414D01*
X128333852Y-86921586D01*
X128364448Y-86767772D01*
X128424463Y-86622883D01*
X128511592Y-86492485D01*
X128622485Y-86381592D01*
X128752883Y-86294463D01*
X128897772Y-86234448D01*
X129051586Y-86203852D01*
X129208414Y-86203852D01*
X129362228Y-86234448D01*
G37*
G36*
X136982228Y-86234448D02*
G01*
X137127117Y-86294463D01*
X137257515Y-86381592D01*
X137368408Y-86492485D01*
X137455537Y-86622883D01*
X137515552Y-86767772D01*
X137546148Y-86921586D01*
X137546148Y-87078414D01*
X137515552Y-87232228D01*
X137455537Y-87377117D01*
X137368408Y-87507515D01*
X137257515Y-87618408D01*
X137127117Y-87705537D01*
X136982228Y-87765552D01*
X136828414Y-87796148D01*
X136671586Y-87796148D01*
X136517772Y-87765552D01*
X136372883Y-87705537D01*
X136242485Y-87618408D01*
X136131592Y-87507515D01*
X136044463Y-87377117D01*
X135984448Y-87232228D01*
X135953852Y-87078414D01*
X135953852Y-86921586D01*
X135984448Y-86767772D01*
X136044463Y-86622883D01*
X136131592Y-86492485D01*
X136242485Y-86381592D01*
X136372883Y-86294463D01*
X136517772Y-86234448D01*
X136671586Y-86203852D01*
X136828414Y-86203852D01*
X136982228Y-86234448D01*
G37*
G36*
X162032228Y-83774448D02*
G01*
X162177117Y-83834463D01*
X162307515Y-83921592D01*
X162418408Y-84032485D01*
X162505537Y-84162883D01*
X162565552Y-84307772D01*
X162596148Y-84461586D01*
X162596148Y-84618414D01*
X162565552Y-84772228D01*
X162505537Y-84917117D01*
X162418408Y-85047515D01*
X162307515Y-85158408D01*
X162177117Y-85245537D01*
X162032228Y-85305552D01*
X161878414Y-85336148D01*
X161721586Y-85336148D01*
X161567772Y-85305552D01*
X161422883Y-85245537D01*
X161292485Y-85158408D01*
X161181592Y-85047515D01*
X161094463Y-84917117D01*
X161034448Y-84772228D01*
X161003852Y-84618414D01*
X161003852Y-84461586D01*
X161034448Y-84307772D01*
X161094463Y-84162883D01*
X161181592Y-84032485D01*
X161292485Y-83921592D01*
X161422883Y-83834463D01*
X161567772Y-83774448D01*
X161721586Y-83743852D01*
X161878414Y-83743852D01*
X162032228Y-83774448D01*
G37*
G36*
X169652228Y-83774448D02*
G01*
X169797117Y-83834463D01*
X169927515Y-83921592D01*
X170038408Y-84032485D01*
X170125537Y-84162883D01*
X170185552Y-84307772D01*
X170216148Y-84461586D01*
X170216148Y-84618414D01*
X170185552Y-84772228D01*
X170125537Y-84917117D01*
X170038408Y-85047515D01*
X169927515Y-85158408D01*
X169797117Y-85245537D01*
X169652228Y-85305552D01*
X169498414Y-85336148D01*
X169341586Y-85336148D01*
X169187772Y-85305552D01*
X169042883Y-85245537D01*
X168912485Y-85158408D01*
X168801592Y-85047515D01*
X168714463Y-84917117D01*
X168654448Y-84772228D01*
X168623852Y-84618414D01*
X168623852Y-84461586D01*
X168654448Y-84307772D01*
X168714463Y-84162883D01*
X168801592Y-84032485D01*
X168912485Y-83921592D01*
X169042883Y-83834463D01*
X169187772Y-83774448D01*
X169341586Y-83743852D01*
X169498414Y-83743852D01*
X169652228Y-83774448D01*
G37*
G36*
X129362228Y-83694448D02*
G01*
X129507117Y-83754463D01*
X129637515Y-83841592D01*
X129748408Y-83952485D01*
X129835537Y-84082883D01*
X129895552Y-84227772D01*
X129926148Y-84381586D01*
X129926148Y-84538414D01*
X129895552Y-84692228D01*
X129835537Y-84837117D01*
X129748408Y-84967515D01*
X129637515Y-85078408D01*
X129507117Y-85165537D01*
X129362228Y-85225552D01*
X129208414Y-85256148D01*
X129051586Y-85256148D01*
X128897772Y-85225552D01*
X128752883Y-85165537D01*
X128622485Y-85078408D01*
X128511592Y-84967515D01*
X128424463Y-84837117D01*
X128364448Y-84692228D01*
X128333852Y-84538414D01*
X128333852Y-84381586D01*
X128364448Y-84227772D01*
X128424463Y-84082883D01*
X128511592Y-83952485D01*
X128622485Y-83841592D01*
X128752883Y-83754463D01*
X128897772Y-83694448D01*
X129051586Y-83663852D01*
X129208414Y-83663852D01*
X129362228Y-83694448D01*
G37*
G36*
X136982228Y-83694448D02*
G01*
X137127117Y-83754463D01*
X137257515Y-83841592D01*
X137368408Y-83952485D01*
X137455537Y-84082883D01*
X137515552Y-84227772D01*
X137546148Y-84381586D01*
X137546148Y-84538414D01*
X137515552Y-84692228D01*
X137455537Y-84837117D01*
X137368408Y-84967515D01*
X137257515Y-85078408D01*
X137127117Y-85165537D01*
X136982228Y-85225552D01*
X136828414Y-85256148D01*
X136671586Y-85256148D01*
X136517772Y-85225552D01*
X136372883Y-85165537D01*
X136242485Y-85078408D01*
X136131592Y-84967515D01*
X136044463Y-84837117D01*
X135984448Y-84692228D01*
X135953852Y-84538414D01*
X135953852Y-84381586D01*
X135984448Y-84227772D01*
X136044463Y-84082883D01*
X136131592Y-83952485D01*
X136242485Y-83841592D01*
X136372883Y-83754463D01*
X136517772Y-83694448D01*
X136671586Y-83663852D01*
X136828414Y-83663852D01*
X136982228Y-83694448D01*
G37*
G36*
X143432228Y-83434448D02*
G01*
X143577117Y-83494463D01*
X143707515Y-83581592D01*
X143818408Y-83692485D01*
X143905537Y-83822883D01*
X143965552Y-83967772D01*
X143996148Y-84121586D01*
X143996148Y-84278414D01*
X143965552Y-84432228D01*
X143905537Y-84577117D01*
X143818408Y-84707515D01*
X143707515Y-84818408D01*
X143577117Y-84905537D01*
X143432228Y-84965552D01*
X143278414Y-84996148D01*
X143121586Y-84996148D01*
X142967772Y-84965552D01*
X142822883Y-84905537D01*
X142692485Y-84818408D01*
X142581592Y-84707515D01*
X142494463Y-84577117D01*
X142434448Y-84432228D01*
X142403852Y-84278414D01*
X142403852Y-84121586D01*
X142434448Y-83967772D01*
X142494463Y-83822883D01*
X142581592Y-83692485D01*
X142692485Y-83581592D01*
X142822883Y-83494463D01*
X142967772Y-83434448D01*
X143121586Y-83403852D01*
X143278414Y-83403852D01*
X143432228Y-83434448D01*
G37*
G36*
X153592228Y-83434448D02*
G01*
X153737117Y-83494463D01*
X153867515Y-83581592D01*
X153978408Y-83692485D01*
X154065537Y-83822883D01*
X154125552Y-83967772D01*
X154156148Y-84121586D01*
X154156148Y-84278414D01*
X154125552Y-84432228D01*
X154065537Y-84577117D01*
X153978408Y-84707515D01*
X153867515Y-84818408D01*
X153737117Y-84905537D01*
X153592228Y-84965552D01*
X153438414Y-84996148D01*
X153281586Y-84996148D01*
X153127772Y-84965552D01*
X152982883Y-84905537D01*
X152852485Y-84818408D01*
X152741592Y-84707515D01*
X152654463Y-84577117D01*
X152594448Y-84432228D01*
X152563852Y-84278414D01*
X152563852Y-84121586D01*
X152594448Y-83967772D01*
X152654463Y-83822883D01*
X152741592Y-83692485D01*
X152852485Y-83581592D01*
X152982883Y-83494463D01*
X153127772Y-83434448D01*
X153281586Y-83403852D01*
X153438414Y-83403852D01*
X153592228Y-83434448D01*
G37*
G36*
X117390285Y-82543060D02*
G01*
X117571397Y-82618079D01*
X117734393Y-82726990D01*
X117873010Y-82865607D01*
X117981921Y-83028603D01*
X118056940Y-83209715D01*
X118095185Y-83401983D01*
X118095185Y-83598017D01*
X118056940Y-83790285D01*
X117981921Y-83971397D01*
X117873010Y-84134393D01*
X117734393Y-84273010D01*
X117571397Y-84381921D01*
X117390285Y-84456940D01*
X117198017Y-84495185D01*
X117001983Y-84495185D01*
X116809715Y-84456940D01*
X116628603Y-84381921D01*
X116465607Y-84273010D01*
X116326990Y-84134393D01*
X116218079Y-83971397D01*
X116143060Y-83790285D01*
X116104815Y-83598017D01*
X116104815Y-83401983D01*
X116143060Y-83209715D01*
X116218079Y-83028603D01*
X116326990Y-82865607D01*
X116465607Y-82726990D01*
X116628603Y-82618079D01*
X116809715Y-82543060D01*
X117001983Y-82504815D01*
X117198017Y-82504815D01*
X117390285Y-82543060D01*
G37*
G36*
X207954850Y-81200964D02*
G01*
X208005040Y-81206787D01*
X208022189Y-81214359D01*
X208045671Y-81219030D01*
X208070810Y-81235827D01*
X208090696Y-81244608D01*
X208104277Y-81258189D01*
X208126777Y-81273223D01*
X208141810Y-81295722D01*
X208155391Y-81309303D01*
X208164170Y-81329186D01*
X208180970Y-81354329D01*
X208185641Y-81377812D01*
X208193212Y-81394959D01*
X208199033Y-81445139D01*
X208200000Y-81450000D01*
X208200000Y-83550000D01*
X208199032Y-83554863D01*
X208193212Y-83605040D01*
X208185641Y-83622185D01*
X208180970Y-83645671D01*
X208164169Y-83670815D01*
X208155391Y-83690696D01*
X208141812Y-83704274D01*
X208126777Y-83726777D01*
X208104274Y-83741812D01*
X208090696Y-83755391D01*
X208070815Y-83764169D01*
X208045671Y-83780970D01*
X208022185Y-83785641D01*
X208005040Y-83793212D01*
X207954861Y-83799032D01*
X207950000Y-83800000D01*
X205850000Y-83800000D01*
X205845138Y-83799032D01*
X205794959Y-83793212D01*
X205777812Y-83785641D01*
X205754329Y-83780970D01*
X205729186Y-83764170D01*
X205709303Y-83755391D01*
X205695722Y-83741810D01*
X205673223Y-83726777D01*
X205658189Y-83704277D01*
X205644608Y-83690696D01*
X205635827Y-83670810D01*
X205619030Y-83645671D01*
X205614359Y-83622189D01*
X205606787Y-83605040D01*
X205600964Y-83554849D01*
X205600000Y-83550000D01*
X205600000Y-81450000D01*
X205600964Y-81445150D01*
X205606787Y-81394959D01*
X205614359Y-81377808D01*
X205619030Y-81354329D01*
X205635826Y-81329191D01*
X205644608Y-81309303D01*
X205658191Y-81295719D01*
X205673223Y-81273223D01*
X205695719Y-81258191D01*
X205709303Y-81244608D01*
X205729191Y-81235826D01*
X205754329Y-81219030D01*
X205777808Y-81214359D01*
X205794959Y-81206787D01*
X205845151Y-81200964D01*
X205850000Y-81200000D01*
X207950000Y-81200000D01*
X207954850Y-81200964D01*
G37*
G36*
X191561256Y-81838754D02*
G01*
X191724257Y-81906271D01*
X191870954Y-82004291D01*
X191995709Y-82129046D01*
X192093729Y-82275743D01*
X192161246Y-82438744D01*
X192195666Y-82611785D01*
X192195666Y-82788215D01*
X192161246Y-82961256D01*
X192093729Y-83124257D01*
X191995709Y-83270954D01*
X191870954Y-83395709D01*
X191724257Y-83493729D01*
X191561256Y-83561246D01*
X191388215Y-83595666D01*
X191211785Y-83595666D01*
X191038744Y-83561246D01*
X190875743Y-83493729D01*
X190729046Y-83395709D01*
X190604291Y-83270954D01*
X190506271Y-83124257D01*
X190438754Y-82961256D01*
X190404334Y-82788215D01*
X190404334Y-82611785D01*
X190438754Y-82438744D01*
X190506271Y-82275743D01*
X190604291Y-82129046D01*
X190729046Y-82004291D01*
X190875743Y-81906271D01*
X191038744Y-81838754D01*
X191211785Y-81804334D01*
X191388215Y-81804334D01*
X191561256Y-81838754D01*
G37*
G36*
X194961256Y-81838754D02*
G01*
X195124257Y-81906271D01*
X195270954Y-82004291D01*
X195395709Y-82129046D01*
X195493729Y-82275743D01*
X195561246Y-82438744D01*
X195595666Y-82611785D01*
X195595666Y-82788215D01*
X195561246Y-82961256D01*
X195493729Y-83124257D01*
X195395709Y-83270954D01*
X195270954Y-83395709D01*
X195124257Y-83493729D01*
X194961256Y-83561246D01*
X194788215Y-83595666D01*
X194611785Y-83595666D01*
X194438744Y-83561246D01*
X194275743Y-83493729D01*
X194129046Y-83395709D01*
X194004291Y-83270954D01*
X193906271Y-83124257D01*
X193838754Y-82961256D01*
X193804334Y-82788215D01*
X193804334Y-82611785D01*
X193838754Y-82438744D01*
X193906271Y-82275743D01*
X194004291Y-82129046D01*
X194129046Y-82004291D01*
X194275743Y-81906271D01*
X194438744Y-81838754D01*
X194611785Y-81804334D01*
X194788215Y-81804334D01*
X194961256Y-81838754D01*
G37*
G36*
X106496742Y-81436601D02*
G01*
X106650687Y-81500367D01*
X106789234Y-81592941D01*
X106907059Y-81710766D01*
X106999633Y-81849313D01*
X107063399Y-82003258D01*
X107095907Y-82166685D01*
X107095907Y-82333315D01*
X107063399Y-82496742D01*
X106999633Y-82650687D01*
X106907059Y-82789234D01*
X106789234Y-82907059D01*
X106650687Y-82999633D01*
X106496742Y-83063399D01*
X106333315Y-83095907D01*
X106166685Y-83095907D01*
X106003258Y-83063399D01*
X105849313Y-82999633D01*
X105710766Y-82907059D01*
X105592941Y-82789234D01*
X105500367Y-82650687D01*
X105436601Y-82496742D01*
X105404093Y-82333315D01*
X105404093Y-82166685D01*
X105436601Y-82003258D01*
X105500367Y-81849313D01*
X105592941Y-81710766D01*
X105710766Y-81592941D01*
X105849313Y-81500367D01*
X106003258Y-81436601D01*
X106166685Y-81404093D01*
X106333315Y-81404093D01*
X106496742Y-81436601D01*
G37*
G36*
X110996742Y-81436601D02*
G01*
X111150687Y-81500367D01*
X111289234Y-81592941D01*
X111407059Y-81710766D01*
X111499633Y-81849313D01*
X111563399Y-82003258D01*
X111595907Y-82166685D01*
X111595907Y-82333315D01*
X111563399Y-82496742D01*
X111499633Y-82650687D01*
X111407059Y-82789234D01*
X111289234Y-82907059D01*
X111150687Y-82999633D01*
X110996742Y-83063399D01*
X110833315Y-83095907D01*
X110666685Y-83095907D01*
X110503258Y-83063399D01*
X110349313Y-82999633D01*
X110210766Y-82907059D01*
X110092941Y-82789234D01*
X110000367Y-82650687D01*
X109936601Y-82496742D01*
X109904093Y-82333315D01*
X109904093Y-82166685D01*
X109936601Y-82003258D01*
X110000367Y-81849313D01*
X110092941Y-81710766D01*
X110210766Y-81592941D01*
X110349313Y-81500367D01*
X110503258Y-81436601D01*
X110666685Y-81404093D01*
X110833315Y-81404093D01*
X110996742Y-81436601D01*
G37*
G36*
X162032228Y-81234448D02*
G01*
X162177117Y-81294463D01*
X162307515Y-81381592D01*
X162418408Y-81492485D01*
X162505537Y-81622883D01*
X162565552Y-81767772D01*
X162596148Y-81921586D01*
X162596148Y-82078414D01*
X162565552Y-82232228D01*
X162505537Y-82377117D01*
X162418408Y-82507515D01*
X162307515Y-82618408D01*
X162177117Y-82705537D01*
X162032228Y-82765552D01*
X161878414Y-82796148D01*
X161721586Y-82796148D01*
X161567772Y-82765552D01*
X161422883Y-82705537D01*
X161292485Y-82618408D01*
X161181592Y-82507515D01*
X161094463Y-82377117D01*
X161034448Y-82232228D01*
X161003852Y-82078414D01*
X161003852Y-81921586D01*
X161034448Y-81767772D01*
X161094463Y-81622883D01*
X161181592Y-81492485D01*
X161292485Y-81381592D01*
X161422883Y-81294463D01*
X161567772Y-81234448D01*
X161721586Y-81203852D01*
X161878414Y-81203852D01*
X162032228Y-81234448D01*
G37*
G36*
X169652228Y-81234448D02*
G01*
X169797117Y-81294463D01*
X169927515Y-81381592D01*
X170038408Y-81492485D01*
X170125537Y-81622883D01*
X170185552Y-81767772D01*
X170216148Y-81921586D01*
X170216148Y-82078414D01*
X170185552Y-82232228D01*
X170125537Y-82377117D01*
X170038408Y-82507515D01*
X169927515Y-82618408D01*
X169797117Y-82705537D01*
X169652228Y-82765552D01*
X169498414Y-82796148D01*
X169341586Y-82796148D01*
X169187772Y-82765552D01*
X169042883Y-82705537D01*
X168912485Y-82618408D01*
X168801592Y-82507515D01*
X168714463Y-82377117D01*
X168654448Y-82232228D01*
X168623852Y-82078414D01*
X168623852Y-81921586D01*
X168654448Y-81767772D01*
X168714463Y-81622883D01*
X168801592Y-81492485D01*
X168912485Y-81381592D01*
X169042883Y-81294463D01*
X169187772Y-81234448D01*
X169341586Y-81203852D01*
X169498414Y-81203852D01*
X169652228Y-81234448D01*
G37*
G36*
X129362228Y-81154448D02*
G01*
X129507117Y-81214463D01*
X129637515Y-81301592D01*
X129748408Y-81412485D01*
X129835537Y-81542883D01*
X129895552Y-81687772D01*
X129926148Y-81841586D01*
X129926148Y-81998414D01*
X129895552Y-82152228D01*
X129835537Y-82297117D01*
X129748408Y-82427515D01*
X129637515Y-82538408D01*
X129507117Y-82625537D01*
X129362228Y-82685552D01*
X129208414Y-82716148D01*
X129051586Y-82716148D01*
X128897772Y-82685552D01*
X128752883Y-82625537D01*
X128622485Y-82538408D01*
X128511592Y-82427515D01*
X128424463Y-82297117D01*
X128364448Y-82152228D01*
X128333852Y-81998414D01*
X128333852Y-81841586D01*
X128364448Y-81687772D01*
X128424463Y-81542883D01*
X128511592Y-81412485D01*
X128622485Y-81301592D01*
X128752883Y-81214463D01*
X128897772Y-81154448D01*
X129051586Y-81123852D01*
X129208414Y-81123852D01*
X129362228Y-81154448D01*
G37*
G36*
X136982228Y-81154448D02*
G01*
X137127117Y-81214463D01*
X137257515Y-81301592D01*
X137368408Y-81412485D01*
X137455537Y-81542883D01*
X137515552Y-81687772D01*
X137546148Y-81841586D01*
X137546148Y-81998414D01*
X137515552Y-82152228D01*
X137455537Y-82297117D01*
X137368408Y-82427515D01*
X137257515Y-82538408D01*
X137127117Y-82625537D01*
X136982228Y-82685552D01*
X136828414Y-82716148D01*
X136671586Y-82716148D01*
X136517772Y-82685552D01*
X136372883Y-82625537D01*
X136242485Y-82538408D01*
X136131592Y-82427515D01*
X136044463Y-82297117D01*
X135984448Y-82152228D01*
X135953852Y-81998414D01*
X135953852Y-81841586D01*
X135984448Y-81687772D01*
X136044463Y-81542883D01*
X136131592Y-81412485D01*
X136242485Y-81301592D01*
X136372883Y-81214463D01*
X136517772Y-81154448D01*
X136671586Y-81123852D01*
X136828414Y-81123852D01*
X136982228Y-81154448D01*
G37*
G36*
X174390285Y-80643060D02*
G01*
X174571397Y-80718079D01*
X174734393Y-80826990D01*
X174873010Y-80965607D01*
X174981921Y-81128603D01*
X175056940Y-81309715D01*
X175095185Y-81501983D01*
X175095185Y-81698017D01*
X175056940Y-81890285D01*
X174981921Y-82071397D01*
X174873010Y-82234393D01*
X174734393Y-82373010D01*
X174571397Y-82481921D01*
X174390285Y-82556940D01*
X174198017Y-82595185D01*
X174001983Y-82595185D01*
X173809715Y-82556940D01*
X173628603Y-82481921D01*
X173465607Y-82373010D01*
X173326990Y-82234393D01*
X173218079Y-82071397D01*
X173143060Y-81890285D01*
X173104815Y-81698017D01*
X173104815Y-81501983D01*
X173143060Y-81309715D01*
X173218079Y-81128603D01*
X173326990Y-80965607D01*
X173465607Y-80826990D01*
X173628603Y-80718079D01*
X173809715Y-80643060D01*
X174001983Y-80604815D01*
X174198017Y-80604815D01*
X174390285Y-80643060D01*
G37*
G36*
X178646742Y-80186601D02*
G01*
X178800687Y-80250367D01*
X178939234Y-80342941D01*
X179057059Y-80460766D01*
X179149633Y-80599313D01*
X179213399Y-80753258D01*
X179245907Y-80916685D01*
X179245907Y-81083315D01*
X179213399Y-81246742D01*
X179149633Y-81400687D01*
X179057059Y-81539234D01*
X178939234Y-81657059D01*
X178800687Y-81749633D01*
X178646742Y-81813399D01*
X178483315Y-81845907D01*
X178316685Y-81845907D01*
X178153258Y-81813399D01*
X177999313Y-81749633D01*
X177860766Y-81657059D01*
X177742941Y-81539234D01*
X177650367Y-81400687D01*
X177586601Y-81246742D01*
X177554093Y-81083315D01*
X177554093Y-80916685D01*
X177586601Y-80753258D01*
X177650367Y-80599313D01*
X177742941Y-80460766D01*
X177860766Y-80342941D01*
X177999313Y-80250367D01*
X178153258Y-80186601D01*
X178316685Y-80154093D01*
X178483315Y-80154093D01*
X178646742Y-80186601D01*
G37*
G36*
X185146742Y-80186601D02*
G01*
X185300687Y-80250367D01*
X185439234Y-80342941D01*
X185557059Y-80460766D01*
X185649633Y-80599313D01*
X185713399Y-80753258D01*
X185745907Y-80916685D01*
X185745907Y-81083315D01*
X185713399Y-81246742D01*
X185649633Y-81400687D01*
X185557059Y-81539234D01*
X185439234Y-81657059D01*
X185300687Y-81749633D01*
X185146742Y-81813399D01*
X184983315Y-81845907D01*
X184816685Y-81845907D01*
X184653258Y-81813399D01*
X184499313Y-81749633D01*
X184360766Y-81657059D01*
X184242941Y-81539234D01*
X184150367Y-81400687D01*
X184086601Y-81246742D01*
X184054093Y-81083315D01*
X184054093Y-80916685D01*
X184086601Y-80753258D01*
X184150367Y-80599313D01*
X184242941Y-80460766D01*
X184360766Y-80342941D01*
X184499313Y-80250367D01*
X184653258Y-80186601D01*
X184816685Y-80154093D01*
X184983315Y-80154093D01*
X185146742Y-80186601D01*
G37*
G36*
X162032228Y-78694448D02*
G01*
X162177117Y-78754463D01*
X162307515Y-78841592D01*
X162418408Y-78952485D01*
X162505537Y-79082883D01*
X162565552Y-79227772D01*
X162596148Y-79381586D01*
X162596148Y-79538414D01*
X162565552Y-79692228D01*
X162505537Y-79837117D01*
X162418408Y-79967515D01*
X162307515Y-80078408D01*
X162177117Y-80165537D01*
X162032228Y-80225552D01*
X161878414Y-80256148D01*
X161721586Y-80256148D01*
X161567772Y-80225552D01*
X161422883Y-80165537D01*
X161292485Y-80078408D01*
X161181592Y-79967515D01*
X161094463Y-79837117D01*
X161034448Y-79692228D01*
X161003852Y-79538414D01*
X161003852Y-79381586D01*
X161034448Y-79227772D01*
X161094463Y-79082883D01*
X161181592Y-78952485D01*
X161292485Y-78841592D01*
X161422883Y-78754463D01*
X161567772Y-78694448D01*
X161721586Y-78663852D01*
X161878414Y-78663852D01*
X162032228Y-78694448D01*
G37*
G36*
X169652228Y-78694448D02*
G01*
X169797117Y-78754463D01*
X169927515Y-78841592D01*
X170038408Y-78952485D01*
X170125537Y-79082883D01*
X170185552Y-79227772D01*
X170216148Y-79381586D01*
X170216148Y-79538414D01*
X170185552Y-79692228D01*
X170125537Y-79837117D01*
X170038408Y-79967515D01*
X169927515Y-80078408D01*
X169797117Y-80165537D01*
X169652228Y-80225552D01*
X169498414Y-80256148D01*
X169341586Y-80256148D01*
X169187772Y-80225552D01*
X169042883Y-80165537D01*
X168912485Y-80078408D01*
X168801592Y-79967515D01*
X168714463Y-79837117D01*
X168654448Y-79692228D01*
X168623852Y-79538414D01*
X168623852Y-79381586D01*
X168654448Y-79227772D01*
X168714463Y-79082883D01*
X168801592Y-78952485D01*
X168912485Y-78841592D01*
X169042883Y-78754463D01*
X169187772Y-78694448D01*
X169341586Y-78663852D01*
X169498414Y-78663852D01*
X169652228Y-78694448D01*
G37*
G36*
X74736305Y-78003391D02*
G01*
X74906790Y-78030393D01*
X75070952Y-78083733D01*
X75224748Y-78162096D01*
X75364393Y-78263553D01*
X75486447Y-78385607D01*
X75587904Y-78525252D01*
X75666267Y-78679048D01*
X75719607Y-78843210D01*
X75746609Y-79013695D01*
X75746609Y-79186305D01*
X75719607Y-79356790D01*
X75666267Y-79520952D01*
X75587904Y-79674748D01*
X75486447Y-79814393D01*
X75364393Y-79936447D01*
X75224748Y-80037904D01*
X75070952Y-80116267D01*
X74906790Y-80169607D01*
X74736305Y-80196609D01*
X74650000Y-80200000D01*
X74648815Y-80200000D01*
X73351185Y-80200000D01*
X73350000Y-80200000D01*
X73263695Y-80196609D01*
X73093210Y-80169607D01*
X72929048Y-80116267D01*
X72775252Y-80037904D01*
X72635607Y-79936447D01*
X72513553Y-79814393D01*
X72412096Y-79674748D01*
X72333733Y-79520952D01*
X72280393Y-79356790D01*
X72253391Y-79186305D01*
X72253391Y-79013695D01*
X72280393Y-78843210D01*
X72333733Y-78679048D01*
X72412096Y-78525252D01*
X72513553Y-78385607D01*
X72635607Y-78263553D01*
X72775252Y-78162096D01*
X72929048Y-78083733D01*
X73093210Y-78030393D01*
X73263695Y-78003391D01*
X73350000Y-78000000D01*
X74650000Y-78000000D01*
X74736305Y-78003391D01*
G37*
G36*
X129362228Y-78614448D02*
G01*
X129507117Y-78674463D01*
X129637515Y-78761592D01*
X129748408Y-78872485D01*
X129835537Y-79002883D01*
X129895552Y-79147772D01*
X129926148Y-79301586D01*
X129926148Y-79458414D01*
X129895552Y-79612228D01*
X129835537Y-79757117D01*
X129748408Y-79887515D01*
X129637515Y-79998408D01*
X129507117Y-80085537D01*
X129362228Y-80145552D01*
X129208414Y-80176148D01*
X129051586Y-80176148D01*
X128897772Y-80145552D01*
X128752883Y-80085537D01*
X128622485Y-79998408D01*
X128511592Y-79887515D01*
X128424463Y-79757117D01*
X128364448Y-79612228D01*
X128333852Y-79458414D01*
X128333852Y-79301586D01*
X128364448Y-79147772D01*
X128424463Y-79002883D01*
X128511592Y-78872485D01*
X128622485Y-78761592D01*
X128752883Y-78674463D01*
X128897772Y-78614448D01*
X129051586Y-78583852D01*
X129208414Y-78583852D01*
X129362228Y-78614448D01*
G37*
G36*
X136982228Y-78614448D02*
G01*
X137127117Y-78674463D01*
X137257515Y-78761592D01*
X137368408Y-78872485D01*
X137455537Y-79002883D01*
X137515552Y-79147772D01*
X137546148Y-79301586D01*
X137546148Y-79458414D01*
X137515552Y-79612228D01*
X137455537Y-79757117D01*
X137368408Y-79887515D01*
X137257515Y-79998408D01*
X137127117Y-80085537D01*
X136982228Y-80145552D01*
X136828414Y-80176148D01*
X136671586Y-80176148D01*
X136517772Y-80145552D01*
X136372883Y-80085537D01*
X136242485Y-79998408D01*
X136131592Y-79887515D01*
X136044463Y-79757117D01*
X135984448Y-79612228D01*
X135953852Y-79458414D01*
X135953852Y-79301586D01*
X135984448Y-79147772D01*
X136044463Y-79002883D01*
X136131592Y-78872485D01*
X136242485Y-78761592D01*
X136372883Y-78674463D01*
X136517772Y-78614448D01*
X136671586Y-78583852D01*
X136828414Y-78583852D01*
X136982228Y-78614448D01*
G37*
G36*
X190500000Y-79900000D02*
G01*
X188700000Y-79900000D01*
X188700000Y-78100000D01*
X190500000Y-78100000D01*
X190500000Y-79900000D01*
G37*
G36*
X193261256Y-78138754D02*
G01*
X193424257Y-78206271D01*
X193570954Y-78304291D01*
X193695709Y-78429046D01*
X193793729Y-78575743D01*
X193861246Y-78738744D01*
X193895666Y-78911785D01*
X193895666Y-79088215D01*
X193861246Y-79261256D01*
X193793729Y-79424257D01*
X193695709Y-79570954D01*
X193570954Y-79695709D01*
X193424257Y-79793729D01*
X193261256Y-79861246D01*
X193088215Y-79895666D01*
X192911785Y-79895666D01*
X192738744Y-79861246D01*
X192575743Y-79793729D01*
X192429046Y-79695709D01*
X192304291Y-79570954D01*
X192206271Y-79424257D01*
X192138754Y-79261256D01*
X192104334Y-79088215D01*
X192104334Y-78911785D01*
X192138754Y-78738744D01*
X192206271Y-78575743D01*
X192304291Y-78429046D01*
X192429046Y-78304291D01*
X192575743Y-78206271D01*
X192738744Y-78138754D01*
X192911785Y-78104334D01*
X193088215Y-78104334D01*
X193261256Y-78138754D01*
G37*
G36*
X196661256Y-78138754D02*
G01*
X196824257Y-78206271D01*
X196970954Y-78304291D01*
X197095709Y-78429046D01*
X197193729Y-78575743D01*
X197261246Y-78738744D01*
X197295666Y-78911785D01*
X197295666Y-79088215D01*
X197261246Y-79261256D01*
X197193729Y-79424257D01*
X197095709Y-79570954D01*
X196970954Y-79695709D01*
X196824257Y-79793729D01*
X196661256Y-79861246D01*
X196488215Y-79895666D01*
X196311785Y-79895666D01*
X196138744Y-79861246D01*
X195975743Y-79793729D01*
X195829046Y-79695709D01*
X195704291Y-79570954D01*
X195606271Y-79424257D01*
X195538754Y-79261256D01*
X195504334Y-79088215D01*
X195504334Y-78911785D01*
X195538754Y-78738744D01*
X195606271Y-78575743D01*
X195704291Y-78429046D01*
X195829046Y-78304291D01*
X195975743Y-78206271D01*
X196138744Y-78138754D01*
X196311785Y-78104334D01*
X196488215Y-78104334D01*
X196661256Y-78138754D01*
G37*
G36*
X111163199Y-78080142D02*
G01*
X111289978Y-78132655D01*
X111404075Y-78208893D01*
X111501107Y-78305925D01*
X111577345Y-78420022D01*
X111629858Y-78546801D01*
X111656629Y-78681388D01*
X111656629Y-78818612D01*
X111629858Y-78953199D01*
X111577345Y-79079978D01*
X111501107Y-79194075D01*
X111404075Y-79291107D01*
X111289978Y-79367345D01*
X111163199Y-79419858D01*
X111028612Y-79446629D01*
X110891388Y-79446629D01*
X110756801Y-79419858D01*
X110630022Y-79367345D01*
X110515925Y-79291107D01*
X110418893Y-79194075D01*
X110342655Y-79079978D01*
X110290142Y-78953199D01*
X110263371Y-78818612D01*
X110263371Y-78681388D01*
X110290142Y-78546801D01*
X110342655Y-78420022D01*
X110418893Y-78305925D01*
X110515925Y-78208893D01*
X110630022Y-78132655D01*
X110756801Y-78080142D01*
X110891388Y-78053371D01*
X111028612Y-78053371D01*
X111163199Y-78080142D01*
G37*
G36*
X116243199Y-78080142D02*
G01*
X116369978Y-78132655D01*
X116484075Y-78208893D01*
X116581107Y-78305925D01*
X116657345Y-78420022D01*
X116709858Y-78546801D01*
X116736629Y-78681388D01*
X116736629Y-78818612D01*
X116709858Y-78953199D01*
X116657345Y-79079978D01*
X116581107Y-79194075D01*
X116484075Y-79291107D01*
X116369978Y-79367345D01*
X116243199Y-79419858D01*
X116108612Y-79446629D01*
X115971388Y-79446629D01*
X115836801Y-79419858D01*
X115710022Y-79367345D01*
X115595925Y-79291107D01*
X115498893Y-79194075D01*
X115422655Y-79079978D01*
X115370142Y-78953199D01*
X115343371Y-78818612D01*
X115343371Y-78681388D01*
X115370142Y-78546801D01*
X115422655Y-78420022D01*
X115498893Y-78305925D01*
X115595925Y-78208893D01*
X115710022Y-78132655D01*
X115836801Y-78080142D01*
X115971388Y-78053371D01*
X116108612Y-78053371D01*
X116243199Y-78080142D01*
G37*
G36*
X207203479Y-76155919D02*
G01*
X207397488Y-76218957D01*
X207579248Y-76311568D01*
X207744282Y-76431472D01*
X207888528Y-76575718D01*
X208008432Y-76740752D01*
X208101043Y-76922512D01*
X208164081Y-77116521D01*
X208195993Y-77318003D01*
X208195993Y-77521997D01*
X208164081Y-77723479D01*
X208101043Y-77917488D01*
X208008432Y-78099248D01*
X207888528Y-78264282D01*
X207744282Y-78408528D01*
X207579248Y-78528432D01*
X207397488Y-78621043D01*
X207203479Y-78684081D01*
X207001997Y-78715993D01*
X206798003Y-78715993D01*
X206596521Y-78684081D01*
X206402512Y-78621043D01*
X206220752Y-78528432D01*
X206055718Y-78408528D01*
X205911472Y-78264282D01*
X205791568Y-78099248D01*
X205698957Y-77917488D01*
X205635919Y-77723479D01*
X205604007Y-77521997D01*
X205604007Y-77318003D01*
X205635919Y-77116521D01*
X205698957Y-76922512D01*
X205791568Y-76740752D01*
X205911472Y-76575718D01*
X206055718Y-76431472D01*
X206220752Y-76311568D01*
X206402512Y-76218957D01*
X206596521Y-76155919D01*
X206798003Y-76124007D01*
X207001997Y-76124007D01*
X207203479Y-76155919D01*
G37*
G36*
X75250000Y-77750000D02*
G01*
X72750000Y-77750000D01*
X72750000Y-76250000D01*
X75250000Y-76250000D01*
X75250000Y-77750000D01*
G37*
G36*
X162354850Y-76120964D02*
G01*
X162405040Y-76126787D01*
X162422189Y-76134359D01*
X162445671Y-76139030D01*
X162470810Y-76155827D01*
X162490696Y-76164608D01*
X162504277Y-76178189D01*
X162526777Y-76193223D01*
X162541810Y-76215722D01*
X162555391Y-76229303D01*
X162564170Y-76249186D01*
X162580970Y-76274329D01*
X162585641Y-76297812D01*
X162593212Y-76314959D01*
X162599033Y-76365139D01*
X162600000Y-76370000D01*
X162600000Y-77470000D01*
X162599032Y-77474863D01*
X162593212Y-77525040D01*
X162585641Y-77542185D01*
X162580970Y-77565671D01*
X162564169Y-77590815D01*
X162555391Y-77610696D01*
X162541812Y-77624274D01*
X162526777Y-77646777D01*
X162504274Y-77661812D01*
X162490696Y-77675391D01*
X162470815Y-77684169D01*
X162445671Y-77700970D01*
X162422185Y-77705641D01*
X162405040Y-77713212D01*
X162354861Y-77719032D01*
X162350000Y-77720000D01*
X161250000Y-77720000D01*
X161245138Y-77719032D01*
X161194959Y-77713212D01*
X161177812Y-77705641D01*
X161154329Y-77700970D01*
X161129186Y-77684170D01*
X161109303Y-77675391D01*
X161095722Y-77661810D01*
X161073223Y-77646777D01*
X161058189Y-77624277D01*
X161044608Y-77610696D01*
X161035827Y-77590810D01*
X161019030Y-77565671D01*
X161014359Y-77542189D01*
X161006787Y-77525040D01*
X161000964Y-77474849D01*
X161000000Y-77470000D01*
X161000000Y-76370000D01*
X161000964Y-76365150D01*
X161006787Y-76314959D01*
X161014359Y-76297808D01*
X161019030Y-76274329D01*
X161035826Y-76249191D01*
X161044608Y-76229303D01*
X161058191Y-76215719D01*
X161073223Y-76193223D01*
X161095719Y-76178191D01*
X161109303Y-76164608D01*
X161129191Y-76155826D01*
X161154329Y-76139030D01*
X161177808Y-76134359D01*
X161194959Y-76126787D01*
X161245151Y-76120964D01*
X161250000Y-76120000D01*
X162350000Y-76120000D01*
X162354850Y-76120964D01*
G37*
G36*
X169652228Y-76154448D02*
G01*
X169797117Y-76214463D01*
X169927515Y-76301592D01*
X170038408Y-76412485D01*
X170125537Y-76542883D01*
X170185552Y-76687772D01*
X170216148Y-76841586D01*
X170216148Y-76998414D01*
X170185552Y-77152228D01*
X170125537Y-77297117D01*
X170038408Y-77427515D01*
X169927515Y-77538408D01*
X169797117Y-77625537D01*
X169652228Y-77685552D01*
X169498414Y-77716148D01*
X169341586Y-77716148D01*
X169187772Y-77685552D01*
X169042883Y-77625537D01*
X168912485Y-77538408D01*
X168801592Y-77427515D01*
X168714463Y-77297117D01*
X168654448Y-77152228D01*
X168623852Y-76998414D01*
X168623852Y-76841586D01*
X168654448Y-76687772D01*
X168714463Y-76542883D01*
X168801592Y-76412485D01*
X168912485Y-76301592D01*
X169042883Y-76214463D01*
X169187772Y-76154448D01*
X169341586Y-76123852D01*
X169498414Y-76123852D01*
X169652228Y-76154448D01*
G37*
G36*
X129684850Y-76040964D02*
G01*
X129735040Y-76046787D01*
X129752189Y-76054359D01*
X129775671Y-76059030D01*
X129800810Y-76075827D01*
X129820696Y-76084608D01*
X129834277Y-76098189D01*
X129856777Y-76113223D01*
X129871810Y-76135722D01*
X129885391Y-76149303D01*
X129894170Y-76169186D01*
X129910970Y-76194329D01*
X129915641Y-76217812D01*
X129923212Y-76234959D01*
X129929033Y-76285139D01*
X129930000Y-76290000D01*
X129930000Y-77390000D01*
X129929032Y-77394863D01*
X129923212Y-77445040D01*
X129915641Y-77462185D01*
X129910970Y-77485671D01*
X129894169Y-77510815D01*
X129885391Y-77530696D01*
X129871812Y-77544274D01*
X129856777Y-77566777D01*
X129834274Y-77581812D01*
X129820696Y-77595391D01*
X129800815Y-77604169D01*
X129775671Y-77620970D01*
X129752185Y-77625641D01*
X129735040Y-77633212D01*
X129684861Y-77639032D01*
X129680000Y-77640000D01*
X128580000Y-77640000D01*
X128575138Y-77639032D01*
X128524959Y-77633212D01*
X128507812Y-77625641D01*
X128484329Y-77620970D01*
X128459186Y-77604170D01*
X128439303Y-77595391D01*
X128425722Y-77581810D01*
X128403223Y-77566777D01*
X128388189Y-77544277D01*
X128374608Y-77530696D01*
X128365827Y-77510810D01*
X128349030Y-77485671D01*
X128344359Y-77462189D01*
X128336787Y-77445040D01*
X128330964Y-77394849D01*
X128330000Y-77390000D01*
X128330000Y-76290000D01*
X128330964Y-76285150D01*
X128336787Y-76234959D01*
X128344359Y-76217808D01*
X128349030Y-76194329D01*
X128365826Y-76169191D01*
X128374608Y-76149303D01*
X128388191Y-76135719D01*
X128403223Y-76113223D01*
X128425719Y-76098191D01*
X128439303Y-76084608D01*
X128459191Y-76075826D01*
X128484329Y-76059030D01*
X128507808Y-76054359D01*
X128524959Y-76046787D01*
X128575151Y-76040964D01*
X128580000Y-76040000D01*
X129680000Y-76040000D01*
X129684850Y-76040964D01*
G37*
G36*
X136982228Y-76074448D02*
G01*
X137127117Y-76134463D01*
X137257515Y-76221592D01*
X137368408Y-76332485D01*
X137455537Y-76462883D01*
X137515552Y-76607772D01*
X137546148Y-76761586D01*
X137546148Y-76918414D01*
X137515552Y-77072228D01*
X137455537Y-77217117D01*
X137368408Y-77347515D01*
X137257515Y-77458408D01*
X137127117Y-77545537D01*
X136982228Y-77605552D01*
X136828414Y-77636148D01*
X136671586Y-77636148D01*
X136517772Y-77605552D01*
X136372883Y-77545537D01*
X136242485Y-77458408D01*
X136131592Y-77347515D01*
X136044463Y-77217117D01*
X135984448Y-77072228D01*
X135953852Y-76918414D01*
X135953852Y-76761586D01*
X135984448Y-76607772D01*
X136044463Y-76462883D01*
X136131592Y-76332485D01*
X136242485Y-76221592D01*
X136372883Y-76134463D01*
X136517772Y-76074448D01*
X136671586Y-76043852D01*
X136828414Y-76043852D01*
X136982228Y-76074448D01*
G37*
G36*
X143472228Y-76034448D02*
G01*
X143617117Y-76094463D01*
X143747515Y-76181592D01*
X143858408Y-76292485D01*
X143945537Y-76422883D01*
X144005552Y-76567772D01*
X144036148Y-76721586D01*
X144036148Y-76878414D01*
X144005552Y-77032228D01*
X143945537Y-77177117D01*
X143858408Y-77307515D01*
X143747515Y-77418408D01*
X143617117Y-77505537D01*
X143472228Y-77565552D01*
X143318414Y-77596148D01*
X143161586Y-77596148D01*
X143007772Y-77565552D01*
X142862883Y-77505537D01*
X142732485Y-77418408D01*
X142621592Y-77307515D01*
X142534463Y-77177117D01*
X142474448Y-77032228D01*
X142443852Y-76878414D01*
X142443852Y-76721586D01*
X142474448Y-76567772D01*
X142534463Y-76422883D01*
X142621592Y-76292485D01*
X142732485Y-76181592D01*
X142862883Y-76094463D01*
X143007772Y-76034448D01*
X143161586Y-76003852D01*
X143318414Y-76003852D01*
X143472228Y-76034448D01*
G37*
G36*
X153632228Y-76034448D02*
G01*
X153777117Y-76094463D01*
X153907515Y-76181592D01*
X154018408Y-76292485D01*
X154105537Y-76422883D01*
X154165552Y-76567772D01*
X154196148Y-76721586D01*
X154196148Y-76878414D01*
X154165552Y-77032228D01*
X154105537Y-77177117D01*
X154018408Y-77307515D01*
X153907515Y-77418408D01*
X153777117Y-77505537D01*
X153632228Y-77565552D01*
X153478414Y-77596148D01*
X153321586Y-77596148D01*
X153167772Y-77565552D01*
X153022883Y-77505537D01*
X152892485Y-77418408D01*
X152781592Y-77307515D01*
X152694463Y-77177117D01*
X152634448Y-77032228D01*
X152603852Y-76878414D01*
X152603852Y-76721586D01*
X152634448Y-76567772D01*
X152694463Y-76422883D01*
X152781592Y-76292485D01*
X152892485Y-76181592D01*
X153022883Y-76094463D01*
X153167772Y-76034448D01*
X153321586Y-76003852D01*
X153478414Y-76003852D01*
X153632228Y-76034448D01*
G37*
G36*
X174390285Y-75643060D02*
G01*
X174571397Y-75718079D01*
X174734393Y-75826990D01*
X174873010Y-75965607D01*
X174981921Y-76128603D01*
X175056940Y-76309715D01*
X175095185Y-76501983D01*
X175095185Y-76698017D01*
X175056940Y-76890285D01*
X174981921Y-77071397D01*
X174873010Y-77234393D01*
X174734393Y-77373010D01*
X174571397Y-77481921D01*
X174390285Y-77556940D01*
X174198017Y-77595185D01*
X174001983Y-77595185D01*
X173809715Y-77556940D01*
X173628603Y-77481921D01*
X173465607Y-77373010D01*
X173326990Y-77234393D01*
X173218079Y-77071397D01*
X173143060Y-76890285D01*
X173104815Y-76698017D01*
X173104815Y-76501983D01*
X173143060Y-76309715D01*
X173218079Y-76128603D01*
X173326990Y-75965607D01*
X173465607Y-75826990D01*
X173628603Y-75718079D01*
X173809715Y-75643060D01*
X174001983Y-75604815D01*
X174198017Y-75604815D01*
X174390285Y-75643060D01*
G37*
G36*
X178646742Y-75686601D02*
G01*
X178800687Y-75750367D01*
X178939234Y-75842941D01*
X179057059Y-75960766D01*
X179149633Y-76099313D01*
X179213399Y-76253258D01*
X179245907Y-76416685D01*
X179245907Y-76583315D01*
X179213399Y-76746742D01*
X179149633Y-76900687D01*
X179057059Y-77039234D01*
X178939234Y-77157059D01*
X178800687Y-77249633D01*
X178646742Y-77313399D01*
X178483315Y-77345907D01*
X178316685Y-77345907D01*
X178153258Y-77313399D01*
X177999313Y-77249633D01*
X177860766Y-77157059D01*
X177742941Y-77039234D01*
X177650367Y-76900687D01*
X177586601Y-76746742D01*
X177554093Y-76583315D01*
X177554093Y-76416685D01*
X177586601Y-76253258D01*
X177650367Y-76099313D01*
X177742941Y-75960766D01*
X177860766Y-75842941D01*
X177999313Y-75750367D01*
X178153258Y-75686601D01*
X178316685Y-75654093D01*
X178483315Y-75654093D01*
X178646742Y-75686601D01*
G37*
G36*
X185146742Y-75686601D02*
G01*
X185300687Y-75750367D01*
X185439234Y-75842941D01*
X185557059Y-75960766D01*
X185649633Y-76099313D01*
X185713399Y-76253258D01*
X185745907Y-76416685D01*
X185745907Y-76583315D01*
X185713399Y-76746742D01*
X185649633Y-76900687D01*
X185557059Y-77039234D01*
X185439234Y-77157059D01*
X185300687Y-77249633D01*
X185146742Y-77313399D01*
X184983315Y-77345907D01*
X184816685Y-77345907D01*
X184653258Y-77313399D01*
X184499313Y-77249633D01*
X184360766Y-77157059D01*
X184242941Y-77039234D01*
X184150367Y-76900687D01*
X184086601Y-76746742D01*
X184054093Y-76583315D01*
X184054093Y-76416685D01*
X184086601Y-76253258D01*
X184150367Y-76099313D01*
X184242941Y-75960766D01*
X184360766Y-75842941D01*
X184499313Y-75750367D01*
X184653258Y-75686601D01*
X184816685Y-75654093D01*
X184983315Y-75654093D01*
X185146742Y-75686601D01*
G37*
G36*
X74573513Y-74253611D02*
G01*
X74717714Y-74282295D01*
X74853548Y-74338559D01*
X74975795Y-74420242D01*
X75079758Y-74524205D01*
X75161441Y-74646452D01*
X75217705Y-74782286D01*
X75246389Y-74926487D01*
X75246389Y-75073513D01*
X75217705Y-75217714D01*
X75161441Y-75353548D01*
X75079758Y-75475795D01*
X74975795Y-75579758D01*
X74853548Y-75661441D01*
X74717714Y-75717705D01*
X74573513Y-75746389D01*
X74500000Y-75750000D01*
X74498522Y-75750000D01*
X73501478Y-75750000D01*
X73500000Y-75750000D01*
X73426487Y-75746389D01*
X73282286Y-75717705D01*
X73146452Y-75661441D01*
X73024205Y-75579758D01*
X72920242Y-75475795D01*
X72838559Y-75353548D01*
X72782295Y-75217714D01*
X72753611Y-75073513D01*
X72753611Y-74926487D01*
X72782295Y-74782286D01*
X72838559Y-74646452D01*
X72920242Y-74524205D01*
X73024205Y-74420242D01*
X73146452Y-74338559D01*
X73282286Y-74282295D01*
X73426487Y-74253611D01*
X73500000Y-74250000D01*
X74500000Y-74250000D01*
X74573513Y-74253611D01*
G37*
G36*
X180123199Y-72730142D02*
G01*
X180249978Y-72782655D01*
X180364075Y-72858893D01*
X180461107Y-72955925D01*
X180537345Y-73070022D01*
X180589858Y-73196801D01*
X180616629Y-73331388D01*
X180616629Y-73468612D01*
X180589858Y-73603199D01*
X180537345Y-73729978D01*
X180461107Y-73844075D01*
X180364075Y-73941107D01*
X180249978Y-74017345D01*
X180123199Y-74069858D01*
X179988612Y-74096629D01*
X179851388Y-74096629D01*
X179716801Y-74069858D01*
X179590022Y-74017345D01*
X179475925Y-73941107D01*
X179378893Y-73844075D01*
X179302655Y-73729978D01*
X179250142Y-73603199D01*
X179223371Y-73468612D01*
X179223371Y-73331388D01*
X179250142Y-73196801D01*
X179302655Y-73070022D01*
X179378893Y-72955925D01*
X179475925Y-72858893D01*
X179590022Y-72782655D01*
X179716801Y-72730142D01*
X179851388Y-72703371D01*
X179988612Y-72703371D01*
X180123199Y-72730142D01*
G37*
G36*
X185203199Y-72730142D02*
G01*
X185329978Y-72782655D01*
X185444075Y-72858893D01*
X185541107Y-72955925D01*
X185617345Y-73070022D01*
X185669858Y-73196801D01*
X185696629Y-73331388D01*
X185696629Y-73468612D01*
X185669858Y-73603199D01*
X185617345Y-73729978D01*
X185541107Y-73844075D01*
X185444075Y-73941107D01*
X185329978Y-74017345D01*
X185203199Y-74069858D01*
X185068612Y-74096629D01*
X184931388Y-74096629D01*
X184796801Y-74069858D01*
X184670022Y-74017345D01*
X184555925Y-73941107D01*
X184458893Y-73844075D01*
X184382655Y-73729978D01*
X184330142Y-73603199D01*
X184303371Y-73468612D01*
X184303371Y-73331388D01*
X184330142Y-73196801D01*
X184382655Y-73070022D01*
X184458893Y-72955925D01*
X184555925Y-72858893D01*
X184670022Y-72782655D01*
X184796801Y-72730142D01*
X184931388Y-72703371D01*
X185068612Y-72703371D01*
X185203199Y-72730142D01*
G37*
G36*
X74573513Y-72253611D02*
G01*
X74717714Y-72282295D01*
X74853548Y-72338559D01*
X74975795Y-72420242D01*
X75079758Y-72524205D01*
X75161441Y-72646452D01*
X75217705Y-72782286D01*
X75246389Y-72926487D01*
X75246389Y-73073513D01*
X75217705Y-73217714D01*
X75161441Y-73353548D01*
X75079758Y-73475795D01*
X74975795Y-73579758D01*
X74853548Y-73661441D01*
X74717714Y-73717705D01*
X74573513Y-73746389D01*
X74500000Y-73750000D01*
X74498522Y-73750000D01*
X73501478Y-73750000D01*
X73500000Y-73750000D01*
X73426487Y-73746389D01*
X73282286Y-73717705D01*
X73146452Y-73661441D01*
X73024205Y-73579758D01*
X72920242Y-73475795D01*
X72838559Y-73353548D01*
X72782295Y-73217714D01*
X72753611Y-73073513D01*
X72753611Y-72926487D01*
X72782295Y-72782286D01*
X72838559Y-72646452D01*
X72920242Y-72524205D01*
X73024205Y-72420242D01*
X73146452Y-72338559D01*
X73282286Y-72282295D01*
X73426487Y-72253611D01*
X73500000Y-72250000D01*
X74500000Y-72250000D01*
X74573513Y-72253611D01*
G37*
G36*
X74736305Y-69803391D02*
G01*
X74906790Y-69830393D01*
X75070952Y-69883733D01*
X75224748Y-69962096D01*
X75364393Y-70063553D01*
X75486447Y-70185607D01*
X75587904Y-70325252D01*
X75666267Y-70479048D01*
X75719607Y-70643210D01*
X75746609Y-70813695D01*
X75746609Y-70986305D01*
X75719607Y-71156790D01*
X75666267Y-71320952D01*
X75587904Y-71474748D01*
X75486447Y-71614393D01*
X75364393Y-71736447D01*
X75224748Y-71837904D01*
X75070952Y-71916267D01*
X74906790Y-71969607D01*
X74736305Y-71996609D01*
X74650000Y-72000000D01*
X74648815Y-72000000D01*
X73351185Y-72000000D01*
X73350000Y-72000000D01*
X73263695Y-71996609D01*
X73093210Y-71969607D01*
X72929048Y-71916267D01*
X72775252Y-71837904D01*
X72635607Y-71736447D01*
X72513553Y-71614393D01*
X72412096Y-71474748D01*
X72333733Y-71320952D01*
X72280393Y-71156790D01*
X72253391Y-70986305D01*
X72253391Y-70813695D01*
X72280393Y-70643210D01*
X72333733Y-70479048D01*
X72412096Y-70325252D01*
X72513553Y-70185607D01*
X72635607Y-70063553D01*
X72775252Y-69962096D01*
X72929048Y-69883733D01*
X73093210Y-69830393D01*
X73263695Y-69803391D01*
X73350000Y-69800000D01*
X74650000Y-69800000D01*
X74736305Y-69803391D01*
G37*
G36*
X198056790Y-67980393D02*
G01*
X198220952Y-68033733D01*
X198374748Y-68112096D01*
X198514393Y-68213553D01*
X198636447Y-68335607D01*
X198737904Y-68475252D01*
X198816267Y-68629048D01*
X198869607Y-68793210D01*
X198896609Y-68963695D01*
X198900000Y-69050000D01*
X198900000Y-70350000D01*
X198896609Y-70436305D01*
X198869607Y-70606790D01*
X198816267Y-70770952D01*
X198737904Y-70924748D01*
X198636447Y-71064393D01*
X198514393Y-71186447D01*
X198374748Y-71287904D01*
X198220952Y-71366267D01*
X198056790Y-71419607D01*
X197886305Y-71446609D01*
X197713695Y-71446609D01*
X197543210Y-71419607D01*
X197379048Y-71366267D01*
X197225252Y-71287904D01*
X197085607Y-71186447D01*
X196963553Y-71064393D01*
X196862096Y-70924748D01*
X196783733Y-70770952D01*
X196730393Y-70606790D01*
X196703391Y-70436305D01*
X196700000Y-70350000D01*
X196700000Y-69050000D01*
X196703391Y-68963695D01*
X196730393Y-68793210D01*
X196783733Y-68629048D01*
X196862096Y-68475252D01*
X196963553Y-68335607D01*
X197085607Y-68213553D01*
X197225252Y-68112096D01*
X197379048Y-68033733D01*
X197543210Y-67980393D01*
X197713695Y-67953391D01*
X197886305Y-67953391D01*
X198056790Y-67980393D01*
G37*
G36*
X206256790Y-67980393D02*
G01*
X206420952Y-68033733D01*
X206574748Y-68112096D01*
X206714393Y-68213553D01*
X206836447Y-68335607D01*
X206937904Y-68475252D01*
X207016267Y-68629048D01*
X207069607Y-68793210D01*
X207096609Y-68963695D01*
X207100000Y-69050000D01*
X207100000Y-70350000D01*
X207096609Y-70436305D01*
X207069607Y-70606790D01*
X207016267Y-70770952D01*
X206937904Y-70924748D01*
X206836447Y-71064393D01*
X206714393Y-71186447D01*
X206574748Y-71287904D01*
X206420952Y-71366267D01*
X206256790Y-71419607D01*
X206086305Y-71446609D01*
X205913695Y-71446609D01*
X205743210Y-71419607D01*
X205579048Y-71366267D01*
X205425252Y-71287904D01*
X205285607Y-71186447D01*
X205163553Y-71064393D01*
X205062096Y-70924748D01*
X204983733Y-70770952D01*
X204930393Y-70606790D01*
X204903391Y-70436305D01*
X204900000Y-70350000D01*
X204900000Y-69050000D01*
X204903391Y-68963695D01*
X204930393Y-68793210D01*
X204983733Y-68629048D01*
X205062096Y-68475252D01*
X205163553Y-68335607D01*
X205285607Y-68213553D01*
X205425252Y-68112096D01*
X205579048Y-68033733D01*
X205743210Y-67980393D01*
X205913695Y-67953391D01*
X206086305Y-67953391D01*
X206256790Y-67980393D01*
G37*
G36*
X200650000Y-70950000D02*
G01*
X199150000Y-70950000D01*
X199150000Y-68450000D01*
X200650000Y-68450000D01*
X200650000Y-70950000D01*
G37*
G36*
X202117714Y-68482295D02*
G01*
X202253548Y-68538559D01*
X202375795Y-68620242D01*
X202479758Y-68724205D01*
X202561441Y-68846452D01*
X202617705Y-68982286D01*
X202646389Y-69126487D01*
X202650000Y-69200000D01*
X202650000Y-70200000D01*
X202646389Y-70273513D01*
X202617705Y-70417714D01*
X202561441Y-70553548D01*
X202479758Y-70675795D01*
X202375795Y-70779758D01*
X202253548Y-70861441D01*
X202117714Y-70917705D01*
X201973513Y-70946389D01*
X201826487Y-70946389D01*
X201682286Y-70917705D01*
X201546452Y-70861441D01*
X201424205Y-70779758D01*
X201320242Y-70675795D01*
X201238559Y-70553548D01*
X201182295Y-70417714D01*
X201153611Y-70273513D01*
X201150000Y-70200000D01*
X201150000Y-69200000D01*
X201153611Y-69126487D01*
X201182295Y-68982286D01*
X201238559Y-68846452D01*
X201320242Y-68724205D01*
X201424205Y-68620242D01*
X201546452Y-68538559D01*
X201682286Y-68482295D01*
X201826487Y-68453611D01*
X201973513Y-68453611D01*
X202117714Y-68482295D01*
G37*
G36*
X204117714Y-68482295D02*
G01*
X204253548Y-68538559D01*
X204375795Y-68620242D01*
X204479758Y-68724205D01*
X204561441Y-68846452D01*
X204617705Y-68982286D01*
X204646389Y-69126487D01*
X204650000Y-69200000D01*
X204650000Y-70200000D01*
X204646389Y-70273513D01*
X204617705Y-70417714D01*
X204561441Y-70553548D01*
X204479758Y-70675795D01*
X204375795Y-70779758D01*
X204253548Y-70861441D01*
X204117714Y-70917705D01*
X203973513Y-70946389D01*
X203826487Y-70946389D01*
X203682286Y-70917705D01*
X203546452Y-70861441D01*
X203424205Y-70779758D01*
X203320242Y-70675795D01*
X203238559Y-70553548D01*
X203182295Y-70417714D01*
X203153611Y-70273513D01*
X203150000Y-70200000D01*
X203150000Y-69200000D01*
X203153611Y-69126487D01*
X203182295Y-68982286D01*
X203238559Y-68846452D01*
X203320242Y-68724205D01*
X203424205Y-68620242D01*
X203546452Y-68538559D01*
X203682286Y-68482295D01*
X203826487Y-68453611D01*
X203973513Y-68453611D01*
X204117714Y-68482295D01*
G37*
G36*
X127289850Y-67775964D02*
G01*
X127340040Y-67781787D01*
X127357189Y-67789359D01*
X127380671Y-67794030D01*
X127405810Y-67810827D01*
X127425696Y-67819608D01*
X127439277Y-67833189D01*
X127461777Y-67848223D01*
X127476810Y-67870722D01*
X127490391Y-67884303D01*
X127499170Y-67904186D01*
X127515970Y-67929329D01*
X127520641Y-67952812D01*
X127528212Y-67969959D01*
X127534033Y-68020139D01*
X127535000Y-68025000D01*
X127535000Y-69475000D01*
X127534032Y-69479863D01*
X127528212Y-69530040D01*
X127520641Y-69547185D01*
X127515970Y-69570671D01*
X127499169Y-69595815D01*
X127490391Y-69615696D01*
X127476812Y-69629274D01*
X127461777Y-69651777D01*
X127439274Y-69666812D01*
X127425696Y-69680391D01*
X127405815Y-69689169D01*
X127380671Y-69705970D01*
X127357185Y-69710641D01*
X127340040Y-69718212D01*
X127289861Y-69724032D01*
X127285000Y-69725000D01*
X126085000Y-69725000D01*
X126080138Y-69724032D01*
X126029959Y-69718212D01*
X126012812Y-69710641D01*
X125989329Y-69705970D01*
X125964186Y-69689170D01*
X125944303Y-69680391D01*
X125930722Y-69666810D01*
X125908223Y-69651777D01*
X125893189Y-69629277D01*
X125879608Y-69615696D01*
X125870827Y-69595810D01*
X125854030Y-69570671D01*
X125849359Y-69547189D01*
X125841787Y-69530040D01*
X125835964Y-69479849D01*
X125835000Y-69475000D01*
X125835000Y-68025000D01*
X125835964Y-68020150D01*
X125841787Y-67969959D01*
X125849359Y-67952808D01*
X125854030Y-67929329D01*
X125870826Y-67904191D01*
X125879608Y-67884303D01*
X125893191Y-67870719D01*
X125908223Y-67848223D01*
X125930719Y-67833191D01*
X125944303Y-67819608D01*
X125964191Y-67810826D01*
X125989329Y-67794030D01*
X126012808Y-67789359D01*
X126029959Y-67781787D01*
X126080151Y-67775964D01*
X126085000Y-67775000D01*
X127285000Y-67775000D01*
X127289850Y-67775964D01*
G37*
G36*
X159959850Y-67775964D02*
G01*
X160010040Y-67781787D01*
X160027189Y-67789359D01*
X160050671Y-67794030D01*
X160075810Y-67810827D01*
X160095696Y-67819608D01*
X160109277Y-67833189D01*
X160131777Y-67848223D01*
X160146810Y-67870722D01*
X160160391Y-67884303D01*
X160169170Y-67904186D01*
X160185970Y-67929329D01*
X160190641Y-67952812D01*
X160198212Y-67969959D01*
X160204033Y-68020139D01*
X160205000Y-68025000D01*
X160205000Y-69475000D01*
X160204032Y-69479863D01*
X160198212Y-69530040D01*
X160190641Y-69547185D01*
X160185970Y-69570671D01*
X160169169Y-69595815D01*
X160160391Y-69615696D01*
X160146812Y-69629274D01*
X160131777Y-69651777D01*
X160109274Y-69666812D01*
X160095696Y-69680391D01*
X160075815Y-69689169D01*
X160050671Y-69705970D01*
X160027185Y-69710641D01*
X160010040Y-69718212D01*
X159959861Y-69724032D01*
X159955000Y-69725000D01*
X158755000Y-69725000D01*
X158750138Y-69724032D01*
X158699959Y-69718212D01*
X158682812Y-69710641D01*
X158659329Y-69705970D01*
X158634186Y-69689170D01*
X158614303Y-69680391D01*
X158600722Y-69666810D01*
X158578223Y-69651777D01*
X158563189Y-69629277D01*
X158549608Y-69615696D01*
X158540827Y-69595810D01*
X158524030Y-69570671D01*
X158519359Y-69547189D01*
X158511787Y-69530040D01*
X158505964Y-69479849D01*
X158505000Y-69475000D01*
X158505000Y-68025000D01*
X158505964Y-68020150D01*
X158511787Y-67969959D01*
X158519359Y-67952808D01*
X158524030Y-67929329D01*
X158540826Y-67904191D01*
X158549608Y-67884303D01*
X158563191Y-67870719D01*
X158578223Y-67848223D01*
X158600719Y-67833191D01*
X158614303Y-67819608D01*
X158634191Y-67810826D01*
X158659329Y-67794030D01*
X158682808Y-67789359D01*
X158699959Y-67781787D01*
X158750151Y-67775964D01*
X158755000Y-67775000D01*
X159955000Y-67775000D01*
X159959850Y-67775964D01*
G37*
G36*
X129431742Y-67811601D02*
G01*
X129585687Y-67875367D01*
X129724234Y-67967941D01*
X129842059Y-68085766D01*
X129934633Y-68224313D01*
X129998399Y-68378258D01*
X130030907Y-68541685D01*
X130035000Y-68625000D01*
X130035000Y-68875000D01*
X130030907Y-68958315D01*
X129998399Y-69121742D01*
X129934633Y-69275687D01*
X129842059Y-69414234D01*
X129724234Y-69532059D01*
X129585687Y-69624633D01*
X129431742Y-69688399D01*
X129268315Y-69720907D01*
X129101685Y-69720907D01*
X128938258Y-69688399D01*
X128784313Y-69624633D01*
X128645766Y-69532059D01*
X128527941Y-69414234D01*
X128435367Y-69275687D01*
X128371601Y-69121742D01*
X128339093Y-68958315D01*
X128335000Y-68875000D01*
X128335000Y-68625000D01*
X128339093Y-68541685D01*
X128371601Y-68378258D01*
X128435367Y-68224313D01*
X128527941Y-68085766D01*
X128645766Y-67967941D01*
X128784313Y-67875367D01*
X128938258Y-67811601D01*
X129101685Y-67779093D01*
X129268315Y-67779093D01*
X129431742Y-67811601D01*
G37*
G36*
X131931742Y-67811601D02*
G01*
X132085687Y-67875367D01*
X132224234Y-67967941D01*
X132342059Y-68085766D01*
X132434633Y-68224313D01*
X132498399Y-68378258D01*
X132530907Y-68541685D01*
X132535000Y-68625000D01*
X132535000Y-68875000D01*
X132530907Y-68958315D01*
X132498399Y-69121742D01*
X132434633Y-69275687D01*
X132342059Y-69414234D01*
X132224234Y-69532059D01*
X132085687Y-69624633D01*
X131931742Y-69688399D01*
X131768315Y-69720907D01*
X131601685Y-69720907D01*
X131438258Y-69688399D01*
X131284313Y-69624633D01*
X131145766Y-69532059D01*
X131027941Y-69414234D01*
X130935367Y-69275687D01*
X130871601Y-69121742D01*
X130839093Y-68958315D01*
X130835000Y-68875000D01*
X130835000Y-68625000D01*
X130839093Y-68541685D01*
X130871601Y-68378258D01*
X130935367Y-68224313D01*
X131027941Y-68085766D01*
X131145766Y-67967941D01*
X131284313Y-67875367D01*
X131438258Y-67811601D01*
X131601685Y-67779093D01*
X131768315Y-67779093D01*
X131931742Y-67811601D01*
G37*
G36*
X134431742Y-67811601D02*
G01*
X134585687Y-67875367D01*
X134724234Y-67967941D01*
X134842059Y-68085766D01*
X134934633Y-68224313D01*
X134998399Y-68378258D01*
X135030907Y-68541685D01*
X135035000Y-68625000D01*
X135035000Y-68875000D01*
X135030907Y-68958315D01*
X134998399Y-69121742D01*
X134934633Y-69275687D01*
X134842059Y-69414234D01*
X134724234Y-69532059D01*
X134585687Y-69624633D01*
X134431742Y-69688399D01*
X134268315Y-69720907D01*
X134101685Y-69720907D01*
X133938258Y-69688399D01*
X133784313Y-69624633D01*
X133645766Y-69532059D01*
X133527941Y-69414234D01*
X133435367Y-69275687D01*
X133371601Y-69121742D01*
X133339093Y-68958315D01*
X133335000Y-68875000D01*
X133335000Y-68625000D01*
X133339093Y-68541685D01*
X133371601Y-68378258D01*
X133435367Y-68224313D01*
X133527941Y-68085766D01*
X133645766Y-67967941D01*
X133784313Y-67875367D01*
X133938258Y-67811601D01*
X134101685Y-67779093D01*
X134268315Y-67779093D01*
X134431742Y-67811601D01*
G37*
G36*
X136931742Y-67811601D02*
G01*
X137085687Y-67875367D01*
X137224234Y-67967941D01*
X137342059Y-68085766D01*
X137434633Y-68224313D01*
X137498399Y-68378258D01*
X137530907Y-68541685D01*
X137535000Y-68625000D01*
X137535000Y-68875000D01*
X137530907Y-68958315D01*
X137498399Y-69121742D01*
X137434633Y-69275687D01*
X137342059Y-69414234D01*
X137224234Y-69532059D01*
X137085687Y-69624633D01*
X136931742Y-69688399D01*
X136768315Y-69720907D01*
X136601685Y-69720907D01*
X136438258Y-69688399D01*
X136284313Y-69624633D01*
X136145766Y-69532059D01*
X136027941Y-69414234D01*
X135935367Y-69275687D01*
X135871601Y-69121742D01*
X135839093Y-68958315D01*
X135835000Y-68875000D01*
X135835000Y-68625000D01*
X135839093Y-68541685D01*
X135871601Y-68378258D01*
X135935367Y-68224313D01*
X136027941Y-68085766D01*
X136145766Y-67967941D01*
X136284313Y-67875367D01*
X136438258Y-67811601D01*
X136601685Y-67779093D01*
X136768315Y-67779093D01*
X136931742Y-67811601D01*
G37*
G36*
X139431742Y-67811601D02*
G01*
X139585687Y-67875367D01*
X139724234Y-67967941D01*
X139842059Y-68085766D01*
X139934633Y-68224313D01*
X139998399Y-68378258D01*
X140030907Y-68541685D01*
X140035000Y-68625000D01*
X140035000Y-68875000D01*
X140030907Y-68958315D01*
X139998399Y-69121742D01*
X139934633Y-69275687D01*
X139842059Y-69414234D01*
X139724234Y-69532059D01*
X139585687Y-69624633D01*
X139431742Y-69688399D01*
X139268315Y-69720907D01*
X139101685Y-69720907D01*
X138938258Y-69688399D01*
X138784313Y-69624633D01*
X138645766Y-69532059D01*
X138527941Y-69414234D01*
X138435367Y-69275687D01*
X138371601Y-69121742D01*
X138339093Y-68958315D01*
X138335000Y-68875000D01*
X138335000Y-68625000D01*
X138339093Y-68541685D01*
X138371601Y-68378258D01*
X138435367Y-68224313D01*
X138527941Y-68085766D01*
X138645766Y-67967941D01*
X138784313Y-67875367D01*
X138938258Y-67811601D01*
X139101685Y-67779093D01*
X139268315Y-67779093D01*
X139431742Y-67811601D01*
G37*
G36*
X162101742Y-67811601D02*
G01*
X162255687Y-67875367D01*
X162394234Y-67967941D01*
X162512059Y-68085766D01*
X162604633Y-68224313D01*
X162668399Y-68378258D01*
X162700907Y-68541685D01*
X162705000Y-68625000D01*
X162705000Y-68875000D01*
X162700907Y-68958315D01*
X162668399Y-69121742D01*
X162604633Y-69275687D01*
X162512059Y-69414234D01*
X162394234Y-69532059D01*
X162255687Y-69624633D01*
X162101742Y-69688399D01*
X161938315Y-69720907D01*
X161771685Y-69720907D01*
X161608258Y-69688399D01*
X161454313Y-69624633D01*
X161315766Y-69532059D01*
X161197941Y-69414234D01*
X161105367Y-69275687D01*
X161041601Y-69121742D01*
X161009093Y-68958315D01*
X161005000Y-68875000D01*
X161005000Y-68625000D01*
X161009093Y-68541685D01*
X161041601Y-68378258D01*
X161105367Y-68224313D01*
X161197941Y-68085766D01*
X161315766Y-67967941D01*
X161454313Y-67875367D01*
X161608258Y-67811601D01*
X161771685Y-67779093D01*
X161938315Y-67779093D01*
X162101742Y-67811601D01*
G37*
G36*
X164601742Y-67811601D02*
G01*
X164755687Y-67875367D01*
X164894234Y-67967941D01*
X165012059Y-68085766D01*
X165104633Y-68224313D01*
X165168399Y-68378258D01*
X165200907Y-68541685D01*
X165205000Y-68625000D01*
X165205000Y-68875000D01*
X165200907Y-68958315D01*
X165168399Y-69121742D01*
X165104633Y-69275687D01*
X165012059Y-69414234D01*
X164894234Y-69532059D01*
X164755687Y-69624633D01*
X164601742Y-69688399D01*
X164438315Y-69720907D01*
X164271685Y-69720907D01*
X164108258Y-69688399D01*
X163954313Y-69624633D01*
X163815766Y-69532059D01*
X163697941Y-69414234D01*
X163605367Y-69275687D01*
X163541601Y-69121742D01*
X163509093Y-68958315D01*
X163505000Y-68875000D01*
X163505000Y-68625000D01*
X163509093Y-68541685D01*
X163541601Y-68378258D01*
X163605367Y-68224313D01*
X163697941Y-68085766D01*
X163815766Y-67967941D01*
X163954313Y-67875367D01*
X164108258Y-67811601D01*
X164271685Y-67779093D01*
X164438315Y-67779093D01*
X164601742Y-67811601D01*
G37*
G36*
X167101742Y-67811601D02*
G01*
X167255687Y-67875367D01*
X167394234Y-67967941D01*
X167512059Y-68085766D01*
X167604633Y-68224313D01*
X167668399Y-68378258D01*
X167700907Y-68541685D01*
X167705000Y-68625000D01*
X167705000Y-68875000D01*
X167700907Y-68958315D01*
X167668399Y-69121742D01*
X167604633Y-69275687D01*
X167512059Y-69414234D01*
X167394234Y-69532059D01*
X167255687Y-69624633D01*
X167101742Y-69688399D01*
X166938315Y-69720907D01*
X166771685Y-69720907D01*
X166608258Y-69688399D01*
X166454313Y-69624633D01*
X166315766Y-69532059D01*
X166197941Y-69414234D01*
X166105367Y-69275687D01*
X166041601Y-69121742D01*
X166009093Y-68958315D01*
X166005000Y-68875000D01*
X166005000Y-68625000D01*
X166009093Y-68541685D01*
X166041601Y-68378258D01*
X166105367Y-68224313D01*
X166197941Y-68085766D01*
X166315766Y-67967941D01*
X166454313Y-67875367D01*
X166608258Y-67811601D01*
X166771685Y-67779093D01*
X166938315Y-67779093D01*
X167101742Y-67811601D01*
G37*
G36*
X169601742Y-67811601D02*
G01*
X169755687Y-67875367D01*
X169894234Y-67967941D01*
X170012059Y-68085766D01*
X170104633Y-68224313D01*
X170168399Y-68378258D01*
X170200907Y-68541685D01*
X170205000Y-68625000D01*
X170205000Y-68875000D01*
X170200907Y-68958315D01*
X170168399Y-69121742D01*
X170104633Y-69275687D01*
X170012059Y-69414234D01*
X169894234Y-69532059D01*
X169755687Y-69624633D01*
X169601742Y-69688399D01*
X169438315Y-69720907D01*
X169271685Y-69720907D01*
X169108258Y-69688399D01*
X168954313Y-69624633D01*
X168815766Y-69532059D01*
X168697941Y-69414234D01*
X168605367Y-69275687D01*
X168541601Y-69121742D01*
X168509093Y-68958315D01*
X168505000Y-68875000D01*
X168505000Y-68625000D01*
X168509093Y-68541685D01*
X168541601Y-68378258D01*
X168605367Y-68224313D01*
X168697941Y-68085766D01*
X168815766Y-67967941D01*
X168954313Y-67875367D01*
X169108258Y-67811601D01*
X169271685Y-67779093D01*
X169438315Y-67779093D01*
X169601742Y-67811601D01*
G37*
G36*
X172101742Y-67811601D02*
G01*
X172255687Y-67875367D01*
X172394234Y-67967941D01*
X172512059Y-68085766D01*
X172604633Y-68224313D01*
X172668399Y-68378258D01*
X172700907Y-68541685D01*
X172705000Y-68625000D01*
X172705000Y-68875000D01*
X172700907Y-68958315D01*
X172668399Y-69121742D01*
X172604633Y-69275687D01*
X172512059Y-69414234D01*
X172394234Y-69532059D01*
X172255687Y-69624633D01*
X172101742Y-69688399D01*
X171938315Y-69720907D01*
X171771685Y-69720907D01*
X171608258Y-69688399D01*
X171454313Y-69624633D01*
X171315766Y-69532059D01*
X171197941Y-69414234D01*
X171105367Y-69275687D01*
X171041601Y-69121742D01*
X171009093Y-68958315D01*
X171005000Y-68875000D01*
X171005000Y-68625000D01*
X171009093Y-68541685D01*
X171041601Y-68378258D01*
X171105367Y-68224313D01*
X171197941Y-68085766D01*
X171315766Y-67967941D01*
X171454313Y-67875367D01*
X171608258Y-67811601D01*
X171771685Y-67779093D01*
X171938315Y-67779093D01*
X172101742Y-67811601D01*
G37*
G36*
X98580000Y-66560000D02*
G01*
X96880000Y-66560000D01*
X96880000Y-64860000D01*
X98580000Y-64860000D01*
X98580000Y-66560000D01*
G37*
G36*
X100476742Y-64896601D02*
G01*
X100630687Y-64960367D01*
X100769234Y-65052941D01*
X100887059Y-65170766D01*
X100979633Y-65309313D01*
X101043399Y-65463258D01*
X101075907Y-65626685D01*
X101075907Y-65793315D01*
X101043399Y-65956742D01*
X100979633Y-66110687D01*
X100887059Y-66249234D01*
X100769234Y-66367059D01*
X100630687Y-66459633D01*
X100476742Y-66523399D01*
X100313315Y-66555907D01*
X100146685Y-66555907D01*
X99983258Y-66523399D01*
X99829313Y-66459633D01*
X99690766Y-66367059D01*
X99572941Y-66249234D01*
X99480367Y-66110687D01*
X99416601Y-65956742D01*
X99384093Y-65793315D01*
X99384093Y-65626685D01*
X99416601Y-65463258D01*
X99480367Y-65309313D01*
X99572941Y-65170766D01*
X99690766Y-65052941D01*
X99829313Y-64960367D01*
X99983258Y-64896601D01*
X100146685Y-64864093D01*
X100313315Y-64864093D01*
X100476742Y-64896601D01*
G37*
G36*
X74941408Y-61283626D02*
G01*
X75162519Y-61342872D01*
X75374005Y-61430473D01*
X75572248Y-61544928D01*
X75753855Y-61684280D01*
X75915720Y-61846145D01*
X76055072Y-62027752D01*
X76169527Y-62225995D01*
X76257128Y-62437481D01*
X76316374Y-62658592D01*
X76346253Y-62885545D01*
X76346253Y-63114455D01*
X76316374Y-63341408D01*
X76257128Y-63562519D01*
X76169527Y-63774005D01*
X76055072Y-63972248D01*
X75915720Y-64153855D01*
X75753855Y-64315720D01*
X75572248Y-64455072D01*
X75374005Y-64569527D01*
X75162519Y-64657128D01*
X74941408Y-64716374D01*
X74714455Y-64746253D01*
X74485545Y-64746253D01*
X74258592Y-64716374D01*
X74037481Y-64657128D01*
X73825995Y-64569527D01*
X73627752Y-64455072D01*
X73446145Y-64315720D01*
X73284280Y-64153855D01*
X73144928Y-63972248D01*
X73030473Y-63774005D01*
X72942872Y-63562519D01*
X72883626Y-63341408D01*
X72853747Y-63114455D01*
X72853747Y-62885545D01*
X72883626Y-62658592D01*
X72942872Y-62437481D01*
X73030473Y-62225995D01*
X73144928Y-62027752D01*
X73284280Y-61846145D01*
X73446145Y-61684280D01*
X73627752Y-61544928D01*
X73825995Y-61430473D01*
X74037481Y-61342872D01*
X74258592Y-61283626D01*
X74485545Y-61253747D01*
X74714455Y-61253747D01*
X74941408Y-61283626D01*
G37*
G36*
X206841408Y-61233626D02*
G01*
X207062519Y-61292872D01*
X207274005Y-61380473D01*
X207472248Y-61494928D01*
X207653855Y-61634280D01*
X207815720Y-61796145D01*
X207955072Y-61977752D01*
X208069527Y-62175995D01*
X208157128Y-62387481D01*
X208216374Y-62608592D01*
X208246253Y-62835545D01*
X208246253Y-63064455D01*
X208216374Y-63291408D01*
X208157128Y-63512519D01*
X208069527Y-63724005D01*
X207955072Y-63922248D01*
X207815720Y-64103855D01*
X207653855Y-64265720D01*
X207472248Y-64405072D01*
X207274005Y-64519527D01*
X207062519Y-64607128D01*
X206841408Y-64666374D01*
X206614455Y-64696253D01*
X206385545Y-64696253D01*
X206158592Y-64666374D01*
X205937481Y-64607128D01*
X205725995Y-64519527D01*
X205527752Y-64405072D01*
X205346145Y-64265720D01*
X205184280Y-64103855D01*
X205044928Y-63922248D01*
X204930473Y-63724005D01*
X204842872Y-63512519D01*
X204783626Y-63291408D01*
X204753747Y-63064455D01*
X204753747Y-62835545D01*
X204783626Y-62608592D01*
X204842872Y-62387481D01*
X204930473Y-62175995D01*
X205044928Y-61977752D01*
X205184280Y-61796145D01*
X205346145Y-61634280D01*
X205527752Y-61494928D01*
X205725995Y-61380473D01*
X205937481Y-61292872D01*
X206158592Y-61233626D01*
X206385545Y-61203747D01*
X206614455Y-61203747D01*
X206841408Y-61233626D01*
G37*
G36*
X97976742Y-62896601D02*
G01*
X98130687Y-62960367D01*
X98269234Y-63052941D01*
X98387059Y-63170766D01*
X98479633Y-63309313D01*
X98543399Y-63463258D01*
X98575907Y-63626685D01*
X98575907Y-63793315D01*
X98543399Y-63956742D01*
X98479633Y-64110687D01*
X98387059Y-64249234D01*
X98269234Y-64367059D01*
X98130687Y-64459633D01*
X97976742Y-64523399D01*
X97813315Y-64555907D01*
X97646685Y-64555907D01*
X97483258Y-64523399D01*
X97329313Y-64459633D01*
X97190766Y-64367059D01*
X97072941Y-64249234D01*
X96980367Y-64110687D01*
X96916601Y-63956742D01*
X96884093Y-63793315D01*
X96884093Y-63626685D01*
X96916601Y-63463258D01*
X96980367Y-63309313D01*
X97072941Y-63170766D01*
X97190766Y-63052941D01*
X97329313Y-62960367D01*
X97483258Y-62896601D01*
X97646685Y-62864093D01*
X97813315Y-62864093D01*
X97976742Y-62896601D01*
G37*
G36*
X100476742Y-62896601D02*
G01*
X100630687Y-62960367D01*
X100769234Y-63052941D01*
X100887059Y-63170766D01*
X100979633Y-63309313D01*
X101043399Y-63463258D01*
X101075907Y-63626685D01*
X101075907Y-63793315D01*
X101043399Y-63956742D01*
X100979633Y-64110687D01*
X100887059Y-64249234D01*
X100769234Y-64367059D01*
X100630687Y-64459633D01*
X100476742Y-64523399D01*
X100313315Y-64555907D01*
X100146685Y-64555907D01*
X99983258Y-64523399D01*
X99829313Y-64459633D01*
X99690766Y-64367059D01*
X99572941Y-64249234D01*
X99480367Y-64110687D01*
X99416601Y-63956742D01*
X99384093Y-63793315D01*
X99384093Y-63626685D01*
X99416601Y-63463258D01*
X99480367Y-63309313D01*
X99572941Y-63170766D01*
X99690766Y-63052941D01*
X99829313Y-62960367D01*
X99983258Y-62896601D01*
X100146685Y-62864093D01*
X100313315Y-62864093D01*
X100476742Y-62896601D01*
G37*
G36*
X119480000Y-64100000D02*
G01*
X117780000Y-64100000D01*
X117780000Y-62400000D01*
X119480000Y-62400000D01*
X119480000Y-64100000D01*
G37*
G36*
X153980000Y-64100000D02*
G01*
X152280000Y-64100000D01*
X152280000Y-62400000D01*
X153980000Y-62400000D01*
X153980000Y-64100000D01*
G37*
G36*
X121416742Y-62436601D02*
G01*
X121570687Y-62500367D01*
X121709234Y-62592941D01*
X121827059Y-62710766D01*
X121919633Y-62849313D01*
X121983399Y-63003258D01*
X122015907Y-63166685D01*
X122015907Y-63333315D01*
X121983399Y-63496742D01*
X121919633Y-63650687D01*
X121827059Y-63789234D01*
X121709234Y-63907059D01*
X121570687Y-63999633D01*
X121416742Y-64063399D01*
X121253315Y-64095907D01*
X121086685Y-64095907D01*
X120923258Y-64063399D01*
X120769313Y-63999633D01*
X120630766Y-63907059D01*
X120512941Y-63789234D01*
X120420367Y-63650687D01*
X120356601Y-63496742D01*
X120324093Y-63333315D01*
X120324093Y-63166685D01*
X120356601Y-63003258D01*
X120420367Y-62849313D01*
X120512941Y-62710766D01*
X120630766Y-62592941D01*
X120769313Y-62500367D01*
X120923258Y-62436601D01*
X121086685Y-62404093D01*
X121253315Y-62404093D01*
X121416742Y-62436601D01*
G37*
G36*
X123956742Y-62436601D02*
G01*
X124110687Y-62500367D01*
X124249234Y-62592941D01*
X124367059Y-62710766D01*
X124459633Y-62849313D01*
X124523399Y-63003258D01*
X124555907Y-63166685D01*
X124555907Y-63333315D01*
X124523399Y-63496742D01*
X124459633Y-63650687D01*
X124367059Y-63789234D01*
X124249234Y-63907059D01*
X124110687Y-63999633D01*
X123956742Y-64063399D01*
X123793315Y-64095907D01*
X123626685Y-64095907D01*
X123463258Y-64063399D01*
X123309313Y-63999633D01*
X123170766Y-63907059D01*
X123052941Y-63789234D01*
X122960367Y-63650687D01*
X122896601Y-63496742D01*
X122864093Y-63333315D01*
X122864093Y-63166685D01*
X122896601Y-63003258D01*
X122960367Y-62849313D01*
X123052941Y-62710766D01*
X123170766Y-62592941D01*
X123309313Y-62500367D01*
X123463258Y-62436601D01*
X123626685Y-62404093D01*
X123793315Y-62404093D01*
X123956742Y-62436601D01*
G37*
G36*
X126496742Y-62436601D02*
G01*
X126650687Y-62500367D01*
X126789234Y-62592941D01*
X126907059Y-62710766D01*
X126999633Y-62849313D01*
X127063399Y-63003258D01*
X127095907Y-63166685D01*
X127095907Y-63333315D01*
X127063399Y-63496742D01*
X126999633Y-63650687D01*
X126907059Y-63789234D01*
X126789234Y-63907059D01*
X126650687Y-63999633D01*
X126496742Y-64063399D01*
X126333315Y-64095907D01*
X126166685Y-64095907D01*
X126003258Y-64063399D01*
X125849313Y-63999633D01*
X125710766Y-63907059D01*
X125592941Y-63789234D01*
X125500367Y-63650687D01*
X125436601Y-63496742D01*
X125404093Y-63333315D01*
X125404093Y-63166685D01*
X125436601Y-63003258D01*
X125500367Y-62849313D01*
X125592941Y-62710766D01*
X125710766Y-62592941D01*
X125849313Y-62500367D01*
X126003258Y-62436601D01*
X126166685Y-62404093D01*
X126333315Y-62404093D01*
X126496742Y-62436601D01*
G37*
G36*
X155916742Y-62436601D02*
G01*
X156070687Y-62500367D01*
X156209234Y-62592941D01*
X156327059Y-62710766D01*
X156419633Y-62849313D01*
X156483399Y-63003258D01*
X156515907Y-63166685D01*
X156515907Y-63333315D01*
X156483399Y-63496742D01*
X156419633Y-63650687D01*
X156327059Y-63789234D01*
X156209234Y-63907059D01*
X156070687Y-63999633D01*
X155916742Y-64063399D01*
X155753315Y-64095907D01*
X155586685Y-64095907D01*
X155423258Y-64063399D01*
X155269313Y-63999633D01*
X155130766Y-63907059D01*
X155012941Y-63789234D01*
X154920367Y-63650687D01*
X154856601Y-63496742D01*
X154824093Y-63333315D01*
X154824093Y-63166685D01*
X154856601Y-63003258D01*
X154920367Y-62849313D01*
X155012941Y-62710766D01*
X155130766Y-62592941D01*
X155269313Y-62500367D01*
X155423258Y-62436601D01*
X155586685Y-62404093D01*
X155753315Y-62404093D01*
X155916742Y-62436601D01*
G37*
G36*
X158456742Y-62436601D02*
G01*
X158610687Y-62500367D01*
X158749234Y-62592941D01*
X158867059Y-62710766D01*
X158959633Y-62849313D01*
X159023399Y-63003258D01*
X159055907Y-63166685D01*
X159055907Y-63333315D01*
X159023399Y-63496742D01*
X158959633Y-63650687D01*
X158867059Y-63789234D01*
X158749234Y-63907059D01*
X158610687Y-63999633D01*
X158456742Y-64063399D01*
X158293315Y-64095907D01*
X158126685Y-64095907D01*
X157963258Y-64063399D01*
X157809313Y-63999633D01*
X157670766Y-63907059D01*
X157552941Y-63789234D01*
X157460367Y-63650687D01*
X157396601Y-63496742D01*
X157364093Y-63333315D01*
X157364093Y-63166685D01*
X157396601Y-63003258D01*
X157460367Y-62849313D01*
X157552941Y-62710766D01*
X157670766Y-62592941D01*
X157809313Y-62500367D01*
X157963258Y-62436601D01*
X158126685Y-62404093D01*
X158293315Y-62404093D01*
X158456742Y-62436601D01*
G37*
G36*
X160996742Y-62436601D02*
G01*
X161150687Y-62500367D01*
X161289234Y-62592941D01*
X161407059Y-62710766D01*
X161499633Y-62849313D01*
X161563399Y-63003258D01*
X161595907Y-63166685D01*
X161595907Y-63333315D01*
X161563399Y-63496742D01*
X161499633Y-63650687D01*
X161407059Y-63789234D01*
X161289234Y-63907059D01*
X161150687Y-63999633D01*
X160996742Y-64063399D01*
X160833315Y-64095907D01*
X160666685Y-64095907D01*
X160503258Y-64063399D01*
X160349313Y-63999633D01*
X160210766Y-63907059D01*
X160092941Y-63789234D01*
X160000367Y-63650687D01*
X159936601Y-63496742D01*
X159904093Y-63333315D01*
X159904093Y-63166685D01*
X159936601Y-63003258D01*
X160000367Y-62849313D01*
X160092941Y-62710766D01*
X160210766Y-62592941D01*
X160349313Y-62500367D01*
X160503258Y-62436601D01*
X160666685Y-62404093D01*
X160833315Y-62404093D01*
X160996742Y-62436601D01*
G37*
G36*
X93301408Y-59283626D02*
G01*
X93522519Y-59342872D01*
X93734005Y-59430473D01*
X93932248Y-59544928D01*
X94113855Y-59684280D01*
X94275720Y-59846145D01*
X94415072Y-60027752D01*
X94529527Y-60225995D01*
X94617128Y-60437481D01*
X94676374Y-60658592D01*
X94706253Y-60885545D01*
X94706253Y-61114455D01*
X94676374Y-61341408D01*
X94617128Y-61562519D01*
X94529527Y-61774005D01*
X94415072Y-61972248D01*
X94275720Y-62153855D01*
X94113855Y-62315720D01*
X93932248Y-62455072D01*
X93734005Y-62569527D01*
X93522519Y-62657128D01*
X93301408Y-62716374D01*
X93074455Y-62746253D01*
X92845545Y-62746253D01*
X92618592Y-62716374D01*
X92397481Y-62657128D01*
X92185995Y-62569527D01*
X91987752Y-62455072D01*
X91806145Y-62315720D01*
X91644280Y-62153855D01*
X91504928Y-61972248D01*
X91390473Y-61774005D01*
X91302872Y-61562519D01*
X91243626Y-61341408D01*
X91213747Y-61114455D01*
X91213747Y-60885545D01*
X91243626Y-60658592D01*
X91302872Y-60437481D01*
X91390473Y-60225995D01*
X91504928Y-60027752D01*
X91644280Y-59846145D01*
X91806145Y-59684280D01*
X91987752Y-59544928D01*
X92185995Y-59430473D01*
X92397481Y-59342872D01*
X92618592Y-59283626D01*
X92845545Y-59253747D01*
X93074455Y-59253747D01*
X93301408Y-59283626D01*
G37*
G36*
X105341408Y-59283626D02*
G01*
X105562519Y-59342872D01*
X105774005Y-59430473D01*
X105972248Y-59544928D01*
X106153855Y-59684280D01*
X106315720Y-59846145D01*
X106455072Y-60027752D01*
X106569527Y-60225995D01*
X106657128Y-60437481D01*
X106716374Y-60658592D01*
X106746253Y-60885545D01*
X106746253Y-61114455D01*
X106716374Y-61341408D01*
X106657128Y-61562519D01*
X106569527Y-61774005D01*
X106455072Y-61972248D01*
X106315720Y-62153855D01*
X106153855Y-62315720D01*
X105972248Y-62455072D01*
X105774005Y-62569527D01*
X105562519Y-62657128D01*
X105341408Y-62716374D01*
X105114455Y-62746253D01*
X104885545Y-62746253D01*
X104658592Y-62716374D01*
X104437481Y-62657128D01*
X104225995Y-62569527D01*
X104027752Y-62455072D01*
X103846145Y-62315720D01*
X103684280Y-62153855D01*
X103544928Y-61972248D01*
X103430473Y-61774005D01*
X103342872Y-61562519D01*
X103283626Y-61341408D01*
X103253747Y-61114455D01*
X103253747Y-60885545D01*
X103283626Y-60658592D01*
X103342872Y-60437481D01*
X103430473Y-60225995D01*
X103544928Y-60027752D01*
X103684280Y-59846145D01*
X103846145Y-59684280D01*
X104027752Y-59544928D01*
X104225995Y-59430473D01*
X104437481Y-59342872D01*
X104658592Y-59283626D01*
X104885545Y-59253747D01*
X105114455Y-59253747D01*
X105341408Y-59283626D01*
G37*
M02*
