M48
; DRILL file {KiCad 9.0.4} date 2025-10-15T14:59:08+0700
; FORMAT={-:-/ absolute / metric / decimal}
; #@! TF.CreationDate,2025-10-15T14:59:08+07:00
; #@! TF.GenerationSoftware,Kicad,Pcbnew,9.0.4
; #@! TF.FileFunction,Plated,1,2,PTH
FMAT,2
METRIC
; #@! TA.AperFunction,Plated,PTH,ViaDrill
T1C0.300
; #@! TA.AperFunction,Plated,PTH,ViaDrill
T2C0.400
; #@! TA.AperFunction,Plated,PTH,ComponentDrill
T3C0.600
; #@! TA.AperFunction,Plated,PTH,ComponentDrill
T4C0.700
; #@! TA.AperFunction,Plated,PTH,ComponentDrill
T5C0.750
; #@! TA.AperFunction,Plated,PTH,ComponentDrill
T6C0.800
; #@! TA.AperFunction,Plated,PTH,ComponentDrill
T7C0.920
; #@! TA.AperFunction,Plated,PTH,ComponentDrill
T8C0.950
; #@! TA.AperFunction,Plated,PTH,ComponentDrill
T9C1.000
; #@! TA.AperFunction,Plated,PTH,ComponentDrill
T10C1.100
; #@! TA.AperFunction,Plated,PTH,ComponentDrill
T11C1.300
; #@! TA.AperFunction,Plated,PTH,ComponentDrill
T12C1.500
; #@! TA.AperFunction,Plated,PTH,ComponentDrill
T13C1.600
; #@! TA.AperFunction,Plated,PTH,ComponentDrill
T14C2.200
; #@! TA.AperFunction,Plated,PTH,ComponentDrill
T15C2.330
%
G90
G05
T1
X83.0Y-73.25
X83.3Y-84.2
X86.5Y-84.0
X86.75Y-73.25
X117.1Y-71.3
X117.9Y-71.3
X143.75Y-120.5
X148.5Y-93.25
X153.25Y-91.0
X154.9Y-72.5
X155.8Y-72.5
X158.2Y-118.9
X163.85Y-102.55
X164.2Y-113.8
X165.1Y-113.8
X175.584Y-109.523
X176.7Y-109.388
X180.9Y-111.3
X182.9Y-109.1
X183.45Y-129.9
X185.0Y-108.75
X185.05Y-102.35
X186.05Y-123.65
T2
X89.2Y-99.1
X99.3Y-101.832
X104.6Y-75.6
X181.75Y-116.5
T3
X184.0Y-88.1
X186.0Y-88.1
X189.7Y-102.0
X191.7Y-102.0
X195.8Y-102.0
X197.8Y-102.0
T4
X83.0Y-108.6
X83.16Y-112.8
X87.62Y-93.0
X87.62Y-96.0
X88.08Y-108.6
X88.24Y-112.8
X92.7Y-93.0
X92.7Y-96.0
X110.96Y-78.75
X116.04Y-78.75
X179.92Y-73.4
X185.0Y-73.4
T5
X97.0Y-93.2
X98.27Y-93.2
X99.54Y-93.2
X111.34Y-115.26
X111.34Y-116.53
X111.34Y-117.8
X120.505Y-115.26
X120.505Y-116.53
X120.505Y-117.8
X129.67Y-115.26
X129.67Y-116.53
X129.67Y-117.8
X138.835Y-115.26
X138.835Y-116.53
X138.835Y-117.8
X148.0Y-115.26
X148.0Y-116.53
X148.0Y-117.8
T6
X74.0Y-73.0
X74.0Y-75.0
X74.0Y-77.0
X77.075Y-93.2
X77.075Y-95.2
X111.4Y-122.8
X113.94Y-122.8
X116.48Y-122.8
X119.02Y-122.8
X121.56Y-122.8
X123.5Y-98.12
X123.5Y-103.0
X124.1Y-122.8
X129.13Y-76.84
X129.13Y-79.38
X129.13Y-81.92
X129.13Y-84.46
X129.13Y-87.0
X129.13Y-89.54
X129.13Y-92.08
X129.13Y-94.62
X129.13Y-97.16
X129.13Y-99.7
X129.13Y-102.24
X129.13Y-104.78
X129.13Y-107.32
X129.13Y-109.86
X135.04Y-122.8
X136.75Y-76.84
X136.75Y-79.38
X136.75Y-81.92
X136.75Y-84.46
X136.75Y-87.0
X136.75Y-89.54
X136.75Y-92.08
X136.75Y-94.62
X136.75Y-97.16
X136.75Y-99.7
X136.75Y-102.24
X136.75Y-104.78
X136.75Y-107.32
X136.75Y-109.86
X137.58Y-122.8
X140.12Y-122.8
X142.66Y-122.8
X143.2Y-84.2
X143.24Y-76.8
X145.2Y-122.8
X147.74Y-122.8
X153.36Y-84.2
X153.4Y-76.8
X156.3Y-98.12
X156.3Y-103.0
X161.8Y-76.92
X161.8Y-79.46
X161.8Y-82.0
X161.8Y-84.54
X161.8Y-87.08
X161.8Y-89.62
X161.8Y-92.16
X161.8Y-94.7
X161.8Y-97.24
X161.8Y-99.78
X161.8Y-102.32
X161.8Y-104.86
X161.8Y-107.4
X161.8Y-109.94
X169.42Y-76.92
X169.42Y-79.46
X169.42Y-82.0
X169.42Y-84.54
X169.42Y-87.08
X169.42Y-89.62
X169.42Y-92.16
X169.42Y-94.7
X169.42Y-97.24
X169.42Y-99.78
X169.42Y-102.32
X169.42Y-104.86
X169.42Y-107.4
X169.42Y-109.94
X199.9Y-69.7
X201.9Y-69.7
X203.9Y-69.7
T7
X97.73Y-63.71
X97.73Y-65.71
X100.23Y-63.71
X100.23Y-65.71
T8
X76.1Y-107.462
X76.1Y-109.962
X76.1Y-112.462
X76.1Y-114.962
X122.2Y-129.0
X124.7Y-129.0
X126.685Y-68.75
X127.2Y-129.0
X129.185Y-68.75
X129.7Y-129.0
X131.685Y-68.75
X132.2Y-129.0
X134.185Y-68.75
X134.7Y-129.0
X136.685Y-68.75
X137.2Y-129.0
X139.185Y-68.75
X139.7Y-129.0
X159.355Y-68.75
X161.4Y-117.4
X161.4Y-119.9
X161.4Y-122.4
X161.4Y-124.9
X161.4Y-127.4
X161.4Y-129.9
X161.855Y-68.75
X164.355Y-68.75
X166.855Y-68.75
X169.355Y-68.75
X170.5Y-117.4
X170.5Y-119.9
X170.5Y-122.4
X170.5Y-124.9
X170.5Y-127.4
X170.5Y-129.9
X171.855Y-68.75
T9
X106.25Y-82.25
X106.25Y-88.75
X110.75Y-82.25
X110.75Y-88.75
X117.1Y-83.5
X117.1Y-88.5
X118.63Y-63.25
X121.17Y-63.25
X123.71Y-63.25
X126.25Y-63.25
X153.13Y-63.25
X155.67Y-63.25
X158.21Y-63.25
X160.75Y-63.25
X174.1Y-76.6
X174.1Y-81.6
X178.4Y-76.5
X178.4Y-81.0
X181.65Y-100.0
X184.25Y-100.0
X184.9Y-76.5
X184.9Y-81.0
T10
X189.6Y-79.0
X191.3Y-82.7
X193.0Y-79.0
X194.7Y-82.7
X196.4Y-79.0
T11
X206.9Y-77.42
X206.9Y-82.5
T12
X74.0Y-70.9
X74.0Y-79.1
X197.8Y-69.7
X206.0Y-69.7
T13
X203.0Y-89.06
X203.0Y-104.3
T14
X74.6Y-63.0
X74.6Y-129.0
X206.5Y-62.95
X206.6Y-128.9
T15
X92.96Y-61.0
X105.0Y-61.0
M30
