%TF.GenerationSoftware,KiCad,Pcbnew,9.0.4*%
%TF.CreationDate,2025-10-15T14:59:06+07:00*%
%TF.ProjectId,mainboard-atmega328P-ver2,6d61696e-626f-4617-9264-2d61746d6567,rev?*%
%TF.SameCoordinates,Original*%
%TF.FileFunction,Legend,Top*%
%TF.FilePolarity,Positive*%
%FSLAX46Y46*%
G04 Gerber Fmt 4.6, Leading zero omitted, Abs format (unit mm)*
G04 Created by KiCad (PCBNEW 9.0.4) date 2025-10-15 14:59:06*
%MOMM*%
%LPD*%
G01*
G04 APERTURE LIST*
%ADD10C,0.150000*%
%ADD11C,0.120000*%
G04 APERTURE END LIST*
D10*
X113333333Y-81124819D02*
X113000000Y-80648628D01*
X112761905Y-81124819D02*
X112761905Y-80124819D01*
X112761905Y-80124819D02*
X113142857Y-80124819D01*
X113142857Y-80124819D02*
X113238095Y-80172438D01*
X113238095Y-80172438D02*
X113285714Y-80220057D01*
X113285714Y-80220057D02*
X113333333Y-80315295D01*
X113333333Y-80315295D02*
X113333333Y-80458152D01*
X113333333Y-80458152D02*
X113285714Y-80553390D01*
X113285714Y-80553390D02*
X113238095Y-80601009D01*
X113238095Y-80601009D02*
X113142857Y-80648628D01*
X113142857Y-80648628D02*
X112761905Y-80648628D01*
X113666667Y-80124819D02*
X114333333Y-80124819D01*
X114333333Y-80124819D02*
X113904762Y-81124819D01*
X161157619Y-74997200D02*
X161300476Y-75044819D01*
X161300476Y-75044819D02*
X161538571Y-75044819D01*
X161538571Y-75044819D02*
X161633809Y-74997200D01*
X161633809Y-74997200D02*
X161681428Y-74949580D01*
X161681428Y-74949580D02*
X161729047Y-74854342D01*
X161729047Y-74854342D02*
X161729047Y-74759104D01*
X161729047Y-74759104D02*
X161681428Y-74663866D01*
X161681428Y-74663866D02*
X161633809Y-74616247D01*
X161633809Y-74616247D02*
X161538571Y-74568628D01*
X161538571Y-74568628D02*
X161348095Y-74521009D01*
X161348095Y-74521009D02*
X161252857Y-74473390D01*
X161252857Y-74473390D02*
X161205238Y-74425771D01*
X161205238Y-74425771D02*
X161157619Y-74330533D01*
X161157619Y-74330533D02*
X161157619Y-74235295D01*
X161157619Y-74235295D02*
X161205238Y-74140057D01*
X161205238Y-74140057D02*
X161252857Y-74092438D01*
X161252857Y-74092438D02*
X161348095Y-74044819D01*
X161348095Y-74044819D02*
X161586190Y-74044819D01*
X161586190Y-74044819D02*
X161729047Y-74092438D01*
X162633809Y-75044819D02*
X162157619Y-75044819D01*
X162157619Y-75044819D02*
X162157619Y-74044819D01*
X162919524Y-74759104D02*
X163395714Y-74759104D01*
X162824286Y-75044819D02*
X163157619Y-74044819D01*
X163157619Y-74044819D02*
X163490952Y-75044819D01*
X163681429Y-74044819D02*
X164014762Y-75044819D01*
X164014762Y-75044819D02*
X164348095Y-74044819D01*
X164681429Y-74521009D02*
X165014762Y-74521009D01*
X165157619Y-75044819D02*
X164681429Y-75044819D01*
X164681429Y-75044819D02*
X164681429Y-74044819D01*
X164681429Y-74044819D02*
X165157619Y-74044819D01*
X165348096Y-75140057D02*
X166110000Y-75140057D01*
X166348096Y-75044819D02*
X166348096Y-74044819D01*
X166348096Y-74044819D02*
X166681429Y-74759104D01*
X166681429Y-74759104D02*
X167014762Y-74044819D01*
X167014762Y-74044819D02*
X167014762Y-75044819D01*
X168062381Y-74949580D02*
X168014762Y-74997200D01*
X168014762Y-74997200D02*
X167871905Y-75044819D01*
X167871905Y-75044819D02*
X167776667Y-75044819D01*
X167776667Y-75044819D02*
X167633810Y-74997200D01*
X167633810Y-74997200D02*
X167538572Y-74901961D01*
X167538572Y-74901961D02*
X167490953Y-74806723D01*
X167490953Y-74806723D02*
X167443334Y-74616247D01*
X167443334Y-74616247D02*
X167443334Y-74473390D01*
X167443334Y-74473390D02*
X167490953Y-74282914D01*
X167490953Y-74282914D02*
X167538572Y-74187676D01*
X167538572Y-74187676D02*
X167633810Y-74092438D01*
X167633810Y-74092438D02*
X167776667Y-74044819D01*
X167776667Y-74044819D02*
X167871905Y-74044819D01*
X167871905Y-74044819D02*
X168014762Y-74092438D01*
X168014762Y-74092438D02*
X168062381Y-74140057D01*
X168490953Y-74044819D02*
X168490953Y-74854342D01*
X168490953Y-74854342D02*
X168538572Y-74949580D01*
X168538572Y-74949580D02*
X168586191Y-74997200D01*
X168586191Y-74997200D02*
X168681429Y-75044819D01*
X168681429Y-75044819D02*
X168871905Y-75044819D01*
X168871905Y-75044819D02*
X168967143Y-74997200D01*
X168967143Y-74997200D02*
X169014762Y-74949580D01*
X169014762Y-74949580D02*
X169062381Y-74854342D01*
X169062381Y-74854342D02*
X169062381Y-74044819D01*
X170062381Y-75044819D02*
X169490953Y-75044819D01*
X169776667Y-75044819D02*
X169776667Y-74044819D01*
X169776667Y-74044819D02*
X169681429Y-74187676D01*
X169681429Y-74187676D02*
X169586191Y-74282914D01*
X169586191Y-74282914D02*
X169490953Y-74330533D01*
X174159580Y-93942857D02*
X174207200Y-93990476D01*
X174207200Y-93990476D02*
X174254819Y-94133333D01*
X174254819Y-94133333D02*
X174254819Y-94228571D01*
X174254819Y-94228571D02*
X174207200Y-94371428D01*
X174207200Y-94371428D02*
X174111961Y-94466666D01*
X174111961Y-94466666D02*
X174016723Y-94514285D01*
X174016723Y-94514285D02*
X173826247Y-94561904D01*
X173826247Y-94561904D02*
X173683390Y-94561904D01*
X173683390Y-94561904D02*
X173492914Y-94514285D01*
X173492914Y-94514285D02*
X173397676Y-94466666D01*
X173397676Y-94466666D02*
X173302438Y-94371428D01*
X173302438Y-94371428D02*
X173254819Y-94228571D01*
X173254819Y-94228571D02*
X173254819Y-94133333D01*
X173254819Y-94133333D02*
X173302438Y-93990476D01*
X173302438Y-93990476D02*
X173350057Y-93942857D01*
X173350057Y-93561904D02*
X173302438Y-93514285D01*
X173302438Y-93514285D02*
X173254819Y-93419047D01*
X173254819Y-93419047D02*
X173254819Y-93180952D01*
X173254819Y-93180952D02*
X173302438Y-93085714D01*
X173302438Y-93085714D02*
X173350057Y-93038095D01*
X173350057Y-93038095D02*
X173445295Y-92990476D01*
X173445295Y-92990476D02*
X173540533Y-92990476D01*
X173540533Y-92990476D02*
X173683390Y-93038095D01*
X173683390Y-93038095D02*
X174254819Y-93609523D01*
X174254819Y-93609523D02*
X174254819Y-92990476D01*
X173254819Y-92371428D02*
X173254819Y-92276190D01*
X173254819Y-92276190D02*
X173302438Y-92180952D01*
X173302438Y-92180952D02*
X173350057Y-92133333D01*
X173350057Y-92133333D02*
X173445295Y-92085714D01*
X173445295Y-92085714D02*
X173635771Y-92038095D01*
X173635771Y-92038095D02*
X173873866Y-92038095D01*
X173873866Y-92038095D02*
X174064342Y-92085714D01*
X174064342Y-92085714D02*
X174159580Y-92133333D01*
X174159580Y-92133333D02*
X174207200Y-92180952D01*
X174207200Y-92180952D02*
X174254819Y-92276190D01*
X174254819Y-92276190D02*
X174254819Y-92371428D01*
X174254819Y-92371428D02*
X174207200Y-92466666D01*
X174207200Y-92466666D02*
X174159580Y-92514285D01*
X174159580Y-92514285D02*
X174064342Y-92561904D01*
X174064342Y-92561904D02*
X173873866Y-92609523D01*
X173873866Y-92609523D02*
X173635771Y-92609523D01*
X173635771Y-92609523D02*
X173445295Y-92561904D01*
X173445295Y-92561904D02*
X173350057Y-92514285D01*
X173350057Y-92514285D02*
X173302438Y-92466666D01*
X173302438Y-92466666D02*
X173254819Y-92371428D01*
X71182200Y-80373332D02*
X71229819Y-80230475D01*
X71229819Y-80230475D02*
X71229819Y-79992380D01*
X71229819Y-79992380D02*
X71182200Y-79897142D01*
X71182200Y-79897142D02*
X71134580Y-79849523D01*
X71134580Y-79849523D02*
X71039342Y-79801904D01*
X71039342Y-79801904D02*
X70944104Y-79801904D01*
X70944104Y-79801904D02*
X70848866Y-79849523D01*
X70848866Y-79849523D02*
X70801247Y-79897142D01*
X70801247Y-79897142D02*
X70753628Y-79992380D01*
X70753628Y-79992380D02*
X70706009Y-80182856D01*
X70706009Y-80182856D02*
X70658390Y-80278094D01*
X70658390Y-80278094D02*
X70610771Y-80325713D01*
X70610771Y-80325713D02*
X70515533Y-80373332D01*
X70515533Y-80373332D02*
X70420295Y-80373332D01*
X70420295Y-80373332D02*
X70325057Y-80325713D01*
X70325057Y-80325713D02*
X70277438Y-80278094D01*
X70277438Y-80278094D02*
X70229819Y-80182856D01*
X70229819Y-80182856D02*
X70229819Y-79944761D01*
X70229819Y-79944761D02*
X70277438Y-79801904D01*
X70229819Y-79468570D02*
X71229819Y-79230475D01*
X71229819Y-79230475D02*
X70515533Y-79039999D01*
X70515533Y-79039999D02*
X71229819Y-78849523D01*
X71229819Y-78849523D02*
X70229819Y-78611428D01*
X71229819Y-77706666D02*
X71229819Y-78278094D01*
X71229819Y-77992380D02*
X70229819Y-77992380D01*
X70229819Y-77992380D02*
X70372676Y-78087618D01*
X70372676Y-78087618D02*
X70467914Y-78182856D01*
X70467914Y-78182856D02*
X70515533Y-78278094D01*
X146609580Y-98855357D02*
X146657200Y-98902976D01*
X146657200Y-98902976D02*
X146704819Y-99045833D01*
X146704819Y-99045833D02*
X146704819Y-99141071D01*
X146704819Y-99141071D02*
X146657200Y-99283928D01*
X146657200Y-99283928D02*
X146561961Y-99379166D01*
X146561961Y-99379166D02*
X146466723Y-99426785D01*
X146466723Y-99426785D02*
X146276247Y-99474404D01*
X146276247Y-99474404D02*
X146133390Y-99474404D01*
X146133390Y-99474404D02*
X145942914Y-99426785D01*
X145942914Y-99426785D02*
X145847676Y-99379166D01*
X145847676Y-99379166D02*
X145752438Y-99283928D01*
X145752438Y-99283928D02*
X145704819Y-99141071D01*
X145704819Y-99141071D02*
X145704819Y-99045833D01*
X145704819Y-99045833D02*
X145752438Y-98902976D01*
X145752438Y-98902976D02*
X145800057Y-98855357D01*
X146704819Y-97902976D02*
X146704819Y-98474404D01*
X146704819Y-98188690D02*
X145704819Y-98188690D01*
X145704819Y-98188690D02*
X145847676Y-98283928D01*
X145847676Y-98283928D02*
X145942914Y-98379166D01*
X145942914Y-98379166D02*
X145990533Y-98474404D01*
X146133390Y-97331547D02*
X146085771Y-97426785D01*
X146085771Y-97426785D02*
X146038152Y-97474404D01*
X146038152Y-97474404D02*
X145942914Y-97522023D01*
X145942914Y-97522023D02*
X145895295Y-97522023D01*
X145895295Y-97522023D02*
X145800057Y-97474404D01*
X145800057Y-97474404D02*
X145752438Y-97426785D01*
X145752438Y-97426785D02*
X145704819Y-97331547D01*
X145704819Y-97331547D02*
X145704819Y-97141071D01*
X145704819Y-97141071D02*
X145752438Y-97045833D01*
X145752438Y-97045833D02*
X145800057Y-96998214D01*
X145800057Y-96998214D02*
X145895295Y-96950595D01*
X145895295Y-96950595D02*
X145942914Y-96950595D01*
X145942914Y-96950595D02*
X146038152Y-96998214D01*
X146038152Y-96998214D02*
X146085771Y-97045833D01*
X146085771Y-97045833D02*
X146133390Y-97141071D01*
X146133390Y-97141071D02*
X146133390Y-97331547D01*
X146133390Y-97331547D02*
X146181009Y-97426785D01*
X146181009Y-97426785D02*
X146228628Y-97474404D01*
X146228628Y-97474404D02*
X146323866Y-97522023D01*
X146323866Y-97522023D02*
X146514342Y-97522023D01*
X146514342Y-97522023D02*
X146609580Y-97474404D01*
X146609580Y-97474404D02*
X146657200Y-97426785D01*
X146657200Y-97426785D02*
X146704819Y-97331547D01*
X146704819Y-97331547D02*
X146704819Y-97141071D01*
X146704819Y-97141071D02*
X146657200Y-97045833D01*
X146657200Y-97045833D02*
X146609580Y-96998214D01*
X146609580Y-96998214D02*
X146514342Y-96950595D01*
X146514342Y-96950595D02*
X146323866Y-96950595D01*
X146323866Y-96950595D02*
X146228628Y-96998214D01*
X146228628Y-96998214D02*
X146181009Y-97045833D01*
X146181009Y-97045833D02*
X146133390Y-97141071D01*
X116119642Y-105159580D02*
X116072023Y-105207200D01*
X116072023Y-105207200D02*
X115929166Y-105254819D01*
X115929166Y-105254819D02*
X115833928Y-105254819D01*
X115833928Y-105254819D02*
X115691071Y-105207200D01*
X115691071Y-105207200D02*
X115595833Y-105111961D01*
X115595833Y-105111961D02*
X115548214Y-105016723D01*
X115548214Y-105016723D02*
X115500595Y-104826247D01*
X115500595Y-104826247D02*
X115500595Y-104683390D01*
X115500595Y-104683390D02*
X115548214Y-104492914D01*
X115548214Y-104492914D02*
X115595833Y-104397676D01*
X115595833Y-104397676D02*
X115691071Y-104302438D01*
X115691071Y-104302438D02*
X115833928Y-104254819D01*
X115833928Y-104254819D02*
X115929166Y-104254819D01*
X115929166Y-104254819D02*
X116072023Y-104302438D01*
X116072023Y-104302438D02*
X116119642Y-104350057D01*
X117072023Y-105254819D02*
X116500595Y-105254819D01*
X116786309Y-105254819D02*
X116786309Y-104254819D01*
X116786309Y-104254819D02*
X116691071Y-104397676D01*
X116691071Y-104397676D02*
X116595833Y-104492914D01*
X116595833Y-104492914D02*
X116500595Y-104540533D01*
X117405357Y-104254819D02*
X118024404Y-104254819D01*
X118024404Y-104254819D02*
X117691071Y-104635771D01*
X117691071Y-104635771D02*
X117833928Y-104635771D01*
X117833928Y-104635771D02*
X117929166Y-104683390D01*
X117929166Y-104683390D02*
X117976785Y-104731009D01*
X117976785Y-104731009D02*
X118024404Y-104826247D01*
X118024404Y-104826247D02*
X118024404Y-105064342D01*
X118024404Y-105064342D02*
X117976785Y-105159580D01*
X117976785Y-105159580D02*
X117929166Y-105207200D01*
X117929166Y-105207200D02*
X117833928Y-105254819D01*
X117833928Y-105254819D02*
X117548214Y-105254819D01*
X117548214Y-105254819D02*
X117452976Y-105207200D01*
X117452976Y-105207200D02*
X117405357Y-105159580D01*
X126164286Y-126654819D02*
X126164286Y-125654819D01*
X127211904Y-126654819D02*
X126878571Y-126178628D01*
X126640476Y-126654819D02*
X126640476Y-125654819D01*
X126640476Y-125654819D02*
X127021428Y-125654819D01*
X127021428Y-125654819D02*
X127116666Y-125702438D01*
X127116666Y-125702438D02*
X127164285Y-125750057D01*
X127164285Y-125750057D02*
X127211904Y-125845295D01*
X127211904Y-125845295D02*
X127211904Y-125988152D01*
X127211904Y-125988152D02*
X127164285Y-126083390D01*
X127164285Y-126083390D02*
X127116666Y-126131009D01*
X127116666Y-126131009D02*
X127021428Y-126178628D01*
X127021428Y-126178628D02*
X126640476Y-126178628D01*
X127402381Y-126750057D02*
X128164285Y-126750057D01*
X128354762Y-126607200D02*
X128497619Y-126654819D01*
X128497619Y-126654819D02*
X128735714Y-126654819D01*
X128735714Y-126654819D02*
X128830952Y-126607200D01*
X128830952Y-126607200D02*
X128878571Y-126559580D01*
X128878571Y-126559580D02*
X128926190Y-126464342D01*
X128926190Y-126464342D02*
X128926190Y-126369104D01*
X128926190Y-126369104D02*
X128878571Y-126273866D01*
X128878571Y-126273866D02*
X128830952Y-126226247D01*
X128830952Y-126226247D02*
X128735714Y-126178628D01*
X128735714Y-126178628D02*
X128545238Y-126131009D01*
X128545238Y-126131009D02*
X128450000Y-126083390D01*
X128450000Y-126083390D02*
X128402381Y-126035771D01*
X128402381Y-126035771D02*
X128354762Y-125940533D01*
X128354762Y-125940533D02*
X128354762Y-125845295D01*
X128354762Y-125845295D02*
X128402381Y-125750057D01*
X128402381Y-125750057D02*
X128450000Y-125702438D01*
X128450000Y-125702438D02*
X128545238Y-125654819D01*
X128545238Y-125654819D02*
X128783333Y-125654819D01*
X128783333Y-125654819D02*
X128926190Y-125702438D01*
X129354762Y-126131009D02*
X129688095Y-126131009D01*
X129830952Y-126654819D02*
X129354762Y-126654819D01*
X129354762Y-126654819D02*
X129354762Y-125654819D01*
X129354762Y-125654819D02*
X129830952Y-125654819D01*
X130259524Y-126654819D02*
X130259524Y-125654819D01*
X130259524Y-125654819D02*
X130830952Y-126654819D01*
X130830952Y-126654819D02*
X130830952Y-125654819D01*
X131259524Y-126607200D02*
X131402381Y-126654819D01*
X131402381Y-126654819D02*
X131640476Y-126654819D01*
X131640476Y-126654819D02*
X131735714Y-126607200D01*
X131735714Y-126607200D02*
X131783333Y-126559580D01*
X131783333Y-126559580D02*
X131830952Y-126464342D01*
X131830952Y-126464342D02*
X131830952Y-126369104D01*
X131830952Y-126369104D02*
X131783333Y-126273866D01*
X131783333Y-126273866D02*
X131735714Y-126226247D01*
X131735714Y-126226247D02*
X131640476Y-126178628D01*
X131640476Y-126178628D02*
X131450000Y-126131009D01*
X131450000Y-126131009D02*
X131354762Y-126083390D01*
X131354762Y-126083390D02*
X131307143Y-126035771D01*
X131307143Y-126035771D02*
X131259524Y-125940533D01*
X131259524Y-125940533D02*
X131259524Y-125845295D01*
X131259524Y-125845295D02*
X131307143Y-125750057D01*
X131307143Y-125750057D02*
X131354762Y-125702438D01*
X131354762Y-125702438D02*
X131450000Y-125654819D01*
X131450000Y-125654819D02*
X131688095Y-125654819D01*
X131688095Y-125654819D02*
X131830952Y-125702438D01*
X132450000Y-125654819D02*
X132640476Y-125654819D01*
X132640476Y-125654819D02*
X132735714Y-125702438D01*
X132735714Y-125702438D02*
X132830952Y-125797676D01*
X132830952Y-125797676D02*
X132878571Y-125988152D01*
X132878571Y-125988152D02*
X132878571Y-126321485D01*
X132878571Y-126321485D02*
X132830952Y-126511961D01*
X132830952Y-126511961D02*
X132735714Y-126607200D01*
X132735714Y-126607200D02*
X132640476Y-126654819D01*
X132640476Y-126654819D02*
X132450000Y-126654819D01*
X132450000Y-126654819D02*
X132354762Y-126607200D01*
X132354762Y-126607200D02*
X132259524Y-126511961D01*
X132259524Y-126511961D02*
X132211905Y-126321485D01*
X132211905Y-126321485D02*
X132211905Y-125988152D01*
X132211905Y-125988152D02*
X132259524Y-125797676D01*
X132259524Y-125797676D02*
X132354762Y-125702438D01*
X132354762Y-125702438D02*
X132450000Y-125654819D01*
X133878571Y-126654819D02*
X133545238Y-126178628D01*
X133307143Y-126654819D02*
X133307143Y-125654819D01*
X133307143Y-125654819D02*
X133688095Y-125654819D01*
X133688095Y-125654819D02*
X133783333Y-125702438D01*
X133783333Y-125702438D02*
X133830952Y-125750057D01*
X133830952Y-125750057D02*
X133878571Y-125845295D01*
X133878571Y-125845295D02*
X133878571Y-125988152D01*
X133878571Y-125988152D02*
X133830952Y-126083390D01*
X133830952Y-126083390D02*
X133783333Y-126131009D01*
X133783333Y-126131009D02*
X133688095Y-126178628D01*
X133688095Y-126178628D02*
X133307143Y-126178628D01*
X134259524Y-126607200D02*
X134402381Y-126654819D01*
X134402381Y-126654819D02*
X134640476Y-126654819D01*
X134640476Y-126654819D02*
X134735714Y-126607200D01*
X134735714Y-126607200D02*
X134783333Y-126559580D01*
X134783333Y-126559580D02*
X134830952Y-126464342D01*
X134830952Y-126464342D02*
X134830952Y-126369104D01*
X134830952Y-126369104D02*
X134783333Y-126273866D01*
X134783333Y-126273866D02*
X134735714Y-126226247D01*
X134735714Y-126226247D02*
X134640476Y-126178628D01*
X134640476Y-126178628D02*
X134450000Y-126131009D01*
X134450000Y-126131009D02*
X134354762Y-126083390D01*
X134354762Y-126083390D02*
X134307143Y-126035771D01*
X134307143Y-126035771D02*
X134259524Y-125940533D01*
X134259524Y-125940533D02*
X134259524Y-125845295D01*
X134259524Y-125845295D02*
X134307143Y-125750057D01*
X134307143Y-125750057D02*
X134354762Y-125702438D01*
X134354762Y-125702438D02*
X134450000Y-125654819D01*
X134450000Y-125654819D02*
X134688095Y-125654819D01*
X134688095Y-125654819D02*
X134830952Y-125702438D01*
X135783333Y-126654819D02*
X135211905Y-126654819D01*
X135497619Y-126654819D02*
X135497619Y-125654819D01*
X135497619Y-125654819D02*
X135402381Y-125797676D01*
X135402381Y-125797676D02*
X135307143Y-125892914D01*
X135307143Y-125892914D02*
X135211905Y-125940533D01*
X191839580Y-121905357D02*
X191887200Y-121952976D01*
X191887200Y-121952976D02*
X191934819Y-122095833D01*
X191934819Y-122095833D02*
X191934819Y-122191071D01*
X191934819Y-122191071D02*
X191887200Y-122333928D01*
X191887200Y-122333928D02*
X191791961Y-122429166D01*
X191791961Y-122429166D02*
X191696723Y-122476785D01*
X191696723Y-122476785D02*
X191506247Y-122524404D01*
X191506247Y-122524404D02*
X191363390Y-122524404D01*
X191363390Y-122524404D02*
X191172914Y-122476785D01*
X191172914Y-122476785D02*
X191077676Y-122429166D01*
X191077676Y-122429166D02*
X190982438Y-122333928D01*
X190982438Y-122333928D02*
X190934819Y-122191071D01*
X190934819Y-122191071D02*
X190934819Y-122095833D01*
X190934819Y-122095833D02*
X190982438Y-121952976D01*
X190982438Y-121952976D02*
X191030057Y-121905357D01*
X191934819Y-120952976D02*
X191934819Y-121524404D01*
X191934819Y-121238690D02*
X190934819Y-121238690D01*
X190934819Y-121238690D02*
X191077676Y-121333928D01*
X191077676Y-121333928D02*
X191172914Y-121429166D01*
X191172914Y-121429166D02*
X191220533Y-121524404D01*
X191934819Y-120000595D02*
X191934819Y-120572023D01*
X191934819Y-120286309D02*
X190934819Y-120286309D01*
X190934819Y-120286309D02*
X191077676Y-120381547D01*
X191077676Y-120381547D02*
X191172914Y-120476785D01*
X191172914Y-120476785D02*
X191220533Y-120572023D01*
X95014580Y-71466666D02*
X95062200Y-71514285D01*
X95062200Y-71514285D02*
X95109819Y-71657142D01*
X95109819Y-71657142D02*
X95109819Y-71752380D01*
X95109819Y-71752380D02*
X95062200Y-71895237D01*
X95062200Y-71895237D02*
X94966961Y-71990475D01*
X94966961Y-71990475D02*
X94871723Y-72038094D01*
X94871723Y-72038094D02*
X94681247Y-72085713D01*
X94681247Y-72085713D02*
X94538390Y-72085713D01*
X94538390Y-72085713D02*
X94347914Y-72038094D01*
X94347914Y-72038094D02*
X94252676Y-71990475D01*
X94252676Y-71990475D02*
X94157438Y-71895237D01*
X94157438Y-71895237D02*
X94109819Y-71752380D01*
X94109819Y-71752380D02*
X94109819Y-71657142D01*
X94109819Y-71657142D02*
X94157438Y-71514285D01*
X94157438Y-71514285D02*
X94205057Y-71466666D01*
X94205057Y-71085713D02*
X94157438Y-71038094D01*
X94157438Y-71038094D02*
X94109819Y-70942856D01*
X94109819Y-70942856D02*
X94109819Y-70704761D01*
X94109819Y-70704761D02*
X94157438Y-70609523D01*
X94157438Y-70609523D02*
X94205057Y-70561904D01*
X94205057Y-70561904D02*
X94300295Y-70514285D01*
X94300295Y-70514285D02*
X94395533Y-70514285D01*
X94395533Y-70514285D02*
X94538390Y-70561904D01*
X94538390Y-70561904D02*
X95109819Y-71133332D01*
X95109819Y-71133332D02*
X95109819Y-70514285D01*
X79315419Y-89223809D02*
X79267800Y-89176190D01*
X79267800Y-89176190D02*
X79220180Y-89033333D01*
X79220180Y-89033333D02*
X79220180Y-88938095D01*
X79220180Y-88938095D02*
X79267800Y-88795238D01*
X79267800Y-88795238D02*
X79363038Y-88700000D01*
X79363038Y-88700000D02*
X79458276Y-88652381D01*
X79458276Y-88652381D02*
X79648752Y-88604762D01*
X79648752Y-88604762D02*
X79791609Y-88604762D01*
X79791609Y-88604762D02*
X79982085Y-88652381D01*
X79982085Y-88652381D02*
X80077323Y-88700000D01*
X80077323Y-88700000D02*
X80172561Y-88795238D01*
X80172561Y-88795238D02*
X80220180Y-88938095D01*
X80220180Y-88938095D02*
X80220180Y-89033333D01*
X80220180Y-89033333D02*
X80172561Y-89176190D01*
X80172561Y-89176190D02*
X80124942Y-89223809D01*
X80220180Y-89842857D02*
X80220180Y-90033333D01*
X80220180Y-90033333D02*
X80172561Y-90128571D01*
X80172561Y-90128571D02*
X80077323Y-90223809D01*
X80077323Y-90223809D02*
X79886847Y-90271428D01*
X79886847Y-90271428D02*
X79553514Y-90271428D01*
X79553514Y-90271428D02*
X79363038Y-90223809D01*
X79363038Y-90223809D02*
X79267800Y-90128571D01*
X79267800Y-90128571D02*
X79220180Y-90033333D01*
X79220180Y-90033333D02*
X79220180Y-89842857D01*
X79220180Y-89842857D02*
X79267800Y-89747619D01*
X79267800Y-89747619D02*
X79363038Y-89652381D01*
X79363038Y-89652381D02*
X79553514Y-89604762D01*
X79553514Y-89604762D02*
X79886847Y-89604762D01*
X79886847Y-89604762D02*
X80077323Y-89652381D01*
X80077323Y-89652381D02*
X80172561Y-89747619D01*
X80172561Y-89747619D02*
X80220180Y-89842857D01*
X79220180Y-90700000D02*
X80220180Y-90700000D01*
X80220180Y-90700000D02*
X79220180Y-91271428D01*
X79220180Y-91271428D02*
X80220180Y-91271428D01*
X80220180Y-91604762D02*
X80220180Y-92176190D01*
X79220180Y-91890476D02*
X80220180Y-91890476D01*
X79220180Y-93080952D02*
X79696371Y-92747619D01*
X79220180Y-92509524D02*
X80220180Y-92509524D01*
X80220180Y-92509524D02*
X80220180Y-92890476D01*
X80220180Y-92890476D02*
X80172561Y-92985714D01*
X80172561Y-92985714D02*
X80124942Y-93033333D01*
X80124942Y-93033333D02*
X80029704Y-93080952D01*
X80029704Y-93080952D02*
X79886847Y-93080952D01*
X79886847Y-93080952D02*
X79791609Y-93033333D01*
X79791609Y-93033333D02*
X79743990Y-92985714D01*
X79743990Y-92985714D02*
X79696371Y-92890476D01*
X79696371Y-92890476D02*
X79696371Y-92509524D01*
X80220180Y-93700000D02*
X80220180Y-93890476D01*
X80220180Y-93890476D02*
X80172561Y-93985714D01*
X80172561Y-93985714D02*
X80077323Y-94080952D01*
X80077323Y-94080952D02*
X79886847Y-94128571D01*
X79886847Y-94128571D02*
X79553514Y-94128571D01*
X79553514Y-94128571D02*
X79363038Y-94080952D01*
X79363038Y-94080952D02*
X79267800Y-93985714D01*
X79267800Y-93985714D02*
X79220180Y-93890476D01*
X79220180Y-93890476D02*
X79220180Y-93700000D01*
X79220180Y-93700000D02*
X79267800Y-93604762D01*
X79267800Y-93604762D02*
X79363038Y-93509524D01*
X79363038Y-93509524D02*
X79553514Y-93461905D01*
X79553514Y-93461905D02*
X79886847Y-93461905D01*
X79886847Y-93461905D02*
X80077323Y-93509524D01*
X80077323Y-93509524D02*
X80172561Y-93604762D01*
X80172561Y-93604762D02*
X80220180Y-93700000D01*
X79220180Y-95033333D02*
X79220180Y-94557143D01*
X79220180Y-94557143D02*
X80220180Y-94557143D01*
X79124942Y-95128572D02*
X79124942Y-95890476D01*
X79220180Y-96128572D02*
X80220180Y-96128572D01*
X80220180Y-96128572D02*
X80220180Y-96509524D01*
X80220180Y-96509524D02*
X80172561Y-96604762D01*
X80172561Y-96604762D02*
X80124942Y-96652381D01*
X80124942Y-96652381D02*
X80029704Y-96700000D01*
X80029704Y-96700000D02*
X79886847Y-96700000D01*
X79886847Y-96700000D02*
X79791609Y-96652381D01*
X79791609Y-96652381D02*
X79743990Y-96604762D01*
X79743990Y-96604762D02*
X79696371Y-96509524D01*
X79696371Y-96509524D02*
X79696371Y-96128572D01*
X80220180Y-97033334D02*
X79220180Y-97271429D01*
X79220180Y-97271429D02*
X79934466Y-97461905D01*
X79934466Y-97461905D02*
X79220180Y-97652381D01*
X79220180Y-97652381D02*
X80220180Y-97890477D01*
X79220180Y-98842857D02*
X79696371Y-98509524D01*
X79220180Y-98271429D02*
X80220180Y-98271429D01*
X80220180Y-98271429D02*
X80220180Y-98652381D01*
X80220180Y-98652381D02*
X80172561Y-98747619D01*
X80172561Y-98747619D02*
X80124942Y-98795238D01*
X80124942Y-98795238D02*
X80029704Y-98842857D01*
X80029704Y-98842857D02*
X79886847Y-98842857D01*
X79886847Y-98842857D02*
X79791609Y-98795238D01*
X79791609Y-98795238D02*
X79743990Y-98747619D01*
X79743990Y-98747619D02*
X79696371Y-98652381D01*
X79696371Y-98652381D02*
X79696371Y-98271429D01*
X79220180Y-99795238D02*
X79220180Y-99223810D01*
X79220180Y-99509524D02*
X80220180Y-99509524D01*
X80220180Y-99509524D02*
X80077323Y-99414286D01*
X80077323Y-99414286D02*
X79982085Y-99319048D01*
X79982085Y-99319048D02*
X79934466Y-99223810D01*
X79354819Y-114593452D02*
X79354819Y-115069642D01*
X79354819Y-115069642D02*
X78354819Y-115069642D01*
X78354819Y-114069642D02*
X78354819Y-113879166D01*
X78354819Y-113879166D02*
X78402438Y-113783928D01*
X78402438Y-113783928D02*
X78497676Y-113688690D01*
X78497676Y-113688690D02*
X78688152Y-113641071D01*
X78688152Y-113641071D02*
X79021485Y-113641071D01*
X79021485Y-113641071D02*
X79211961Y-113688690D01*
X79211961Y-113688690D02*
X79307200Y-113783928D01*
X79307200Y-113783928D02*
X79354819Y-113879166D01*
X79354819Y-113879166D02*
X79354819Y-114069642D01*
X79354819Y-114069642D02*
X79307200Y-114164880D01*
X79307200Y-114164880D02*
X79211961Y-114260118D01*
X79211961Y-114260118D02*
X79021485Y-114307737D01*
X79021485Y-114307737D02*
X78688152Y-114307737D01*
X78688152Y-114307737D02*
X78497676Y-114260118D01*
X78497676Y-114260118D02*
X78402438Y-114164880D01*
X78402438Y-114164880D02*
X78354819Y-114069642D01*
X79069104Y-113260118D02*
X79069104Y-112783928D01*
X79354819Y-113355356D02*
X78354819Y-113022023D01*
X78354819Y-113022023D02*
X79354819Y-112688690D01*
X79354819Y-112355356D02*
X78354819Y-112355356D01*
X78354819Y-112355356D02*
X78354819Y-112117261D01*
X78354819Y-112117261D02*
X78402438Y-111974404D01*
X78402438Y-111974404D02*
X78497676Y-111879166D01*
X78497676Y-111879166D02*
X78592914Y-111831547D01*
X78592914Y-111831547D02*
X78783390Y-111783928D01*
X78783390Y-111783928D02*
X78926247Y-111783928D01*
X78926247Y-111783928D02*
X79116723Y-111831547D01*
X79116723Y-111831547D02*
X79211961Y-111879166D01*
X79211961Y-111879166D02*
X79307200Y-111974404D01*
X79307200Y-111974404D02*
X79354819Y-112117261D01*
X79354819Y-112117261D02*
X79354819Y-112355356D01*
X79259580Y-110783928D02*
X79307200Y-110831547D01*
X79307200Y-110831547D02*
X79354819Y-110974404D01*
X79354819Y-110974404D02*
X79354819Y-111069642D01*
X79354819Y-111069642D02*
X79307200Y-111212499D01*
X79307200Y-111212499D02*
X79211961Y-111307737D01*
X79211961Y-111307737D02*
X79116723Y-111355356D01*
X79116723Y-111355356D02*
X78926247Y-111402975D01*
X78926247Y-111402975D02*
X78783390Y-111402975D01*
X78783390Y-111402975D02*
X78592914Y-111355356D01*
X78592914Y-111355356D02*
X78497676Y-111307737D01*
X78497676Y-111307737D02*
X78402438Y-111212499D01*
X78402438Y-111212499D02*
X78354819Y-111069642D01*
X78354819Y-111069642D02*
X78354819Y-110974404D01*
X78354819Y-110974404D02*
X78402438Y-110831547D01*
X78402438Y-110831547D02*
X78450057Y-110783928D01*
X78831009Y-110355356D02*
X78831009Y-110022023D01*
X79354819Y-109879166D02*
X79354819Y-110355356D01*
X79354819Y-110355356D02*
X78354819Y-110355356D01*
X78354819Y-110355356D02*
X78354819Y-109879166D01*
X79354819Y-108974404D02*
X79354819Y-109450594D01*
X79354819Y-109450594D02*
X78354819Y-109450594D01*
X79354819Y-108164880D02*
X79354819Y-108641070D01*
X79354819Y-108641070D02*
X78354819Y-108641070D01*
X79354819Y-107307737D02*
X79354819Y-107879165D01*
X79354819Y-107593451D02*
X78354819Y-107593451D01*
X78354819Y-107593451D02*
X78497676Y-107688689D01*
X78497676Y-107688689D02*
X78592914Y-107783927D01*
X78592914Y-107783927D02*
X78640533Y-107879165D01*
X127916190Y-74964819D02*
X127916190Y-73964819D01*
X127916190Y-73964819D02*
X128249523Y-74679104D01*
X128249523Y-74679104D02*
X128582856Y-73964819D01*
X128582856Y-73964819D02*
X128582856Y-74964819D01*
X129011428Y-74679104D02*
X129487618Y-74679104D01*
X128916190Y-74964819D02*
X129249523Y-73964819D01*
X129249523Y-73964819D02*
X129582856Y-74964819D01*
X129868571Y-74917200D02*
X130011428Y-74964819D01*
X130011428Y-74964819D02*
X130249523Y-74964819D01*
X130249523Y-74964819D02*
X130344761Y-74917200D01*
X130344761Y-74917200D02*
X130392380Y-74869580D01*
X130392380Y-74869580D02*
X130439999Y-74774342D01*
X130439999Y-74774342D02*
X130439999Y-74679104D01*
X130439999Y-74679104D02*
X130392380Y-74583866D01*
X130392380Y-74583866D02*
X130344761Y-74536247D01*
X130344761Y-74536247D02*
X130249523Y-74488628D01*
X130249523Y-74488628D02*
X130059047Y-74441009D01*
X130059047Y-74441009D02*
X129963809Y-74393390D01*
X129963809Y-74393390D02*
X129916190Y-74345771D01*
X129916190Y-74345771D02*
X129868571Y-74250533D01*
X129868571Y-74250533D02*
X129868571Y-74155295D01*
X129868571Y-74155295D02*
X129916190Y-74060057D01*
X129916190Y-74060057D02*
X129963809Y-74012438D01*
X129963809Y-74012438D02*
X130059047Y-73964819D01*
X130059047Y-73964819D02*
X130297142Y-73964819D01*
X130297142Y-73964819D02*
X130439999Y-74012438D01*
X130725714Y-73964819D02*
X131297142Y-73964819D01*
X131011428Y-74964819D02*
X131011428Y-73964819D01*
X131630476Y-74441009D02*
X131963809Y-74441009D01*
X132106666Y-74964819D02*
X131630476Y-74964819D01*
X131630476Y-74964819D02*
X131630476Y-73964819D01*
X131630476Y-73964819D02*
X132106666Y-73964819D01*
X133106666Y-74964819D02*
X132773333Y-74488628D01*
X132535238Y-74964819D02*
X132535238Y-73964819D01*
X132535238Y-73964819D02*
X132916190Y-73964819D01*
X132916190Y-73964819D02*
X133011428Y-74012438D01*
X133011428Y-74012438D02*
X133059047Y-74060057D01*
X133059047Y-74060057D02*
X133106666Y-74155295D01*
X133106666Y-74155295D02*
X133106666Y-74298152D01*
X133106666Y-74298152D02*
X133059047Y-74393390D01*
X133059047Y-74393390D02*
X133011428Y-74441009D01*
X133011428Y-74441009D02*
X132916190Y-74488628D01*
X132916190Y-74488628D02*
X132535238Y-74488628D01*
X133297143Y-75060057D02*
X134059047Y-75060057D01*
X134297143Y-74964819D02*
X134297143Y-73964819D01*
X134297143Y-73964819D02*
X134630476Y-74679104D01*
X134630476Y-74679104D02*
X134963809Y-73964819D01*
X134963809Y-73964819D02*
X134963809Y-74964819D01*
X136011428Y-74869580D02*
X135963809Y-74917200D01*
X135963809Y-74917200D02*
X135820952Y-74964819D01*
X135820952Y-74964819D02*
X135725714Y-74964819D01*
X135725714Y-74964819D02*
X135582857Y-74917200D01*
X135582857Y-74917200D02*
X135487619Y-74821961D01*
X135487619Y-74821961D02*
X135440000Y-74726723D01*
X135440000Y-74726723D02*
X135392381Y-74536247D01*
X135392381Y-74536247D02*
X135392381Y-74393390D01*
X135392381Y-74393390D02*
X135440000Y-74202914D01*
X135440000Y-74202914D02*
X135487619Y-74107676D01*
X135487619Y-74107676D02*
X135582857Y-74012438D01*
X135582857Y-74012438D02*
X135725714Y-73964819D01*
X135725714Y-73964819D02*
X135820952Y-73964819D01*
X135820952Y-73964819D02*
X135963809Y-74012438D01*
X135963809Y-74012438D02*
X136011428Y-74060057D01*
X136440000Y-73964819D02*
X136440000Y-74774342D01*
X136440000Y-74774342D02*
X136487619Y-74869580D01*
X136487619Y-74869580D02*
X136535238Y-74917200D01*
X136535238Y-74917200D02*
X136630476Y-74964819D01*
X136630476Y-74964819D02*
X136820952Y-74964819D01*
X136820952Y-74964819D02*
X136916190Y-74917200D01*
X136916190Y-74917200D02*
X136963809Y-74869580D01*
X136963809Y-74869580D02*
X137011428Y-74774342D01*
X137011428Y-74774342D02*
X137011428Y-73964819D01*
X138011428Y-74964819D02*
X137440000Y-74964819D01*
X137725714Y-74964819D02*
X137725714Y-73964819D01*
X137725714Y-73964819D02*
X137630476Y-74107676D01*
X137630476Y-74107676D02*
X137535238Y-74202914D01*
X137535238Y-74202914D02*
X137440000Y-74250533D01*
X90414819Y-63616666D02*
X89414819Y-63616666D01*
X89414819Y-63616666D02*
X89414819Y-63235714D01*
X89414819Y-63235714D02*
X89462438Y-63140476D01*
X89462438Y-63140476D02*
X89510057Y-63092857D01*
X89510057Y-63092857D02*
X89605295Y-63045238D01*
X89605295Y-63045238D02*
X89748152Y-63045238D01*
X89748152Y-63045238D02*
X89843390Y-63092857D01*
X89843390Y-63092857D02*
X89891009Y-63140476D01*
X89891009Y-63140476D02*
X89938628Y-63235714D01*
X89938628Y-63235714D02*
X89938628Y-63616666D01*
X89414819Y-62426190D02*
X89414819Y-62235714D01*
X89414819Y-62235714D02*
X89462438Y-62140476D01*
X89462438Y-62140476D02*
X89557676Y-62045238D01*
X89557676Y-62045238D02*
X89748152Y-61997619D01*
X89748152Y-61997619D02*
X90081485Y-61997619D01*
X90081485Y-61997619D02*
X90271961Y-62045238D01*
X90271961Y-62045238D02*
X90367200Y-62140476D01*
X90367200Y-62140476D02*
X90414819Y-62235714D01*
X90414819Y-62235714D02*
X90414819Y-62426190D01*
X90414819Y-62426190D02*
X90367200Y-62521428D01*
X90367200Y-62521428D02*
X90271961Y-62616666D01*
X90271961Y-62616666D02*
X90081485Y-62664285D01*
X90081485Y-62664285D02*
X89748152Y-62664285D01*
X89748152Y-62664285D02*
X89557676Y-62616666D01*
X89557676Y-62616666D02*
X89462438Y-62521428D01*
X89462438Y-62521428D02*
X89414819Y-62426190D01*
X89414819Y-61664285D02*
X90414819Y-61426190D01*
X90414819Y-61426190D02*
X89700533Y-61235714D01*
X89700533Y-61235714D02*
X90414819Y-61045238D01*
X90414819Y-61045238D02*
X89414819Y-60807143D01*
X89891009Y-60426190D02*
X89891009Y-60092857D01*
X90414819Y-59950000D02*
X90414819Y-60426190D01*
X90414819Y-60426190D02*
X89414819Y-60426190D01*
X89414819Y-60426190D02*
X89414819Y-59950000D01*
X90414819Y-58950000D02*
X89938628Y-59283333D01*
X90414819Y-59521428D02*
X89414819Y-59521428D01*
X89414819Y-59521428D02*
X89414819Y-59140476D01*
X89414819Y-59140476D02*
X89462438Y-59045238D01*
X89462438Y-59045238D02*
X89510057Y-58997619D01*
X89510057Y-58997619D02*
X89605295Y-58950000D01*
X89605295Y-58950000D02*
X89748152Y-58950000D01*
X89748152Y-58950000D02*
X89843390Y-58997619D01*
X89843390Y-58997619D02*
X89891009Y-59045238D01*
X89891009Y-59045238D02*
X89938628Y-59140476D01*
X89938628Y-59140476D02*
X89938628Y-59521428D01*
X90510057Y-58759524D02*
X90510057Y-57997619D01*
X89414819Y-57759523D02*
X90224342Y-57759523D01*
X90224342Y-57759523D02*
X90319580Y-57711904D01*
X90319580Y-57711904D02*
X90367200Y-57664285D01*
X90367200Y-57664285D02*
X90414819Y-57569047D01*
X90414819Y-57569047D02*
X90414819Y-57378571D01*
X90414819Y-57378571D02*
X90367200Y-57283333D01*
X90367200Y-57283333D02*
X90319580Y-57235714D01*
X90319580Y-57235714D02*
X90224342Y-57188095D01*
X90224342Y-57188095D02*
X89414819Y-57188095D01*
X90367200Y-56759523D02*
X90414819Y-56616666D01*
X90414819Y-56616666D02*
X90414819Y-56378571D01*
X90414819Y-56378571D02*
X90367200Y-56283333D01*
X90367200Y-56283333D02*
X90319580Y-56235714D01*
X90319580Y-56235714D02*
X90224342Y-56188095D01*
X90224342Y-56188095D02*
X90129104Y-56188095D01*
X90129104Y-56188095D02*
X90033866Y-56235714D01*
X90033866Y-56235714D02*
X89986247Y-56283333D01*
X89986247Y-56283333D02*
X89938628Y-56378571D01*
X89938628Y-56378571D02*
X89891009Y-56569047D01*
X89891009Y-56569047D02*
X89843390Y-56664285D01*
X89843390Y-56664285D02*
X89795771Y-56711904D01*
X89795771Y-56711904D02*
X89700533Y-56759523D01*
X89700533Y-56759523D02*
X89605295Y-56759523D01*
X89605295Y-56759523D02*
X89510057Y-56711904D01*
X89510057Y-56711904D02*
X89462438Y-56664285D01*
X89462438Y-56664285D02*
X89414819Y-56569047D01*
X89414819Y-56569047D02*
X89414819Y-56330952D01*
X89414819Y-56330952D02*
X89462438Y-56188095D01*
X89891009Y-55426190D02*
X89938628Y-55283333D01*
X89938628Y-55283333D02*
X89986247Y-55235714D01*
X89986247Y-55235714D02*
X90081485Y-55188095D01*
X90081485Y-55188095D02*
X90224342Y-55188095D01*
X90224342Y-55188095D02*
X90319580Y-55235714D01*
X90319580Y-55235714D02*
X90367200Y-55283333D01*
X90367200Y-55283333D02*
X90414819Y-55378571D01*
X90414819Y-55378571D02*
X90414819Y-55759523D01*
X90414819Y-55759523D02*
X89414819Y-55759523D01*
X89414819Y-55759523D02*
X89414819Y-55426190D01*
X89414819Y-55426190D02*
X89462438Y-55330952D01*
X89462438Y-55330952D02*
X89510057Y-55283333D01*
X89510057Y-55283333D02*
X89605295Y-55235714D01*
X89605295Y-55235714D02*
X89700533Y-55235714D01*
X89700533Y-55235714D02*
X89795771Y-55283333D01*
X89795771Y-55283333D02*
X89843390Y-55330952D01*
X89843390Y-55330952D02*
X89891009Y-55426190D01*
X89891009Y-55426190D02*
X89891009Y-55759523D01*
X90414819Y-54235714D02*
X90414819Y-54807142D01*
X90414819Y-54521428D02*
X89414819Y-54521428D01*
X89414819Y-54521428D02*
X89557676Y-54616666D01*
X89557676Y-54616666D02*
X89652914Y-54711904D01*
X89652914Y-54711904D02*
X89700533Y-54807142D01*
X161081190Y-66404819D02*
X161081190Y-65404819D01*
X162128808Y-66309580D02*
X162081189Y-66357200D01*
X162081189Y-66357200D02*
X161938332Y-66404819D01*
X161938332Y-66404819D02*
X161843094Y-66404819D01*
X161843094Y-66404819D02*
X161700237Y-66357200D01*
X161700237Y-66357200D02*
X161604999Y-66261961D01*
X161604999Y-66261961D02*
X161557380Y-66166723D01*
X161557380Y-66166723D02*
X161509761Y-65976247D01*
X161509761Y-65976247D02*
X161509761Y-65833390D01*
X161509761Y-65833390D02*
X161557380Y-65642914D01*
X161557380Y-65642914D02*
X161604999Y-65547676D01*
X161604999Y-65547676D02*
X161700237Y-65452438D01*
X161700237Y-65452438D02*
X161843094Y-65404819D01*
X161843094Y-65404819D02*
X161938332Y-65404819D01*
X161938332Y-65404819D02*
X162081189Y-65452438D01*
X162081189Y-65452438D02*
X162128808Y-65500057D01*
X162509761Y-66357200D02*
X162652618Y-66404819D01*
X162652618Y-66404819D02*
X162890713Y-66404819D01*
X162890713Y-66404819D02*
X162985951Y-66357200D01*
X162985951Y-66357200D02*
X163033570Y-66309580D01*
X163033570Y-66309580D02*
X163081189Y-66214342D01*
X163081189Y-66214342D02*
X163081189Y-66119104D01*
X163081189Y-66119104D02*
X163033570Y-66023866D01*
X163033570Y-66023866D02*
X162985951Y-65976247D01*
X162985951Y-65976247D02*
X162890713Y-65928628D01*
X162890713Y-65928628D02*
X162700237Y-65881009D01*
X162700237Y-65881009D02*
X162604999Y-65833390D01*
X162604999Y-65833390D02*
X162557380Y-65785771D01*
X162557380Y-65785771D02*
X162509761Y-65690533D01*
X162509761Y-65690533D02*
X162509761Y-65595295D01*
X162509761Y-65595295D02*
X162557380Y-65500057D01*
X162557380Y-65500057D02*
X162604999Y-65452438D01*
X162604999Y-65452438D02*
X162700237Y-65404819D01*
X162700237Y-65404819D02*
X162938332Y-65404819D01*
X162938332Y-65404819D02*
X163081189Y-65452438D01*
X163509761Y-66404819D02*
X163509761Y-65404819D01*
X163509761Y-65404819D02*
X163890713Y-65404819D01*
X163890713Y-65404819D02*
X163985951Y-65452438D01*
X163985951Y-65452438D02*
X164033570Y-65500057D01*
X164033570Y-65500057D02*
X164081189Y-65595295D01*
X164081189Y-65595295D02*
X164081189Y-65738152D01*
X164081189Y-65738152D02*
X164033570Y-65833390D01*
X164033570Y-65833390D02*
X163985951Y-65881009D01*
X163985951Y-65881009D02*
X163890713Y-65928628D01*
X163890713Y-65928628D02*
X163509761Y-65928628D01*
X164271666Y-66500057D02*
X165033570Y-66500057D01*
X165224047Y-66357200D02*
X165366904Y-66404819D01*
X165366904Y-66404819D02*
X165604999Y-66404819D01*
X165604999Y-66404819D02*
X165700237Y-66357200D01*
X165700237Y-66357200D02*
X165747856Y-66309580D01*
X165747856Y-66309580D02*
X165795475Y-66214342D01*
X165795475Y-66214342D02*
X165795475Y-66119104D01*
X165795475Y-66119104D02*
X165747856Y-66023866D01*
X165747856Y-66023866D02*
X165700237Y-65976247D01*
X165700237Y-65976247D02*
X165604999Y-65928628D01*
X165604999Y-65928628D02*
X165414523Y-65881009D01*
X165414523Y-65881009D02*
X165319285Y-65833390D01*
X165319285Y-65833390D02*
X165271666Y-65785771D01*
X165271666Y-65785771D02*
X165224047Y-65690533D01*
X165224047Y-65690533D02*
X165224047Y-65595295D01*
X165224047Y-65595295D02*
X165271666Y-65500057D01*
X165271666Y-65500057D02*
X165319285Y-65452438D01*
X165319285Y-65452438D02*
X165414523Y-65404819D01*
X165414523Y-65404819D02*
X165652618Y-65404819D01*
X165652618Y-65404819D02*
X165795475Y-65452438D01*
X166700237Y-66404819D02*
X166224047Y-66404819D01*
X166224047Y-66404819D02*
X166224047Y-65404819D01*
X166985952Y-66119104D02*
X167462142Y-66119104D01*
X166890714Y-66404819D02*
X167224047Y-65404819D01*
X167224047Y-65404819D02*
X167557380Y-66404819D01*
X167747857Y-65404819D02*
X168081190Y-66404819D01*
X168081190Y-66404819D02*
X168414523Y-65404819D01*
X168747857Y-65881009D02*
X169081190Y-65881009D01*
X169224047Y-66404819D02*
X168747857Y-66404819D01*
X168747857Y-66404819D02*
X168747857Y-65404819D01*
X168747857Y-65404819D02*
X169224047Y-65404819D01*
X170176428Y-66404819D02*
X169605000Y-66404819D01*
X169890714Y-66404819D02*
X169890714Y-65404819D01*
X169890714Y-65404819D02*
X169795476Y-65547676D01*
X169795476Y-65547676D02*
X169700238Y-65642914D01*
X169700238Y-65642914D02*
X169605000Y-65690533D01*
X196157142Y-98609580D02*
X196109523Y-98657200D01*
X196109523Y-98657200D02*
X195966666Y-98704819D01*
X195966666Y-98704819D02*
X195871428Y-98704819D01*
X195871428Y-98704819D02*
X195728571Y-98657200D01*
X195728571Y-98657200D02*
X195633333Y-98561961D01*
X195633333Y-98561961D02*
X195585714Y-98466723D01*
X195585714Y-98466723D02*
X195538095Y-98276247D01*
X195538095Y-98276247D02*
X195538095Y-98133390D01*
X195538095Y-98133390D02*
X195585714Y-97942914D01*
X195585714Y-97942914D02*
X195633333Y-97847676D01*
X195633333Y-97847676D02*
X195728571Y-97752438D01*
X195728571Y-97752438D02*
X195871428Y-97704819D01*
X195871428Y-97704819D02*
X195966666Y-97704819D01*
X195966666Y-97704819D02*
X196109523Y-97752438D01*
X196109523Y-97752438D02*
X196157142Y-97800057D01*
X196490476Y-97704819D02*
X197109523Y-97704819D01*
X197109523Y-97704819D02*
X196776190Y-98085771D01*
X196776190Y-98085771D02*
X196919047Y-98085771D01*
X196919047Y-98085771D02*
X197014285Y-98133390D01*
X197014285Y-98133390D02*
X197061904Y-98181009D01*
X197061904Y-98181009D02*
X197109523Y-98276247D01*
X197109523Y-98276247D02*
X197109523Y-98514342D01*
X197109523Y-98514342D02*
X197061904Y-98609580D01*
X197061904Y-98609580D02*
X197014285Y-98657200D01*
X197014285Y-98657200D02*
X196919047Y-98704819D01*
X196919047Y-98704819D02*
X196633333Y-98704819D01*
X196633333Y-98704819D02*
X196538095Y-98657200D01*
X196538095Y-98657200D02*
X196490476Y-98609580D01*
X197966666Y-97704819D02*
X197776190Y-97704819D01*
X197776190Y-97704819D02*
X197680952Y-97752438D01*
X197680952Y-97752438D02*
X197633333Y-97800057D01*
X197633333Y-97800057D02*
X197538095Y-97942914D01*
X197538095Y-97942914D02*
X197490476Y-98133390D01*
X197490476Y-98133390D02*
X197490476Y-98514342D01*
X197490476Y-98514342D02*
X197538095Y-98609580D01*
X197538095Y-98609580D02*
X197585714Y-98657200D01*
X197585714Y-98657200D02*
X197680952Y-98704819D01*
X197680952Y-98704819D02*
X197871428Y-98704819D01*
X197871428Y-98704819D02*
X197966666Y-98657200D01*
X197966666Y-98657200D02*
X198014285Y-98609580D01*
X198014285Y-98609580D02*
X198061904Y-98514342D01*
X198061904Y-98514342D02*
X198061904Y-98276247D01*
X198061904Y-98276247D02*
X198014285Y-98181009D01*
X198014285Y-98181009D02*
X197966666Y-98133390D01*
X197966666Y-98133390D02*
X197871428Y-98085771D01*
X197871428Y-98085771D02*
X197680952Y-98085771D01*
X197680952Y-98085771D02*
X197585714Y-98133390D01*
X197585714Y-98133390D02*
X197538095Y-98181009D01*
X197538095Y-98181009D02*
X197490476Y-98276247D01*
X173754819Y-128340476D02*
X173278628Y-128673809D01*
X173754819Y-128911904D02*
X172754819Y-128911904D01*
X172754819Y-128911904D02*
X172754819Y-128530952D01*
X172754819Y-128530952D02*
X172802438Y-128435714D01*
X172802438Y-128435714D02*
X172850057Y-128388095D01*
X172850057Y-128388095D02*
X172945295Y-128340476D01*
X172945295Y-128340476D02*
X173088152Y-128340476D01*
X173088152Y-128340476D02*
X173183390Y-128388095D01*
X173183390Y-128388095D02*
X173231009Y-128435714D01*
X173231009Y-128435714D02*
X173278628Y-128530952D01*
X173278628Y-128530952D02*
X173278628Y-128911904D01*
X173754819Y-127911904D02*
X172754819Y-127911904D01*
X172802438Y-126911905D02*
X172754819Y-127007143D01*
X172754819Y-127007143D02*
X172754819Y-127150000D01*
X172754819Y-127150000D02*
X172802438Y-127292857D01*
X172802438Y-127292857D02*
X172897676Y-127388095D01*
X172897676Y-127388095D02*
X172992914Y-127435714D01*
X172992914Y-127435714D02*
X173183390Y-127483333D01*
X173183390Y-127483333D02*
X173326247Y-127483333D01*
X173326247Y-127483333D02*
X173516723Y-127435714D01*
X173516723Y-127435714D02*
X173611961Y-127388095D01*
X173611961Y-127388095D02*
X173707200Y-127292857D01*
X173707200Y-127292857D02*
X173754819Y-127150000D01*
X173754819Y-127150000D02*
X173754819Y-127054762D01*
X173754819Y-127054762D02*
X173707200Y-126911905D01*
X173707200Y-126911905D02*
X173659580Y-126864286D01*
X173659580Y-126864286D02*
X173326247Y-126864286D01*
X173326247Y-126864286D02*
X173326247Y-127054762D01*
X173754819Y-126435714D02*
X172754819Y-126435714D01*
X173231009Y-126435714D02*
X173231009Y-125864286D01*
X173754819Y-125864286D02*
X172754819Y-125864286D01*
X172754819Y-125530952D02*
X172754819Y-124959524D01*
X173754819Y-125245238D02*
X172754819Y-125245238D01*
X173850057Y-124864286D02*
X173850057Y-124102381D01*
X173754819Y-123864285D02*
X172754819Y-123864285D01*
X172754819Y-123864285D02*
X173469104Y-123530952D01*
X173469104Y-123530952D02*
X172754819Y-123197619D01*
X172754819Y-123197619D02*
X173754819Y-123197619D01*
X172754819Y-122530952D02*
X172754819Y-122340476D01*
X172754819Y-122340476D02*
X172802438Y-122245238D01*
X172802438Y-122245238D02*
X172897676Y-122150000D01*
X172897676Y-122150000D02*
X173088152Y-122102381D01*
X173088152Y-122102381D02*
X173421485Y-122102381D01*
X173421485Y-122102381D02*
X173611961Y-122150000D01*
X173611961Y-122150000D02*
X173707200Y-122245238D01*
X173707200Y-122245238D02*
X173754819Y-122340476D01*
X173754819Y-122340476D02*
X173754819Y-122530952D01*
X173754819Y-122530952D02*
X173707200Y-122626190D01*
X173707200Y-122626190D02*
X173611961Y-122721428D01*
X173611961Y-122721428D02*
X173421485Y-122769047D01*
X173421485Y-122769047D02*
X173088152Y-122769047D01*
X173088152Y-122769047D02*
X172897676Y-122721428D01*
X172897676Y-122721428D02*
X172802438Y-122626190D01*
X172802438Y-122626190D02*
X172754819Y-122530952D01*
X172754819Y-121816666D02*
X172754819Y-121245238D01*
X173754819Y-121530952D02*
X172754819Y-121530952D01*
X172754819Y-120721428D02*
X172754819Y-120530952D01*
X172754819Y-120530952D02*
X172802438Y-120435714D01*
X172802438Y-120435714D02*
X172897676Y-120340476D01*
X172897676Y-120340476D02*
X173088152Y-120292857D01*
X173088152Y-120292857D02*
X173421485Y-120292857D01*
X173421485Y-120292857D02*
X173611961Y-120340476D01*
X173611961Y-120340476D02*
X173707200Y-120435714D01*
X173707200Y-120435714D02*
X173754819Y-120530952D01*
X173754819Y-120530952D02*
X173754819Y-120721428D01*
X173754819Y-120721428D02*
X173707200Y-120816666D01*
X173707200Y-120816666D02*
X173611961Y-120911904D01*
X173611961Y-120911904D02*
X173421485Y-120959523D01*
X173421485Y-120959523D02*
X173088152Y-120959523D01*
X173088152Y-120959523D02*
X172897676Y-120911904D01*
X172897676Y-120911904D02*
X172802438Y-120816666D01*
X172802438Y-120816666D02*
X172754819Y-120721428D01*
X173754819Y-119292857D02*
X173278628Y-119626190D01*
X173754819Y-119864285D02*
X172754819Y-119864285D01*
X172754819Y-119864285D02*
X172754819Y-119483333D01*
X172754819Y-119483333D02*
X172802438Y-119388095D01*
X172802438Y-119388095D02*
X172850057Y-119340476D01*
X172850057Y-119340476D02*
X172945295Y-119292857D01*
X172945295Y-119292857D02*
X173088152Y-119292857D01*
X173088152Y-119292857D02*
X173183390Y-119340476D01*
X173183390Y-119340476D02*
X173231009Y-119388095D01*
X173231009Y-119388095D02*
X173278628Y-119483333D01*
X173278628Y-119483333D02*
X173278628Y-119864285D01*
X173754819Y-118340476D02*
X173754819Y-118911904D01*
X173754819Y-118626190D02*
X172754819Y-118626190D01*
X172754819Y-118626190D02*
X172897676Y-118721428D01*
X172897676Y-118721428D02*
X172992914Y-118816666D01*
X172992914Y-118816666D02*
X173040533Y-118911904D01*
X79784524Y-79869104D02*
X80260714Y-79869104D01*
X79689286Y-80154819D02*
X80022619Y-79154819D01*
X80022619Y-79154819D02*
X80355952Y-80154819D01*
X80689286Y-80154819D02*
X80689286Y-79154819D01*
X80689286Y-79154819D02*
X81022619Y-79869104D01*
X81022619Y-79869104D02*
X81355952Y-79154819D01*
X81355952Y-79154819D02*
X81355952Y-80154819D01*
X81784524Y-80107200D02*
X81927381Y-80154819D01*
X81927381Y-80154819D02*
X82165476Y-80154819D01*
X82165476Y-80154819D02*
X82260714Y-80107200D01*
X82260714Y-80107200D02*
X82308333Y-80059580D01*
X82308333Y-80059580D02*
X82355952Y-79964342D01*
X82355952Y-79964342D02*
X82355952Y-79869104D01*
X82355952Y-79869104D02*
X82308333Y-79773866D01*
X82308333Y-79773866D02*
X82260714Y-79726247D01*
X82260714Y-79726247D02*
X82165476Y-79678628D01*
X82165476Y-79678628D02*
X81975000Y-79631009D01*
X81975000Y-79631009D02*
X81879762Y-79583390D01*
X81879762Y-79583390D02*
X81832143Y-79535771D01*
X81832143Y-79535771D02*
X81784524Y-79440533D01*
X81784524Y-79440533D02*
X81784524Y-79345295D01*
X81784524Y-79345295D02*
X81832143Y-79250057D01*
X81832143Y-79250057D02*
X81879762Y-79202438D01*
X81879762Y-79202438D02*
X81975000Y-79154819D01*
X81975000Y-79154819D02*
X82213095Y-79154819D01*
X82213095Y-79154819D02*
X82355952Y-79202438D01*
X83308333Y-80154819D02*
X82736905Y-80154819D01*
X83022619Y-80154819D02*
X83022619Y-79154819D01*
X83022619Y-79154819D02*
X82927381Y-79297676D01*
X82927381Y-79297676D02*
X82832143Y-79392914D01*
X82832143Y-79392914D02*
X82736905Y-79440533D01*
X84260714Y-80154819D02*
X83689286Y-80154819D01*
X83975000Y-80154819D02*
X83975000Y-79154819D01*
X83975000Y-79154819D02*
X83879762Y-79297676D01*
X83879762Y-79297676D02*
X83784524Y-79392914D01*
X83784524Y-79392914D02*
X83689286Y-79440533D01*
X85213095Y-80154819D02*
X84641667Y-80154819D01*
X84927381Y-80154819D02*
X84927381Y-79154819D01*
X84927381Y-79154819D02*
X84832143Y-79297676D01*
X84832143Y-79297676D02*
X84736905Y-79392914D01*
X84736905Y-79392914D02*
X84641667Y-79440533D01*
X85546429Y-79154819D02*
X86213095Y-79154819D01*
X86213095Y-79154819D02*
X85784524Y-80154819D01*
X86594048Y-79773866D02*
X87355953Y-79773866D01*
X88308333Y-79154819D02*
X87832143Y-79154819D01*
X87832143Y-79154819D02*
X87784524Y-79631009D01*
X87784524Y-79631009D02*
X87832143Y-79583390D01*
X87832143Y-79583390D02*
X87927381Y-79535771D01*
X87927381Y-79535771D02*
X88165476Y-79535771D01*
X88165476Y-79535771D02*
X88260714Y-79583390D01*
X88260714Y-79583390D02*
X88308333Y-79631009D01*
X88308333Y-79631009D02*
X88355952Y-79726247D01*
X88355952Y-79726247D02*
X88355952Y-79964342D01*
X88355952Y-79964342D02*
X88308333Y-80059580D01*
X88308333Y-80059580D02*
X88260714Y-80107200D01*
X88260714Y-80107200D02*
X88165476Y-80154819D01*
X88165476Y-80154819D02*
X87927381Y-80154819D01*
X87927381Y-80154819D02*
X87832143Y-80107200D01*
X87832143Y-80107200D02*
X87784524Y-80059580D01*
X88641667Y-79154819D02*
X88975000Y-80154819D01*
X88975000Y-80154819D02*
X89308333Y-79154819D01*
X89594048Y-79250057D02*
X89641667Y-79202438D01*
X89641667Y-79202438D02*
X89736905Y-79154819D01*
X89736905Y-79154819D02*
X89975000Y-79154819D01*
X89975000Y-79154819D02*
X90070238Y-79202438D01*
X90070238Y-79202438D02*
X90117857Y-79250057D01*
X90117857Y-79250057D02*
X90165476Y-79345295D01*
X90165476Y-79345295D02*
X90165476Y-79440533D01*
X90165476Y-79440533D02*
X90117857Y-79583390D01*
X90117857Y-79583390D02*
X89546429Y-80154819D01*
X89546429Y-80154819D02*
X90165476Y-80154819D01*
X90959580Y-104966666D02*
X91007200Y-105014285D01*
X91007200Y-105014285D02*
X91054819Y-105157142D01*
X91054819Y-105157142D02*
X91054819Y-105252380D01*
X91054819Y-105252380D02*
X91007200Y-105395237D01*
X91007200Y-105395237D02*
X90911961Y-105490475D01*
X90911961Y-105490475D02*
X90816723Y-105538094D01*
X90816723Y-105538094D02*
X90626247Y-105585713D01*
X90626247Y-105585713D02*
X90483390Y-105585713D01*
X90483390Y-105585713D02*
X90292914Y-105538094D01*
X90292914Y-105538094D02*
X90197676Y-105490475D01*
X90197676Y-105490475D02*
X90102438Y-105395237D01*
X90102438Y-105395237D02*
X90054819Y-105252380D01*
X90054819Y-105252380D02*
X90054819Y-105157142D01*
X90054819Y-105157142D02*
X90102438Y-105014285D01*
X90102438Y-105014285D02*
X90150057Y-104966666D01*
X90054819Y-104109523D02*
X90054819Y-104299999D01*
X90054819Y-104299999D02*
X90102438Y-104395237D01*
X90102438Y-104395237D02*
X90150057Y-104442856D01*
X90150057Y-104442856D02*
X90292914Y-104538094D01*
X90292914Y-104538094D02*
X90483390Y-104585713D01*
X90483390Y-104585713D02*
X90864342Y-104585713D01*
X90864342Y-104585713D02*
X90959580Y-104538094D01*
X90959580Y-104538094D02*
X91007200Y-104490475D01*
X91007200Y-104490475D02*
X91054819Y-104395237D01*
X91054819Y-104395237D02*
X91054819Y-104204761D01*
X91054819Y-104204761D02*
X91007200Y-104109523D01*
X91007200Y-104109523D02*
X90959580Y-104061904D01*
X90959580Y-104061904D02*
X90864342Y-104014285D01*
X90864342Y-104014285D02*
X90626247Y-104014285D01*
X90626247Y-104014285D02*
X90531009Y-104061904D01*
X90531009Y-104061904D02*
X90483390Y-104109523D01*
X90483390Y-104109523D02*
X90435771Y-104204761D01*
X90435771Y-104204761D02*
X90435771Y-104395237D01*
X90435771Y-104395237D02*
X90483390Y-104490475D01*
X90483390Y-104490475D02*
X90531009Y-104538094D01*
X90531009Y-104538094D02*
X90626247Y-104585713D01*
X97285714Y-99719104D02*
X97761904Y-99719104D01*
X97190476Y-100004819D02*
X97523809Y-99004819D01*
X97523809Y-99004819D02*
X97857142Y-100004819D01*
X98190476Y-100004819D02*
X98190476Y-99004819D01*
X98190476Y-99004819D02*
X98428571Y-99004819D01*
X98428571Y-99004819D02*
X98571428Y-99052438D01*
X98571428Y-99052438D02*
X98666666Y-99147676D01*
X98666666Y-99147676D02*
X98714285Y-99242914D01*
X98714285Y-99242914D02*
X98761904Y-99433390D01*
X98761904Y-99433390D02*
X98761904Y-99576247D01*
X98761904Y-99576247D02*
X98714285Y-99766723D01*
X98714285Y-99766723D02*
X98666666Y-99861961D01*
X98666666Y-99861961D02*
X98571428Y-99957200D01*
X98571428Y-99957200D02*
X98428571Y-100004819D01*
X98428571Y-100004819D02*
X98190476Y-100004819D01*
X99761904Y-99909580D02*
X99714285Y-99957200D01*
X99714285Y-99957200D02*
X99571428Y-100004819D01*
X99571428Y-100004819D02*
X99476190Y-100004819D01*
X99476190Y-100004819D02*
X99333333Y-99957200D01*
X99333333Y-99957200D02*
X99238095Y-99861961D01*
X99238095Y-99861961D02*
X99190476Y-99766723D01*
X99190476Y-99766723D02*
X99142857Y-99576247D01*
X99142857Y-99576247D02*
X99142857Y-99433390D01*
X99142857Y-99433390D02*
X99190476Y-99242914D01*
X99190476Y-99242914D02*
X99238095Y-99147676D01*
X99238095Y-99147676D02*
X99333333Y-99052438D01*
X99333333Y-99052438D02*
X99476190Y-99004819D01*
X99476190Y-99004819D02*
X99571428Y-99004819D01*
X99571428Y-99004819D02*
X99714285Y-99052438D01*
X99714285Y-99052438D02*
X99761904Y-99100057D01*
X100714285Y-100004819D02*
X100142857Y-100004819D01*
X100428571Y-100004819D02*
X100428571Y-99004819D01*
X100428571Y-99004819D02*
X100333333Y-99147676D01*
X100333333Y-99147676D02*
X100238095Y-99242914D01*
X100238095Y-99242914D02*
X100142857Y-99290533D01*
X146539580Y-102892857D02*
X146587200Y-102940476D01*
X146587200Y-102940476D02*
X146634819Y-103083333D01*
X146634819Y-103083333D02*
X146634819Y-103178571D01*
X146634819Y-103178571D02*
X146587200Y-103321428D01*
X146587200Y-103321428D02*
X146491961Y-103416666D01*
X146491961Y-103416666D02*
X146396723Y-103464285D01*
X146396723Y-103464285D02*
X146206247Y-103511904D01*
X146206247Y-103511904D02*
X146063390Y-103511904D01*
X146063390Y-103511904D02*
X145872914Y-103464285D01*
X145872914Y-103464285D02*
X145777676Y-103416666D01*
X145777676Y-103416666D02*
X145682438Y-103321428D01*
X145682438Y-103321428D02*
X145634819Y-103178571D01*
X145634819Y-103178571D02*
X145634819Y-103083333D01*
X145634819Y-103083333D02*
X145682438Y-102940476D01*
X145682438Y-102940476D02*
X145730057Y-102892857D01*
X146634819Y-101940476D02*
X146634819Y-102511904D01*
X146634819Y-102226190D02*
X145634819Y-102226190D01*
X145634819Y-102226190D02*
X145777676Y-102321428D01*
X145777676Y-102321428D02*
X145872914Y-102416666D01*
X145872914Y-102416666D02*
X145920533Y-102511904D01*
X145634819Y-101083333D02*
X145634819Y-101273809D01*
X145634819Y-101273809D02*
X145682438Y-101369047D01*
X145682438Y-101369047D02*
X145730057Y-101416666D01*
X145730057Y-101416666D02*
X145872914Y-101511904D01*
X145872914Y-101511904D02*
X146063390Y-101559523D01*
X146063390Y-101559523D02*
X146444342Y-101559523D01*
X146444342Y-101559523D02*
X146539580Y-101511904D01*
X146539580Y-101511904D02*
X146587200Y-101464285D01*
X146587200Y-101464285D02*
X146634819Y-101369047D01*
X146634819Y-101369047D02*
X146634819Y-101178571D01*
X146634819Y-101178571D02*
X146587200Y-101083333D01*
X146587200Y-101083333D02*
X146539580Y-101035714D01*
X146539580Y-101035714D02*
X146444342Y-100988095D01*
X146444342Y-100988095D02*
X146206247Y-100988095D01*
X146206247Y-100988095D02*
X146111009Y-101035714D01*
X146111009Y-101035714D02*
X146063390Y-101083333D01*
X146063390Y-101083333D02*
X146015771Y-101178571D01*
X146015771Y-101178571D02*
X146015771Y-101369047D01*
X146015771Y-101369047D02*
X146063390Y-101464285D01*
X146063390Y-101464285D02*
X146111009Y-101511904D01*
X146111009Y-101511904D02*
X146206247Y-101559523D01*
X104229580Y-104380357D02*
X104277200Y-104427976D01*
X104277200Y-104427976D02*
X104324819Y-104570833D01*
X104324819Y-104570833D02*
X104324819Y-104666071D01*
X104324819Y-104666071D02*
X104277200Y-104808928D01*
X104277200Y-104808928D02*
X104181961Y-104904166D01*
X104181961Y-104904166D02*
X104086723Y-104951785D01*
X104086723Y-104951785D02*
X103896247Y-104999404D01*
X103896247Y-104999404D02*
X103753390Y-104999404D01*
X103753390Y-104999404D02*
X103562914Y-104951785D01*
X103562914Y-104951785D02*
X103467676Y-104904166D01*
X103467676Y-104904166D02*
X103372438Y-104808928D01*
X103372438Y-104808928D02*
X103324819Y-104666071D01*
X103324819Y-104666071D02*
X103324819Y-104570833D01*
X103324819Y-104570833D02*
X103372438Y-104427976D01*
X103372438Y-104427976D02*
X103420057Y-104380357D01*
X103420057Y-103999404D02*
X103372438Y-103951785D01*
X103372438Y-103951785D02*
X103324819Y-103856547D01*
X103324819Y-103856547D02*
X103324819Y-103618452D01*
X103324819Y-103618452D02*
X103372438Y-103523214D01*
X103372438Y-103523214D02*
X103420057Y-103475595D01*
X103420057Y-103475595D02*
X103515295Y-103427976D01*
X103515295Y-103427976D02*
X103610533Y-103427976D01*
X103610533Y-103427976D02*
X103753390Y-103475595D01*
X103753390Y-103475595D02*
X104324819Y-104047023D01*
X104324819Y-104047023D02*
X104324819Y-103427976D01*
X103658152Y-102570833D02*
X104324819Y-102570833D01*
X103277200Y-102808928D02*
X103991485Y-103047023D01*
X103991485Y-103047023D02*
X103991485Y-102427976D01*
X140141666Y-96781009D02*
X139808333Y-96781009D01*
X139808333Y-97304819D02*
X139808333Y-96304819D01*
X139808333Y-96304819D02*
X140284523Y-96304819D01*
X140998809Y-96781009D02*
X141141666Y-96828628D01*
X141141666Y-96828628D02*
X141189285Y-96876247D01*
X141189285Y-96876247D02*
X141236904Y-96971485D01*
X141236904Y-96971485D02*
X141236904Y-97114342D01*
X141236904Y-97114342D02*
X141189285Y-97209580D01*
X141189285Y-97209580D02*
X141141666Y-97257200D01*
X141141666Y-97257200D02*
X141046428Y-97304819D01*
X141046428Y-97304819D02*
X140665476Y-97304819D01*
X140665476Y-97304819D02*
X140665476Y-96304819D01*
X140665476Y-96304819D02*
X140998809Y-96304819D01*
X140998809Y-96304819D02*
X141094047Y-96352438D01*
X141094047Y-96352438D02*
X141141666Y-96400057D01*
X141141666Y-96400057D02*
X141189285Y-96495295D01*
X141189285Y-96495295D02*
X141189285Y-96590533D01*
X141189285Y-96590533D02*
X141141666Y-96685771D01*
X141141666Y-96685771D02*
X141094047Y-96733390D01*
X141094047Y-96733390D02*
X140998809Y-96781009D01*
X140998809Y-96781009D02*
X140665476Y-96781009D01*
X142189285Y-97304819D02*
X141617857Y-97304819D01*
X141903571Y-97304819D02*
X141903571Y-96304819D01*
X141903571Y-96304819D02*
X141808333Y-96447676D01*
X141808333Y-96447676D02*
X141713095Y-96542914D01*
X141713095Y-96542914D02*
X141617857Y-96590533D01*
X200454819Y-84390475D02*
X199454819Y-84390475D01*
X199454819Y-84390475D02*
X200169104Y-84057142D01*
X200169104Y-84057142D02*
X199454819Y-83723809D01*
X199454819Y-83723809D02*
X200454819Y-83723809D01*
X199454819Y-83057142D02*
X199454819Y-82866666D01*
X199454819Y-82866666D02*
X199502438Y-82771428D01*
X199502438Y-82771428D02*
X199597676Y-82676190D01*
X199597676Y-82676190D02*
X199788152Y-82628571D01*
X199788152Y-82628571D02*
X200121485Y-82628571D01*
X200121485Y-82628571D02*
X200311961Y-82676190D01*
X200311961Y-82676190D02*
X200407200Y-82771428D01*
X200407200Y-82771428D02*
X200454819Y-82866666D01*
X200454819Y-82866666D02*
X200454819Y-83057142D01*
X200454819Y-83057142D02*
X200407200Y-83152380D01*
X200407200Y-83152380D02*
X200311961Y-83247618D01*
X200311961Y-83247618D02*
X200121485Y-83295237D01*
X200121485Y-83295237D02*
X199788152Y-83295237D01*
X199788152Y-83295237D02*
X199597676Y-83247618D01*
X199597676Y-83247618D02*
X199502438Y-83152380D01*
X199502438Y-83152380D02*
X199454819Y-83057142D01*
X199454819Y-82342856D02*
X199454819Y-81771428D01*
X200454819Y-82057142D02*
X199454819Y-82057142D01*
X199454819Y-81247618D02*
X199454819Y-81057142D01*
X199454819Y-81057142D02*
X199502438Y-80961904D01*
X199502438Y-80961904D02*
X199597676Y-80866666D01*
X199597676Y-80866666D02*
X199788152Y-80819047D01*
X199788152Y-80819047D02*
X200121485Y-80819047D01*
X200121485Y-80819047D02*
X200311961Y-80866666D01*
X200311961Y-80866666D02*
X200407200Y-80961904D01*
X200407200Y-80961904D02*
X200454819Y-81057142D01*
X200454819Y-81057142D02*
X200454819Y-81247618D01*
X200454819Y-81247618D02*
X200407200Y-81342856D01*
X200407200Y-81342856D02*
X200311961Y-81438094D01*
X200311961Y-81438094D02*
X200121485Y-81485713D01*
X200121485Y-81485713D02*
X199788152Y-81485713D01*
X199788152Y-81485713D02*
X199597676Y-81438094D01*
X199597676Y-81438094D02*
X199502438Y-81342856D01*
X199502438Y-81342856D02*
X199454819Y-81247618D01*
X200454819Y-79819047D02*
X199978628Y-80152380D01*
X200454819Y-80390475D02*
X199454819Y-80390475D01*
X199454819Y-80390475D02*
X199454819Y-80009523D01*
X199454819Y-80009523D02*
X199502438Y-79914285D01*
X199502438Y-79914285D02*
X199550057Y-79866666D01*
X199550057Y-79866666D02*
X199645295Y-79819047D01*
X199645295Y-79819047D02*
X199788152Y-79819047D01*
X199788152Y-79819047D02*
X199883390Y-79866666D01*
X199883390Y-79866666D02*
X199931009Y-79914285D01*
X199931009Y-79914285D02*
X199978628Y-80009523D01*
X199978628Y-80009523D02*
X199978628Y-80390475D01*
X200550057Y-79628571D02*
X200550057Y-78866666D01*
X200454819Y-78628570D02*
X199454819Y-78628570D01*
X199454819Y-78628570D02*
X199454819Y-78247618D01*
X199454819Y-78247618D02*
X199502438Y-78152380D01*
X199502438Y-78152380D02*
X199550057Y-78104761D01*
X199550057Y-78104761D02*
X199645295Y-78057142D01*
X199645295Y-78057142D02*
X199788152Y-78057142D01*
X199788152Y-78057142D02*
X199883390Y-78104761D01*
X199883390Y-78104761D02*
X199931009Y-78152380D01*
X199931009Y-78152380D02*
X199978628Y-78247618D01*
X199978628Y-78247618D02*
X199978628Y-78628570D01*
X199454819Y-77723808D02*
X200454819Y-77485713D01*
X200454819Y-77485713D02*
X199740533Y-77295237D01*
X199740533Y-77295237D02*
X200454819Y-77104761D01*
X200454819Y-77104761D02*
X199454819Y-76866666D01*
X200454819Y-75914285D02*
X199978628Y-76247618D01*
X200454819Y-76485713D02*
X199454819Y-76485713D01*
X199454819Y-76485713D02*
X199454819Y-76104761D01*
X199454819Y-76104761D02*
X199502438Y-76009523D01*
X199502438Y-76009523D02*
X199550057Y-75961904D01*
X199550057Y-75961904D02*
X199645295Y-75914285D01*
X199645295Y-75914285D02*
X199788152Y-75914285D01*
X199788152Y-75914285D02*
X199883390Y-75961904D01*
X199883390Y-75961904D02*
X199931009Y-76009523D01*
X199931009Y-76009523D02*
X199978628Y-76104761D01*
X199978628Y-76104761D02*
X199978628Y-76485713D01*
X200454819Y-74961904D02*
X200454819Y-75533332D01*
X200454819Y-75247618D02*
X199454819Y-75247618D01*
X199454819Y-75247618D02*
X199597676Y-75342856D01*
X199597676Y-75342856D02*
X199692914Y-75438094D01*
X199692914Y-75438094D02*
X199740533Y-75533332D01*
X180883333Y-108809580D02*
X180835714Y-108857200D01*
X180835714Y-108857200D02*
X180692857Y-108904819D01*
X180692857Y-108904819D02*
X180597619Y-108904819D01*
X180597619Y-108904819D02*
X180454762Y-108857200D01*
X180454762Y-108857200D02*
X180359524Y-108761961D01*
X180359524Y-108761961D02*
X180311905Y-108666723D01*
X180311905Y-108666723D02*
X180264286Y-108476247D01*
X180264286Y-108476247D02*
X180264286Y-108333390D01*
X180264286Y-108333390D02*
X180311905Y-108142914D01*
X180311905Y-108142914D02*
X180359524Y-108047676D01*
X180359524Y-108047676D02*
X180454762Y-107952438D01*
X180454762Y-107952438D02*
X180597619Y-107904819D01*
X180597619Y-107904819D02*
X180692857Y-107904819D01*
X180692857Y-107904819D02*
X180835714Y-107952438D01*
X180835714Y-107952438D02*
X180883333Y-108000057D01*
X181454762Y-108333390D02*
X181359524Y-108285771D01*
X181359524Y-108285771D02*
X181311905Y-108238152D01*
X181311905Y-108238152D02*
X181264286Y-108142914D01*
X181264286Y-108142914D02*
X181264286Y-108095295D01*
X181264286Y-108095295D02*
X181311905Y-108000057D01*
X181311905Y-108000057D02*
X181359524Y-107952438D01*
X181359524Y-107952438D02*
X181454762Y-107904819D01*
X181454762Y-107904819D02*
X181645238Y-107904819D01*
X181645238Y-107904819D02*
X181740476Y-107952438D01*
X181740476Y-107952438D02*
X181788095Y-108000057D01*
X181788095Y-108000057D02*
X181835714Y-108095295D01*
X181835714Y-108095295D02*
X181835714Y-108142914D01*
X181835714Y-108142914D02*
X181788095Y-108238152D01*
X181788095Y-108238152D02*
X181740476Y-108285771D01*
X181740476Y-108285771D02*
X181645238Y-108333390D01*
X181645238Y-108333390D02*
X181454762Y-108333390D01*
X181454762Y-108333390D02*
X181359524Y-108381009D01*
X181359524Y-108381009D02*
X181311905Y-108428628D01*
X181311905Y-108428628D02*
X181264286Y-108523866D01*
X181264286Y-108523866D02*
X181264286Y-108714342D01*
X181264286Y-108714342D02*
X181311905Y-108809580D01*
X181311905Y-108809580D02*
X181359524Y-108857200D01*
X181359524Y-108857200D02*
X181454762Y-108904819D01*
X181454762Y-108904819D02*
X181645238Y-108904819D01*
X181645238Y-108904819D02*
X181740476Y-108857200D01*
X181740476Y-108857200D02*
X181788095Y-108809580D01*
X181788095Y-108809580D02*
X181835714Y-108714342D01*
X181835714Y-108714342D02*
X181835714Y-108523866D01*
X181835714Y-108523866D02*
X181788095Y-108428628D01*
X181788095Y-108428628D02*
X181740476Y-108381009D01*
X181740476Y-108381009D02*
X181645238Y-108333390D01*
X124615057Y-116625238D02*
X124567438Y-116720476D01*
X124567438Y-116720476D02*
X124472200Y-116815714D01*
X124472200Y-116815714D02*
X124329342Y-116958571D01*
X124329342Y-116958571D02*
X124281723Y-117053809D01*
X124281723Y-117053809D02*
X124281723Y-117149047D01*
X124519819Y-117101428D02*
X124472200Y-117196666D01*
X124472200Y-117196666D02*
X124376961Y-117291904D01*
X124376961Y-117291904D02*
X124186485Y-117339523D01*
X124186485Y-117339523D02*
X123853152Y-117339523D01*
X123853152Y-117339523D02*
X123662676Y-117291904D01*
X123662676Y-117291904D02*
X123567438Y-117196666D01*
X123567438Y-117196666D02*
X123519819Y-117101428D01*
X123519819Y-117101428D02*
X123519819Y-116910952D01*
X123519819Y-116910952D02*
X123567438Y-116815714D01*
X123567438Y-116815714D02*
X123662676Y-116720476D01*
X123662676Y-116720476D02*
X123853152Y-116672857D01*
X123853152Y-116672857D02*
X124186485Y-116672857D01*
X124186485Y-116672857D02*
X124376961Y-116720476D01*
X124376961Y-116720476D02*
X124472200Y-116815714D01*
X124472200Y-116815714D02*
X124519819Y-116910952D01*
X124519819Y-116910952D02*
X124519819Y-117101428D01*
X123519819Y-116339523D02*
X123519819Y-115720476D01*
X123519819Y-115720476D02*
X123900771Y-116053809D01*
X123900771Y-116053809D02*
X123900771Y-115910952D01*
X123900771Y-115910952D02*
X123948390Y-115815714D01*
X123948390Y-115815714D02*
X123996009Y-115768095D01*
X123996009Y-115768095D02*
X124091247Y-115720476D01*
X124091247Y-115720476D02*
X124329342Y-115720476D01*
X124329342Y-115720476D02*
X124424580Y-115768095D01*
X124424580Y-115768095D02*
X124472200Y-115815714D01*
X124472200Y-115815714D02*
X124519819Y-115910952D01*
X124519819Y-115910952D02*
X124519819Y-116196666D01*
X124519819Y-116196666D02*
X124472200Y-116291904D01*
X124472200Y-116291904D02*
X124424580Y-116339523D01*
X149819642Y-100239580D02*
X149772023Y-100287200D01*
X149772023Y-100287200D02*
X149629166Y-100334819D01*
X149629166Y-100334819D02*
X149533928Y-100334819D01*
X149533928Y-100334819D02*
X149391071Y-100287200D01*
X149391071Y-100287200D02*
X149295833Y-100191961D01*
X149295833Y-100191961D02*
X149248214Y-100096723D01*
X149248214Y-100096723D02*
X149200595Y-99906247D01*
X149200595Y-99906247D02*
X149200595Y-99763390D01*
X149200595Y-99763390D02*
X149248214Y-99572914D01*
X149248214Y-99572914D02*
X149295833Y-99477676D01*
X149295833Y-99477676D02*
X149391071Y-99382438D01*
X149391071Y-99382438D02*
X149533928Y-99334819D01*
X149533928Y-99334819D02*
X149629166Y-99334819D01*
X149629166Y-99334819D02*
X149772023Y-99382438D01*
X149772023Y-99382438D02*
X149819642Y-99430057D01*
X150676785Y-99668152D02*
X150676785Y-100334819D01*
X150438690Y-99287200D02*
X150200595Y-100001485D01*
X150200595Y-100001485D02*
X150819642Y-100001485D01*
X151724404Y-100334819D02*
X151152976Y-100334819D01*
X151438690Y-100334819D02*
X151438690Y-99334819D01*
X151438690Y-99334819D02*
X151343452Y-99477676D01*
X151343452Y-99477676D02*
X151248214Y-99572914D01*
X151248214Y-99572914D02*
X151152976Y-99620533D01*
X188357142Y-74004819D02*
X187880952Y-74004819D01*
X187880952Y-74004819D02*
X187880952Y-73004819D01*
X188690476Y-74004819D02*
X188690476Y-73004819D01*
X188690476Y-73004819D02*
X189023809Y-73719104D01*
X189023809Y-73719104D02*
X189357142Y-73004819D01*
X189357142Y-73004819D02*
X189357142Y-74004819D01*
X189785714Y-73100057D02*
X189833333Y-73052438D01*
X189833333Y-73052438D02*
X189928571Y-73004819D01*
X189928571Y-73004819D02*
X190166666Y-73004819D01*
X190166666Y-73004819D02*
X190261904Y-73052438D01*
X190261904Y-73052438D02*
X190309523Y-73100057D01*
X190309523Y-73100057D02*
X190357142Y-73195295D01*
X190357142Y-73195295D02*
X190357142Y-73290533D01*
X190357142Y-73290533D02*
X190309523Y-73433390D01*
X190309523Y-73433390D02*
X189738095Y-74004819D01*
X189738095Y-74004819D02*
X190357142Y-74004819D01*
X191261904Y-73004819D02*
X190785714Y-73004819D01*
X190785714Y-73004819D02*
X190738095Y-73481009D01*
X190738095Y-73481009D02*
X190785714Y-73433390D01*
X190785714Y-73433390D02*
X190880952Y-73385771D01*
X190880952Y-73385771D02*
X191119047Y-73385771D01*
X191119047Y-73385771D02*
X191214285Y-73433390D01*
X191214285Y-73433390D02*
X191261904Y-73481009D01*
X191261904Y-73481009D02*
X191309523Y-73576247D01*
X191309523Y-73576247D02*
X191309523Y-73814342D01*
X191309523Y-73814342D02*
X191261904Y-73909580D01*
X191261904Y-73909580D02*
X191214285Y-73957200D01*
X191214285Y-73957200D02*
X191119047Y-74004819D01*
X191119047Y-74004819D02*
X190880952Y-74004819D01*
X190880952Y-74004819D02*
X190785714Y-73957200D01*
X190785714Y-73957200D02*
X190738095Y-73909580D01*
X191785714Y-74004819D02*
X191976190Y-74004819D01*
X191976190Y-74004819D02*
X192071428Y-73957200D01*
X192071428Y-73957200D02*
X192119047Y-73909580D01*
X192119047Y-73909580D02*
X192214285Y-73766723D01*
X192214285Y-73766723D02*
X192261904Y-73576247D01*
X192261904Y-73576247D02*
X192261904Y-73195295D01*
X192261904Y-73195295D02*
X192214285Y-73100057D01*
X192214285Y-73100057D02*
X192166666Y-73052438D01*
X192166666Y-73052438D02*
X192071428Y-73004819D01*
X192071428Y-73004819D02*
X191880952Y-73004819D01*
X191880952Y-73004819D02*
X191785714Y-73052438D01*
X191785714Y-73052438D02*
X191738095Y-73100057D01*
X191738095Y-73100057D02*
X191690476Y-73195295D01*
X191690476Y-73195295D02*
X191690476Y-73433390D01*
X191690476Y-73433390D02*
X191738095Y-73528628D01*
X191738095Y-73528628D02*
X191785714Y-73576247D01*
X191785714Y-73576247D02*
X191880952Y-73623866D01*
X191880952Y-73623866D02*
X192071428Y-73623866D01*
X192071428Y-73623866D02*
X192166666Y-73576247D01*
X192166666Y-73576247D02*
X192214285Y-73528628D01*
X192214285Y-73528628D02*
X192261904Y-73433390D01*
X193119047Y-73004819D02*
X192928571Y-73004819D01*
X192928571Y-73004819D02*
X192833333Y-73052438D01*
X192833333Y-73052438D02*
X192785714Y-73100057D01*
X192785714Y-73100057D02*
X192690476Y-73242914D01*
X192690476Y-73242914D02*
X192642857Y-73433390D01*
X192642857Y-73433390D02*
X192642857Y-73814342D01*
X192642857Y-73814342D02*
X192690476Y-73909580D01*
X192690476Y-73909580D02*
X192738095Y-73957200D01*
X192738095Y-73957200D02*
X192833333Y-74004819D01*
X192833333Y-74004819D02*
X193023809Y-74004819D01*
X193023809Y-74004819D02*
X193119047Y-73957200D01*
X193119047Y-73957200D02*
X193166666Y-73909580D01*
X193166666Y-73909580D02*
X193214285Y-73814342D01*
X193214285Y-73814342D02*
X193214285Y-73576247D01*
X193214285Y-73576247D02*
X193166666Y-73481009D01*
X193166666Y-73481009D02*
X193119047Y-73433390D01*
X193119047Y-73433390D02*
X193023809Y-73385771D01*
X193023809Y-73385771D02*
X192833333Y-73385771D01*
X192833333Y-73385771D02*
X192738095Y-73433390D01*
X192738095Y-73433390D02*
X192690476Y-73481009D01*
X192690476Y-73481009D02*
X192642857Y-73576247D01*
X193642857Y-73623866D02*
X194404762Y-73623866D01*
X195404761Y-74004819D02*
X194833333Y-74004819D01*
X195119047Y-74004819D02*
X195119047Y-73004819D01*
X195119047Y-73004819D02*
X195023809Y-73147676D01*
X195023809Y-73147676D02*
X194928571Y-73242914D01*
X194928571Y-73242914D02*
X194833333Y-73290533D01*
X195785714Y-73100057D02*
X195833333Y-73052438D01*
X195833333Y-73052438D02*
X195928571Y-73004819D01*
X195928571Y-73004819D02*
X196166666Y-73004819D01*
X196166666Y-73004819D02*
X196261904Y-73052438D01*
X196261904Y-73052438D02*
X196309523Y-73100057D01*
X196309523Y-73100057D02*
X196357142Y-73195295D01*
X196357142Y-73195295D02*
X196357142Y-73290533D01*
X196357142Y-73290533D02*
X196309523Y-73433390D01*
X196309523Y-73433390D02*
X195738095Y-74004819D01*
X195738095Y-74004819D02*
X196357142Y-74004819D01*
X196642857Y-73004819D02*
X196976190Y-74004819D01*
X196976190Y-74004819D02*
X197309523Y-73004819D01*
X198166666Y-74004819D02*
X197595238Y-74004819D01*
X197880952Y-74004819D02*
X197880952Y-73004819D01*
X197880952Y-73004819D02*
X197785714Y-73147676D01*
X197785714Y-73147676D02*
X197690476Y-73242914D01*
X197690476Y-73242914D02*
X197595238Y-73290533D01*
X174702080Y-102580357D02*
X174749700Y-102627976D01*
X174749700Y-102627976D02*
X174797319Y-102770833D01*
X174797319Y-102770833D02*
X174797319Y-102866071D01*
X174797319Y-102866071D02*
X174749700Y-103008928D01*
X174749700Y-103008928D02*
X174654461Y-103104166D01*
X174654461Y-103104166D02*
X174559223Y-103151785D01*
X174559223Y-103151785D02*
X174368747Y-103199404D01*
X174368747Y-103199404D02*
X174225890Y-103199404D01*
X174225890Y-103199404D02*
X174035414Y-103151785D01*
X174035414Y-103151785D02*
X173940176Y-103104166D01*
X173940176Y-103104166D02*
X173844938Y-103008928D01*
X173844938Y-103008928D02*
X173797319Y-102866071D01*
X173797319Y-102866071D02*
X173797319Y-102770833D01*
X173797319Y-102770833D02*
X173844938Y-102627976D01*
X173844938Y-102627976D02*
X173892557Y-102580357D01*
X173797319Y-102247023D02*
X173797319Y-101627976D01*
X173797319Y-101627976D02*
X174178271Y-101961309D01*
X174178271Y-101961309D02*
X174178271Y-101818452D01*
X174178271Y-101818452D02*
X174225890Y-101723214D01*
X174225890Y-101723214D02*
X174273509Y-101675595D01*
X174273509Y-101675595D02*
X174368747Y-101627976D01*
X174368747Y-101627976D02*
X174606842Y-101627976D01*
X174606842Y-101627976D02*
X174702080Y-101675595D01*
X174702080Y-101675595D02*
X174749700Y-101723214D01*
X174749700Y-101723214D02*
X174797319Y-101818452D01*
X174797319Y-101818452D02*
X174797319Y-102104166D01*
X174797319Y-102104166D02*
X174749700Y-102199404D01*
X174749700Y-102199404D02*
X174702080Y-102247023D01*
X174797319Y-101151785D02*
X174797319Y-100961309D01*
X174797319Y-100961309D02*
X174749700Y-100866071D01*
X174749700Y-100866071D02*
X174702080Y-100818452D01*
X174702080Y-100818452D02*
X174559223Y-100723214D01*
X174559223Y-100723214D02*
X174368747Y-100675595D01*
X174368747Y-100675595D02*
X173987795Y-100675595D01*
X173987795Y-100675595D02*
X173892557Y-100723214D01*
X173892557Y-100723214D02*
X173844938Y-100770833D01*
X173844938Y-100770833D02*
X173797319Y-100866071D01*
X173797319Y-100866071D02*
X173797319Y-101056547D01*
X173797319Y-101056547D02*
X173844938Y-101151785D01*
X173844938Y-101151785D02*
X173892557Y-101199404D01*
X173892557Y-101199404D02*
X173987795Y-101247023D01*
X173987795Y-101247023D02*
X174225890Y-101247023D01*
X174225890Y-101247023D02*
X174321128Y-101199404D01*
X174321128Y-101199404D02*
X174368747Y-101151785D01*
X174368747Y-101151785D02*
X174416366Y-101056547D01*
X174416366Y-101056547D02*
X174416366Y-100866071D01*
X174416366Y-100866071D02*
X174368747Y-100770833D01*
X174368747Y-100770833D02*
X174321128Y-100723214D01*
X174321128Y-100723214D02*
X174225890Y-100675595D01*
X178702080Y-102580357D02*
X178749700Y-102627976D01*
X178749700Y-102627976D02*
X178797319Y-102770833D01*
X178797319Y-102770833D02*
X178797319Y-102866071D01*
X178797319Y-102866071D02*
X178749700Y-103008928D01*
X178749700Y-103008928D02*
X178654461Y-103104166D01*
X178654461Y-103104166D02*
X178559223Y-103151785D01*
X178559223Y-103151785D02*
X178368747Y-103199404D01*
X178368747Y-103199404D02*
X178225890Y-103199404D01*
X178225890Y-103199404D02*
X178035414Y-103151785D01*
X178035414Y-103151785D02*
X177940176Y-103104166D01*
X177940176Y-103104166D02*
X177844938Y-103008928D01*
X177844938Y-103008928D02*
X177797319Y-102866071D01*
X177797319Y-102866071D02*
X177797319Y-102770833D01*
X177797319Y-102770833D02*
X177844938Y-102627976D01*
X177844938Y-102627976D02*
X177892557Y-102580357D01*
X177892557Y-102199404D02*
X177844938Y-102151785D01*
X177844938Y-102151785D02*
X177797319Y-102056547D01*
X177797319Y-102056547D02*
X177797319Y-101818452D01*
X177797319Y-101818452D02*
X177844938Y-101723214D01*
X177844938Y-101723214D02*
X177892557Y-101675595D01*
X177892557Y-101675595D02*
X177987795Y-101627976D01*
X177987795Y-101627976D02*
X178083033Y-101627976D01*
X178083033Y-101627976D02*
X178225890Y-101675595D01*
X178225890Y-101675595D02*
X178797319Y-102247023D01*
X178797319Y-102247023D02*
X178797319Y-101627976D01*
X178797319Y-100675595D02*
X178797319Y-101247023D01*
X178797319Y-100961309D02*
X177797319Y-100961309D01*
X177797319Y-100961309D02*
X177940176Y-101056547D01*
X177940176Y-101056547D02*
X178035414Y-101151785D01*
X178035414Y-101151785D02*
X178083033Y-101247023D01*
X105595833Y-99539580D02*
X105548214Y-99587200D01*
X105548214Y-99587200D02*
X105405357Y-99634819D01*
X105405357Y-99634819D02*
X105310119Y-99634819D01*
X105310119Y-99634819D02*
X105167262Y-99587200D01*
X105167262Y-99587200D02*
X105072024Y-99491961D01*
X105072024Y-99491961D02*
X105024405Y-99396723D01*
X105024405Y-99396723D02*
X104976786Y-99206247D01*
X104976786Y-99206247D02*
X104976786Y-99063390D01*
X104976786Y-99063390D02*
X105024405Y-98872914D01*
X105024405Y-98872914D02*
X105072024Y-98777676D01*
X105072024Y-98777676D02*
X105167262Y-98682438D01*
X105167262Y-98682438D02*
X105310119Y-98634819D01*
X105310119Y-98634819D02*
X105405357Y-98634819D01*
X105405357Y-98634819D02*
X105548214Y-98682438D01*
X105548214Y-98682438D02*
X105595833Y-98730057D01*
X106500595Y-98634819D02*
X106024405Y-98634819D01*
X106024405Y-98634819D02*
X105976786Y-99111009D01*
X105976786Y-99111009D02*
X106024405Y-99063390D01*
X106024405Y-99063390D02*
X106119643Y-99015771D01*
X106119643Y-99015771D02*
X106357738Y-99015771D01*
X106357738Y-99015771D02*
X106452976Y-99063390D01*
X106452976Y-99063390D02*
X106500595Y-99111009D01*
X106500595Y-99111009D02*
X106548214Y-99206247D01*
X106548214Y-99206247D02*
X106548214Y-99444342D01*
X106548214Y-99444342D02*
X106500595Y-99539580D01*
X106500595Y-99539580D02*
X106452976Y-99587200D01*
X106452976Y-99587200D02*
X106357738Y-99634819D01*
X106357738Y-99634819D02*
X106119643Y-99634819D01*
X106119643Y-99634819D02*
X106024405Y-99587200D01*
X106024405Y-99587200D02*
X105976786Y-99539580D01*
X73838095Y-60754819D02*
X73838095Y-59754819D01*
X73838095Y-60231009D02*
X74409523Y-60231009D01*
X74409523Y-60754819D02*
X74409523Y-59754819D01*
X75409523Y-60754819D02*
X74838095Y-60754819D01*
X75123809Y-60754819D02*
X75123809Y-59754819D01*
X75123809Y-59754819D02*
X75028571Y-59897676D01*
X75028571Y-59897676D02*
X74933333Y-59992914D01*
X74933333Y-59992914D02*
X74838095Y-60040533D01*
X98174761Y-97310057D02*
X98079523Y-97262438D01*
X98079523Y-97262438D02*
X97984285Y-97167200D01*
X97984285Y-97167200D02*
X97841428Y-97024342D01*
X97841428Y-97024342D02*
X97746190Y-96976723D01*
X97746190Y-96976723D02*
X97650952Y-96976723D01*
X97698571Y-97214819D02*
X97603333Y-97167200D01*
X97603333Y-97167200D02*
X97508095Y-97071961D01*
X97508095Y-97071961D02*
X97460476Y-96881485D01*
X97460476Y-96881485D02*
X97460476Y-96548152D01*
X97460476Y-96548152D02*
X97508095Y-96357676D01*
X97508095Y-96357676D02*
X97603333Y-96262438D01*
X97603333Y-96262438D02*
X97698571Y-96214819D01*
X97698571Y-96214819D02*
X97889047Y-96214819D01*
X97889047Y-96214819D02*
X97984285Y-96262438D01*
X97984285Y-96262438D02*
X98079523Y-96357676D01*
X98079523Y-96357676D02*
X98127142Y-96548152D01*
X98127142Y-96548152D02*
X98127142Y-96881485D01*
X98127142Y-96881485D02*
X98079523Y-97071961D01*
X98079523Y-97071961D02*
X97984285Y-97167200D01*
X97984285Y-97167200D02*
X97889047Y-97214819D01*
X97889047Y-97214819D02*
X97698571Y-97214819D01*
X99079523Y-97214819D02*
X98508095Y-97214819D01*
X98793809Y-97214819D02*
X98793809Y-96214819D01*
X98793809Y-96214819D02*
X98698571Y-96357676D01*
X98698571Y-96357676D02*
X98603333Y-96452914D01*
X98603333Y-96452914D02*
X98508095Y-96500533D01*
X207174819Y-96705594D02*
X206174819Y-96705594D01*
X206174819Y-96705594D02*
X206174819Y-96467499D01*
X206174819Y-96467499D02*
X206222438Y-96324642D01*
X206222438Y-96324642D02*
X206317676Y-96229404D01*
X206317676Y-96229404D02*
X206412914Y-96181785D01*
X206412914Y-96181785D02*
X206603390Y-96134166D01*
X206603390Y-96134166D02*
X206746247Y-96134166D01*
X206746247Y-96134166D02*
X206936723Y-96181785D01*
X206936723Y-96181785D02*
X207031961Y-96229404D01*
X207031961Y-96229404D02*
X207127200Y-96324642D01*
X207127200Y-96324642D02*
X207174819Y-96467499D01*
X207174819Y-96467499D02*
X207174819Y-96705594D01*
X206508152Y-95277023D02*
X207174819Y-95277023D01*
X206127200Y-95515118D02*
X206841485Y-95753213D01*
X206841485Y-95753213D02*
X206841485Y-95134166D01*
X206054819Y-88609404D02*
X205054819Y-88609404D01*
X206054819Y-88037976D02*
X205483390Y-88466547D01*
X205054819Y-88037976D02*
X205626247Y-88609404D01*
X127542143Y-66204819D02*
X127542143Y-65204819D01*
X128589761Y-66109580D02*
X128542142Y-66157200D01*
X128542142Y-66157200D02*
X128399285Y-66204819D01*
X128399285Y-66204819D02*
X128304047Y-66204819D01*
X128304047Y-66204819D02*
X128161190Y-66157200D01*
X128161190Y-66157200D02*
X128065952Y-66061961D01*
X128065952Y-66061961D02*
X128018333Y-65966723D01*
X128018333Y-65966723D02*
X127970714Y-65776247D01*
X127970714Y-65776247D02*
X127970714Y-65633390D01*
X127970714Y-65633390D02*
X128018333Y-65442914D01*
X128018333Y-65442914D02*
X128065952Y-65347676D01*
X128065952Y-65347676D02*
X128161190Y-65252438D01*
X128161190Y-65252438D02*
X128304047Y-65204819D01*
X128304047Y-65204819D02*
X128399285Y-65204819D01*
X128399285Y-65204819D02*
X128542142Y-65252438D01*
X128542142Y-65252438D02*
X128589761Y-65300057D01*
X128970714Y-66157200D02*
X129113571Y-66204819D01*
X129113571Y-66204819D02*
X129351666Y-66204819D01*
X129351666Y-66204819D02*
X129446904Y-66157200D01*
X129446904Y-66157200D02*
X129494523Y-66109580D01*
X129494523Y-66109580D02*
X129542142Y-66014342D01*
X129542142Y-66014342D02*
X129542142Y-65919104D01*
X129542142Y-65919104D02*
X129494523Y-65823866D01*
X129494523Y-65823866D02*
X129446904Y-65776247D01*
X129446904Y-65776247D02*
X129351666Y-65728628D01*
X129351666Y-65728628D02*
X129161190Y-65681009D01*
X129161190Y-65681009D02*
X129065952Y-65633390D01*
X129065952Y-65633390D02*
X129018333Y-65585771D01*
X129018333Y-65585771D02*
X128970714Y-65490533D01*
X128970714Y-65490533D02*
X128970714Y-65395295D01*
X128970714Y-65395295D02*
X129018333Y-65300057D01*
X129018333Y-65300057D02*
X129065952Y-65252438D01*
X129065952Y-65252438D02*
X129161190Y-65204819D01*
X129161190Y-65204819D02*
X129399285Y-65204819D01*
X129399285Y-65204819D02*
X129542142Y-65252438D01*
X129970714Y-66204819D02*
X129970714Y-65204819D01*
X129970714Y-65204819D02*
X130351666Y-65204819D01*
X130351666Y-65204819D02*
X130446904Y-65252438D01*
X130446904Y-65252438D02*
X130494523Y-65300057D01*
X130494523Y-65300057D02*
X130542142Y-65395295D01*
X130542142Y-65395295D02*
X130542142Y-65538152D01*
X130542142Y-65538152D02*
X130494523Y-65633390D01*
X130494523Y-65633390D02*
X130446904Y-65681009D01*
X130446904Y-65681009D02*
X130351666Y-65728628D01*
X130351666Y-65728628D02*
X129970714Y-65728628D01*
X130732619Y-66300057D02*
X131494523Y-66300057D01*
X131732619Y-66204819D02*
X131732619Y-65204819D01*
X131732619Y-65204819D02*
X132065952Y-65919104D01*
X132065952Y-65919104D02*
X132399285Y-65204819D01*
X132399285Y-65204819D02*
X132399285Y-66204819D01*
X132827857Y-65919104D02*
X133304047Y-65919104D01*
X132732619Y-66204819D02*
X133065952Y-65204819D01*
X133065952Y-65204819D02*
X133399285Y-66204819D01*
X133685000Y-66157200D02*
X133827857Y-66204819D01*
X133827857Y-66204819D02*
X134065952Y-66204819D01*
X134065952Y-66204819D02*
X134161190Y-66157200D01*
X134161190Y-66157200D02*
X134208809Y-66109580D01*
X134208809Y-66109580D02*
X134256428Y-66014342D01*
X134256428Y-66014342D02*
X134256428Y-65919104D01*
X134256428Y-65919104D02*
X134208809Y-65823866D01*
X134208809Y-65823866D02*
X134161190Y-65776247D01*
X134161190Y-65776247D02*
X134065952Y-65728628D01*
X134065952Y-65728628D02*
X133875476Y-65681009D01*
X133875476Y-65681009D02*
X133780238Y-65633390D01*
X133780238Y-65633390D02*
X133732619Y-65585771D01*
X133732619Y-65585771D02*
X133685000Y-65490533D01*
X133685000Y-65490533D02*
X133685000Y-65395295D01*
X133685000Y-65395295D02*
X133732619Y-65300057D01*
X133732619Y-65300057D02*
X133780238Y-65252438D01*
X133780238Y-65252438D02*
X133875476Y-65204819D01*
X133875476Y-65204819D02*
X134113571Y-65204819D01*
X134113571Y-65204819D02*
X134256428Y-65252438D01*
X134542143Y-65204819D02*
X135113571Y-65204819D01*
X134827857Y-66204819D02*
X134827857Y-65204819D01*
X135446905Y-65681009D02*
X135780238Y-65681009D01*
X135923095Y-66204819D02*
X135446905Y-66204819D01*
X135446905Y-66204819D02*
X135446905Y-65204819D01*
X135446905Y-65204819D02*
X135923095Y-65204819D01*
X136923095Y-66204819D02*
X136589762Y-65728628D01*
X136351667Y-66204819D02*
X136351667Y-65204819D01*
X136351667Y-65204819D02*
X136732619Y-65204819D01*
X136732619Y-65204819D02*
X136827857Y-65252438D01*
X136827857Y-65252438D02*
X136875476Y-65300057D01*
X136875476Y-65300057D02*
X136923095Y-65395295D01*
X136923095Y-65395295D02*
X136923095Y-65538152D01*
X136923095Y-65538152D02*
X136875476Y-65633390D01*
X136875476Y-65633390D02*
X136827857Y-65681009D01*
X136827857Y-65681009D02*
X136732619Y-65728628D01*
X136732619Y-65728628D02*
X136351667Y-65728628D01*
X137875476Y-66204819D02*
X137304048Y-66204819D01*
X137589762Y-66204819D02*
X137589762Y-65204819D01*
X137589762Y-65204819D02*
X137494524Y-65347676D01*
X137494524Y-65347676D02*
X137399286Y-65442914D01*
X137399286Y-65442914D02*
X137304048Y-65490533D01*
X142359580Y-94392857D02*
X142407200Y-94440476D01*
X142407200Y-94440476D02*
X142454819Y-94583333D01*
X142454819Y-94583333D02*
X142454819Y-94678571D01*
X142454819Y-94678571D02*
X142407200Y-94821428D01*
X142407200Y-94821428D02*
X142311961Y-94916666D01*
X142311961Y-94916666D02*
X142216723Y-94964285D01*
X142216723Y-94964285D02*
X142026247Y-95011904D01*
X142026247Y-95011904D02*
X141883390Y-95011904D01*
X141883390Y-95011904D02*
X141692914Y-94964285D01*
X141692914Y-94964285D02*
X141597676Y-94916666D01*
X141597676Y-94916666D02*
X141502438Y-94821428D01*
X141502438Y-94821428D02*
X141454819Y-94678571D01*
X141454819Y-94678571D02*
X141454819Y-94583333D01*
X141454819Y-94583333D02*
X141502438Y-94440476D01*
X141502438Y-94440476D02*
X141550057Y-94392857D01*
X141454819Y-94059523D02*
X141454819Y-93440476D01*
X141454819Y-93440476D02*
X141835771Y-93773809D01*
X141835771Y-93773809D02*
X141835771Y-93630952D01*
X141835771Y-93630952D02*
X141883390Y-93535714D01*
X141883390Y-93535714D02*
X141931009Y-93488095D01*
X141931009Y-93488095D02*
X142026247Y-93440476D01*
X142026247Y-93440476D02*
X142264342Y-93440476D01*
X142264342Y-93440476D02*
X142359580Y-93488095D01*
X142359580Y-93488095D02*
X142407200Y-93535714D01*
X142407200Y-93535714D02*
X142454819Y-93630952D01*
X142454819Y-93630952D02*
X142454819Y-93916666D01*
X142454819Y-93916666D02*
X142407200Y-94011904D01*
X142407200Y-94011904D02*
X142359580Y-94059523D01*
X141454819Y-93107142D02*
X141454819Y-92440476D01*
X141454819Y-92440476D02*
X142454819Y-92869047D01*
X150314819Y-64507857D02*
X151124342Y-64507857D01*
X151124342Y-64507857D02*
X151219580Y-64460238D01*
X151219580Y-64460238D02*
X151267200Y-64412619D01*
X151267200Y-64412619D02*
X151314819Y-64317381D01*
X151314819Y-64317381D02*
X151314819Y-64126905D01*
X151314819Y-64126905D02*
X151267200Y-64031667D01*
X151267200Y-64031667D02*
X151219580Y-63984048D01*
X151219580Y-63984048D02*
X151124342Y-63936429D01*
X151124342Y-63936429D02*
X150314819Y-63936429D01*
X151029104Y-63507857D02*
X151029104Y-63031667D01*
X151314819Y-63603095D02*
X150314819Y-63269762D01*
X150314819Y-63269762D02*
X151314819Y-62936429D01*
X151314819Y-62031667D02*
X150838628Y-62365000D01*
X151314819Y-62603095D02*
X150314819Y-62603095D01*
X150314819Y-62603095D02*
X150314819Y-62222143D01*
X150314819Y-62222143D02*
X150362438Y-62126905D01*
X150362438Y-62126905D02*
X150410057Y-62079286D01*
X150410057Y-62079286D02*
X150505295Y-62031667D01*
X150505295Y-62031667D02*
X150648152Y-62031667D01*
X150648152Y-62031667D02*
X150743390Y-62079286D01*
X150743390Y-62079286D02*
X150791009Y-62126905D01*
X150791009Y-62126905D02*
X150838628Y-62222143D01*
X150838628Y-62222143D02*
X150838628Y-62603095D01*
X150314819Y-61745952D02*
X150314819Y-61174524D01*
X151314819Y-61460238D02*
X150314819Y-61460238D01*
X151410057Y-61079286D02*
X151410057Y-60317381D01*
X151314819Y-60079285D02*
X150314819Y-60079285D01*
X150314819Y-60079285D02*
X150314819Y-59841190D01*
X150314819Y-59841190D02*
X150362438Y-59698333D01*
X150362438Y-59698333D02*
X150457676Y-59603095D01*
X150457676Y-59603095D02*
X150552914Y-59555476D01*
X150552914Y-59555476D02*
X150743390Y-59507857D01*
X150743390Y-59507857D02*
X150886247Y-59507857D01*
X150886247Y-59507857D02*
X151076723Y-59555476D01*
X151076723Y-59555476D02*
X151171961Y-59603095D01*
X151171961Y-59603095D02*
X151267200Y-59698333D01*
X151267200Y-59698333D02*
X151314819Y-59841190D01*
X151314819Y-59841190D02*
X151314819Y-60079285D01*
X150791009Y-58745952D02*
X150838628Y-58603095D01*
X150838628Y-58603095D02*
X150886247Y-58555476D01*
X150886247Y-58555476D02*
X150981485Y-58507857D01*
X150981485Y-58507857D02*
X151124342Y-58507857D01*
X151124342Y-58507857D02*
X151219580Y-58555476D01*
X151219580Y-58555476D02*
X151267200Y-58603095D01*
X151267200Y-58603095D02*
X151314819Y-58698333D01*
X151314819Y-58698333D02*
X151314819Y-59079285D01*
X151314819Y-59079285D02*
X150314819Y-59079285D01*
X150314819Y-59079285D02*
X150314819Y-58745952D01*
X150314819Y-58745952D02*
X150362438Y-58650714D01*
X150362438Y-58650714D02*
X150410057Y-58603095D01*
X150410057Y-58603095D02*
X150505295Y-58555476D01*
X150505295Y-58555476D02*
X150600533Y-58555476D01*
X150600533Y-58555476D02*
X150695771Y-58603095D01*
X150695771Y-58603095D02*
X150743390Y-58650714D01*
X150743390Y-58650714D02*
X150791009Y-58745952D01*
X150791009Y-58745952D02*
X150791009Y-59079285D01*
X150362438Y-57555476D02*
X150314819Y-57650714D01*
X150314819Y-57650714D02*
X150314819Y-57793571D01*
X150314819Y-57793571D02*
X150362438Y-57936428D01*
X150362438Y-57936428D02*
X150457676Y-58031666D01*
X150457676Y-58031666D02*
X150552914Y-58079285D01*
X150552914Y-58079285D02*
X150743390Y-58126904D01*
X150743390Y-58126904D02*
X150886247Y-58126904D01*
X150886247Y-58126904D02*
X151076723Y-58079285D01*
X151076723Y-58079285D02*
X151171961Y-58031666D01*
X151171961Y-58031666D02*
X151267200Y-57936428D01*
X151267200Y-57936428D02*
X151314819Y-57793571D01*
X151314819Y-57793571D02*
X151314819Y-57698333D01*
X151314819Y-57698333D02*
X151267200Y-57555476D01*
X151267200Y-57555476D02*
X151219580Y-57507857D01*
X151219580Y-57507857D02*
X150886247Y-57507857D01*
X150886247Y-57507857D02*
X150886247Y-57698333D01*
X151410057Y-57317381D02*
X151410057Y-56555476D01*
X151267200Y-56364999D02*
X151314819Y-56222142D01*
X151314819Y-56222142D02*
X151314819Y-55984047D01*
X151314819Y-55984047D02*
X151267200Y-55888809D01*
X151267200Y-55888809D02*
X151219580Y-55841190D01*
X151219580Y-55841190D02*
X151124342Y-55793571D01*
X151124342Y-55793571D02*
X151029104Y-55793571D01*
X151029104Y-55793571D02*
X150933866Y-55841190D01*
X150933866Y-55841190D02*
X150886247Y-55888809D01*
X150886247Y-55888809D02*
X150838628Y-55984047D01*
X150838628Y-55984047D02*
X150791009Y-56174523D01*
X150791009Y-56174523D02*
X150743390Y-56269761D01*
X150743390Y-56269761D02*
X150695771Y-56317380D01*
X150695771Y-56317380D02*
X150600533Y-56364999D01*
X150600533Y-56364999D02*
X150505295Y-56364999D01*
X150505295Y-56364999D02*
X150410057Y-56317380D01*
X150410057Y-56317380D02*
X150362438Y-56269761D01*
X150362438Y-56269761D02*
X150314819Y-56174523D01*
X150314819Y-56174523D02*
X150314819Y-55936428D01*
X150314819Y-55936428D02*
X150362438Y-55793571D01*
X151314819Y-54888809D02*
X151314819Y-55364999D01*
X151314819Y-55364999D02*
X150314819Y-55364999D01*
X150314819Y-54698332D02*
X151314819Y-54364999D01*
X151314819Y-54364999D02*
X150314819Y-54031666D01*
X151314819Y-53174523D02*
X151314819Y-53745951D01*
X151314819Y-53460237D02*
X150314819Y-53460237D01*
X150314819Y-53460237D02*
X150457676Y-53555475D01*
X150457676Y-53555475D02*
X150552914Y-53650713D01*
X150552914Y-53650713D02*
X150600533Y-53745951D01*
X77429580Y-71666666D02*
X77477200Y-71714285D01*
X77477200Y-71714285D02*
X77524819Y-71857142D01*
X77524819Y-71857142D02*
X77524819Y-71952380D01*
X77524819Y-71952380D02*
X77477200Y-72095237D01*
X77477200Y-72095237D02*
X77381961Y-72190475D01*
X77381961Y-72190475D02*
X77286723Y-72238094D01*
X77286723Y-72238094D02*
X77096247Y-72285713D01*
X77096247Y-72285713D02*
X76953390Y-72285713D01*
X76953390Y-72285713D02*
X76762914Y-72238094D01*
X76762914Y-72238094D02*
X76667676Y-72190475D01*
X76667676Y-72190475D02*
X76572438Y-72095237D01*
X76572438Y-72095237D02*
X76524819Y-71952380D01*
X76524819Y-71952380D02*
X76524819Y-71857142D01*
X76524819Y-71857142D02*
X76572438Y-71714285D01*
X76572438Y-71714285D02*
X76620057Y-71666666D01*
X77524819Y-70714285D02*
X77524819Y-71285713D01*
X77524819Y-70999999D02*
X76524819Y-70999999D01*
X76524819Y-70999999D02*
X76667676Y-71095237D01*
X76667676Y-71095237D02*
X76762914Y-71190475D01*
X76762914Y-71190475D02*
X76810533Y-71285713D01*
X99804819Y-71404166D02*
X99328628Y-71737499D01*
X99804819Y-71975594D02*
X98804819Y-71975594D01*
X98804819Y-71975594D02*
X98804819Y-71594642D01*
X98804819Y-71594642D02*
X98852438Y-71499404D01*
X98852438Y-71499404D02*
X98900057Y-71451785D01*
X98900057Y-71451785D02*
X98995295Y-71404166D01*
X98995295Y-71404166D02*
X99138152Y-71404166D01*
X99138152Y-71404166D02*
X99233390Y-71451785D01*
X99233390Y-71451785D02*
X99281009Y-71499404D01*
X99281009Y-71499404D02*
X99328628Y-71594642D01*
X99328628Y-71594642D02*
X99328628Y-71975594D01*
X99804819Y-70451785D02*
X99804819Y-71023213D01*
X99804819Y-70737499D02*
X98804819Y-70737499D01*
X98804819Y-70737499D02*
X98947676Y-70832737D01*
X98947676Y-70832737D02*
X99042914Y-70927975D01*
X99042914Y-70927975D02*
X99090533Y-71023213D01*
X85533333Y-111334819D02*
X85200000Y-110858628D01*
X84961905Y-111334819D02*
X84961905Y-110334819D01*
X84961905Y-110334819D02*
X85342857Y-110334819D01*
X85342857Y-110334819D02*
X85438095Y-110382438D01*
X85438095Y-110382438D02*
X85485714Y-110430057D01*
X85485714Y-110430057D02*
X85533333Y-110525295D01*
X85533333Y-110525295D02*
X85533333Y-110668152D01*
X85533333Y-110668152D02*
X85485714Y-110763390D01*
X85485714Y-110763390D02*
X85438095Y-110811009D01*
X85438095Y-110811009D02*
X85342857Y-110858628D01*
X85342857Y-110858628D02*
X84961905Y-110858628D01*
X86438095Y-110334819D02*
X85961905Y-110334819D01*
X85961905Y-110334819D02*
X85914286Y-110811009D01*
X85914286Y-110811009D02*
X85961905Y-110763390D01*
X85961905Y-110763390D02*
X86057143Y-110715771D01*
X86057143Y-110715771D02*
X86295238Y-110715771D01*
X86295238Y-110715771D02*
X86390476Y-110763390D01*
X86390476Y-110763390D02*
X86438095Y-110811009D01*
X86438095Y-110811009D02*
X86485714Y-110906247D01*
X86485714Y-110906247D02*
X86485714Y-111144342D01*
X86485714Y-111144342D02*
X86438095Y-111239580D01*
X86438095Y-111239580D02*
X86390476Y-111287200D01*
X86390476Y-111287200D02*
X86295238Y-111334819D01*
X86295238Y-111334819D02*
X86057143Y-111334819D01*
X86057143Y-111334819D02*
X85961905Y-111287200D01*
X85961905Y-111287200D02*
X85914286Y-111239580D01*
X152110057Y-116625238D02*
X152062438Y-116720476D01*
X152062438Y-116720476D02*
X151967200Y-116815714D01*
X151967200Y-116815714D02*
X151824342Y-116958571D01*
X151824342Y-116958571D02*
X151776723Y-117053809D01*
X151776723Y-117053809D02*
X151776723Y-117149047D01*
X152014819Y-117101428D02*
X151967200Y-117196666D01*
X151967200Y-117196666D02*
X151871961Y-117291904D01*
X151871961Y-117291904D02*
X151681485Y-117339523D01*
X151681485Y-117339523D02*
X151348152Y-117339523D01*
X151348152Y-117339523D02*
X151157676Y-117291904D01*
X151157676Y-117291904D02*
X151062438Y-117196666D01*
X151062438Y-117196666D02*
X151014819Y-117101428D01*
X151014819Y-117101428D02*
X151014819Y-116910952D01*
X151014819Y-116910952D02*
X151062438Y-116815714D01*
X151062438Y-116815714D02*
X151157676Y-116720476D01*
X151157676Y-116720476D02*
X151348152Y-116672857D01*
X151348152Y-116672857D02*
X151681485Y-116672857D01*
X151681485Y-116672857D02*
X151871961Y-116720476D01*
X151871961Y-116720476D02*
X151967200Y-116815714D01*
X151967200Y-116815714D02*
X152014819Y-116910952D01*
X152014819Y-116910952D02*
X152014819Y-117101428D01*
X151014819Y-115815714D02*
X151014819Y-116006190D01*
X151014819Y-116006190D02*
X151062438Y-116101428D01*
X151062438Y-116101428D02*
X151110057Y-116149047D01*
X151110057Y-116149047D02*
X151252914Y-116244285D01*
X151252914Y-116244285D02*
X151443390Y-116291904D01*
X151443390Y-116291904D02*
X151824342Y-116291904D01*
X151824342Y-116291904D02*
X151919580Y-116244285D01*
X151919580Y-116244285D02*
X151967200Y-116196666D01*
X151967200Y-116196666D02*
X152014819Y-116101428D01*
X152014819Y-116101428D02*
X152014819Y-115910952D01*
X152014819Y-115910952D02*
X151967200Y-115815714D01*
X151967200Y-115815714D02*
X151919580Y-115768095D01*
X151919580Y-115768095D02*
X151824342Y-115720476D01*
X151824342Y-115720476D02*
X151586247Y-115720476D01*
X151586247Y-115720476D02*
X151491009Y-115768095D01*
X151491009Y-115768095D02*
X151443390Y-115815714D01*
X151443390Y-115815714D02*
X151395771Y-115910952D01*
X151395771Y-115910952D02*
X151395771Y-116101428D01*
X151395771Y-116101428D02*
X151443390Y-116196666D01*
X151443390Y-116196666D02*
X151491009Y-116244285D01*
X151491009Y-116244285D02*
X151586247Y-116291904D01*
X205838095Y-126654819D02*
X205838095Y-125654819D01*
X205838095Y-126131009D02*
X206409523Y-126131009D01*
X206409523Y-126654819D02*
X206409523Y-125654819D01*
X206790476Y-125654819D02*
X207409523Y-125654819D01*
X207409523Y-125654819D02*
X207076190Y-126035771D01*
X207076190Y-126035771D02*
X207219047Y-126035771D01*
X207219047Y-126035771D02*
X207314285Y-126083390D01*
X207314285Y-126083390D02*
X207361904Y-126131009D01*
X207361904Y-126131009D02*
X207409523Y-126226247D01*
X207409523Y-126226247D02*
X207409523Y-126464342D01*
X207409523Y-126464342D02*
X207361904Y-126559580D01*
X207361904Y-126559580D02*
X207314285Y-126607200D01*
X207314285Y-126607200D02*
X207219047Y-126654819D01*
X207219047Y-126654819D02*
X206933333Y-126654819D01*
X206933333Y-126654819D02*
X206838095Y-126607200D01*
X206838095Y-126607200D02*
X206790476Y-126559580D01*
X164654819Y-127959524D02*
X164654819Y-128435714D01*
X164654819Y-128435714D02*
X163654819Y-128435714D01*
X164131009Y-127626190D02*
X164131009Y-127292857D01*
X164654819Y-127150000D02*
X164654819Y-127626190D01*
X164654819Y-127626190D02*
X163654819Y-127626190D01*
X163654819Y-127626190D02*
X163654819Y-127150000D01*
X164131009Y-126388095D02*
X164131009Y-126721428D01*
X164654819Y-126721428D02*
X163654819Y-126721428D01*
X163654819Y-126721428D02*
X163654819Y-126245238D01*
X163654819Y-126007142D02*
X163654819Y-125435714D01*
X164654819Y-125721428D02*
X163654819Y-125721428D01*
X164750057Y-125340476D02*
X164750057Y-124578571D01*
X164654819Y-124340475D02*
X163654819Y-124340475D01*
X163654819Y-124340475D02*
X164369104Y-124007142D01*
X164369104Y-124007142D02*
X163654819Y-123673809D01*
X163654819Y-123673809D02*
X164654819Y-123673809D01*
X163654819Y-123007142D02*
X163654819Y-122816666D01*
X163654819Y-122816666D02*
X163702438Y-122721428D01*
X163702438Y-122721428D02*
X163797676Y-122626190D01*
X163797676Y-122626190D02*
X163988152Y-122578571D01*
X163988152Y-122578571D02*
X164321485Y-122578571D01*
X164321485Y-122578571D02*
X164511961Y-122626190D01*
X164511961Y-122626190D02*
X164607200Y-122721428D01*
X164607200Y-122721428D02*
X164654819Y-122816666D01*
X164654819Y-122816666D02*
X164654819Y-123007142D01*
X164654819Y-123007142D02*
X164607200Y-123102380D01*
X164607200Y-123102380D02*
X164511961Y-123197618D01*
X164511961Y-123197618D02*
X164321485Y-123245237D01*
X164321485Y-123245237D02*
X163988152Y-123245237D01*
X163988152Y-123245237D02*
X163797676Y-123197618D01*
X163797676Y-123197618D02*
X163702438Y-123102380D01*
X163702438Y-123102380D02*
X163654819Y-123007142D01*
X163654819Y-122292856D02*
X163654819Y-121721428D01*
X164654819Y-122007142D02*
X163654819Y-122007142D01*
X163654819Y-121197618D02*
X163654819Y-121007142D01*
X163654819Y-121007142D02*
X163702438Y-120911904D01*
X163702438Y-120911904D02*
X163797676Y-120816666D01*
X163797676Y-120816666D02*
X163988152Y-120769047D01*
X163988152Y-120769047D02*
X164321485Y-120769047D01*
X164321485Y-120769047D02*
X164511961Y-120816666D01*
X164511961Y-120816666D02*
X164607200Y-120911904D01*
X164607200Y-120911904D02*
X164654819Y-121007142D01*
X164654819Y-121007142D02*
X164654819Y-121197618D01*
X164654819Y-121197618D02*
X164607200Y-121292856D01*
X164607200Y-121292856D02*
X164511961Y-121388094D01*
X164511961Y-121388094D02*
X164321485Y-121435713D01*
X164321485Y-121435713D02*
X163988152Y-121435713D01*
X163988152Y-121435713D02*
X163797676Y-121388094D01*
X163797676Y-121388094D02*
X163702438Y-121292856D01*
X163702438Y-121292856D02*
X163654819Y-121197618D01*
X164654819Y-119769047D02*
X164178628Y-120102380D01*
X164654819Y-120340475D02*
X163654819Y-120340475D01*
X163654819Y-120340475D02*
X163654819Y-119959523D01*
X163654819Y-119959523D02*
X163702438Y-119864285D01*
X163702438Y-119864285D02*
X163750057Y-119816666D01*
X163750057Y-119816666D02*
X163845295Y-119769047D01*
X163845295Y-119769047D02*
X163988152Y-119769047D01*
X163988152Y-119769047D02*
X164083390Y-119816666D01*
X164083390Y-119816666D02*
X164131009Y-119864285D01*
X164131009Y-119864285D02*
X164178628Y-119959523D01*
X164178628Y-119959523D02*
X164178628Y-120340475D01*
X164654819Y-118816666D02*
X164654819Y-119388094D01*
X164654819Y-119102380D02*
X163654819Y-119102380D01*
X163654819Y-119102380D02*
X163797676Y-119197618D01*
X163797676Y-119197618D02*
X163892914Y-119292856D01*
X163892914Y-119292856D02*
X163940533Y-119388094D01*
X127539580Y-92705357D02*
X127587200Y-92752976D01*
X127587200Y-92752976D02*
X127634819Y-92895833D01*
X127634819Y-92895833D02*
X127634819Y-92991071D01*
X127634819Y-92991071D02*
X127587200Y-93133928D01*
X127587200Y-93133928D02*
X127491961Y-93229166D01*
X127491961Y-93229166D02*
X127396723Y-93276785D01*
X127396723Y-93276785D02*
X127206247Y-93324404D01*
X127206247Y-93324404D02*
X127063390Y-93324404D01*
X127063390Y-93324404D02*
X126872914Y-93276785D01*
X126872914Y-93276785D02*
X126777676Y-93229166D01*
X126777676Y-93229166D02*
X126682438Y-93133928D01*
X126682438Y-93133928D02*
X126634819Y-92991071D01*
X126634819Y-92991071D02*
X126634819Y-92895833D01*
X126634819Y-92895833D02*
X126682438Y-92752976D01*
X126682438Y-92752976D02*
X126730057Y-92705357D01*
X127634819Y-91752976D02*
X127634819Y-92324404D01*
X127634819Y-92038690D02*
X126634819Y-92038690D01*
X126634819Y-92038690D02*
X126777676Y-92133928D01*
X126777676Y-92133928D02*
X126872914Y-92229166D01*
X126872914Y-92229166D02*
X126920533Y-92324404D01*
X126634819Y-90848214D02*
X126634819Y-91324404D01*
X126634819Y-91324404D02*
X127111009Y-91372023D01*
X127111009Y-91372023D02*
X127063390Y-91324404D01*
X127063390Y-91324404D02*
X127015771Y-91229166D01*
X127015771Y-91229166D02*
X127015771Y-90991071D01*
X127015771Y-90991071D02*
X127063390Y-90895833D01*
X127063390Y-90895833D02*
X127111009Y-90848214D01*
X127111009Y-90848214D02*
X127206247Y-90800595D01*
X127206247Y-90800595D02*
X127444342Y-90800595D01*
X127444342Y-90800595D02*
X127539580Y-90848214D01*
X127539580Y-90848214D02*
X127587200Y-90895833D01*
X127587200Y-90895833D02*
X127634819Y-90991071D01*
X127634819Y-90991071D02*
X127634819Y-91229166D01*
X127634819Y-91229166D02*
X127587200Y-91324404D01*
X127587200Y-91324404D02*
X127539580Y-91372023D01*
X104654819Y-88285714D02*
X104178628Y-88619047D01*
X104654819Y-88857142D02*
X103654819Y-88857142D01*
X103654819Y-88857142D02*
X103654819Y-88476190D01*
X103654819Y-88476190D02*
X103702438Y-88380952D01*
X103702438Y-88380952D02*
X103750057Y-88333333D01*
X103750057Y-88333333D02*
X103845295Y-88285714D01*
X103845295Y-88285714D02*
X103988152Y-88285714D01*
X103988152Y-88285714D02*
X104083390Y-88333333D01*
X104083390Y-88333333D02*
X104131009Y-88380952D01*
X104131009Y-88380952D02*
X104178628Y-88476190D01*
X104178628Y-88476190D02*
X104178628Y-88857142D01*
X104131009Y-87857142D02*
X104131009Y-87523809D01*
X104654819Y-87380952D02*
X104654819Y-87857142D01*
X104654819Y-87857142D02*
X103654819Y-87857142D01*
X103654819Y-87857142D02*
X103654819Y-87380952D01*
X104607200Y-86999999D02*
X104654819Y-86857142D01*
X104654819Y-86857142D02*
X104654819Y-86619047D01*
X104654819Y-86619047D02*
X104607200Y-86523809D01*
X104607200Y-86523809D02*
X104559580Y-86476190D01*
X104559580Y-86476190D02*
X104464342Y-86428571D01*
X104464342Y-86428571D02*
X104369104Y-86428571D01*
X104369104Y-86428571D02*
X104273866Y-86476190D01*
X104273866Y-86476190D02*
X104226247Y-86523809D01*
X104226247Y-86523809D02*
X104178628Y-86619047D01*
X104178628Y-86619047D02*
X104131009Y-86809523D01*
X104131009Y-86809523D02*
X104083390Y-86904761D01*
X104083390Y-86904761D02*
X104035771Y-86952380D01*
X104035771Y-86952380D02*
X103940533Y-86999999D01*
X103940533Y-86999999D02*
X103845295Y-86999999D01*
X103845295Y-86999999D02*
X103750057Y-86952380D01*
X103750057Y-86952380D02*
X103702438Y-86904761D01*
X103702438Y-86904761D02*
X103654819Y-86809523D01*
X103654819Y-86809523D02*
X103654819Y-86571428D01*
X103654819Y-86571428D02*
X103702438Y-86428571D01*
X104131009Y-85999999D02*
X104131009Y-85666666D01*
X104654819Y-85523809D02*
X104654819Y-85999999D01*
X104654819Y-85999999D02*
X103654819Y-85999999D01*
X103654819Y-85999999D02*
X103654819Y-85523809D01*
X103654819Y-85238094D02*
X103654819Y-84666666D01*
X104654819Y-84952380D02*
X103654819Y-84952380D01*
X104750057Y-84571428D02*
X104750057Y-83809523D01*
X103654819Y-83380951D02*
X103654819Y-83285713D01*
X103654819Y-83285713D02*
X103702438Y-83190475D01*
X103702438Y-83190475D02*
X103750057Y-83142856D01*
X103750057Y-83142856D02*
X103845295Y-83095237D01*
X103845295Y-83095237D02*
X104035771Y-83047618D01*
X104035771Y-83047618D02*
X104273866Y-83047618D01*
X104273866Y-83047618D02*
X104464342Y-83095237D01*
X104464342Y-83095237D02*
X104559580Y-83142856D01*
X104559580Y-83142856D02*
X104607200Y-83190475D01*
X104607200Y-83190475D02*
X104654819Y-83285713D01*
X104654819Y-83285713D02*
X104654819Y-83380951D01*
X104654819Y-83380951D02*
X104607200Y-83476189D01*
X104607200Y-83476189D02*
X104559580Y-83523808D01*
X104559580Y-83523808D02*
X104464342Y-83571427D01*
X104464342Y-83571427D02*
X104273866Y-83619046D01*
X104273866Y-83619046D02*
X104035771Y-83619046D01*
X104035771Y-83619046D02*
X103845295Y-83571427D01*
X103845295Y-83571427D02*
X103750057Y-83523808D01*
X103750057Y-83523808D02*
X103702438Y-83476189D01*
X103702438Y-83476189D02*
X103654819Y-83380951D01*
X104654819Y-82095237D02*
X104654819Y-82666665D01*
X104654819Y-82380951D02*
X103654819Y-82380951D01*
X103654819Y-82380951D02*
X103797676Y-82476189D01*
X103797676Y-82476189D02*
X103892914Y-82571427D01*
X103892914Y-82571427D02*
X103940533Y-82666665D01*
X141969523Y-120944819D02*
X141636190Y-120468628D01*
X141398095Y-120944819D02*
X141398095Y-119944819D01*
X141398095Y-119944819D02*
X141779047Y-119944819D01*
X141779047Y-119944819D02*
X141874285Y-119992438D01*
X141874285Y-119992438D02*
X141921904Y-120040057D01*
X141921904Y-120040057D02*
X141969523Y-120135295D01*
X141969523Y-120135295D02*
X141969523Y-120278152D01*
X141969523Y-120278152D02*
X141921904Y-120373390D01*
X141921904Y-120373390D02*
X141874285Y-120421009D01*
X141874285Y-120421009D02*
X141779047Y-120468628D01*
X141779047Y-120468628D02*
X141398095Y-120468628D01*
X142398095Y-120944819D02*
X142398095Y-119944819D01*
X142398095Y-119944819D02*
X142969523Y-120944819D01*
X142969523Y-120944819D02*
X142969523Y-119944819D01*
X143969523Y-120944819D02*
X143398095Y-120944819D01*
X143683809Y-120944819D02*
X143683809Y-119944819D01*
X143683809Y-119944819D02*
X143588571Y-120087676D01*
X143588571Y-120087676D02*
X143493333Y-120182914D01*
X143493333Y-120182914D02*
X143398095Y-120230533D01*
X188357142Y-94854819D02*
X188023809Y-94378628D01*
X187785714Y-94854819D02*
X187785714Y-93854819D01*
X187785714Y-93854819D02*
X188166666Y-93854819D01*
X188166666Y-93854819D02*
X188261904Y-93902438D01*
X188261904Y-93902438D02*
X188309523Y-93950057D01*
X188309523Y-93950057D02*
X188357142Y-94045295D01*
X188357142Y-94045295D02*
X188357142Y-94188152D01*
X188357142Y-94188152D02*
X188309523Y-94283390D01*
X188309523Y-94283390D02*
X188261904Y-94331009D01*
X188261904Y-94331009D02*
X188166666Y-94378628D01*
X188166666Y-94378628D02*
X187785714Y-94378628D01*
X188738095Y-93950057D02*
X188785714Y-93902438D01*
X188785714Y-93902438D02*
X188880952Y-93854819D01*
X188880952Y-93854819D02*
X189119047Y-93854819D01*
X189119047Y-93854819D02*
X189214285Y-93902438D01*
X189214285Y-93902438D02*
X189261904Y-93950057D01*
X189261904Y-93950057D02*
X189309523Y-94045295D01*
X189309523Y-94045295D02*
X189309523Y-94140533D01*
X189309523Y-94140533D02*
X189261904Y-94283390D01*
X189261904Y-94283390D02*
X188690476Y-94854819D01*
X188690476Y-94854819D02*
X189309523Y-94854819D01*
X189928571Y-93854819D02*
X190023809Y-93854819D01*
X190023809Y-93854819D02*
X190119047Y-93902438D01*
X190119047Y-93902438D02*
X190166666Y-93950057D01*
X190166666Y-93950057D02*
X190214285Y-94045295D01*
X190214285Y-94045295D02*
X190261904Y-94235771D01*
X190261904Y-94235771D02*
X190261904Y-94473866D01*
X190261904Y-94473866D02*
X190214285Y-94664342D01*
X190214285Y-94664342D02*
X190166666Y-94759580D01*
X190166666Y-94759580D02*
X190119047Y-94807200D01*
X190119047Y-94807200D02*
X190023809Y-94854819D01*
X190023809Y-94854819D02*
X189928571Y-94854819D01*
X189928571Y-94854819D02*
X189833333Y-94807200D01*
X189833333Y-94807200D02*
X189785714Y-94759580D01*
X189785714Y-94759580D02*
X189738095Y-94664342D01*
X189738095Y-94664342D02*
X189690476Y-94473866D01*
X189690476Y-94473866D02*
X189690476Y-94235771D01*
X189690476Y-94235771D02*
X189738095Y-94045295D01*
X189738095Y-94045295D02*
X189785714Y-93950057D01*
X189785714Y-93950057D02*
X189833333Y-93902438D01*
X189833333Y-93902438D02*
X189928571Y-93854819D01*
X205738095Y-60704819D02*
X205738095Y-59704819D01*
X205738095Y-60181009D02*
X206309523Y-60181009D01*
X206309523Y-60704819D02*
X206309523Y-59704819D01*
X206738095Y-59800057D02*
X206785714Y-59752438D01*
X206785714Y-59752438D02*
X206880952Y-59704819D01*
X206880952Y-59704819D02*
X207119047Y-59704819D01*
X207119047Y-59704819D02*
X207214285Y-59752438D01*
X207214285Y-59752438D02*
X207261904Y-59800057D01*
X207261904Y-59800057D02*
X207309523Y-59895295D01*
X207309523Y-59895295D02*
X207309523Y-59990533D01*
X207309523Y-59990533D02*
X207261904Y-60133390D01*
X207261904Y-60133390D02*
X206690476Y-60704819D01*
X206690476Y-60704819D02*
X207309523Y-60704819D01*
X89993333Y-91534819D02*
X89660000Y-91058628D01*
X89421905Y-91534819D02*
X89421905Y-90534819D01*
X89421905Y-90534819D02*
X89802857Y-90534819D01*
X89802857Y-90534819D02*
X89898095Y-90582438D01*
X89898095Y-90582438D02*
X89945714Y-90630057D01*
X89945714Y-90630057D02*
X89993333Y-90725295D01*
X89993333Y-90725295D02*
X89993333Y-90868152D01*
X89993333Y-90868152D02*
X89945714Y-90963390D01*
X89945714Y-90963390D02*
X89898095Y-91011009D01*
X89898095Y-91011009D02*
X89802857Y-91058628D01*
X89802857Y-91058628D02*
X89421905Y-91058628D01*
X90326667Y-90534819D02*
X90945714Y-90534819D01*
X90945714Y-90534819D02*
X90612381Y-90915771D01*
X90612381Y-90915771D02*
X90755238Y-90915771D01*
X90755238Y-90915771D02*
X90850476Y-90963390D01*
X90850476Y-90963390D02*
X90898095Y-91011009D01*
X90898095Y-91011009D02*
X90945714Y-91106247D01*
X90945714Y-91106247D02*
X90945714Y-91344342D01*
X90945714Y-91344342D02*
X90898095Y-91439580D01*
X90898095Y-91439580D02*
X90850476Y-91487200D01*
X90850476Y-91487200D02*
X90755238Y-91534819D01*
X90755238Y-91534819D02*
X90469524Y-91534819D01*
X90469524Y-91534819D02*
X90374286Y-91487200D01*
X90374286Y-91487200D02*
X90326667Y-91439580D01*
X96504819Y-76863094D02*
X95504819Y-76863094D01*
X95504819Y-76863094D02*
X95504819Y-76624999D01*
X95504819Y-76624999D02*
X95552438Y-76482142D01*
X95552438Y-76482142D02*
X95647676Y-76386904D01*
X95647676Y-76386904D02*
X95742914Y-76339285D01*
X95742914Y-76339285D02*
X95933390Y-76291666D01*
X95933390Y-76291666D02*
X96076247Y-76291666D01*
X96076247Y-76291666D02*
X96266723Y-76339285D01*
X96266723Y-76339285D02*
X96361961Y-76386904D01*
X96361961Y-76386904D02*
X96457200Y-76482142D01*
X96457200Y-76482142D02*
X96504819Y-76624999D01*
X96504819Y-76624999D02*
X96504819Y-76863094D01*
X96504819Y-75339285D02*
X96504819Y-75910713D01*
X96504819Y-75624999D02*
X95504819Y-75624999D01*
X95504819Y-75624999D02*
X95647676Y-75720237D01*
X95647676Y-75720237D02*
X95742914Y-75815475D01*
X95742914Y-75815475D02*
X95790533Y-75910713D01*
X115814819Y-64626904D02*
X116624342Y-64626904D01*
X116624342Y-64626904D02*
X116719580Y-64579285D01*
X116719580Y-64579285D02*
X116767200Y-64531666D01*
X116767200Y-64531666D02*
X116814819Y-64436428D01*
X116814819Y-64436428D02*
X116814819Y-64245952D01*
X116814819Y-64245952D02*
X116767200Y-64150714D01*
X116767200Y-64150714D02*
X116719580Y-64103095D01*
X116719580Y-64103095D02*
X116624342Y-64055476D01*
X116624342Y-64055476D02*
X115814819Y-64055476D01*
X116529104Y-63626904D02*
X116529104Y-63150714D01*
X116814819Y-63722142D02*
X115814819Y-63388809D01*
X115814819Y-63388809D02*
X116814819Y-63055476D01*
X116814819Y-62150714D02*
X116338628Y-62484047D01*
X116814819Y-62722142D02*
X115814819Y-62722142D01*
X115814819Y-62722142D02*
X115814819Y-62341190D01*
X115814819Y-62341190D02*
X115862438Y-62245952D01*
X115862438Y-62245952D02*
X115910057Y-62198333D01*
X115910057Y-62198333D02*
X116005295Y-62150714D01*
X116005295Y-62150714D02*
X116148152Y-62150714D01*
X116148152Y-62150714D02*
X116243390Y-62198333D01*
X116243390Y-62198333D02*
X116291009Y-62245952D01*
X116291009Y-62245952D02*
X116338628Y-62341190D01*
X116338628Y-62341190D02*
X116338628Y-62722142D01*
X115814819Y-61864999D02*
X115814819Y-61293571D01*
X116814819Y-61579285D02*
X115814819Y-61579285D01*
X116910057Y-61198333D02*
X116910057Y-60436428D01*
X116814819Y-60198332D02*
X115814819Y-60198332D01*
X115814819Y-60198332D02*
X115814819Y-59960237D01*
X115814819Y-59960237D02*
X115862438Y-59817380D01*
X115862438Y-59817380D02*
X115957676Y-59722142D01*
X115957676Y-59722142D02*
X116052914Y-59674523D01*
X116052914Y-59674523D02*
X116243390Y-59626904D01*
X116243390Y-59626904D02*
X116386247Y-59626904D01*
X116386247Y-59626904D02*
X116576723Y-59674523D01*
X116576723Y-59674523D02*
X116671961Y-59722142D01*
X116671961Y-59722142D02*
X116767200Y-59817380D01*
X116767200Y-59817380D02*
X116814819Y-59960237D01*
X116814819Y-59960237D02*
X116814819Y-60198332D01*
X116291009Y-58864999D02*
X116338628Y-58722142D01*
X116338628Y-58722142D02*
X116386247Y-58674523D01*
X116386247Y-58674523D02*
X116481485Y-58626904D01*
X116481485Y-58626904D02*
X116624342Y-58626904D01*
X116624342Y-58626904D02*
X116719580Y-58674523D01*
X116719580Y-58674523D02*
X116767200Y-58722142D01*
X116767200Y-58722142D02*
X116814819Y-58817380D01*
X116814819Y-58817380D02*
X116814819Y-59198332D01*
X116814819Y-59198332D02*
X115814819Y-59198332D01*
X115814819Y-59198332D02*
X115814819Y-58864999D01*
X115814819Y-58864999D02*
X115862438Y-58769761D01*
X115862438Y-58769761D02*
X115910057Y-58722142D01*
X115910057Y-58722142D02*
X116005295Y-58674523D01*
X116005295Y-58674523D02*
X116100533Y-58674523D01*
X116100533Y-58674523D02*
X116195771Y-58722142D01*
X116195771Y-58722142D02*
X116243390Y-58769761D01*
X116243390Y-58769761D02*
X116291009Y-58864999D01*
X116291009Y-58864999D02*
X116291009Y-59198332D01*
X115862438Y-57674523D02*
X115814819Y-57769761D01*
X115814819Y-57769761D02*
X115814819Y-57912618D01*
X115814819Y-57912618D02*
X115862438Y-58055475D01*
X115862438Y-58055475D02*
X115957676Y-58150713D01*
X115957676Y-58150713D02*
X116052914Y-58198332D01*
X116052914Y-58198332D02*
X116243390Y-58245951D01*
X116243390Y-58245951D02*
X116386247Y-58245951D01*
X116386247Y-58245951D02*
X116576723Y-58198332D01*
X116576723Y-58198332D02*
X116671961Y-58150713D01*
X116671961Y-58150713D02*
X116767200Y-58055475D01*
X116767200Y-58055475D02*
X116814819Y-57912618D01*
X116814819Y-57912618D02*
X116814819Y-57817380D01*
X116814819Y-57817380D02*
X116767200Y-57674523D01*
X116767200Y-57674523D02*
X116719580Y-57626904D01*
X116719580Y-57626904D02*
X116386247Y-57626904D01*
X116386247Y-57626904D02*
X116386247Y-57817380D01*
X116910057Y-57436428D02*
X116910057Y-56674523D01*
X116814819Y-56436427D02*
X115814819Y-56436427D01*
X115814819Y-56436427D02*
X116529104Y-56103094D01*
X116529104Y-56103094D02*
X115814819Y-55769761D01*
X115814819Y-55769761D02*
X116814819Y-55769761D01*
X116767200Y-55341189D02*
X116814819Y-55198332D01*
X116814819Y-55198332D02*
X116814819Y-54960237D01*
X116814819Y-54960237D02*
X116767200Y-54864999D01*
X116767200Y-54864999D02*
X116719580Y-54817380D01*
X116719580Y-54817380D02*
X116624342Y-54769761D01*
X116624342Y-54769761D02*
X116529104Y-54769761D01*
X116529104Y-54769761D02*
X116433866Y-54817380D01*
X116433866Y-54817380D02*
X116386247Y-54864999D01*
X116386247Y-54864999D02*
X116338628Y-54960237D01*
X116338628Y-54960237D02*
X116291009Y-55150713D01*
X116291009Y-55150713D02*
X116243390Y-55245951D01*
X116243390Y-55245951D02*
X116195771Y-55293570D01*
X116195771Y-55293570D02*
X116100533Y-55341189D01*
X116100533Y-55341189D02*
X116005295Y-55341189D01*
X116005295Y-55341189D02*
X115910057Y-55293570D01*
X115910057Y-55293570D02*
X115862438Y-55245951D01*
X115862438Y-55245951D02*
X115814819Y-55150713D01*
X115814819Y-55150713D02*
X115814819Y-54912618D01*
X115814819Y-54912618D02*
X115862438Y-54769761D01*
X115814819Y-54484046D02*
X115814819Y-53912618D01*
X116814819Y-54198332D02*
X115814819Y-54198332D01*
X116814819Y-53055475D02*
X116814819Y-53626903D01*
X116814819Y-53341189D02*
X115814819Y-53341189D01*
X115814819Y-53341189D02*
X115957676Y-53436427D01*
X115957676Y-53436427D02*
X116052914Y-53531665D01*
X116052914Y-53531665D02*
X116100533Y-53626903D01*
X118329523Y-120944819D02*
X117996190Y-120468628D01*
X117758095Y-120944819D02*
X117758095Y-119944819D01*
X117758095Y-119944819D02*
X118139047Y-119944819D01*
X118139047Y-119944819D02*
X118234285Y-119992438D01*
X118234285Y-119992438D02*
X118281904Y-120040057D01*
X118281904Y-120040057D02*
X118329523Y-120135295D01*
X118329523Y-120135295D02*
X118329523Y-120278152D01*
X118329523Y-120278152D02*
X118281904Y-120373390D01*
X118281904Y-120373390D02*
X118234285Y-120421009D01*
X118234285Y-120421009D02*
X118139047Y-120468628D01*
X118139047Y-120468628D02*
X117758095Y-120468628D01*
X118758095Y-120944819D02*
X118758095Y-119944819D01*
X118758095Y-119944819D02*
X119329523Y-120944819D01*
X119329523Y-120944819D02*
X119329523Y-119944819D01*
X119758095Y-120040057D02*
X119805714Y-119992438D01*
X119805714Y-119992438D02*
X119900952Y-119944819D01*
X119900952Y-119944819D02*
X120139047Y-119944819D01*
X120139047Y-119944819D02*
X120234285Y-119992438D01*
X120234285Y-119992438D02*
X120281904Y-120040057D01*
X120281904Y-120040057D02*
X120329523Y-120135295D01*
X120329523Y-120135295D02*
X120329523Y-120230533D01*
X120329523Y-120230533D02*
X120281904Y-120373390D01*
X120281904Y-120373390D02*
X119710476Y-120944819D01*
X119710476Y-120944819D02*
X120329523Y-120944819D01*
X147637142Y-87024819D02*
X147303809Y-86548628D01*
X147065714Y-87024819D02*
X147065714Y-86024819D01*
X147065714Y-86024819D02*
X147446666Y-86024819D01*
X147446666Y-86024819D02*
X147541904Y-86072438D01*
X147541904Y-86072438D02*
X147589523Y-86120057D01*
X147589523Y-86120057D02*
X147637142Y-86215295D01*
X147637142Y-86215295D02*
X147637142Y-86358152D01*
X147637142Y-86358152D02*
X147589523Y-86453390D01*
X147589523Y-86453390D02*
X147541904Y-86501009D01*
X147541904Y-86501009D02*
X147446666Y-86548628D01*
X147446666Y-86548628D02*
X147065714Y-86548628D01*
X148589523Y-87024819D02*
X148018095Y-87024819D01*
X148303809Y-87024819D02*
X148303809Y-86024819D01*
X148303809Y-86024819D02*
X148208571Y-86167676D01*
X148208571Y-86167676D02*
X148113333Y-86262914D01*
X148113333Y-86262914D02*
X148018095Y-86310533D01*
X149446666Y-86358152D02*
X149446666Y-87024819D01*
X149208571Y-85977200D02*
X148970476Y-86691485D01*
X148970476Y-86691485D02*
X149589523Y-86691485D01*
X186104819Y-95838094D02*
X185104819Y-95838094D01*
X185104819Y-95838094D02*
X185104819Y-95599999D01*
X185104819Y-95599999D02*
X185152438Y-95457142D01*
X185152438Y-95457142D02*
X185247676Y-95361904D01*
X185247676Y-95361904D02*
X185342914Y-95314285D01*
X185342914Y-95314285D02*
X185533390Y-95266666D01*
X185533390Y-95266666D02*
X185676247Y-95266666D01*
X185676247Y-95266666D02*
X185866723Y-95314285D01*
X185866723Y-95314285D02*
X185961961Y-95361904D01*
X185961961Y-95361904D02*
X186057200Y-95457142D01*
X186057200Y-95457142D02*
X186104819Y-95599999D01*
X186104819Y-95599999D02*
X186104819Y-95838094D01*
X185104819Y-94361904D02*
X185104819Y-94838094D01*
X185104819Y-94838094D02*
X185581009Y-94885713D01*
X185581009Y-94885713D02*
X185533390Y-94838094D01*
X185533390Y-94838094D02*
X185485771Y-94742856D01*
X185485771Y-94742856D02*
X185485771Y-94504761D01*
X185485771Y-94504761D02*
X185533390Y-94409523D01*
X185533390Y-94409523D02*
X185581009Y-94361904D01*
X185581009Y-94361904D02*
X185676247Y-94314285D01*
X185676247Y-94314285D02*
X185914342Y-94314285D01*
X185914342Y-94314285D02*
X186009580Y-94361904D01*
X186009580Y-94361904D02*
X186057200Y-94409523D01*
X186057200Y-94409523D02*
X186104819Y-94504761D01*
X186104819Y-94504761D02*
X186104819Y-94742856D01*
X186104819Y-94742856D02*
X186057200Y-94838094D01*
X186057200Y-94838094D02*
X186009580Y-94885713D01*
X188242857Y-117929819D02*
X188242857Y-116929819D01*
X188242857Y-116929819D02*
X188480952Y-116929819D01*
X188480952Y-116929819D02*
X188623809Y-116977438D01*
X188623809Y-116977438D02*
X188719047Y-117072676D01*
X188719047Y-117072676D02*
X188766666Y-117167914D01*
X188766666Y-117167914D02*
X188814285Y-117358390D01*
X188814285Y-117358390D02*
X188814285Y-117501247D01*
X188814285Y-117501247D02*
X188766666Y-117691723D01*
X188766666Y-117691723D02*
X188719047Y-117786961D01*
X188719047Y-117786961D02*
X188623809Y-117882200D01*
X188623809Y-117882200D02*
X188480952Y-117929819D01*
X188480952Y-117929819D02*
X188242857Y-117929819D01*
X189814285Y-117929819D02*
X189480952Y-117453628D01*
X189242857Y-117929819D02*
X189242857Y-116929819D01*
X189242857Y-116929819D02*
X189623809Y-116929819D01*
X189623809Y-116929819D02*
X189719047Y-116977438D01*
X189719047Y-116977438D02*
X189766666Y-117025057D01*
X189766666Y-117025057D02*
X189814285Y-117120295D01*
X189814285Y-117120295D02*
X189814285Y-117263152D01*
X189814285Y-117263152D02*
X189766666Y-117358390D01*
X189766666Y-117358390D02*
X189719047Y-117406009D01*
X189719047Y-117406009D02*
X189623809Y-117453628D01*
X189623809Y-117453628D02*
X189242857Y-117453628D01*
X190242857Y-117929819D02*
X190242857Y-116929819D01*
X190576190Y-116929819D02*
X190909523Y-117929819D01*
X190909523Y-117929819D02*
X191242856Y-116929819D01*
X191576190Y-117406009D02*
X191909523Y-117406009D01*
X192052380Y-117929819D02*
X191576190Y-117929819D01*
X191576190Y-117929819D02*
X191576190Y-116929819D01*
X191576190Y-116929819D02*
X192052380Y-116929819D01*
X193052380Y-117929819D02*
X192719047Y-117453628D01*
X192480952Y-117929819D02*
X192480952Y-116929819D01*
X192480952Y-116929819D02*
X192861904Y-116929819D01*
X192861904Y-116929819D02*
X192957142Y-116977438D01*
X192957142Y-116977438D02*
X193004761Y-117025057D01*
X193004761Y-117025057D02*
X193052380Y-117120295D01*
X193052380Y-117120295D02*
X193052380Y-117263152D01*
X193052380Y-117263152D02*
X193004761Y-117358390D01*
X193004761Y-117358390D02*
X192957142Y-117406009D01*
X192957142Y-117406009D02*
X192861904Y-117453628D01*
X192861904Y-117453628D02*
X192480952Y-117453628D01*
X194004761Y-117929819D02*
X193433333Y-117929819D01*
X193719047Y-117929819D02*
X193719047Y-116929819D01*
X193719047Y-116929819D02*
X193623809Y-117072676D01*
X193623809Y-117072676D02*
X193528571Y-117167914D01*
X193528571Y-117167914D02*
X193433333Y-117215533D01*
X160028628Y-100976190D02*
X160504819Y-100976190D01*
X159504819Y-101309523D02*
X160028628Y-100976190D01*
X160028628Y-100976190D02*
X159504819Y-100642857D01*
X159600057Y-100357142D02*
X159552438Y-100309523D01*
X159552438Y-100309523D02*
X159504819Y-100214285D01*
X159504819Y-100214285D02*
X159504819Y-99976190D01*
X159504819Y-99976190D02*
X159552438Y-99880952D01*
X159552438Y-99880952D02*
X159600057Y-99833333D01*
X159600057Y-99833333D02*
X159695295Y-99785714D01*
X159695295Y-99785714D02*
X159790533Y-99785714D01*
X159790533Y-99785714D02*
X159933390Y-99833333D01*
X159933390Y-99833333D02*
X160504819Y-100404761D01*
X160504819Y-100404761D02*
X160504819Y-99785714D01*
X126998628Y-101036190D02*
X127474819Y-101036190D01*
X126474819Y-101369523D02*
X126998628Y-101036190D01*
X126998628Y-101036190D02*
X126474819Y-100702857D01*
X127474819Y-99845714D02*
X127474819Y-100417142D01*
X127474819Y-100131428D02*
X126474819Y-100131428D01*
X126474819Y-100131428D02*
X126617676Y-100226666D01*
X126617676Y-100226666D02*
X126712914Y-100321904D01*
X126712914Y-100321904D02*
X126760533Y-100417142D01*
X76498330Y-83566666D02*
X76545950Y-83614285D01*
X76545950Y-83614285D02*
X76593569Y-83757142D01*
X76593569Y-83757142D02*
X76593569Y-83852380D01*
X76593569Y-83852380D02*
X76545950Y-83995237D01*
X76545950Y-83995237D02*
X76450711Y-84090475D01*
X76450711Y-84090475D02*
X76355473Y-84138094D01*
X76355473Y-84138094D02*
X76164997Y-84185713D01*
X76164997Y-84185713D02*
X76022140Y-84185713D01*
X76022140Y-84185713D02*
X75831664Y-84138094D01*
X75831664Y-84138094D02*
X75736426Y-84090475D01*
X75736426Y-84090475D02*
X75641188Y-83995237D01*
X75641188Y-83995237D02*
X75593569Y-83852380D01*
X75593569Y-83852380D02*
X75593569Y-83757142D01*
X75593569Y-83757142D02*
X75641188Y-83614285D01*
X75641188Y-83614285D02*
X75688807Y-83566666D01*
X75593569Y-83233332D02*
X75593569Y-82614285D01*
X75593569Y-82614285D02*
X75974521Y-82947618D01*
X75974521Y-82947618D02*
X75974521Y-82804761D01*
X75974521Y-82804761D02*
X76022140Y-82709523D01*
X76022140Y-82709523D02*
X76069759Y-82661904D01*
X76069759Y-82661904D02*
X76164997Y-82614285D01*
X76164997Y-82614285D02*
X76403092Y-82614285D01*
X76403092Y-82614285D02*
X76498330Y-82661904D01*
X76498330Y-82661904D02*
X76545950Y-82709523D01*
X76545950Y-82709523D02*
X76593569Y-82804761D01*
X76593569Y-82804761D02*
X76593569Y-83090475D01*
X76593569Y-83090475D02*
X76545950Y-83185713D01*
X76545950Y-83185713D02*
X76498330Y-83233332D01*
X114959580Y-86642857D02*
X115007200Y-86690476D01*
X115007200Y-86690476D02*
X115054819Y-86833333D01*
X115054819Y-86833333D02*
X115054819Y-86928571D01*
X115054819Y-86928571D02*
X115007200Y-87071428D01*
X115007200Y-87071428D02*
X114911961Y-87166666D01*
X114911961Y-87166666D02*
X114816723Y-87214285D01*
X114816723Y-87214285D02*
X114626247Y-87261904D01*
X114626247Y-87261904D02*
X114483390Y-87261904D01*
X114483390Y-87261904D02*
X114292914Y-87214285D01*
X114292914Y-87214285D02*
X114197676Y-87166666D01*
X114197676Y-87166666D02*
X114102438Y-87071428D01*
X114102438Y-87071428D02*
X114054819Y-86928571D01*
X114054819Y-86928571D02*
X114054819Y-86833333D01*
X114054819Y-86833333D02*
X114102438Y-86690476D01*
X114102438Y-86690476D02*
X114150057Y-86642857D01*
X115054819Y-85690476D02*
X115054819Y-86261904D01*
X115054819Y-85976190D02*
X114054819Y-85976190D01*
X114054819Y-85976190D02*
X114197676Y-86071428D01*
X114197676Y-86071428D02*
X114292914Y-86166666D01*
X114292914Y-86166666D02*
X114340533Y-86261904D01*
X115054819Y-85214285D02*
X115054819Y-85023809D01*
X115054819Y-85023809D02*
X115007200Y-84928571D01*
X115007200Y-84928571D02*
X114959580Y-84880952D01*
X114959580Y-84880952D02*
X114816723Y-84785714D01*
X114816723Y-84785714D02*
X114626247Y-84738095D01*
X114626247Y-84738095D02*
X114245295Y-84738095D01*
X114245295Y-84738095D02*
X114150057Y-84785714D01*
X114150057Y-84785714D02*
X114102438Y-84833333D01*
X114102438Y-84833333D02*
X114054819Y-84928571D01*
X114054819Y-84928571D02*
X114054819Y-85119047D01*
X114054819Y-85119047D02*
X114102438Y-85214285D01*
X114102438Y-85214285D02*
X114150057Y-85261904D01*
X114150057Y-85261904D02*
X114245295Y-85309523D01*
X114245295Y-85309523D02*
X114483390Y-85309523D01*
X114483390Y-85309523D02*
X114578628Y-85261904D01*
X114578628Y-85261904D02*
X114626247Y-85214285D01*
X114626247Y-85214285D02*
X114673866Y-85119047D01*
X114673866Y-85119047D02*
X114673866Y-84928571D01*
X114673866Y-84928571D02*
X114626247Y-84833333D01*
X114626247Y-84833333D02*
X114578628Y-84785714D01*
X114578628Y-84785714D02*
X114483390Y-84738095D01*
X99804819Y-82066666D02*
X99328628Y-82399999D01*
X99804819Y-82638094D02*
X98804819Y-82638094D01*
X98804819Y-82638094D02*
X98804819Y-82257142D01*
X98804819Y-82257142D02*
X98852438Y-82161904D01*
X98852438Y-82161904D02*
X98900057Y-82114285D01*
X98900057Y-82114285D02*
X98995295Y-82066666D01*
X98995295Y-82066666D02*
X99138152Y-82066666D01*
X99138152Y-82066666D02*
X99233390Y-82114285D01*
X99233390Y-82114285D02*
X99281009Y-82161904D01*
X99281009Y-82161904D02*
X99328628Y-82257142D01*
X99328628Y-82257142D02*
X99328628Y-82638094D01*
X98900057Y-81685713D02*
X98852438Y-81638094D01*
X98852438Y-81638094D02*
X98804819Y-81542856D01*
X98804819Y-81542856D02*
X98804819Y-81304761D01*
X98804819Y-81304761D02*
X98852438Y-81209523D01*
X98852438Y-81209523D02*
X98900057Y-81161904D01*
X98900057Y-81161904D02*
X98995295Y-81114285D01*
X98995295Y-81114285D02*
X99090533Y-81114285D01*
X99090533Y-81114285D02*
X99233390Y-81161904D01*
X99233390Y-81161904D02*
X99804819Y-81733332D01*
X99804819Y-81733332D02*
X99804819Y-81114285D01*
X177657142Y-99359580D02*
X177609523Y-99407200D01*
X177609523Y-99407200D02*
X177466666Y-99454819D01*
X177466666Y-99454819D02*
X177371428Y-99454819D01*
X177371428Y-99454819D02*
X177228571Y-99407200D01*
X177228571Y-99407200D02*
X177133333Y-99311961D01*
X177133333Y-99311961D02*
X177085714Y-99216723D01*
X177085714Y-99216723D02*
X177038095Y-99026247D01*
X177038095Y-99026247D02*
X177038095Y-98883390D01*
X177038095Y-98883390D02*
X177085714Y-98692914D01*
X177085714Y-98692914D02*
X177133333Y-98597676D01*
X177133333Y-98597676D02*
X177228571Y-98502438D01*
X177228571Y-98502438D02*
X177371428Y-98454819D01*
X177371428Y-98454819D02*
X177466666Y-98454819D01*
X177466666Y-98454819D02*
X177609523Y-98502438D01*
X177609523Y-98502438D02*
X177657142Y-98550057D01*
X178514285Y-98788152D02*
X178514285Y-99454819D01*
X178276190Y-98407200D02*
X178038095Y-99121485D01*
X178038095Y-99121485D02*
X178657142Y-99121485D01*
X179228571Y-98454819D02*
X179323809Y-98454819D01*
X179323809Y-98454819D02*
X179419047Y-98502438D01*
X179419047Y-98502438D02*
X179466666Y-98550057D01*
X179466666Y-98550057D02*
X179514285Y-98645295D01*
X179514285Y-98645295D02*
X179561904Y-98835771D01*
X179561904Y-98835771D02*
X179561904Y-99073866D01*
X179561904Y-99073866D02*
X179514285Y-99264342D01*
X179514285Y-99264342D02*
X179466666Y-99359580D01*
X179466666Y-99359580D02*
X179419047Y-99407200D01*
X179419047Y-99407200D02*
X179323809Y-99454819D01*
X179323809Y-99454819D02*
X179228571Y-99454819D01*
X179228571Y-99454819D02*
X179133333Y-99407200D01*
X179133333Y-99407200D02*
X179085714Y-99359580D01*
X179085714Y-99359580D02*
X179038095Y-99264342D01*
X179038095Y-99264342D02*
X178990476Y-99073866D01*
X178990476Y-99073866D02*
X178990476Y-98835771D01*
X178990476Y-98835771D02*
X179038095Y-98645295D01*
X179038095Y-98645295D02*
X179085714Y-98550057D01*
X179085714Y-98550057D02*
X179133333Y-98502438D01*
X179133333Y-98502438D02*
X179228571Y-98454819D01*
X90859580Y-111366666D02*
X90907200Y-111414285D01*
X90907200Y-111414285D02*
X90954819Y-111557142D01*
X90954819Y-111557142D02*
X90954819Y-111652380D01*
X90954819Y-111652380D02*
X90907200Y-111795237D01*
X90907200Y-111795237D02*
X90811961Y-111890475D01*
X90811961Y-111890475D02*
X90716723Y-111938094D01*
X90716723Y-111938094D02*
X90526247Y-111985713D01*
X90526247Y-111985713D02*
X90383390Y-111985713D01*
X90383390Y-111985713D02*
X90192914Y-111938094D01*
X90192914Y-111938094D02*
X90097676Y-111890475D01*
X90097676Y-111890475D02*
X90002438Y-111795237D01*
X90002438Y-111795237D02*
X89954819Y-111652380D01*
X89954819Y-111652380D02*
X89954819Y-111557142D01*
X89954819Y-111557142D02*
X90002438Y-111414285D01*
X90002438Y-111414285D02*
X90050057Y-111366666D01*
X89954819Y-111033332D02*
X89954819Y-110366666D01*
X89954819Y-110366666D02*
X90954819Y-110795237D01*
X172704166Y-98831009D02*
X172370833Y-98831009D01*
X172370833Y-99354819D02*
X172370833Y-98354819D01*
X172370833Y-98354819D02*
X172847023Y-98354819D01*
X173561309Y-98831009D02*
X173704166Y-98878628D01*
X173704166Y-98878628D02*
X173751785Y-98926247D01*
X173751785Y-98926247D02*
X173799404Y-99021485D01*
X173799404Y-99021485D02*
X173799404Y-99164342D01*
X173799404Y-99164342D02*
X173751785Y-99259580D01*
X173751785Y-99259580D02*
X173704166Y-99307200D01*
X173704166Y-99307200D02*
X173608928Y-99354819D01*
X173608928Y-99354819D02*
X173227976Y-99354819D01*
X173227976Y-99354819D02*
X173227976Y-98354819D01*
X173227976Y-98354819D02*
X173561309Y-98354819D01*
X173561309Y-98354819D02*
X173656547Y-98402438D01*
X173656547Y-98402438D02*
X173704166Y-98450057D01*
X173704166Y-98450057D02*
X173751785Y-98545295D01*
X173751785Y-98545295D02*
X173751785Y-98640533D01*
X173751785Y-98640533D02*
X173704166Y-98735771D01*
X173704166Y-98735771D02*
X173656547Y-98783390D01*
X173656547Y-98783390D02*
X173561309Y-98831009D01*
X173561309Y-98831009D02*
X173227976Y-98831009D01*
X174180357Y-98450057D02*
X174227976Y-98402438D01*
X174227976Y-98402438D02*
X174323214Y-98354819D01*
X174323214Y-98354819D02*
X174561309Y-98354819D01*
X174561309Y-98354819D02*
X174656547Y-98402438D01*
X174656547Y-98402438D02*
X174704166Y-98450057D01*
X174704166Y-98450057D02*
X174751785Y-98545295D01*
X174751785Y-98545295D02*
X174751785Y-98640533D01*
X174751785Y-98640533D02*
X174704166Y-98783390D01*
X174704166Y-98783390D02*
X174132738Y-99354819D01*
X174132738Y-99354819D02*
X174751785Y-99354819D01*
X96504819Y-87013094D02*
X95504819Y-87013094D01*
X95504819Y-87013094D02*
X95504819Y-86774999D01*
X95504819Y-86774999D02*
X95552438Y-86632142D01*
X95552438Y-86632142D02*
X95647676Y-86536904D01*
X95647676Y-86536904D02*
X95742914Y-86489285D01*
X95742914Y-86489285D02*
X95933390Y-86441666D01*
X95933390Y-86441666D02*
X96076247Y-86441666D01*
X96076247Y-86441666D02*
X96266723Y-86489285D01*
X96266723Y-86489285D02*
X96361961Y-86536904D01*
X96361961Y-86536904D02*
X96457200Y-86632142D01*
X96457200Y-86632142D02*
X96504819Y-86774999D01*
X96504819Y-86774999D02*
X96504819Y-87013094D01*
X95600057Y-86060713D02*
X95552438Y-86013094D01*
X95552438Y-86013094D02*
X95504819Y-85917856D01*
X95504819Y-85917856D02*
X95504819Y-85679761D01*
X95504819Y-85679761D02*
X95552438Y-85584523D01*
X95552438Y-85584523D02*
X95600057Y-85536904D01*
X95600057Y-85536904D02*
X95695295Y-85489285D01*
X95695295Y-85489285D02*
X95790533Y-85489285D01*
X95790533Y-85489285D02*
X95933390Y-85536904D01*
X95933390Y-85536904D02*
X96504819Y-86108332D01*
X96504819Y-86108332D02*
X96504819Y-85489285D01*
X184357142Y-84709580D02*
X184309523Y-84757200D01*
X184309523Y-84757200D02*
X184166666Y-84804819D01*
X184166666Y-84804819D02*
X184071428Y-84804819D01*
X184071428Y-84804819D02*
X183928571Y-84757200D01*
X183928571Y-84757200D02*
X183833333Y-84661961D01*
X183833333Y-84661961D02*
X183785714Y-84566723D01*
X183785714Y-84566723D02*
X183738095Y-84376247D01*
X183738095Y-84376247D02*
X183738095Y-84233390D01*
X183738095Y-84233390D02*
X183785714Y-84042914D01*
X183785714Y-84042914D02*
X183833333Y-83947676D01*
X183833333Y-83947676D02*
X183928571Y-83852438D01*
X183928571Y-83852438D02*
X184071428Y-83804819D01*
X184071428Y-83804819D02*
X184166666Y-83804819D01*
X184166666Y-83804819D02*
X184309523Y-83852438D01*
X184309523Y-83852438D02*
X184357142Y-83900057D01*
X184690476Y-83804819D02*
X185309523Y-83804819D01*
X185309523Y-83804819D02*
X184976190Y-84185771D01*
X184976190Y-84185771D02*
X185119047Y-84185771D01*
X185119047Y-84185771D02*
X185214285Y-84233390D01*
X185214285Y-84233390D02*
X185261904Y-84281009D01*
X185261904Y-84281009D02*
X185309523Y-84376247D01*
X185309523Y-84376247D02*
X185309523Y-84614342D01*
X185309523Y-84614342D02*
X185261904Y-84709580D01*
X185261904Y-84709580D02*
X185214285Y-84757200D01*
X185214285Y-84757200D02*
X185119047Y-84804819D01*
X185119047Y-84804819D02*
X184833333Y-84804819D01*
X184833333Y-84804819D02*
X184738095Y-84757200D01*
X184738095Y-84757200D02*
X184690476Y-84709580D01*
X186166666Y-84138152D02*
X186166666Y-84804819D01*
X185928571Y-83757200D02*
X185690476Y-84471485D01*
X185690476Y-84471485D02*
X186309523Y-84471485D01*
X181817142Y-71934819D02*
X181483809Y-71458628D01*
X181245714Y-71934819D02*
X181245714Y-70934819D01*
X181245714Y-70934819D02*
X181626666Y-70934819D01*
X181626666Y-70934819D02*
X181721904Y-70982438D01*
X181721904Y-70982438D02*
X181769523Y-71030057D01*
X181769523Y-71030057D02*
X181817142Y-71125295D01*
X181817142Y-71125295D02*
X181817142Y-71268152D01*
X181817142Y-71268152D02*
X181769523Y-71363390D01*
X181769523Y-71363390D02*
X181721904Y-71411009D01*
X181721904Y-71411009D02*
X181626666Y-71458628D01*
X181626666Y-71458628D02*
X181245714Y-71458628D01*
X182198095Y-71030057D02*
X182245714Y-70982438D01*
X182245714Y-70982438D02*
X182340952Y-70934819D01*
X182340952Y-70934819D02*
X182579047Y-70934819D01*
X182579047Y-70934819D02*
X182674285Y-70982438D01*
X182674285Y-70982438D02*
X182721904Y-71030057D01*
X182721904Y-71030057D02*
X182769523Y-71125295D01*
X182769523Y-71125295D02*
X182769523Y-71220533D01*
X182769523Y-71220533D02*
X182721904Y-71363390D01*
X182721904Y-71363390D02*
X182150476Y-71934819D01*
X182150476Y-71934819D02*
X182769523Y-71934819D01*
X183721904Y-71934819D02*
X183150476Y-71934819D01*
X183436190Y-71934819D02*
X183436190Y-70934819D01*
X183436190Y-70934819D02*
X183340952Y-71077676D01*
X183340952Y-71077676D02*
X183245714Y-71172914D01*
X183245714Y-71172914D02*
X183150476Y-71220533D01*
X73838095Y-126754819D02*
X73838095Y-125754819D01*
X73838095Y-126231009D02*
X74409523Y-126231009D01*
X74409523Y-126754819D02*
X74409523Y-125754819D01*
X75314285Y-126088152D02*
X75314285Y-126754819D01*
X75076190Y-125707200D02*
X74838095Y-126421485D01*
X74838095Y-126421485D02*
X75457142Y-126421485D01*
X190057142Y-98609580D02*
X190009523Y-98657200D01*
X190009523Y-98657200D02*
X189866666Y-98704819D01*
X189866666Y-98704819D02*
X189771428Y-98704819D01*
X189771428Y-98704819D02*
X189628571Y-98657200D01*
X189628571Y-98657200D02*
X189533333Y-98561961D01*
X189533333Y-98561961D02*
X189485714Y-98466723D01*
X189485714Y-98466723D02*
X189438095Y-98276247D01*
X189438095Y-98276247D02*
X189438095Y-98133390D01*
X189438095Y-98133390D02*
X189485714Y-97942914D01*
X189485714Y-97942914D02*
X189533333Y-97847676D01*
X189533333Y-97847676D02*
X189628571Y-97752438D01*
X189628571Y-97752438D02*
X189771428Y-97704819D01*
X189771428Y-97704819D02*
X189866666Y-97704819D01*
X189866666Y-97704819D02*
X190009523Y-97752438D01*
X190009523Y-97752438D02*
X190057142Y-97800057D01*
X190390476Y-97704819D02*
X191009523Y-97704819D01*
X191009523Y-97704819D02*
X190676190Y-98085771D01*
X190676190Y-98085771D02*
X190819047Y-98085771D01*
X190819047Y-98085771D02*
X190914285Y-98133390D01*
X190914285Y-98133390D02*
X190961904Y-98181009D01*
X190961904Y-98181009D02*
X191009523Y-98276247D01*
X191009523Y-98276247D02*
X191009523Y-98514342D01*
X191009523Y-98514342D02*
X190961904Y-98609580D01*
X190961904Y-98609580D02*
X190914285Y-98657200D01*
X190914285Y-98657200D02*
X190819047Y-98704819D01*
X190819047Y-98704819D02*
X190533333Y-98704819D01*
X190533333Y-98704819D02*
X190438095Y-98657200D01*
X190438095Y-98657200D02*
X190390476Y-98609580D01*
X191914285Y-97704819D02*
X191438095Y-97704819D01*
X191438095Y-97704819D02*
X191390476Y-98181009D01*
X191390476Y-98181009D02*
X191438095Y-98133390D01*
X191438095Y-98133390D02*
X191533333Y-98085771D01*
X191533333Y-98085771D02*
X191771428Y-98085771D01*
X191771428Y-98085771D02*
X191866666Y-98133390D01*
X191866666Y-98133390D02*
X191914285Y-98181009D01*
X191914285Y-98181009D02*
X191961904Y-98276247D01*
X191961904Y-98276247D02*
X191961904Y-98514342D01*
X191961904Y-98514342D02*
X191914285Y-98609580D01*
X191914285Y-98609580D02*
X191866666Y-98657200D01*
X191866666Y-98657200D02*
X191771428Y-98704819D01*
X191771428Y-98704819D02*
X191533333Y-98704819D01*
X191533333Y-98704819D02*
X191438095Y-98657200D01*
X191438095Y-98657200D02*
X191390476Y-98609580D01*
X80009524Y-68919104D02*
X80485714Y-68919104D01*
X79914286Y-69204819D02*
X80247619Y-68204819D01*
X80247619Y-68204819D02*
X80580952Y-69204819D01*
X80914286Y-69204819D02*
X80914286Y-68204819D01*
X80914286Y-68204819D02*
X81247619Y-68919104D01*
X81247619Y-68919104D02*
X81580952Y-68204819D01*
X81580952Y-68204819D02*
X81580952Y-69204819D01*
X82009524Y-69157200D02*
X82152381Y-69204819D01*
X82152381Y-69204819D02*
X82390476Y-69204819D01*
X82390476Y-69204819D02*
X82485714Y-69157200D01*
X82485714Y-69157200D02*
X82533333Y-69109580D01*
X82533333Y-69109580D02*
X82580952Y-69014342D01*
X82580952Y-69014342D02*
X82580952Y-68919104D01*
X82580952Y-68919104D02*
X82533333Y-68823866D01*
X82533333Y-68823866D02*
X82485714Y-68776247D01*
X82485714Y-68776247D02*
X82390476Y-68728628D01*
X82390476Y-68728628D02*
X82200000Y-68681009D01*
X82200000Y-68681009D02*
X82104762Y-68633390D01*
X82104762Y-68633390D02*
X82057143Y-68585771D01*
X82057143Y-68585771D02*
X82009524Y-68490533D01*
X82009524Y-68490533D02*
X82009524Y-68395295D01*
X82009524Y-68395295D02*
X82057143Y-68300057D01*
X82057143Y-68300057D02*
X82104762Y-68252438D01*
X82104762Y-68252438D02*
X82200000Y-68204819D01*
X82200000Y-68204819D02*
X82438095Y-68204819D01*
X82438095Y-68204819D02*
X82580952Y-68252438D01*
X83533333Y-69204819D02*
X82961905Y-69204819D01*
X83247619Y-69204819D02*
X83247619Y-68204819D01*
X83247619Y-68204819D02*
X83152381Y-68347676D01*
X83152381Y-68347676D02*
X83057143Y-68442914D01*
X83057143Y-68442914D02*
X82961905Y-68490533D01*
X84485714Y-69204819D02*
X83914286Y-69204819D01*
X84200000Y-69204819D02*
X84200000Y-68204819D01*
X84200000Y-68204819D02*
X84104762Y-68347676D01*
X84104762Y-68347676D02*
X84009524Y-68442914D01*
X84009524Y-68442914D02*
X83914286Y-68490533D01*
X85438095Y-69204819D02*
X84866667Y-69204819D01*
X85152381Y-69204819D02*
X85152381Y-68204819D01*
X85152381Y-68204819D02*
X85057143Y-68347676D01*
X85057143Y-68347676D02*
X84961905Y-68442914D01*
X84961905Y-68442914D02*
X84866667Y-68490533D01*
X85771429Y-68204819D02*
X86438095Y-68204819D01*
X86438095Y-68204819D02*
X86009524Y-69204819D01*
X86819048Y-68823866D02*
X87580953Y-68823866D01*
X87961905Y-68204819D02*
X88580952Y-68204819D01*
X88580952Y-68204819D02*
X88247619Y-68585771D01*
X88247619Y-68585771D02*
X88390476Y-68585771D01*
X88390476Y-68585771D02*
X88485714Y-68633390D01*
X88485714Y-68633390D02*
X88533333Y-68681009D01*
X88533333Y-68681009D02*
X88580952Y-68776247D01*
X88580952Y-68776247D02*
X88580952Y-69014342D01*
X88580952Y-69014342D02*
X88533333Y-69109580D01*
X88533333Y-69109580D02*
X88485714Y-69157200D01*
X88485714Y-69157200D02*
X88390476Y-69204819D01*
X88390476Y-69204819D02*
X88104762Y-69204819D01*
X88104762Y-69204819D02*
X88009524Y-69157200D01*
X88009524Y-69157200D02*
X87961905Y-69109580D01*
X88866667Y-68204819D02*
X89200000Y-69204819D01*
X89200000Y-69204819D02*
X89533333Y-68204819D01*
X89771429Y-68204819D02*
X90390476Y-68204819D01*
X90390476Y-68204819D02*
X90057143Y-68585771D01*
X90057143Y-68585771D02*
X90200000Y-68585771D01*
X90200000Y-68585771D02*
X90295238Y-68633390D01*
X90295238Y-68633390D02*
X90342857Y-68681009D01*
X90342857Y-68681009D02*
X90390476Y-68776247D01*
X90390476Y-68776247D02*
X90390476Y-69014342D01*
X90390476Y-69014342D02*
X90342857Y-69109580D01*
X90342857Y-69109580D02*
X90295238Y-69157200D01*
X90295238Y-69157200D02*
X90200000Y-69204819D01*
X90200000Y-69204819D02*
X89914286Y-69204819D01*
X89914286Y-69204819D02*
X89819048Y-69157200D01*
X89819048Y-69157200D02*
X89771429Y-69109580D01*
X147677142Y-79624819D02*
X147343809Y-79148628D01*
X147105714Y-79624819D02*
X147105714Y-78624819D01*
X147105714Y-78624819D02*
X147486666Y-78624819D01*
X147486666Y-78624819D02*
X147581904Y-78672438D01*
X147581904Y-78672438D02*
X147629523Y-78720057D01*
X147629523Y-78720057D02*
X147677142Y-78815295D01*
X147677142Y-78815295D02*
X147677142Y-78958152D01*
X147677142Y-78958152D02*
X147629523Y-79053390D01*
X147629523Y-79053390D02*
X147581904Y-79101009D01*
X147581904Y-79101009D02*
X147486666Y-79148628D01*
X147486666Y-79148628D02*
X147105714Y-79148628D01*
X148629523Y-79624819D02*
X148058095Y-79624819D01*
X148343809Y-79624819D02*
X148343809Y-78624819D01*
X148343809Y-78624819D02*
X148248571Y-78767676D01*
X148248571Y-78767676D02*
X148153333Y-78862914D01*
X148153333Y-78862914D02*
X148058095Y-78910533D01*
X149534285Y-78624819D02*
X149058095Y-78624819D01*
X149058095Y-78624819D02*
X149010476Y-79101009D01*
X149010476Y-79101009D02*
X149058095Y-79053390D01*
X149058095Y-79053390D02*
X149153333Y-79005771D01*
X149153333Y-79005771D02*
X149391428Y-79005771D01*
X149391428Y-79005771D02*
X149486666Y-79053390D01*
X149486666Y-79053390D02*
X149534285Y-79101009D01*
X149534285Y-79101009D02*
X149581904Y-79196247D01*
X149581904Y-79196247D02*
X149581904Y-79434342D01*
X149581904Y-79434342D02*
X149534285Y-79529580D01*
X149534285Y-79529580D02*
X149486666Y-79577200D01*
X149486666Y-79577200D02*
X149391428Y-79624819D01*
X149391428Y-79624819D02*
X149153333Y-79624819D01*
X149153333Y-79624819D02*
X149058095Y-79577200D01*
X149058095Y-79577200D02*
X149010476Y-79529580D01*
X180895833Y-102979580D02*
X180848214Y-103027200D01*
X180848214Y-103027200D02*
X180705357Y-103074819D01*
X180705357Y-103074819D02*
X180610119Y-103074819D01*
X180610119Y-103074819D02*
X180467262Y-103027200D01*
X180467262Y-103027200D02*
X180372024Y-102931961D01*
X180372024Y-102931961D02*
X180324405Y-102836723D01*
X180324405Y-102836723D02*
X180276786Y-102646247D01*
X180276786Y-102646247D02*
X180276786Y-102503390D01*
X180276786Y-102503390D02*
X180324405Y-102312914D01*
X180324405Y-102312914D02*
X180372024Y-102217676D01*
X180372024Y-102217676D02*
X180467262Y-102122438D01*
X180467262Y-102122438D02*
X180610119Y-102074819D01*
X180610119Y-102074819D02*
X180705357Y-102074819D01*
X180705357Y-102074819D02*
X180848214Y-102122438D01*
X180848214Y-102122438D02*
X180895833Y-102170057D01*
X181372024Y-103074819D02*
X181562500Y-103074819D01*
X181562500Y-103074819D02*
X181657738Y-103027200D01*
X181657738Y-103027200D02*
X181705357Y-102979580D01*
X181705357Y-102979580D02*
X181800595Y-102836723D01*
X181800595Y-102836723D02*
X181848214Y-102646247D01*
X181848214Y-102646247D02*
X181848214Y-102265295D01*
X181848214Y-102265295D02*
X181800595Y-102170057D01*
X181800595Y-102170057D02*
X181752976Y-102122438D01*
X181752976Y-102122438D02*
X181657738Y-102074819D01*
X181657738Y-102074819D02*
X181467262Y-102074819D01*
X181467262Y-102074819D02*
X181372024Y-102122438D01*
X181372024Y-102122438D02*
X181324405Y-102170057D01*
X181324405Y-102170057D02*
X181276786Y-102265295D01*
X181276786Y-102265295D02*
X181276786Y-102503390D01*
X181276786Y-102503390D02*
X181324405Y-102598628D01*
X181324405Y-102598628D02*
X181372024Y-102646247D01*
X181372024Y-102646247D02*
X181467262Y-102693866D01*
X181467262Y-102693866D02*
X181657738Y-102693866D01*
X181657738Y-102693866D02*
X181752976Y-102646247D01*
X181752976Y-102646247D02*
X181800595Y-102598628D01*
X181800595Y-102598628D02*
X181848214Y-102503390D01*
X133780057Y-116625238D02*
X133732438Y-116720476D01*
X133732438Y-116720476D02*
X133637200Y-116815714D01*
X133637200Y-116815714D02*
X133494342Y-116958571D01*
X133494342Y-116958571D02*
X133446723Y-117053809D01*
X133446723Y-117053809D02*
X133446723Y-117149047D01*
X133684819Y-117101428D02*
X133637200Y-117196666D01*
X133637200Y-117196666D02*
X133541961Y-117291904D01*
X133541961Y-117291904D02*
X133351485Y-117339523D01*
X133351485Y-117339523D02*
X133018152Y-117339523D01*
X133018152Y-117339523D02*
X132827676Y-117291904D01*
X132827676Y-117291904D02*
X132732438Y-117196666D01*
X132732438Y-117196666D02*
X132684819Y-117101428D01*
X132684819Y-117101428D02*
X132684819Y-116910952D01*
X132684819Y-116910952D02*
X132732438Y-116815714D01*
X132732438Y-116815714D02*
X132827676Y-116720476D01*
X132827676Y-116720476D02*
X133018152Y-116672857D01*
X133018152Y-116672857D02*
X133351485Y-116672857D01*
X133351485Y-116672857D02*
X133541961Y-116720476D01*
X133541961Y-116720476D02*
X133637200Y-116815714D01*
X133637200Y-116815714D02*
X133684819Y-116910952D01*
X133684819Y-116910952D02*
X133684819Y-117101428D01*
X133018152Y-115815714D02*
X133684819Y-115815714D01*
X132637200Y-116053809D02*
X133351485Y-116291904D01*
X133351485Y-116291904D02*
X133351485Y-115672857D01*
X176959580Y-79742857D02*
X177007200Y-79790476D01*
X177007200Y-79790476D02*
X177054819Y-79933333D01*
X177054819Y-79933333D02*
X177054819Y-80028571D01*
X177054819Y-80028571D02*
X177007200Y-80171428D01*
X177007200Y-80171428D02*
X176911961Y-80266666D01*
X176911961Y-80266666D02*
X176816723Y-80314285D01*
X176816723Y-80314285D02*
X176626247Y-80361904D01*
X176626247Y-80361904D02*
X176483390Y-80361904D01*
X176483390Y-80361904D02*
X176292914Y-80314285D01*
X176292914Y-80314285D02*
X176197676Y-80266666D01*
X176197676Y-80266666D02*
X176102438Y-80171428D01*
X176102438Y-80171428D02*
X176054819Y-80028571D01*
X176054819Y-80028571D02*
X176054819Y-79933333D01*
X176054819Y-79933333D02*
X176102438Y-79790476D01*
X176102438Y-79790476D02*
X176150057Y-79742857D01*
X176054819Y-79409523D02*
X176054819Y-78790476D01*
X176054819Y-78790476D02*
X176435771Y-79123809D01*
X176435771Y-79123809D02*
X176435771Y-78980952D01*
X176435771Y-78980952D02*
X176483390Y-78885714D01*
X176483390Y-78885714D02*
X176531009Y-78838095D01*
X176531009Y-78838095D02*
X176626247Y-78790476D01*
X176626247Y-78790476D02*
X176864342Y-78790476D01*
X176864342Y-78790476D02*
X176959580Y-78838095D01*
X176959580Y-78838095D02*
X177007200Y-78885714D01*
X177007200Y-78885714D02*
X177054819Y-78980952D01*
X177054819Y-78980952D02*
X177054819Y-79266666D01*
X177054819Y-79266666D02*
X177007200Y-79361904D01*
X177007200Y-79361904D02*
X176959580Y-79409523D01*
X176483390Y-78219047D02*
X176435771Y-78314285D01*
X176435771Y-78314285D02*
X176388152Y-78361904D01*
X176388152Y-78361904D02*
X176292914Y-78409523D01*
X176292914Y-78409523D02*
X176245295Y-78409523D01*
X176245295Y-78409523D02*
X176150057Y-78361904D01*
X176150057Y-78361904D02*
X176102438Y-78314285D01*
X176102438Y-78314285D02*
X176054819Y-78219047D01*
X176054819Y-78219047D02*
X176054819Y-78028571D01*
X176054819Y-78028571D02*
X176102438Y-77933333D01*
X176102438Y-77933333D02*
X176150057Y-77885714D01*
X176150057Y-77885714D02*
X176245295Y-77838095D01*
X176245295Y-77838095D02*
X176292914Y-77838095D01*
X176292914Y-77838095D02*
X176388152Y-77885714D01*
X176388152Y-77885714D02*
X176435771Y-77933333D01*
X176435771Y-77933333D02*
X176483390Y-78028571D01*
X176483390Y-78028571D02*
X176483390Y-78219047D01*
X176483390Y-78219047D02*
X176531009Y-78314285D01*
X176531009Y-78314285D02*
X176578628Y-78361904D01*
X176578628Y-78361904D02*
X176673866Y-78409523D01*
X176673866Y-78409523D02*
X176864342Y-78409523D01*
X176864342Y-78409523D02*
X176959580Y-78361904D01*
X176959580Y-78361904D02*
X177007200Y-78314285D01*
X177007200Y-78314285D02*
X177054819Y-78219047D01*
X177054819Y-78219047D02*
X177054819Y-78028571D01*
X177054819Y-78028571D02*
X177007200Y-77933333D01*
X177007200Y-77933333D02*
X176959580Y-77885714D01*
X176959580Y-77885714D02*
X176864342Y-77838095D01*
X176864342Y-77838095D02*
X176673866Y-77838095D01*
X176673866Y-77838095D02*
X176578628Y-77885714D01*
X176578628Y-77885714D02*
X176531009Y-77933333D01*
X176531009Y-77933333D02*
X176483390Y-78028571D01*
X142945057Y-116625238D02*
X142897438Y-116720476D01*
X142897438Y-116720476D02*
X142802200Y-116815714D01*
X142802200Y-116815714D02*
X142659342Y-116958571D01*
X142659342Y-116958571D02*
X142611723Y-117053809D01*
X142611723Y-117053809D02*
X142611723Y-117149047D01*
X142849819Y-117101428D02*
X142802200Y-117196666D01*
X142802200Y-117196666D02*
X142706961Y-117291904D01*
X142706961Y-117291904D02*
X142516485Y-117339523D01*
X142516485Y-117339523D02*
X142183152Y-117339523D01*
X142183152Y-117339523D02*
X141992676Y-117291904D01*
X141992676Y-117291904D02*
X141897438Y-117196666D01*
X141897438Y-117196666D02*
X141849819Y-117101428D01*
X141849819Y-117101428D02*
X141849819Y-116910952D01*
X141849819Y-116910952D02*
X141897438Y-116815714D01*
X141897438Y-116815714D02*
X141992676Y-116720476D01*
X141992676Y-116720476D02*
X142183152Y-116672857D01*
X142183152Y-116672857D02*
X142516485Y-116672857D01*
X142516485Y-116672857D02*
X142706961Y-116720476D01*
X142706961Y-116720476D02*
X142802200Y-116815714D01*
X142802200Y-116815714D02*
X142849819Y-116910952D01*
X142849819Y-116910952D02*
X142849819Y-117101428D01*
X141849819Y-115768095D02*
X141849819Y-116244285D01*
X141849819Y-116244285D02*
X142326009Y-116291904D01*
X142326009Y-116291904D02*
X142278390Y-116244285D01*
X142278390Y-116244285D02*
X142230771Y-116149047D01*
X142230771Y-116149047D02*
X142230771Y-115910952D01*
X142230771Y-115910952D02*
X142278390Y-115815714D01*
X142278390Y-115815714D02*
X142326009Y-115768095D01*
X142326009Y-115768095D02*
X142421247Y-115720476D01*
X142421247Y-115720476D02*
X142659342Y-115720476D01*
X142659342Y-115720476D02*
X142754580Y-115768095D01*
X142754580Y-115768095D02*
X142802200Y-115815714D01*
X142802200Y-115815714D02*
X142849819Y-115910952D01*
X142849819Y-115910952D02*
X142849819Y-116149047D01*
X142849819Y-116149047D02*
X142802200Y-116244285D01*
X142802200Y-116244285D02*
X142754580Y-116291904D01*
X115450057Y-116625238D02*
X115402438Y-116720476D01*
X115402438Y-116720476D02*
X115307200Y-116815714D01*
X115307200Y-116815714D02*
X115164342Y-116958571D01*
X115164342Y-116958571D02*
X115116723Y-117053809D01*
X115116723Y-117053809D02*
X115116723Y-117149047D01*
X115354819Y-117101428D02*
X115307200Y-117196666D01*
X115307200Y-117196666D02*
X115211961Y-117291904D01*
X115211961Y-117291904D02*
X115021485Y-117339523D01*
X115021485Y-117339523D02*
X114688152Y-117339523D01*
X114688152Y-117339523D02*
X114497676Y-117291904D01*
X114497676Y-117291904D02*
X114402438Y-117196666D01*
X114402438Y-117196666D02*
X114354819Y-117101428D01*
X114354819Y-117101428D02*
X114354819Y-116910952D01*
X114354819Y-116910952D02*
X114402438Y-116815714D01*
X114402438Y-116815714D02*
X114497676Y-116720476D01*
X114497676Y-116720476D02*
X114688152Y-116672857D01*
X114688152Y-116672857D02*
X115021485Y-116672857D01*
X115021485Y-116672857D02*
X115211961Y-116720476D01*
X115211961Y-116720476D02*
X115307200Y-116815714D01*
X115307200Y-116815714D02*
X115354819Y-116910952D01*
X115354819Y-116910952D02*
X115354819Y-117101428D01*
X114450057Y-116291904D02*
X114402438Y-116244285D01*
X114402438Y-116244285D02*
X114354819Y-116149047D01*
X114354819Y-116149047D02*
X114354819Y-115910952D01*
X114354819Y-115910952D02*
X114402438Y-115815714D01*
X114402438Y-115815714D02*
X114450057Y-115768095D01*
X114450057Y-115768095D02*
X114545295Y-115720476D01*
X114545295Y-115720476D02*
X114640533Y-115720476D01*
X114640533Y-115720476D02*
X114783390Y-115768095D01*
X114783390Y-115768095D02*
X115354819Y-116339523D01*
X115354819Y-116339523D02*
X115354819Y-115720476D01*
X149819642Y-105239580D02*
X149772023Y-105287200D01*
X149772023Y-105287200D02*
X149629166Y-105334819D01*
X149629166Y-105334819D02*
X149533928Y-105334819D01*
X149533928Y-105334819D02*
X149391071Y-105287200D01*
X149391071Y-105287200D02*
X149295833Y-105191961D01*
X149295833Y-105191961D02*
X149248214Y-105096723D01*
X149248214Y-105096723D02*
X149200595Y-104906247D01*
X149200595Y-104906247D02*
X149200595Y-104763390D01*
X149200595Y-104763390D02*
X149248214Y-104572914D01*
X149248214Y-104572914D02*
X149295833Y-104477676D01*
X149295833Y-104477676D02*
X149391071Y-104382438D01*
X149391071Y-104382438D02*
X149533928Y-104334819D01*
X149533928Y-104334819D02*
X149629166Y-104334819D01*
X149629166Y-104334819D02*
X149772023Y-104382438D01*
X149772023Y-104382438D02*
X149819642Y-104430057D01*
X150676785Y-104668152D02*
X150676785Y-105334819D01*
X150438690Y-104287200D02*
X150200595Y-105001485D01*
X150200595Y-105001485D02*
X150819642Y-105001485D01*
X151152976Y-104430057D02*
X151200595Y-104382438D01*
X151200595Y-104382438D02*
X151295833Y-104334819D01*
X151295833Y-104334819D02*
X151533928Y-104334819D01*
X151533928Y-104334819D02*
X151629166Y-104382438D01*
X151629166Y-104382438D02*
X151676785Y-104430057D01*
X151676785Y-104430057D02*
X151724404Y-104525295D01*
X151724404Y-104525295D02*
X151724404Y-104620533D01*
X151724404Y-104620533D02*
X151676785Y-104763390D01*
X151676785Y-104763390D02*
X151105357Y-105334819D01*
X151105357Y-105334819D02*
X151724404Y-105334819D01*
X155709580Y-92342857D02*
X155757200Y-92390476D01*
X155757200Y-92390476D02*
X155804819Y-92533333D01*
X155804819Y-92533333D02*
X155804819Y-92628571D01*
X155804819Y-92628571D02*
X155757200Y-92771428D01*
X155757200Y-92771428D02*
X155661961Y-92866666D01*
X155661961Y-92866666D02*
X155566723Y-92914285D01*
X155566723Y-92914285D02*
X155376247Y-92961904D01*
X155376247Y-92961904D02*
X155233390Y-92961904D01*
X155233390Y-92961904D02*
X155042914Y-92914285D01*
X155042914Y-92914285D02*
X154947676Y-92866666D01*
X154947676Y-92866666D02*
X154852438Y-92771428D01*
X154852438Y-92771428D02*
X154804819Y-92628571D01*
X154804819Y-92628571D02*
X154804819Y-92533333D01*
X154804819Y-92533333D02*
X154852438Y-92390476D01*
X154852438Y-92390476D02*
X154900057Y-92342857D01*
X155804819Y-91390476D02*
X155804819Y-91961904D01*
X155804819Y-91676190D02*
X154804819Y-91676190D01*
X154804819Y-91676190D02*
X154947676Y-91771428D01*
X154947676Y-91771428D02*
X155042914Y-91866666D01*
X155042914Y-91866666D02*
X155090533Y-91961904D01*
X155138152Y-90533333D02*
X155804819Y-90533333D01*
X154757200Y-90771428D02*
X155471485Y-91009523D01*
X155471485Y-91009523D02*
X155471485Y-90390476D01*
X141789580Y-102942857D02*
X141837200Y-102990476D01*
X141837200Y-102990476D02*
X141884819Y-103133333D01*
X141884819Y-103133333D02*
X141884819Y-103228571D01*
X141884819Y-103228571D02*
X141837200Y-103371428D01*
X141837200Y-103371428D02*
X141741961Y-103466666D01*
X141741961Y-103466666D02*
X141646723Y-103514285D01*
X141646723Y-103514285D02*
X141456247Y-103561904D01*
X141456247Y-103561904D02*
X141313390Y-103561904D01*
X141313390Y-103561904D02*
X141122914Y-103514285D01*
X141122914Y-103514285D02*
X141027676Y-103466666D01*
X141027676Y-103466666D02*
X140932438Y-103371428D01*
X140932438Y-103371428D02*
X140884819Y-103228571D01*
X140884819Y-103228571D02*
X140884819Y-103133333D01*
X140884819Y-103133333D02*
X140932438Y-102990476D01*
X140932438Y-102990476D02*
X140980057Y-102942857D01*
X141884819Y-101990476D02*
X141884819Y-102561904D01*
X141884819Y-102276190D02*
X140884819Y-102276190D01*
X140884819Y-102276190D02*
X141027676Y-102371428D01*
X141027676Y-102371428D02*
X141122914Y-102466666D01*
X141122914Y-102466666D02*
X141170533Y-102561904D01*
X140884819Y-101657142D02*
X140884819Y-100990476D01*
X140884819Y-100990476D02*
X141884819Y-101419047D01*
X202556667Y-67117200D02*
X202699524Y-67164819D01*
X202699524Y-67164819D02*
X202937619Y-67164819D01*
X202937619Y-67164819D02*
X203032857Y-67117200D01*
X203032857Y-67117200D02*
X203080476Y-67069580D01*
X203080476Y-67069580D02*
X203128095Y-66974342D01*
X203128095Y-66974342D02*
X203128095Y-66879104D01*
X203128095Y-66879104D02*
X203080476Y-66783866D01*
X203080476Y-66783866D02*
X203032857Y-66736247D01*
X203032857Y-66736247D02*
X202937619Y-66688628D01*
X202937619Y-66688628D02*
X202747143Y-66641009D01*
X202747143Y-66641009D02*
X202651905Y-66593390D01*
X202651905Y-66593390D02*
X202604286Y-66545771D01*
X202604286Y-66545771D02*
X202556667Y-66450533D01*
X202556667Y-66450533D02*
X202556667Y-66355295D01*
X202556667Y-66355295D02*
X202604286Y-66260057D01*
X202604286Y-66260057D02*
X202651905Y-66212438D01*
X202651905Y-66212438D02*
X202747143Y-66164819D01*
X202747143Y-66164819D02*
X202985238Y-66164819D01*
X202985238Y-66164819D02*
X203128095Y-66212438D01*
X203461429Y-66164819D02*
X203699524Y-67164819D01*
X203699524Y-67164819D02*
X203890000Y-66450533D01*
X203890000Y-66450533D02*
X204080476Y-67164819D01*
X204080476Y-67164819D02*
X204318572Y-66164819D01*
X204651905Y-66260057D02*
X204699524Y-66212438D01*
X204699524Y-66212438D02*
X204794762Y-66164819D01*
X204794762Y-66164819D02*
X205032857Y-66164819D01*
X205032857Y-66164819D02*
X205128095Y-66212438D01*
X205128095Y-66212438D02*
X205175714Y-66260057D01*
X205175714Y-66260057D02*
X205223333Y-66355295D01*
X205223333Y-66355295D02*
X205223333Y-66450533D01*
X205223333Y-66450533D02*
X205175714Y-66593390D01*
X205175714Y-66593390D02*
X204604286Y-67164819D01*
X204604286Y-67164819D02*
X205223333Y-67164819D01*
X116157142Y-100159580D02*
X116109523Y-100207200D01*
X116109523Y-100207200D02*
X115966666Y-100254819D01*
X115966666Y-100254819D02*
X115871428Y-100254819D01*
X115871428Y-100254819D02*
X115728571Y-100207200D01*
X115728571Y-100207200D02*
X115633333Y-100111961D01*
X115633333Y-100111961D02*
X115585714Y-100016723D01*
X115585714Y-100016723D02*
X115538095Y-99826247D01*
X115538095Y-99826247D02*
X115538095Y-99683390D01*
X115538095Y-99683390D02*
X115585714Y-99492914D01*
X115585714Y-99492914D02*
X115633333Y-99397676D01*
X115633333Y-99397676D02*
X115728571Y-99302438D01*
X115728571Y-99302438D02*
X115871428Y-99254819D01*
X115871428Y-99254819D02*
X115966666Y-99254819D01*
X115966666Y-99254819D02*
X116109523Y-99302438D01*
X116109523Y-99302438D02*
X116157142Y-99350057D01*
X117109523Y-100254819D02*
X116538095Y-100254819D01*
X116823809Y-100254819D02*
X116823809Y-99254819D01*
X116823809Y-99254819D02*
X116728571Y-99397676D01*
X116728571Y-99397676D02*
X116633333Y-99492914D01*
X116633333Y-99492914D02*
X116538095Y-99540533D01*
X117490476Y-99350057D02*
X117538095Y-99302438D01*
X117538095Y-99302438D02*
X117633333Y-99254819D01*
X117633333Y-99254819D02*
X117871428Y-99254819D01*
X117871428Y-99254819D02*
X117966666Y-99302438D01*
X117966666Y-99302438D02*
X118014285Y-99350057D01*
X118014285Y-99350057D02*
X118061904Y-99445295D01*
X118061904Y-99445295D02*
X118061904Y-99540533D01*
X118061904Y-99540533D02*
X118014285Y-99683390D01*
X118014285Y-99683390D02*
X117442857Y-100254819D01*
X117442857Y-100254819D02*
X118061904Y-100254819D01*
X188139580Y-121942857D02*
X188187200Y-121990476D01*
X188187200Y-121990476D02*
X188234819Y-122133333D01*
X188234819Y-122133333D02*
X188234819Y-122228571D01*
X188234819Y-122228571D02*
X188187200Y-122371428D01*
X188187200Y-122371428D02*
X188091961Y-122466666D01*
X188091961Y-122466666D02*
X187996723Y-122514285D01*
X187996723Y-122514285D02*
X187806247Y-122561904D01*
X187806247Y-122561904D02*
X187663390Y-122561904D01*
X187663390Y-122561904D02*
X187472914Y-122514285D01*
X187472914Y-122514285D02*
X187377676Y-122466666D01*
X187377676Y-122466666D02*
X187282438Y-122371428D01*
X187282438Y-122371428D02*
X187234819Y-122228571D01*
X187234819Y-122228571D02*
X187234819Y-122133333D01*
X187234819Y-122133333D02*
X187282438Y-121990476D01*
X187282438Y-121990476D02*
X187330057Y-121942857D01*
X188234819Y-120990476D02*
X188234819Y-121561904D01*
X188234819Y-121276190D02*
X187234819Y-121276190D01*
X187234819Y-121276190D02*
X187377676Y-121371428D01*
X187377676Y-121371428D02*
X187472914Y-121466666D01*
X187472914Y-121466666D02*
X187520533Y-121561904D01*
X187234819Y-120371428D02*
X187234819Y-120276190D01*
X187234819Y-120276190D02*
X187282438Y-120180952D01*
X187282438Y-120180952D02*
X187330057Y-120133333D01*
X187330057Y-120133333D02*
X187425295Y-120085714D01*
X187425295Y-120085714D02*
X187615771Y-120038095D01*
X187615771Y-120038095D02*
X187853866Y-120038095D01*
X187853866Y-120038095D02*
X188044342Y-120085714D01*
X188044342Y-120085714D02*
X188139580Y-120133333D01*
X188139580Y-120133333D02*
X188187200Y-120180952D01*
X188187200Y-120180952D02*
X188234819Y-120276190D01*
X188234819Y-120276190D02*
X188234819Y-120371428D01*
X188234819Y-120371428D02*
X188187200Y-120466666D01*
X188187200Y-120466666D02*
X188139580Y-120514285D01*
X188139580Y-120514285D02*
X188044342Y-120561904D01*
X188044342Y-120561904D02*
X187853866Y-120609523D01*
X187853866Y-120609523D02*
X187615771Y-120609523D01*
X187615771Y-120609523D02*
X187425295Y-120561904D01*
X187425295Y-120561904D02*
X187330057Y-120514285D01*
X187330057Y-120514285D02*
X187282438Y-120466666D01*
X187282438Y-120466666D02*
X187234819Y-120371428D01*
X89743333Y-98454819D02*
X89410000Y-97978628D01*
X89171905Y-98454819D02*
X89171905Y-97454819D01*
X89171905Y-97454819D02*
X89552857Y-97454819D01*
X89552857Y-97454819D02*
X89648095Y-97502438D01*
X89648095Y-97502438D02*
X89695714Y-97550057D01*
X89695714Y-97550057D02*
X89743333Y-97645295D01*
X89743333Y-97645295D02*
X89743333Y-97788152D01*
X89743333Y-97788152D02*
X89695714Y-97883390D01*
X89695714Y-97883390D02*
X89648095Y-97931009D01*
X89648095Y-97931009D02*
X89552857Y-97978628D01*
X89552857Y-97978628D02*
X89171905Y-97978628D01*
X90600476Y-97788152D02*
X90600476Y-98454819D01*
X90362381Y-97407200D02*
X90124286Y-98121485D01*
X90124286Y-98121485D02*
X90743333Y-98121485D01*
X94939580Y-82166666D02*
X94987200Y-82214285D01*
X94987200Y-82214285D02*
X95034819Y-82357142D01*
X95034819Y-82357142D02*
X95034819Y-82452380D01*
X95034819Y-82452380D02*
X94987200Y-82595237D01*
X94987200Y-82595237D02*
X94891961Y-82690475D01*
X94891961Y-82690475D02*
X94796723Y-82738094D01*
X94796723Y-82738094D02*
X94606247Y-82785713D01*
X94606247Y-82785713D02*
X94463390Y-82785713D01*
X94463390Y-82785713D02*
X94272914Y-82738094D01*
X94272914Y-82738094D02*
X94177676Y-82690475D01*
X94177676Y-82690475D02*
X94082438Y-82595237D01*
X94082438Y-82595237D02*
X94034819Y-82452380D01*
X94034819Y-82452380D02*
X94034819Y-82357142D01*
X94034819Y-82357142D02*
X94082438Y-82214285D01*
X94082438Y-82214285D02*
X94130057Y-82166666D01*
X94368152Y-81309523D02*
X95034819Y-81309523D01*
X93987200Y-81547618D02*
X94701485Y-81785713D01*
X94701485Y-81785713D02*
X94701485Y-81166666D01*
X85373333Y-107134819D02*
X85040000Y-106658628D01*
X84801905Y-107134819D02*
X84801905Y-106134819D01*
X84801905Y-106134819D02*
X85182857Y-106134819D01*
X85182857Y-106134819D02*
X85278095Y-106182438D01*
X85278095Y-106182438D02*
X85325714Y-106230057D01*
X85325714Y-106230057D02*
X85373333Y-106325295D01*
X85373333Y-106325295D02*
X85373333Y-106468152D01*
X85373333Y-106468152D02*
X85325714Y-106563390D01*
X85325714Y-106563390D02*
X85278095Y-106611009D01*
X85278095Y-106611009D02*
X85182857Y-106658628D01*
X85182857Y-106658628D02*
X84801905Y-106658628D01*
X86230476Y-106134819D02*
X86040000Y-106134819D01*
X86040000Y-106134819D02*
X85944762Y-106182438D01*
X85944762Y-106182438D02*
X85897143Y-106230057D01*
X85897143Y-106230057D02*
X85801905Y-106372914D01*
X85801905Y-106372914D02*
X85754286Y-106563390D01*
X85754286Y-106563390D02*
X85754286Y-106944342D01*
X85754286Y-106944342D02*
X85801905Y-107039580D01*
X85801905Y-107039580D02*
X85849524Y-107087200D01*
X85849524Y-107087200D02*
X85944762Y-107134819D01*
X85944762Y-107134819D02*
X86135238Y-107134819D01*
X86135238Y-107134819D02*
X86230476Y-107087200D01*
X86230476Y-107087200D02*
X86278095Y-107039580D01*
X86278095Y-107039580D02*
X86325714Y-106944342D01*
X86325714Y-106944342D02*
X86325714Y-106706247D01*
X86325714Y-106706247D02*
X86278095Y-106611009D01*
X86278095Y-106611009D02*
X86230476Y-106563390D01*
X86230476Y-106563390D02*
X86135238Y-106515771D01*
X86135238Y-106515771D02*
X85944762Y-106515771D01*
X85944762Y-106515771D02*
X85849524Y-106563390D01*
X85849524Y-106563390D02*
X85801905Y-106611009D01*
X85801905Y-106611009D02*
X85754286Y-106706247D01*
D11*
%TO.C,R7*%
X115420000Y-77830000D02*
X111580000Y-77830000D01*
X115420000Y-79670000D02*
X111580000Y-79670000D01*
%TO.C,SLAVE_MCU1*%
X162960000Y-75590000D02*
X162960000Y-111270000D01*
X162960000Y-111270000D02*
X168260000Y-111270000D01*
X164610000Y-75590000D02*
X162960000Y-75590000D01*
X168260000Y-75590000D02*
X166610000Y-75590000D01*
X168260000Y-111270000D02*
X168260000Y-75590000D01*
X166610000Y-75590000D02*
G75*
G02*
X164610000Y-75590000I-1000000J0D01*
G01*
%TO.C,C20*%
X171265000Y-93723752D02*
X171265000Y-93201248D01*
X172735000Y-93723752D02*
X172735000Y-93201248D01*
%TO.C,SW1*%
X71040000Y-76500000D02*
X71040000Y-77500000D01*
X71040000Y-77500000D02*
X71540000Y-77000000D01*
X71540000Y-77000000D02*
X71040000Y-76500000D01*
X71740000Y-70590000D02*
X72050000Y-70590000D01*
X71740000Y-79410000D02*
X71740000Y-70590000D01*
X72050000Y-79410000D02*
X71740000Y-79410000D01*
X76260000Y-70590000D02*
X75950000Y-70590000D01*
X76260000Y-70590000D02*
X76260000Y-79410000D01*
X76260000Y-79410000D02*
X75950000Y-79410000D01*
%TO.C,C18*%
X143765000Y-98473752D02*
X143765000Y-97951248D01*
X145235000Y-98473752D02*
X145235000Y-97951248D01*
%TO.C,C13*%
X117023752Y-102385000D02*
X116501248Y-102385000D01*
X117023752Y-103855000D02*
X116501248Y-103855000D01*
%TO.C,IR_SENSORS1*%
X119290000Y-129110000D02*
X119290000Y-131610000D01*
X119290000Y-131610000D02*
X121790000Y-131610000D01*
X119590000Y-127290000D02*
X119590000Y-131310000D01*
X119590000Y-129000000D02*
X120090000Y-129000000D01*
X119590000Y-129810000D02*
X120590000Y-129810000D01*
X119590000Y-131310000D02*
X142310000Y-131310000D01*
X120090000Y-127790000D02*
X141810000Y-127790000D01*
X120090000Y-129000000D02*
X120090000Y-127790000D01*
X120590000Y-129810000D02*
X120590000Y-131310000D01*
X141310000Y-129810000D02*
X141310000Y-131310000D01*
X141810000Y-127790000D02*
X141810000Y-129000000D01*
X141810000Y-129000000D02*
X142310000Y-129000000D01*
X142310000Y-127290000D02*
X119590000Y-127290000D01*
X142310000Y-129810000D02*
X141310000Y-129810000D01*
X142310000Y-131310000D02*
X142310000Y-127290000D01*
%TO.C,C11*%
X189065000Y-121001248D02*
X189065000Y-121523752D01*
X190535000Y-121001248D02*
X190535000Y-121523752D01*
%TO.C,C2*%
X92240000Y-71038748D02*
X92240000Y-71561252D01*
X93710000Y-71038748D02*
X93710000Y-71561252D01*
%TO.C,CONTROL_PWR1*%
X70725000Y-91100000D02*
X70725000Y-97300000D01*
X70725000Y-97300000D02*
X78625000Y-97300000D01*
X75125000Y-93850000D02*
X70725000Y-93850000D01*
X75125000Y-93850000D02*
X75125000Y-94550000D01*
X75125000Y-94550000D02*
X70725000Y-94550000D01*
X76975000Y-92300000D02*
X78625000Y-92300000D01*
X76975000Y-92400000D02*
X76975000Y-92300000D01*
X76975000Y-96100000D02*
X76975000Y-96000000D01*
X78625000Y-91100000D02*
X70725000Y-91100000D01*
X78625000Y-92300000D02*
X78625000Y-91100000D01*
X78625000Y-96100000D02*
X76975000Y-96100000D01*
X78625000Y-97300000D02*
X78625000Y-96100000D01*
X78925000Y-90800000D02*
X77925000Y-90800000D01*
X78925000Y-90800000D02*
X78925000Y-91800000D01*
X75045000Y-91725000D02*
X72845000Y-91725000D01*
X72845000Y-92925000D01*
X75045000Y-92925000D01*
X75045000Y-91725000D01*
X75045000Y-95475000D02*
X72845000Y-95475000D01*
X72845000Y-96675000D01*
X75045000Y-96675000D01*
X75045000Y-95475000D01*
%TO.C,LOADCELL1*%
X73490000Y-104552500D02*
X73490000Y-107052500D01*
X73790000Y-104852500D02*
X73790000Y-117572500D01*
X73790000Y-117572500D02*
X77810000Y-117572500D01*
X75290000Y-104852500D02*
X75290000Y-105852500D01*
X75290000Y-105852500D02*
X73790000Y-105852500D01*
X75290000Y-116572500D02*
X73790000Y-116572500D01*
X75290000Y-117572500D02*
X75290000Y-116572500D01*
X75990000Y-104552500D02*
X73490000Y-104552500D01*
X76100000Y-104852500D02*
X76100000Y-105352500D01*
X76100000Y-105352500D02*
X77310000Y-105352500D01*
X76100000Y-117072500D02*
X76100000Y-117572500D01*
X77310000Y-105352500D02*
X77310000Y-117072500D01*
X77310000Y-117072500D02*
X76100000Y-117072500D01*
X77810000Y-104852500D02*
X73790000Y-104852500D01*
X77810000Y-117572500D02*
X77810000Y-104852500D01*
%TO.C,MASTER_MCU1*%
X130290000Y-75510000D02*
X130290000Y-111190000D01*
X130290000Y-111190000D02*
X135590000Y-111190000D01*
X131940000Y-75510000D02*
X130290000Y-75510000D01*
X135590000Y-75510000D02*
X133940000Y-75510000D01*
X135590000Y-111190000D02*
X135590000Y-75510000D01*
X133940000Y-75510000D02*
G75*
G02*
X131940000Y-75510000I-1000000J0D01*
G01*
%TO.C,POWER_USB1*%
X92820000Y-50590000D02*
X105140000Y-50590000D01*
X92820000Y-58950000D02*
X92820000Y-50590000D01*
X92820000Y-63050000D02*
X92820000Y-67310000D01*
X92820000Y-67310000D02*
X105140000Y-67310000D01*
X97230000Y-68030000D02*
X98230000Y-68030000D01*
X97730000Y-67530000D02*
X97230000Y-68030000D01*
X98230000Y-68030000D02*
X97730000Y-67530000D01*
X105140000Y-50590000D02*
X105140000Y-58950000D01*
X105140000Y-67310000D02*
X105140000Y-63050000D01*
%TO.C,ICSP_SLAVE1*%
X156445000Y-68860000D02*
X156445000Y-71360000D01*
X156445000Y-71360000D02*
X158945000Y-71360000D01*
X156745000Y-67040000D02*
X156745000Y-71060000D01*
X156745000Y-68750000D02*
X157245000Y-68750000D01*
X156745000Y-69560000D02*
X157745000Y-69560000D01*
X156745000Y-71060000D02*
X174465000Y-71060000D01*
X157245000Y-67540000D02*
X173965000Y-67540000D01*
X157245000Y-68750000D02*
X157245000Y-67540000D01*
X157745000Y-69560000D02*
X157745000Y-71060000D01*
X173465000Y-69560000D02*
X173465000Y-71060000D01*
X173965000Y-67540000D02*
X173965000Y-68750000D01*
X173965000Y-68750000D02*
X174465000Y-68750000D01*
X174465000Y-67040000D02*
X156745000Y-67040000D01*
X174465000Y-69560000D02*
X173465000Y-69560000D01*
X174465000Y-71060000D02*
X174465000Y-67040000D01*
%TO.C,C36*%
X199420000Y-102000000D02*
G75*
G02*
X194180000Y-102000000I-2620000J0D01*
G01*
X194180000Y-102000000D02*
G75*
G02*
X199420000Y-102000000I2620000J0D01*
G01*
%TO.C,RIGHT_MOTOR1*%
X167890000Y-114490000D02*
X167890000Y-116990000D01*
X168190000Y-114790000D02*
X168190000Y-132510000D01*
X168190000Y-132510000D02*
X172210000Y-132510000D01*
X169690000Y-114790000D02*
X169690000Y-115790000D01*
X169690000Y-115790000D02*
X168190000Y-115790000D01*
X169690000Y-131510000D02*
X168190000Y-131510000D01*
X169690000Y-132510000D02*
X169690000Y-131510000D01*
X170390000Y-114490000D02*
X167890000Y-114490000D01*
X170500000Y-114790000D02*
X170500000Y-115290000D01*
X170500000Y-115290000D02*
X171710000Y-115290000D01*
X170500000Y-132010000D02*
X170500000Y-132510000D01*
X171710000Y-115290000D02*
X171710000Y-132010000D01*
X171710000Y-132010000D02*
X170500000Y-132010000D01*
X172210000Y-114790000D02*
X168190000Y-114790000D01*
X172210000Y-132510000D02*
X172210000Y-114790000D01*
%TO.C,AMS1117-5V2*%
X83325000Y-80790000D02*
X87085000Y-80790000D01*
X83325000Y-87610000D02*
X87085000Y-87610000D01*
X87085000Y-80790000D02*
X87085000Y-82050000D01*
X87085000Y-87610000D02*
X87085000Y-86350000D01*
X82045000Y-80890000D02*
X81805000Y-80560000D01*
X82285000Y-80560000D01*
X82045000Y-80890000D01*
G36*
X82045000Y-80890000D02*
G01*
X81805000Y-80560000D01*
X82285000Y-80560000D01*
X82045000Y-80890000D01*
G37*
%TO.C,C6*%
X91565000Y-105061252D02*
X91565000Y-104538748D01*
X93035000Y-105061252D02*
X93035000Y-104538748D01*
%TO.C,ADC1*%
X99000000Y-100390000D02*
X97050000Y-100390000D01*
X99000000Y-100390000D02*
X100950000Y-100390000D01*
X99000000Y-110510000D02*
X97050000Y-110510000D01*
X99000000Y-110510000D02*
X100950000Y-110510000D01*
X96300000Y-100445000D02*
X96060000Y-100115000D01*
X96540000Y-100115000D01*
X96300000Y-100445000D01*
G36*
X96300000Y-100445000D02*
G01*
X96060000Y-100115000D01*
X96540000Y-100115000D01*
X96300000Y-100445000D01*
G37*
%TO.C,C16*%
X143765000Y-101988748D02*
X143765000Y-102511252D01*
X145235000Y-101988748D02*
X145235000Y-102511252D01*
%TO.C,RESET_02*%
X178530000Y-79850000D02*
X178530000Y-77650000D01*
X184150000Y-75630000D02*
X179150000Y-75630000D01*
X184150000Y-81870000D02*
X179150000Y-81870000D01*
X184770000Y-77650000D02*
X184770000Y-79850000D01*
X183400000Y-78750000D02*
G75*
G02*
X179900000Y-78750000I-1750000J0D01*
G01*
X179900000Y-78750000D02*
G75*
G02*
X183400000Y-78750000I1750000J0D01*
G01*
%TO.C,C24*%
X104815000Y-103998752D02*
X104815000Y-103476248D01*
X106285000Y-103998752D02*
X106285000Y-103476248D01*
%TO.C,FB1*%
X140713748Y-97790000D02*
X141236252Y-97790000D01*
X140713748Y-99210000D02*
X141236252Y-99210000D01*
%TO.C,MOTOR_PWR1*%
X201580000Y-74760000D02*
X211620000Y-74760000D01*
X201580000Y-85160000D02*
X201580000Y-74760000D01*
X204600000Y-85160000D02*
X204600000Y-74760000D01*
X209500000Y-85160000D02*
X209500000Y-74760000D01*
X211000000Y-85160000D02*
X211000000Y-74760000D01*
X211620000Y-74760000D02*
X211620000Y-82200000D01*
X211620000Y-82800000D02*
X211620000Y-85160000D01*
X211620000Y-85160000D02*
X201580000Y-85160000D01*
X212230000Y-82940000D02*
X211620000Y-82500000D01*
X212230000Y-82060000D01*
X212230000Y-82940000D01*
G36*
X212230000Y-82940000D02*
G01*
X211620000Y-82500000D01*
X212230000Y-82060000D01*
X212230000Y-82940000D01*
G37*
%TO.C,C8*%
X180701248Y-105965000D02*
X181223752Y-105965000D01*
X180701248Y-107435000D02*
X181223752Y-107435000D01*
%TO.C,Q3*%
X118655000Y-114730000D02*
X118655000Y-118330000D01*
X118666522Y-114691522D02*
G75*
G02*
X123105001Y-116530000I1838478J-1838478D01*
G01*
X123105000Y-116530000D02*
G75*
G02*
X118666522Y-118368478I-2600000J0D01*
G01*
%TO.C,C41*%
X150723752Y-97465000D02*
X150201248Y-97465000D01*
X150723752Y-98935000D02*
X150201248Y-98935000D01*
%TO.C,LM2596-12V1*%
X187890000Y-74390000D02*
X198110000Y-74390000D01*
X187890000Y-75770000D02*
X198110000Y-75770000D01*
X187890000Y-79010000D02*
X187890000Y-74390000D01*
X188440000Y-79010000D02*
X187890000Y-79010000D01*
X190815000Y-79010000D02*
X190815000Y-81646000D01*
X191150000Y-74390000D02*
X191150000Y-75770000D01*
X191785000Y-79010000D02*
X191785000Y-81646000D01*
X191840000Y-79010000D02*
X190760000Y-79010000D01*
X194215000Y-79010000D02*
X194215000Y-81646000D01*
X194850000Y-74390000D02*
X194850000Y-75770000D01*
X195185000Y-79010000D02*
X195185000Y-81646000D01*
X195240000Y-79010000D02*
X194160000Y-79010000D01*
X198110000Y-74390000D02*
X198110000Y-79010000D01*
X198110000Y-79010000D02*
X197560000Y-79010000D01*
%TO.C,C39*%
X171927500Y-101676248D02*
X171927500Y-102198752D01*
X173397500Y-101676248D02*
X173397500Y-102198752D01*
%TO.C,C21*%
X175927500Y-101676248D02*
X175927500Y-102198752D01*
X177397500Y-101676248D02*
X177397500Y-102198752D01*
%TO.C,C5*%
X106023752Y-96765000D02*
X105501248Y-96765000D01*
X106023752Y-98235000D02*
X105501248Y-98235000D01*
%TO.C,Q1*%
X100070000Y-91350000D02*
X96470000Y-91350000D01*
X98270000Y-95800000D02*
G75*
G02*
X96431522Y-91361522I0J2600000D01*
G01*
X100108478Y-91361522D02*
G75*
G02*
X98270000Y-95800001I-1838478J-1838478D01*
G01*
%TO.C,D4*%
X203000000Y-90900000D02*
X203000000Y-91810000D01*
X203000000Y-102460000D02*
X203000000Y-101550000D01*
X205720000Y-93235000D02*
X200280000Y-93235000D01*
X205720000Y-93355000D02*
X200280000Y-93355000D01*
X205720000Y-93475000D02*
X200280000Y-93475000D01*
X205720000Y-91810000D02*
X200280000Y-91810000D01*
X200280000Y-101550000D01*
X205720000Y-101550000D01*
X205720000Y-91810000D01*
%TO.C,ICSP_MASTER1*%
X123775000Y-68860000D02*
X123775000Y-71360000D01*
X123775000Y-71360000D02*
X126275000Y-71360000D01*
X124075000Y-67040000D02*
X124075000Y-71060000D01*
X124075000Y-68750000D02*
X124575000Y-68750000D01*
X124075000Y-69560000D02*
X125075000Y-69560000D01*
X124075000Y-71060000D02*
X141795000Y-71060000D01*
X124575000Y-67540000D02*
X141295000Y-67540000D01*
X124575000Y-68750000D02*
X124575000Y-67540000D01*
X125075000Y-69560000D02*
X125075000Y-71060000D01*
X140795000Y-69560000D02*
X140795000Y-71060000D01*
X141295000Y-67540000D02*
X141295000Y-68750000D01*
X141295000Y-68750000D02*
X141795000Y-68750000D01*
X141795000Y-67040000D02*
X124075000Y-67040000D01*
X141795000Y-69560000D02*
X140795000Y-69560000D01*
X141795000Y-71060000D02*
X141795000Y-67040000D01*
%TO.C,C37*%
X139265000Y-94011252D02*
X139265000Y-93488748D01*
X140735000Y-94011252D02*
X140735000Y-93488748D01*
%TO.C,UART_DBG_SLV1*%
X151750000Y-59100000D02*
X151750000Y-61860000D01*
X151750000Y-61860000D02*
X162130000Y-61860000D01*
X151860000Y-64520000D02*
X151860000Y-63250000D01*
X152700000Y-62090000D02*
X152700000Y-61860000D01*
X153130000Y-64520000D02*
X151860000Y-64520000D01*
X153560000Y-62090000D02*
X153560000Y-61860000D01*
X154400000Y-61860000D02*
X154400000Y-59100000D01*
X155240000Y-53100000D02*
X156100000Y-53100000D01*
X155240000Y-59100000D02*
X155240000Y-53100000D01*
X155240000Y-62172642D02*
X155240000Y-61860000D01*
X156100000Y-53100000D02*
X156100000Y-59100000D01*
X156100000Y-62172642D02*
X156100000Y-61860000D01*
X156940000Y-61860000D02*
X156940000Y-59100000D01*
X157780000Y-53100000D02*
X158640000Y-53100000D01*
X157780000Y-59100000D02*
X157780000Y-53100000D01*
X157780000Y-62172642D02*
X157780000Y-61860000D01*
X158640000Y-53100000D02*
X158640000Y-59100000D01*
X158640000Y-62172642D02*
X158640000Y-61860000D01*
X159480000Y-61860000D02*
X159480000Y-59100000D01*
X160320000Y-53100000D02*
X161180000Y-53100000D01*
X160320000Y-59100000D02*
X160320000Y-53100000D01*
X160320000Y-62172642D02*
X160320000Y-61860000D01*
X161180000Y-53100000D02*
X161180000Y-59100000D01*
X161180000Y-62172642D02*
X161180000Y-61860000D01*
X162130000Y-59100000D02*
X151750000Y-59100000D01*
X162130000Y-61860000D02*
X162130000Y-59100000D01*
X152700000Y-59100000D02*
X153560000Y-59100000D01*
X153560000Y-53100000D01*
X152700000Y-53100000D01*
X152700000Y-59100000D01*
G36*
X152700000Y-59100000D02*
G01*
X153560000Y-59100000D01*
X153560000Y-53100000D01*
X152700000Y-53100000D01*
X152700000Y-59100000D01*
G37*
%TO.C,C1*%
X78015000Y-71761252D02*
X78015000Y-71238748D01*
X79485000Y-71761252D02*
X79485000Y-71238748D01*
%TO.C,R1*%
X96965000Y-71010436D02*
X96965000Y-71464564D01*
X98435000Y-71010436D02*
X98435000Y-71464564D01*
%TO.C,R5*%
X83780000Y-111880000D02*
X87620000Y-111880000D01*
X83780000Y-113720000D02*
X87620000Y-113720000D01*
%TO.C,Q6*%
X146150000Y-114730000D02*
X146150000Y-118330000D01*
X146161522Y-114691522D02*
G75*
G02*
X150600001Y-116530000I1838478J-1838478D01*
G01*
X150600000Y-116530000D02*
G75*
G02*
X146161522Y-118368478I-2600000J0D01*
G01*
%TO.C,LEFT_MOTOR1*%
X158790000Y-114490000D02*
X158790000Y-116990000D01*
X159090000Y-114790000D02*
X159090000Y-132510000D01*
X159090000Y-132510000D02*
X163110000Y-132510000D01*
X160590000Y-114790000D02*
X160590000Y-115790000D01*
X160590000Y-115790000D02*
X159090000Y-115790000D01*
X160590000Y-131510000D02*
X159090000Y-131510000D01*
X160590000Y-132510000D02*
X160590000Y-131510000D01*
X161290000Y-114490000D02*
X158790000Y-114490000D01*
X161400000Y-114790000D02*
X161400000Y-115290000D01*
X161400000Y-115290000D02*
X162610000Y-115290000D01*
X161400000Y-132010000D02*
X161400000Y-132510000D01*
X162610000Y-115290000D02*
X162610000Y-132010000D01*
X162610000Y-132010000D02*
X161400000Y-132010000D01*
X163110000Y-114790000D02*
X159090000Y-114790000D01*
X163110000Y-132510000D02*
X163110000Y-114790000D01*
%TO.C,C15*%
X124765000Y-91801248D02*
X124765000Y-92323752D01*
X126235000Y-91801248D02*
X126235000Y-92323752D01*
%TO.C,RESET_01*%
X105380000Y-88000000D02*
X105380000Y-83000000D01*
X107400000Y-82380000D02*
X109600000Y-82380000D01*
X109600000Y-88620000D02*
X107400000Y-88620000D01*
X111620000Y-88000000D02*
X111620000Y-83000000D01*
X110250000Y-85500000D02*
G75*
G02*
X106750000Y-85500000I-1750000J0D01*
G01*
X106750000Y-85500000D02*
G75*
G02*
X110250000Y-85500000I1750000J0D01*
G01*
%TO.C,RN1*%
X133690000Y-121490000D02*
X133690000Y-124110000D01*
X133690000Y-124110000D02*
X149090000Y-124110000D01*
X136310000Y-121490000D02*
X136310000Y-124110000D01*
X149090000Y-121490000D02*
X133690000Y-121490000D01*
X149090000Y-124110000D02*
X149090000Y-121490000D01*
%TO.C,R20*%
X189227064Y-95265000D02*
X188772936Y-95265000D01*
X189227064Y-96735000D02*
X188772936Y-96735000D01*
%TO.C,L1*%
X188950000Y-86800000D02*
X195550000Y-86800000D01*
X188950000Y-88500000D02*
X188950000Y-86800000D01*
X188950000Y-93200000D02*
X188950000Y-91500000D01*
X195550000Y-86800000D02*
X195550000Y-88500000D01*
X195550000Y-91500000D02*
X195550000Y-93200000D01*
X195550000Y-93200000D02*
X188950000Y-93200000D01*
%TO.C,R3*%
X88240000Y-92080000D02*
X92080000Y-92080000D01*
X88240000Y-93920000D02*
X92080000Y-93920000D01*
%TO.C,D1*%
X96740000Y-75125000D02*
X96740000Y-77985000D01*
X96740000Y-77985000D02*
X98660000Y-77985000D01*
X98660000Y-77985000D02*
X98660000Y-75125000D01*
%TO.C,UART_DBG_MST1*%
X117250000Y-59100000D02*
X117250000Y-61860000D01*
X117250000Y-61860000D02*
X127630000Y-61860000D01*
X117360000Y-64520000D02*
X117360000Y-63250000D01*
X118200000Y-62090000D02*
X118200000Y-61860000D01*
X118630000Y-64520000D02*
X117360000Y-64520000D01*
X119060000Y-62090000D02*
X119060000Y-61860000D01*
X119900000Y-61860000D02*
X119900000Y-59100000D01*
X120740000Y-53100000D02*
X121600000Y-53100000D01*
X120740000Y-59100000D02*
X120740000Y-53100000D01*
X120740000Y-62172642D02*
X120740000Y-61860000D01*
X121600000Y-53100000D02*
X121600000Y-59100000D01*
X121600000Y-62172642D02*
X121600000Y-61860000D01*
X122440000Y-61860000D02*
X122440000Y-59100000D01*
X123280000Y-53100000D02*
X124140000Y-53100000D01*
X123280000Y-59100000D02*
X123280000Y-53100000D01*
X123280000Y-62172642D02*
X123280000Y-61860000D01*
X124140000Y-53100000D02*
X124140000Y-59100000D01*
X124140000Y-62172642D02*
X124140000Y-61860000D01*
X124980000Y-61860000D02*
X124980000Y-59100000D01*
X125820000Y-53100000D02*
X126680000Y-53100000D01*
X125820000Y-59100000D02*
X125820000Y-53100000D01*
X125820000Y-62172642D02*
X125820000Y-61860000D01*
X126680000Y-53100000D02*
X126680000Y-59100000D01*
X126680000Y-62172642D02*
X126680000Y-61860000D01*
X127630000Y-59100000D02*
X117250000Y-59100000D01*
X127630000Y-61860000D02*
X127630000Y-59100000D01*
X118200000Y-59100000D02*
X119060000Y-59100000D01*
X119060000Y-53100000D01*
X118200000Y-53100000D01*
X118200000Y-59100000D01*
G36*
X118200000Y-59100000D02*
G01*
X119060000Y-59100000D01*
X119060000Y-53100000D01*
X118200000Y-53100000D01*
X118200000Y-59100000D01*
G37*
%TO.C,RN2*%
X110050000Y-121490000D02*
X110050000Y-124110000D01*
X110050000Y-124110000D02*
X125450000Y-124110000D01*
X112670000Y-121490000D02*
X112670000Y-124110000D01*
X125450000Y-121490000D02*
X110050000Y-121490000D01*
X125450000Y-124110000D02*
X125450000Y-121490000D01*
%TO.C,R14*%
X144240000Y-84200000D02*
X145010000Y-84200000D01*
X152320000Y-84200000D02*
X151550000Y-84200000D01*
X151550000Y-85570000D02*
X145010000Y-85570000D01*
X145010000Y-82830000D01*
X151550000Y-82830000D01*
X151550000Y-85570000D01*
%TO.C,D5*%
X183040000Y-93240000D02*
X183040000Y-96100000D01*
X184960000Y-93240000D02*
X183040000Y-93240000D01*
X184960000Y-96100000D02*
X184960000Y-93240000D01*
%TO.C,DRIVER1*%
X191100000Y-108215000D02*
X188450000Y-108215000D01*
X191100000Y-108215000D02*
X193750000Y-108215000D01*
X191100000Y-116635000D02*
X188450000Y-116635000D01*
X191100000Y-116635000D02*
X193750000Y-116635000D01*
X194890000Y-116790000D02*
X194410000Y-116790000D01*
X194650000Y-116460000D01*
X194890000Y-116790000D01*
G36*
X194890000Y-116790000D02*
G01*
X194410000Y-116790000D01*
X194650000Y-116460000D01*
X194890000Y-116790000D01*
G37*
%TO.C,Y2*%
X153865000Y-103760000D02*
X153865000Y-97360000D01*
X158735000Y-97360000D02*
X158735000Y-103760000D01*
X153865000Y-97360000D02*
G75*
G02*
X158735000Y-97360000I2435000J0D01*
G01*
X158735000Y-103760000D02*
G75*
G02*
X153865000Y-103760000I-2435000J0D01*
G01*
%TO.C,Y1*%
X121065000Y-103760000D02*
X121065000Y-97360000D01*
X125935000Y-97360000D02*
X125935000Y-103760000D01*
X121065000Y-97360000D02*
G75*
G02*
X125935000Y-97360000I2435000J0D01*
G01*
X125935000Y-103760000D02*
G75*
G02*
X121065000Y-103760000I-2435000J0D01*
G01*
%TO.C,C3*%
X77083750Y-83661252D02*
X77083750Y-83138748D01*
X78553750Y-83661252D02*
X78553750Y-83138748D01*
%TO.C,C19*%
X115730000Y-82130000D02*
X118470000Y-82130000D01*
X115730000Y-89870000D02*
X115730000Y-82130000D01*
X118470000Y-82130000D02*
X118470000Y-89870000D01*
X118470000Y-89870000D02*
X115730000Y-89870000D01*
%TO.C,R2*%
X96965000Y-81672936D02*
X96965000Y-82127064D01*
X98435000Y-81672936D02*
X98435000Y-82127064D01*
%TO.C,C40*%
X178201248Y-96565000D02*
X178723752Y-96565000D01*
X178201248Y-98035000D02*
X178723752Y-98035000D01*
%TO.C,C7*%
X91365000Y-111423752D02*
X91365000Y-110901248D01*
X92835000Y-111423752D02*
X92835000Y-110901248D01*
%TO.C,FB2*%
X173276248Y-96490000D02*
X173798752Y-96490000D01*
X173276248Y-97910000D02*
X173798752Y-97910000D01*
%TO.C,D2*%
X96740000Y-85275000D02*
X96740000Y-88135000D01*
X96740000Y-88135000D02*
X98660000Y-88135000D01*
X98660000Y-88135000D02*
X98660000Y-85275000D01*
%TO.C,C34*%
X187620000Y-88100000D02*
G75*
G02*
X182380000Y-88100000I-2620000J0D01*
G01*
X182380000Y-88100000D02*
G75*
G02*
X187620000Y-88100000I2620000J0D01*
G01*
%TO.C,R21*%
X180540000Y-72480000D02*
X184380000Y-72480000D01*
X180540000Y-74320000D02*
X184380000Y-74320000D01*
%TO.C,C35*%
X193320000Y-102000000D02*
G75*
G02*
X188080000Y-102000000I-2620000J0D01*
G01*
X188080000Y-102000000D02*
G75*
G02*
X193320000Y-102000000I2620000J0D01*
G01*
%TO.C,AMS1117-3V3*%
X83150000Y-69840000D02*
X86910000Y-69840000D01*
X83150000Y-76660000D02*
X86910000Y-76660000D01*
X86910000Y-69840000D02*
X86910000Y-71100000D01*
X86910000Y-76660000D02*
X86910000Y-75400000D01*
X81870000Y-69940000D02*
X81630000Y-69610000D01*
X82110000Y-69610000D01*
X81870000Y-69940000D01*
G36*
X81870000Y-69940000D02*
G01*
X81630000Y-69610000D01*
X82110000Y-69610000D01*
X81870000Y-69940000D01*
G37*
%TO.C,R15*%
X144280000Y-76800000D02*
X145050000Y-76800000D01*
X152360000Y-76800000D02*
X151590000Y-76800000D01*
X151590000Y-78170000D02*
X145050000Y-78170000D01*
X145050000Y-75430000D01*
X151590000Y-75430000D01*
X151590000Y-78170000D01*
%TO.C,C9*%
X180801248Y-103565000D02*
X181323752Y-103565000D01*
X180801248Y-105035000D02*
X181323752Y-105035000D01*
%TO.C,Q4*%
X127820000Y-114730000D02*
X127820000Y-118330000D01*
X127831522Y-114691522D02*
G75*
G02*
X132270001Y-116530000I1838478J-1838478D01*
G01*
X132270000Y-116530000D02*
G75*
G02*
X127831522Y-118368478I-2600000J0D01*
G01*
%TO.C,C38*%
X172730000Y-75230000D02*
X175470000Y-75230000D01*
X172730000Y-82970000D02*
X172730000Y-75230000D01*
X175470000Y-75230000D02*
X175470000Y-82970000D01*
X175470000Y-82970000D02*
X172730000Y-82970000D01*
%TO.C,Q5*%
X136985000Y-114730000D02*
X136985000Y-118330000D01*
X136996522Y-114691522D02*
G75*
G02*
X141435001Y-116530000I1838478J-1838478D01*
G01*
X141435000Y-116530000D02*
G75*
G02*
X136996522Y-118368478I-2600000J0D01*
G01*
%TO.C,Q2*%
X109490000Y-114730000D02*
X109490000Y-118330000D01*
X109501522Y-114691522D02*
G75*
G02*
X113940001Y-116530000I1838478J-1838478D01*
G01*
X113940000Y-116530000D02*
G75*
G02*
X109501522Y-118368478I-2600000J0D01*
G01*
%TO.C,C42*%
X150723752Y-102465000D02*
X150201248Y-102465000D01*
X150723752Y-103935000D02*
X150201248Y-103935000D01*
%TO.C,C14*%
X156365000Y-91338748D02*
X156365000Y-91861252D01*
X157835000Y-91338748D02*
X157835000Y-91861252D01*
%TO.C,C17*%
X139265000Y-102038748D02*
X139265000Y-102561252D01*
X140735000Y-102038748D02*
X140735000Y-102561252D01*
%TO.C,SW2*%
X197490000Y-67440000D02*
X206310000Y-67440000D01*
X197490000Y-67750000D02*
X197490000Y-67440000D01*
X197490000Y-71960000D02*
X197490000Y-71650000D01*
X199400000Y-66740000D02*
X199900000Y-67240000D01*
X199900000Y-67240000D02*
X200400000Y-66740000D01*
X200400000Y-66740000D02*
X199400000Y-66740000D01*
X206310000Y-67440000D02*
X206310000Y-67750000D01*
X206310000Y-71960000D02*
X197490000Y-71960000D01*
X206310000Y-71960000D02*
X206310000Y-71650000D01*
%TO.C,C12*%
X117061252Y-97385000D02*
X116538748Y-97385000D01*
X117061252Y-98855000D02*
X116538748Y-98855000D01*
%TO.C,C10*%
X185365000Y-121038748D02*
X185365000Y-121561252D01*
X186835000Y-121038748D02*
X186835000Y-121561252D01*
%TO.C,R4*%
X92080000Y-95080000D02*
X88240000Y-95080000D01*
X92080000Y-96920000D02*
X88240000Y-96920000D01*
%TO.C,C4*%
X92165000Y-81738748D02*
X92165000Y-82261252D01*
X93635000Y-81738748D02*
X93635000Y-82261252D01*
%TO.C,R6*%
X83620000Y-107680000D02*
X87460000Y-107680000D01*
X83620000Y-109520000D02*
X87460000Y-109520000D01*
%TD*%
M02*
