%TF.GenerationSoftware,KiCad,Pcbnew,9.0.4*%
%TF.CreationDate,2025-10-15T14:59:06+07:00*%
%TF.ProjectId,mainboard-atmega328P-ver2,6d61696e-626f-4617-9264-2d61746d6567,rev?*%
%TF.SameCoordinates,Original*%
%TF.FileFunction,Paste,Top*%
%TF.FilePolarity,Positive*%
%FSLAX46Y46*%
G04 Gerber Fmt 4.6, Leading zero omitted, Abs format (unit mm)*
G04 Created by KiCad (PCBNEW 9.0.4) date 2025-10-15 14:59:06*
%MOMM*%
%LPD*%
G01*
G04 APERTURE LIST*
G04 Aperture macros list*
%AMRoundRect*
0 Rectangle with rounded corners*
0 $1 Rounding radius*
0 $2 $3 $4 $5 $6 $7 $8 $9 X,Y pos of 4 corners*
0 Add a 4 corners polygon primitive as box body*
4,1,4,$2,$3,$4,$5,$6,$7,$8,$9,$2,$3,0*
0 Add four circle primitives for the rounded corners*
1,1,$1+$1,$2,$3*
1,1,$1+$1,$4,$5*
1,1,$1+$1,$6,$7*
1,1,$1+$1,$8,$9*
0 Add four rect primitives between the rounded corners*
20,1,$1+$1,$2,$3,$4,$5,0*
20,1,$1+$1,$4,$5,$6,$7,0*
20,1,$1+$1,$6,$7,$8,$9,0*
20,1,$1+$1,$8,$9,$2,$3,0*%
G04 Aperture macros list end*
%ADD10RoundRect,0.250000X0.475000X-0.337500X0.475000X0.337500X-0.475000X0.337500X-0.475000X-0.337500X0*%
%ADD11RoundRect,0.250000X0.337500X0.475000X-0.337500X0.475000X-0.337500X-0.475000X0.337500X-0.475000X0*%
%ADD12RoundRect,0.250000X-0.475000X0.337500X-0.475000X-0.337500X0.475000X-0.337500X0.475000X0.337500X0*%
%ADD13RoundRect,0.250000X-0.475000X0.250000X-0.475000X-0.250000X0.475000X-0.250000X0.475000X0.250000X0*%
%ADD14RoundRect,0.375000X-0.625000X-0.375000X0.625000X-0.375000X0.625000X0.375000X-0.625000X0.375000X0*%
%ADD15RoundRect,0.500000X-0.500000X-1.400000X0.500000X-1.400000X0.500000X1.400000X-0.500000X1.400000X0*%
%ADD16RoundRect,0.150000X-0.825000X-0.150000X0.825000X-0.150000X0.825000X0.150000X-0.825000X0.150000X0*%
%ADD17RoundRect,0.250000X-0.325000X-0.450000X0.325000X-0.450000X0.325000X0.450000X-0.325000X0.450000X0*%
%ADD18RoundRect,0.250000X-0.337500X-0.475000X0.337500X-0.475000X0.337500X0.475000X-0.337500X0.475000X0*%
%ADD19RoundRect,0.250000X0.475000X-0.250000X0.475000X0.250000X-0.475000X0.250000X-0.475000X-0.250000X0*%
%ADD20RoundRect,0.250000X-0.450000X0.262500X-0.450000X-0.262500X0.450000X-0.262500X0.450000X0.262500X0*%
%ADD21RoundRect,0.250000X0.350000X0.450000X-0.350000X0.450000X-0.350000X-0.450000X0.350000X-0.450000X0*%
%ADD22R,1.500000X2.400000*%
%ADD23RoundRect,0.250000X0.450000X-0.325000X0.450000X0.325000X-0.450000X0.325000X-0.450000X-0.325000X0*%
%ADD24RoundRect,0.250000X-0.450000X0.325000X-0.450000X-0.325000X0.450000X-0.325000X0.450000X0.325000X0*%
%ADD25RoundRect,0.100000X0.850000X0.100000X-0.850000X0.100000X-0.850000X-0.100000X0.850000X-0.100000X0*%
%ADD26RoundRect,0.250000X-0.450000X0.350000X-0.450000X-0.350000X0.450000X-0.350000X0.450000X0.350000X0*%
G04 APERTURE END LIST*
D10*
%TO.C,C20*%
X172000000Y-94500000D03*
X172000000Y-92425000D03*
%TD*%
%TO.C,C18*%
X144500000Y-99250000D03*
X144500000Y-97175000D03*
%TD*%
D11*
%TO.C,C13*%
X117800000Y-103120000D03*
X115725000Y-103120000D03*
%TD*%
D12*
%TO.C,C11*%
X189800000Y-120225000D03*
X189800000Y-122300000D03*
%TD*%
D13*
%TO.C,C2*%
X92975000Y-70350000D03*
X92975000Y-72250000D03*
%TD*%
D14*
%TO.C,AMS1117-5V2*%
X82025000Y-81900000D03*
X82025000Y-84200000D03*
D15*
X88325000Y-84200000D03*
D14*
X82025000Y-86500000D03*
%TD*%
D10*
%TO.C,C6*%
X92300000Y-105837500D03*
X92300000Y-103762500D03*
%TD*%
D16*
%TO.C,ADC1*%
X96525000Y-101005000D03*
X96525000Y-102275000D03*
X96525000Y-103545000D03*
X96525000Y-104815000D03*
X96525000Y-106085000D03*
X96525000Y-107355000D03*
X96525000Y-108625000D03*
X96525000Y-109895000D03*
X101475000Y-109895000D03*
X101475000Y-108625000D03*
X101475000Y-107355000D03*
X101475000Y-106085000D03*
X101475000Y-104815000D03*
X101475000Y-103545000D03*
X101475000Y-102275000D03*
X101475000Y-101005000D03*
%TD*%
D12*
%TO.C,C16*%
X144500000Y-101212500D03*
X144500000Y-103287500D03*
%TD*%
D10*
%TO.C,C24*%
X105550000Y-104775000D03*
X105550000Y-102700000D03*
%TD*%
D17*
%TO.C,FB1*%
X139950000Y-98500000D03*
X142000000Y-98500000D03*
%TD*%
D18*
%TO.C,C8*%
X179925000Y-106700000D03*
X182000000Y-106700000D03*
%TD*%
D11*
%TO.C,C41*%
X151500000Y-98200000D03*
X149425000Y-98200000D03*
%TD*%
D12*
%TO.C,C39*%
X172662500Y-100900000D03*
X172662500Y-102975000D03*
%TD*%
%TO.C,C21*%
X176662500Y-100900000D03*
X176662500Y-102975000D03*
%TD*%
D11*
%TO.C,C5*%
X106800000Y-97500000D03*
X104725000Y-97500000D03*
%TD*%
D10*
%TO.C,C37*%
X140000000Y-94787500D03*
X140000000Y-92712500D03*
%TD*%
D19*
%TO.C,C1*%
X78750000Y-72450000D03*
X78750000Y-70550000D03*
%TD*%
D20*
%TO.C,R1*%
X97700000Y-70325000D03*
X97700000Y-72150000D03*
%TD*%
D12*
%TO.C,C15*%
X125500000Y-91025000D03*
X125500000Y-93100000D03*
%TD*%
D21*
%TO.C,R20*%
X190000000Y-96000000D03*
X188000000Y-96000000D03*
%TD*%
D22*
%TO.C,L1*%
X189500000Y-90000000D03*
X195000000Y-90000000D03*
%TD*%
D23*
%TO.C,D1*%
X97700000Y-77150000D03*
X97700000Y-75100000D03*
%TD*%
D24*
%TO.C,D5*%
X184000000Y-94075000D03*
X184000000Y-96125000D03*
%TD*%
D25*
%TO.C,DRIVER1*%
X194600000Y-116000000D03*
X194600000Y-115350000D03*
X194600000Y-114700000D03*
X194600000Y-114050000D03*
X194600000Y-113400000D03*
X194600000Y-112750000D03*
X194600000Y-112100000D03*
X194600000Y-111450000D03*
X194600000Y-110800000D03*
X194600000Y-110150000D03*
X194600000Y-109500000D03*
X194600000Y-108850000D03*
X187600000Y-108850000D03*
X187600000Y-109500000D03*
X187600000Y-110150000D03*
X187600000Y-110800000D03*
X187600000Y-111450000D03*
X187600000Y-112100000D03*
X187600000Y-112750000D03*
X187600000Y-113400000D03*
X187600000Y-114050000D03*
X187600000Y-114700000D03*
X187600000Y-115350000D03*
X187600000Y-116000000D03*
%TD*%
D10*
%TO.C,C3*%
X77818750Y-84437500D03*
X77818750Y-82362500D03*
%TD*%
D26*
%TO.C,R2*%
X97700000Y-80900000D03*
X97700000Y-82900000D03*
%TD*%
D18*
%TO.C,C40*%
X177425000Y-97300000D03*
X179500000Y-97300000D03*
%TD*%
D10*
%TO.C,C7*%
X92100000Y-112200000D03*
X92100000Y-110125000D03*
%TD*%
D17*
%TO.C,FB2*%
X172512500Y-97200000D03*
X174562500Y-97200000D03*
%TD*%
D23*
%TO.C,D2*%
X97700000Y-87300000D03*
X97700000Y-85250000D03*
%TD*%
D14*
%TO.C,AMS1117-3V3*%
X81850000Y-70950000D03*
X81850000Y-73250000D03*
D15*
X88150000Y-73250000D03*
D14*
X81850000Y-75550000D03*
%TD*%
D18*
%TO.C,C9*%
X180025000Y-104300000D03*
X182100000Y-104300000D03*
%TD*%
D11*
%TO.C,C42*%
X151500000Y-103200000D03*
X149425000Y-103200000D03*
%TD*%
D12*
%TO.C,C14*%
X157100000Y-90562500D03*
X157100000Y-92637500D03*
%TD*%
%TO.C,C17*%
X140000000Y-101262500D03*
X140000000Y-103337500D03*
%TD*%
D11*
%TO.C,C12*%
X117837500Y-98120000D03*
X115762500Y-98120000D03*
%TD*%
D12*
%TO.C,C10*%
X186100000Y-120262500D03*
X186100000Y-122337500D03*
%TD*%
%TO.C,C4*%
X92900000Y-80962500D03*
X92900000Y-83037500D03*
%TD*%
M02*
